<?xml version="1.0" encoding="UTF-8" standalone="no"?><!DOCTYPE svg PUBLIC "-//W3C//DTD SVG 1.1//EN" "http://www.w3.org/Graphics/SVG/1.1/DTD/svg11.dtd"><svg width="100%" height="100%" viewBox="0 0 1000 1000" version="1.1" xmlns="http://www.w3.org/2000/svg" xmlns:xlink="http://www.w3.org/1999/xlink" xml:space="preserve" style="fill-rule:evenodd;clip-rule:evenodd;stroke-linejoin:round;stroke-miterlimit:1.41421;"><rect id="outlined" x="0" y="0" width="1000" height="1000" style="fill:none;"/><rect x="0" y="0" width="1000" height="1000" style="fill:#fff;"/><g><g><path d="M192.305,529.252c0,-8.216 -6.319,-17.906 -20.855,-17.906l-42.658,0l0,70.254l44.133,0c14.114,0 20.75,-9.269 20.75,-19.065c0,-9.058 -5.793,-16.01 -13.377,-17.168c6.846,-1.475 12.007,-7.373 12.007,-16.115m-21.592,3.791c0,2.528 -2.001,4.214 -4.213,4.214l-16.431,0l0,-8.216l16.431,0c2.212,0 4.213,1.58 4.213,4.002m1.369,26.438c0,2.633 -1.896,4.424 -4.95,4.424l-17.063,0l0,-8.953l17.063,0c3.054,0 4.95,2.001 4.95,4.529" style="fill:#3281a1;fill-rule:nonzero;"/><path d="M217.794,581.6l21.276,0l0,-27.912l26.122,-42.343l-23.91,0l-12.85,23.699l-13.061,-23.699l-23.909,0l26.332,42.343l0,27.912Z" style="fill:#3281a1;fill-rule:nonzero;"/><path d="M308.25,581.6l21.276,0l0,-51.717l18.749,0l0,-18.538l-58.879,0l0,18.538l18.854,0l0,51.717Z" style="fill:#3281a1;fill-rule:nonzero;"/><path d="M402.307,581.6l21.277,0l0,-70.255l-21.277,0l0,24.858l-25.173,0l0,-24.858l-21.277,0l0,70.255l21.277,0l0,-26.859l25.173,0l0,26.859Z" style="fill:#3281a1;fill-rule:nonzero;"/><path d="M434.958,581.6l53.297,0l0,-18.538l-32.02,0l0,-7.689l31.283,0l0,-18.538l-31.283,0l0,-6.952l32.02,0l0,-18.538l-53.297,0l0,70.255Z" style="fill:#3281a1;fill-rule:nonzero;"/><path d="M561.016,582.864c18.433,0 27.807,-11.165 31.915,-20.539l-18.327,-8.427c-1.791,5.477 -7.268,10.217 -13.588,10.217c-10.216,0 -17.063,-7.794 -17.063,-17.59c0,-9.795 6.847,-17.59 17.063,-17.59c6.32,0 11.797,4.74 13.588,10.217l18.327,-8.531c-4.213,-9.691 -13.482,-20.434 -31.915,-20.434c-22.013,0 -38.655,14.64 -38.655,36.338c0,21.593 16.642,36.339 38.655,36.339" style="fill:#3281a1;fill-rule:nonzero;"/><path d="M669.505,581.6l-25.911,-70.255l-26.754,0l-25.911,70.255l24.121,0l2.528,-8.216l25.279,0l2.527,8.216l24.121,0Zm-32.336,-26.754l-13.904,0l6.952,-22.645l6.952,22.645Z" style="fill:#3281a1;fill-rule:nonzero;"/><path d="M720.483,581.6l20.434,0l0,-70.255l-21.276,0l0,33.284l-24.437,-33.284l-21.908,0l0,70.255l21.276,0l0,-35.601l25.911,35.601Z" style="fill:#3281a1;fill-rule:nonzero;"/><path d="M823.284,581.6l-25.911,-70.255l-26.753,0l-25.911,70.255l24.12,0l2.528,-8.216l25.279,0l2.528,8.216l24.12,0Zm-32.336,-26.754l-13.903,0l6.952,-22.645l6.951,22.645Z" style="fill:#3281a1;fill-rule:nonzero;"/><path d="M827.075,581.6l47.925,0l0,-18.538l-26.648,0l0,-51.717l-21.277,0l0,70.255Z" style="fill:#3281a1;fill-rule:nonzero;"/><path d="M163.656,489.121c18.432,0 27.807,-11.165 31.914,-20.539l-18.327,-8.427c-1.79,5.478 -7.268,10.217 -13.587,10.217c-10.217,0 -17.064,-7.794 -17.064,-17.59c0,-9.795 6.847,-17.59 17.064,-17.59c6.319,0 11.797,4.74 13.587,10.217l18.327,-8.531c-4.213,-9.691 -13.482,-20.434 -31.914,-20.434c-22.014,0 -38.656,14.641 -38.656,36.338c0,21.593 16.642,36.339 38.656,36.339m34.758,-36.339c0,21.593 16.748,36.339 38.445,36.339c21.698,0 38.446,-14.746 38.446,-36.339c0,-21.592 -16.748,-36.338 -38.446,-36.338c-21.697,0 -38.445,14.746 -38.445,36.338m55.298,0c0,9.796 -6.636,17.59 -16.853,17.59c-10.216,0 -16.852,-7.794 -16.852,-17.59c0,-9.795 6.636,-17.59 16.852,-17.59c10.217,0 16.853,7.795 16.853,17.59m76.362,35.075l20.433,0l0,-70.254l-21.276,0l0,33.284l-24.436,-33.284l-21.909,0l0,70.254l21.277,0l0,-35.601l25.911,35.601Zm66.673,1.264c18.432,0 27.807,-11.165 31.914,-20.539l-18.327,-8.427c-1.79,5.478 -7.267,10.217 -13.587,10.217c-10.217,0 -17.064,-7.794 -17.064,-17.59c0,-9.795 6.847,-17.59 17.064,-17.59c6.32,0 11.797,4.74 13.587,10.217l18.327,-8.531c-4.213,-9.691 -13.482,-20.434 -31.914,-20.434c-22.014,0 -38.656,14.641 -38.656,36.338c0,21.593 16.642,36.339 38.656,36.339m38.55,-1.264l53.297,0l0,-18.538l-32.02,0l0,-7.689l31.282,0l0,-18.538l-31.282,0l0,-6.952l32.02,0l0,-18.537l-53.297,0l0,70.254Zm101.43,0l24.226,0l-12.745,-24.858c5.582,-2.738 12.639,-9.163 12.639,-21.276c0,-13.166 -8.847,-24.12 -25.279,-24.12l-37.497,0l0,70.254l21.277,0l0,-22.119l7.689,0l9.69,22.119Zm2.528,-46.239c0,3.897 -3.371,5.582 -6.952,5.582l-12.955,0l0,-11.06l12.955,0c3.581,0 6.952,1.686 6.952,5.478m44.238,46.239l21.277,0l0,-51.717l18.748,0l0,-18.537l-58.879,0l0,18.537l18.854,0l0,51.717Zm41.184,-9.901c7.478,6.741 17.695,11.165 32.652,11.165c18.854,0 30.334,-8.953 30.334,-24.436c0,-17.274 -17.168,-20.645 -28.754,-22.857c-5.899,-1.158 -10.323,-2.001 -10.323,-4.213c0,-1.791 1.159,-3.16 5.372,-3.16c6.636,0 14.536,2.317 20.645,6.952l11.375,-15.062c-8.005,-6.531 -18.327,-9.796 -29.808,-9.796c-19.275,0 -29.176,11.376 -29.176,23.278c0,18.643 17.695,21.592 29.281,23.699c5.688,0.948 9.901,1.685 9.901,3.897c0,2.739 -3.791,3.792 -7.794,3.792c-9.48,0 -17.379,-4.002 -22.646,-9.058l-11.059,15.799Z" style="fill:#ffc20e;fill-rule:nonzero;"/><path d="M868.814,602.905l2.496,1.271l1.981,1.981l1.272,2.496l0.438,2.766l-0.438,2.767l-1.272,2.496l-1.981,1.98l-2.496,1.272l-2.766,0.438l-334.344,0l-2.767,-0.438l-2.495,-1.272l-1.981,-1.98l-1.272,-2.496l-0.438,-2.767l0.438,-2.766l1.272,-2.496l1.981,-1.981l2.495,-1.271l2.767,-0.439l334.344,0l2.766,0.439Z" style="fill:#3281a1;"/><path d="M820.923,641.876l2.496,1.272l1.981,1.981l1.272,2.495l0.438,2.767l-0.438,2.767l-1.272,2.495l-1.981,1.981l-2.496,1.272l-2.766,0.438l-500.692,0l-2.767,-0.438l-2.496,-1.272l-1.98,-1.981l-1.272,-2.495l-0.438,-2.767l0.438,-2.767l1.272,-2.495l1.98,-1.981l2.496,-1.272l2.767,-0.438l500.692,0l2.766,0.438Z" style="fill:#3281a1;"/><path d="M585.008,680.848l2.495,1.272l1.981,1.98l1.272,2.496l0.438,2.767l-0.438,2.766l-1.272,2.496l-1.981,1.981l-2.495,1.272l-2.767,0.438l-355.57,0l-2.766,-0.438l-2.496,-1.272l-1.981,-1.981l-1.272,-2.496l-0.438,-2.766l0.438,-2.767l1.272,-2.496l1.981,-1.98l2.496,-1.272l2.766,-0.438l355.57,0l2.767,0.438Z" style="fill:#ffc20e;"/><path d="M738.177,719.82l2.496,1.271l1.981,1.981l1.271,2.496l0.438,2.767l-0.438,2.766l-1.271,2.496l-1.981,1.981l-2.496,1.271l-2.767,0.439l-291.55,0l-2.767,-0.439l-2.496,-1.271l-1.98,-1.981l-1.272,-2.496l-0.438,-2.766l0.438,-2.767l1.272,-2.496l1.98,-1.981l2.496,-1.271l2.767,-0.438l291.55,0l2.767,0.438Z" style="fill:#3281a1;"/><path d="M667.227,758.791l2.496,1.272l1.981,1.981l1.272,2.496l0.438,2.766l-0.438,2.767l-1.272,2.496l-1.981,1.98l-2.496,1.272l-2.766,0.438l-300.23,0l-2.767,-0.438l-2.496,-1.272l-1.98,-1.98l-1.272,-2.496l-0.438,-2.767l0.438,-2.766l1.272,-2.496l1.98,-1.981l2.496,-1.272l2.767,-0.438l300.23,0l2.766,0.438Z" style="fill:#ffc20e;"/></g></g><rect x="0" y="0" width="1000" height="500" style="fill:none;"/></svg>