<?xml version="1.0" encoding="UTF-8" standalone="no"?><!DOCTYPE svg PUBLIC "-//W3C//DTD SVG 1.1//EN" "http://www.w3.org/Graphics/SVG/1.1/DTD/svg11.dtd"><svg width="100%" height="100%" viewBox="0 0 1020 1375" version="1.1" xmlns="http://www.w3.org/2000/svg" xmlns:xlink="http://www.w3.org/1999/xlink" xml:space="preserve" style="fill-rule:evenodd;clip-rule:evenodd;stroke-miterlimit:10;"><g><rect x="0" y="414.999" width="1020" height="705.001" style="fill:#f1f1f1;fill-rule:nonzero;"/><rect x="0" y="0" width="1020" height="65" style="fill:#ecebec;fill-rule:nonzero;"/><path d="M977,49.981l-144,0c-1.657,0 -3,-1.343 -3,-3l0,-29c0,-1.657 1.343,-3 3,-3l144,0c1.657,0 3,1.343 3,3l0,29c0,1.657 -1.343,3 -3,3" style="fill:#fff;fill-rule:nonzero;"/><path d="M799.506,50l-206.485,0c-1.657,0 -3,-1.343 -3,-3l0,-29c0,-1.657 1.343,-3 3,-3l206.485,0c1.657,0 3,1.343 3,3l0,29c0,1.657 -1.343,3 -3,3" style="fill:#fff;fill-rule:nonzero;"/><rect x="0" y="155" width="1020" height="260" style="fill:#5c647d;fill-rule:nonzero;"/><path d="M615.094,121.085l-65.176,0c-0.552,0 -1,-0.448 -1,-1l0,-13c0,-0.552 0.448,-1 1,-1l65.176,0c0.552,0 1,0.448 1,1l0,13c0,0.552 -0.448,1 -1,1" style="fill:#4c4c4c;fill-rule:nonzero;"/><path d="M700.256,121.085l-48,0c-0.552,0 -1,-0.448 -1,-1l0,-13c0,-0.552 0.448,-1 1,-1l48,0c0.552,0 1,0.448 1,1l0,13c0,0.552 -0.448,1 -1,1" style="fill:#4c4c4c;fill-rule:nonzero;"/><path d="M802.594,121.085l-65.176,0c-0.552,0 -1,-0.448 -1,-1l0,-13c0,-0.552 0.448,-1 1,-1l65.176,0c0.552,0 1,0.448 1,1l0,13c0,0.552 -0.448,1 -1,1" style="fill:#4c4c4c;fill-rule:nonzero;"/><path d="M896.344,121.085l-65.176,0c-0.552,0 -1,-0.448 -1,-1l0,-13c0,-0.552 0.448,-1 1,-1l65.176,0c0.552,0 1,0.448 1,1l0,13c0,0.552 -0.448,1 -1,1" style="fill:#4c4c4c;fill-rule:nonzero;"/><path d="M979,121.199l-48,0c-0.552,0 -1,-0.448 -1,-1l0,-13c0,-0.552 0.448,-1 1,-1l48,0c0.552,0 1,0.448 1,1l0,13c0,0.552 -0.448,1 -1,1" style="fill:#4c4c4c;fill-rule:nonzero;"/><path d="M89.008,135l-48,0c-0.552,0 -1,-0.448 -1,-1l0,-48c0,-0.552 0.448,-1 1,-1l48,0c0.552,0 1,0.448 1,1l0,48c0,0.552 -0.448,1 -1,1" style="fill:#5c647d;fill-rule:nonzero;"/><path d="M297.008,955l-254,0c-1.657,0 -3,-1.343 -3,-3l0,-494c0,-1.657 1.343,-3 3,-3l254,0c1.657,0 3,1.343 3,3l0,494c0,1.657 -1.343,3 -3,3" style="fill:#fff;fill-rule:nonzero;"/><path d="M100.292,489.576c0,13.807 -11.193,25 -25,25c-13.807,0 -25,-11.193 -25,-25c0,-13.807 11.193,-25 25,-25c13.807,0 25,11.193 25,25" style="fill:#e75239;fill-rule:nonzero;"/><path d="M277.008,935l-84,0c-1.657,0 -3,-1.343 -3,-3l0,-34c0,-1.657 1.343,-3 3,-3l84,0c1.657,0 3,1.343 3,3l0,34c0,1.657 -1.343,3 -3,3" style="fill:#e75239;fill-rule:nonzero;"/><path d="M40,705.5l260,0" style="fill:none;stroke:#f1f1f1;stroke-width:1px;"/><path d="M40,820.5l260,0" style="fill:none;stroke:#f1f1f1;stroke-width:1px;"/><path d="M637.008,895.5l-254,0c-1.657,0 -3,-1.343 -3,-3l0,-434.5c0,-1.657 1.343,-3 3,-3l254,0c1.657,0 3,1.343 3,3l0,434.5c0,1.657 -1.343,3 -3,3" style="fill:#fff;fill-rule:nonzero;"/><path d="M440.292,489.576c0,13.807 -11.193,25 -25,25c-13.807,0 -25,-11.193 -25,-25c0,-13.807 11.193,-25 25,-25c13.807,0 25,11.193 25,25" style="fill:#e75239;fill-rule:nonzero;"/><path d="M617.008,875.5l-84,0c-1.657,0 -3,-1.343 -3,-3l0,-34c0,-1.657 1.343,-3 3,-3l84,0c1.657,0 3,1.343 3,3l0,34c0,1.657 -1.343,3 -3,3" style="fill:#e75239;fill-rule:nonzero;"/><path d="M380,705.5l260,0" style="fill:none;stroke:#f1f1f1;stroke-width:1px;"/><path d="M380,780.5l260,0" style="fill:none;stroke:#f1f1f1;stroke-width:1px;"/><path d="M977.008,1030l-254,0c-1.657,0 -3,-1.343 -3,-3l0,-569c0,-1.657 1.343,-3 3,-3l254,0c1.657,0 3,1.343 3,3l0,569c0,1.657 -1.343,3 -3,3" style="fill:#fff;fill-rule:nonzero;"/><path d="M780.292,489.576c0,13.807 -11.193,25 -25,25c-13.807,0 -25,-11.193 -25,-25c0,-13.807 11.193,-25 25,-25c13.807,0 25,11.193 25,25" style="fill:#e75239;fill-rule:nonzero;"/><path d="M957.008,1010l-84,0c-1.657,0 -3,-1.343 -3,-3l0,-34c0,-1.657 1.343,-3 3,-3l84,0c1.657,0 3,1.343 3,3l0,34c0,1.657 -1.343,3 -3,3" style="fill:#e75239;fill-rule:nonzero;"/><path d="M720,780.5l260,0" style="fill:#f1f1f1;fill-rule:nonzero;stroke:#ecebec;stroke-width:1px;"/><path d="M720,895.5l260,0" style="fill:#f1f1f1;fill-rule:nonzero;stroke:#ecebec;stroke-width:1px;"/><path d="M637,415l-254,0c-1.657,0 -3,-1.343 -3,-3l0,-44c0,-1.657 1.343,-3 3,-3l254,0c1.657,0 3,1.343 3,3l0,44c0,1.657 -1.343,3 -3,3" style="fill:#4c4c4c;fill-rule:nonzero;"/><path d="M510,422.071l-7.071,-7.071l7.071,-7.071l7.071,7.071l-7.071,7.071Z" style="fill:#4c4c4c;fill-rule:nonzero;"/><rect x="0" y="1120" width="1020" height="255" style="fill:#e75239;fill-rule:nonzero;"/><path d="M637,1120l-254,0c-1.657,0 -3,-1.343 -3,-3l0,-44c0,-1.657 1.343,-3 3,-3l254,0c1.657,0 3,1.343 3,3l0,44c0,1.657 -1.343,3 -3,3" style="fill:#4c4c4c;fill-rule:nonzero;"/><path d="M510,1127.07l-7.071,-7.071l7.071,-7.071l7.071,7.071l-7.071,7.071Z" style="fill:#4c4c4c;fill-rule:nonzero;"/><path d="M977.341,1200l-304.292,0c-1.657,0 -3,-1.343 -3,-3l0,-34c0,-1.657 1.343,-3 3,-3l304.292,0c1.657,0 3,1.343 3,3l0,34c0,1.657 -1.343,3 -3,3" style="fill:#fff;fill-rule:nonzero;"/><path d="M977.341,1245l-304.292,0c-1.657,0 -3,-1.343 -3,-3l0,-34c0,-1.657 1.343,-3 3,-3l304.292,0c1.657,0 3,1.343 3,3l0,34c0,1.657 -1.343,3 -3,3" style="fill:#fff;fill-rule:nonzero;"/><path d="M977.341,1290l-304.292,0c-1.657,0 -3,-1.343 -3,-3l0,-34c0,-1.657 1.343,-3 3,-3l304.292,0c1.657,0 3,1.343 3,3l0,34c0,1.657 -1.343,3 -3,3" style="fill:#fff;fill-rule:nonzero;"/><path d="M977.341,1335l-304.292,0c-1.657,0 -3,-1.343 -3,-3l0,-34c0,-1.657 1.343,-3 3,-3l304.292,0c1.657,0 3,1.343 3,3l0,34c0,1.657 -1.343,3 -3,3" style="fill:#fff;fill-rule:nonzero;"/><path d="M43,1245l64.137,0c1.657,0 3,-1.343 3,-3l0,-79c0,-1.657 -1.343,-3 -3,-3l-64.137,0c-1.657,0 -3,1.343 -3,3l0,79c0,1.657 1.343,3 3,3" style="fill:#fff;fill-rule:nonzero;"/><g><g opacity="0.25"><path d="M123,1245l464.021,0c1.656,0 3,-1.343 3,-3l0,-79c0,-1.657 -1.344,-3 -3,-3l-464.021,0c-1.657,0 -3,1.343 -3,3l0,79c0,1.657 1.343,3 3,3" style="fill:#fff;fill-rule:nonzero;"/></g></g><g><g opacity="0.25"><clipPath id="_clip1"><rect x="274.99" y="220" width="470.02" height="40"/></clipPath><g clip-path="url(#_clip1)"><path d="M277.99,260l464.021,0c1.656,0 3,-1.343 3,-3l0,-34c0,-1.657 -1.344,-3 -3,-3l-464.021,0c-1.657,0 -3,1.343 -3,3l0,34c0,1.657 1.343,3 3,3" style="fill:#fff;fill-rule:nonzero;"/></g></g></g><g><g opacity="0.25"><path d="M333,290l354,0c1.657,0 3,-1.343 3,-3l0,-14c0,-1.657 -1.343,-3 -3,-3l-354,0c-1.657,0 -3,1.343 -3,3l0,14c0,1.657 1.343,3 3,3" style="fill:#fff;fill-rule:nonzero;"/></g></g><g><g opacity="0.25"><path d="M123,1337.37l464.021,0c1.656,0 3,-1.343 3,-3l0,-79c0,-1.657 -1.344,-3 -3,-3l-464.021,0c-1.657,0 -3,1.343 -3,3l0,79c0,1.657 1.343,3 3,3" style="fill:#fff;fill-rule:nonzero;"/></g></g><path d="M43,1337.5l64.137,0c1.657,0 3,-1.343 3,-3l0,-79c0,-1.657 -1.343,-3 -3,-3l-64.137,0c-1.657,0 -3,1.343 -3,3l0,79c0,1.657 1.343,3 3,3" style="fill:#fff;fill-rule:nonzero;"/></g></svg>