<?xml version="1.0" encoding="UTF-8" standalone="no"?><!DOCTYPE svg PUBLIC "-//W3C//DTD SVG 1.1//EN" "http://www.w3.org/Graphics/SVG/1.1/DTD/svg11.dtd"><svg width="100%" height="100%" viewBox="0 0 1000 1000" version="1.1" xmlns="http://www.w3.org/2000/svg" xmlns:xlink="http://www.w3.org/1999/xlink" xml:space="preserve" style="fill-rule:evenodd;clip-rule:evenodd;stroke-linejoin:round;stroke-miterlimit:1.41421;"><rect id="outlined-icon-reversed-blue" x="0" y="0" width="1000" height="1000" style="fill:none;"/><g><rect x="0" y="0" width="1000" height="1000" style="fill:#0096ff;"/><g><g><path d="M500,125c-207.104,0 -374.994,167.885 -375,375l0,375l93.75,0l0,-375c0.006,-155.342 125.922,-281.25 281.25,-281.25c155.331,0 281.25,125.908 281.25,281.25c0,155.319 -125.919,281.25 -281.25,281.25c-72.138,0 -137.718,-27.397 -187.5,-72.041l0,115.208c55.201,31.986 119.116,50.583 187.5,50.583c207.107,0 375,-167.896 375,-375c0,-207.115 -167.893,-375 -375,-375" style="fill:#fff;fill-rule:nonzero;"/><path d="M687.501,499.996c0,103.552 -83.947,187.499 -187.5,187.499c-103.553,0 -187.5,-83.947 -187.5,-187.5c0,-103.553 83.947,-187.5 187.5,-187.5c103.553,0 187.5,83.947 187.5,187.5" style="fill:#fff;fill-rule:nonzero;"/></g></g></g><g><rect x="0" y="0" width="1000" height="1000" style="fill:#0096ff;"/><g><g><path d="M500,125c-207.104,0 -374.994,167.885 -375,375l0,375l93.75,0l0,-375c0.006,-155.342 125.922,-281.25 281.25,-281.25c155.331,0 281.25,125.908 281.25,281.25c0,155.319 -125.919,281.25 -281.25,281.25c-72.138,0 -137.718,-27.397 -187.5,-72.041l0,115.208c55.201,31.986 119.116,50.583 187.5,50.583c207.107,0 375,-167.896 375,-375c0,-207.115 -167.893,-375 -375,-375" style="fill:#fff;fill-rule:nonzero;"/><path d="M687.501,499.996c0,103.552 -83.947,187.499 -187.5,187.499c-103.553,0 -187.5,-83.947 -187.5,-187.5c0,-103.553 83.947,-187.5 187.5,-187.5c103.553,0 187.5,83.947 187.5,187.5" style="fill:#fff;fill-rule:nonzero;"/></g></g></g></svg>