<?xml version="1.0" encoding="UTF-8" standalone="no"?><!DOCTYPE svg PUBLIC "-//W3C//DTD SVG 1.1//EN" "http://www.w3.org/Graphics/SVG/1.1/DTD/svg11.dtd"><svg width="100%" height="100%" viewBox="0 0 240 240" version="1.1" xmlns="http://www.w3.org/2000/svg" xmlns:xlink="http://www.w3.org/1999/xlink" xml:space="preserve" style="fill-rule:evenodd;clip-rule:evenodd;stroke-linejoin:round;stroke-miterlimit:1.41421;"><rect id="outlined-french" x="0" y="0" width="240" height="240" style="fill:none;"/><rect x="0" y="0" width="240" height="240" style="fill:#fff;"/><g><g><path d="M69.534,51.294c0.831,0.267 1.663,0.647 2.495,1.141c0.624,0.376 1.072,0.565 1.345,0.565c0.247,0 0.435,-0.137 0.565,-0.409c0.13,-0.273 0.24,-0.722 0.331,-1.345l0.916,0c-0.143,1.65 -0.214,4.685 -0.214,9.102l-0.916,0c-0.091,-1.455 -0.409,-2.829 -0.955,-4.122c-0.545,-1.293 -1.316,-2.346 -2.309,-3.158c-0.996,-0.811 -2.168,-1.218 -3.519,-1.218c-0.858,0 -1.618,0.165 -2.28,0.497c-0.663,0.331 -1.18,0.803 -1.55,1.413c-0.37,0.611 -0.556,1.332 -0.556,2.163c0,0.936 0.208,1.749 0.624,2.437c0.416,0.689 0.991,1.325 1.725,1.911c0.735,0.584 1.868,1.39 3.401,2.416c0.442,0.273 0.826,0.526 1.151,0.76c1.545,1.027 2.773,1.93 3.683,2.71c0.91,0.779 1.648,1.683 2.213,2.709c0.566,1.027 0.847,2.222 0.847,3.587c0,1.689 -0.442,3.118 -1.325,4.288c-0.884,1.169 -2.073,2.043 -3.567,2.621c-1.494,0.578 -3.165,0.868 -5.009,0.868c-1.482,0 -2.71,-0.133 -3.684,-0.4c-0.974,-0.266 -1.885,-0.627 -2.729,-1.082c-0.598,-0.376 -1.052,-0.565 -1.365,-0.565c-0.246,0 -0.435,0.14 -0.565,0.419c-0.13,0.279 -0.233,0.725 -0.311,1.336l-0.917,0c0.104,-1.663 0.157,-5.257 0.157,-10.779l0.915,0c0.182,2.975 0.845,5.389 1.988,7.24c1.144,1.852 2.905,2.778 5.283,2.778c0.948,0 1.797,-0.169 2.544,-0.506c0.747,-0.338 1.335,-0.842 1.763,-1.511c0.429,-0.669 0.644,-1.485 0.644,-2.446c0,-1.04 -0.244,-1.975 -0.731,-2.807c-0.488,-0.832 -1.144,-1.589 -1.969,-2.271c-0.825,-0.682 -1.919,-1.465 -3.284,-2.349c-1.598,-1.013 -2.876,-1.906 -3.83,-2.68c-0.955,-0.773 -1.742,-1.689 -2.359,-2.748c-0.617,-1.059 -0.926,-2.284 -0.926,-3.675c0,-1.611 0.41,-2.962 1.229,-4.054c0.818,-1.091 1.902,-1.903 3.255,-2.436c1.35,-0.532 2.838,-0.799 4.463,-0.799c1.39,0 2.501,0.134 3.333,0.399Z" style="fill-rule:nonzero;"/><path d="M93.49,48.575c0,0.585 -0.208,1.131 -0.624,1.638c-0.286,0.351 -0.607,0.672 -0.964,0.965c-0.358,0.292 -0.862,0.672 -1.511,1.14c-1.715,1.261 -3.138,2.404 -4.269,3.431l-0.428,-0.352c0.752,-1.364 1.507,-3.014 2.261,-4.95c0.312,-0.806 0.568,-1.417 0.769,-1.833c0.202,-0.415 0.451,-0.799 0.751,-1.149c0.507,-0.625 1.143,-0.936 1.91,-0.936c0.533,0 0.994,0.169 1.384,0.507c0.48,0.39 0.721,0.903 0.721,1.539Zm-7.456,12.514c-0.629,1.183 -1.022,3.008 -1.179,5.477l6.257,0c0.039,-2.079 -0.172,-3.807 -0.634,-5.185c-0.46,-1.377 -1.153,-2.066 -2.075,-2.066c-0.949,0 -1.738,0.591 -2.369,1.774Zm9.308,12.65l0.721,0.273c-0.338,1.079 -0.861,2.089 -1.569,3.031c-0.708,0.942 -1.608,1.709 -2.699,2.3c-1.092,0.591 -2.333,0.887 -3.723,0.887c-1.832,0 -3.439,-0.391 -4.815,-1.17c-1.378,-0.78 -2.453,-1.969 -3.226,-3.567c-0.773,-1.598 -1.159,-3.58 -1.159,-5.945c0,-2.403 0.411,-4.437 1.237,-6.101c0.825,-1.663 1.971,-2.91 3.44,-3.742c1.468,-0.832 3.164,-1.248 5.088,-1.248c5.002,0 7.504,2.957 7.504,8.87l-11.168,0c-0.053,0.519 -0.079,1.149 -0.079,1.89c0,1.754 0.247,3.21 0.741,4.366c0.494,1.156 1.137,2.004 1.93,2.544c0.792,0.539 1.637,0.809 2.534,0.809c2.196,0 3.943,-1.066 5.243,-3.197Z" style="fill-rule:nonzero;"/><path d="M113.217,58.984c0.545,0.351 0.947,0.806 1.208,1.364c0.26,0.56 0.39,1.157 0.39,1.794c0,0.988 -0.283,1.793 -0.848,2.417c-0.566,0.623 -1.316,0.935 -2.251,0.935c-0.923,0 -1.651,-0.23 -2.184,-0.692c-0.533,-0.461 -0.8,-1.088 -0.8,-1.881c0,-1.273 0.585,-2.3 1.756,-3.079c-0.169,-0.065 -0.345,-0.098 -0.526,-0.098c-0.157,0 -0.345,0.033 -0.566,0.098c-0.676,0.116 -1.294,0.445 -1.853,0.984c-0.558,0.539 -0.993,1.186 -1.305,1.939c-0.311,0.754 -0.467,1.495 -0.467,2.222l0,10.564c0,0.845 0.136,1.505 0.409,1.979c0.273,0.475 0.675,0.809 1.209,1.004c0.531,0.195 1.24,0.292 2.124,0.292l0,0.839c-0.144,0 -0.437,-0.013 -0.877,-0.04c-2.768,-0.078 -4.588,-0.117 -5.458,-0.117c-1.377,0 -3.034,0.046 -4.97,0.137l-0.741,0.02l0,-0.839c0.636,0 1.137,-0.084 1.501,-0.253c0.363,-0.169 0.63,-0.461 0.799,-0.877c0.169,-0.416 0.253,-0.994 0.253,-1.735l0,-12.591c0,-1.234 -0.191,-2.131 -0.574,-2.691c-0.384,-0.558 -1.043,-0.837 -1.979,-0.837l0,-0.838c0.975,0.091 1.8,0.136 2.476,0.136c2.261,0 4.203,-0.188 5.828,-0.565l0,3.723c0.506,-1.131 1.231,-2.053 2.172,-2.768c0.942,-0.715 2.019,-1.073 3.227,-1.073c0.819,0 1.501,0.176 2.047,0.527Z" style="fill-rule:nonzero;"/><path d="M123.109,49.54c0.657,0.553 0.985,1.303 0.985,2.252c0,0.961 -0.328,1.718 -0.985,2.27c-0.656,0.553 -1.537,0.828 -2.641,0.828c-1.13,0 -2.021,-0.275 -2.67,-0.828c-0.65,-0.552 -0.975,-1.309 -0.975,-2.27c0,-0.949 0.328,-1.699 0.985,-2.252c0.656,-0.552 1.542,-0.828 2.66,-0.828c1.104,0 1.985,0.276 2.641,0.828Zm0.741,28.156c0.162,0.416 0.429,0.708 0.799,0.877c0.371,0.169 0.874,0.253 1.511,0.253l0,0.839l-0.683,-0.02c-1.793,-0.091 -3.346,-0.137 -4.658,-0.137c-1.326,0 -2.931,0.046 -4.814,0.137l-0.702,0.02l0,-0.839c0.636,0 1.137,-0.084 1.501,-0.253c0.363,-0.169 0.63,-0.461 0.799,-0.877c0.168,-0.416 0.253,-0.994 0.253,-1.735l0,-12.591c0,-1.234 -0.192,-2.131 -0.575,-2.691c-0.383,-0.558 -1.043,-0.837 -1.978,-0.837l0,-0.838c0.975,0.091 1.799,0.136 2.476,0.136c2.261,0 4.202,-0.188 5.827,-0.565l0,17.386c0,0.741 0.081,1.319 0.244,1.735Z" style="fill-rule:nonzero;"/><path d="M134.765,61.089c-0.629,1.183 -1.022,3.008 -1.179,5.477l6.257,0c0.039,-2.079 -0.172,-3.807 -0.634,-5.185c-0.46,-1.377 -1.153,-2.066 -2.075,-2.066c-0.949,0 -1.738,0.591 -2.369,1.774Zm9.308,12.65l0.721,0.273c-0.338,1.079 -0.861,2.089 -1.569,3.031c-0.708,0.942 -1.608,1.709 -2.699,2.3c-1.092,0.591 -2.333,0.887 -3.723,0.887c-1.832,0 -3.438,-0.391 -4.815,-1.17c-1.377,-0.78 -2.453,-1.969 -3.226,-3.567c-0.772,-1.598 -1.16,-3.58 -1.16,-5.945c0,-2.403 0.413,-4.437 1.238,-6.101c0.825,-1.663 1.972,-2.91 3.441,-3.742c1.467,-0.832 3.164,-1.248 5.087,-1.248c5.002,0 7.504,2.957 7.504,8.87l-11.168,0c-0.053,0.519 -0.079,1.149 -0.079,1.89c0,1.754 0.247,3.21 0.741,4.366c0.494,1.156 1.137,2.004 1.93,2.544c0.792,0.539 1.637,0.809 2.534,0.809c2.196,0 3.943,-1.066 5.243,-3.197Z" style="fill-rule:nonzero;"/><path d="M165.012,77.589c0.662,-0.605 1.084,-1.42 1.267,-2.446l0,-14.191c-0.69,-0.896 -1.658,-1.344 -2.905,-1.344c-1.403,0 -2.488,0.812 -3.255,2.436c-0.767,1.624 -1.144,4.055 -1.13,7.29c-0.014,3.262 0.305,5.603 0.955,7.027c0.65,1.423 1.584,2.134 2.807,2.134c0.844,0 1.598,-0.303 2.261,-0.906Zm7.591,0.38c0.384,0.559 1.043,0.838 1.979,0.838l0,0.838c-0.832,-0.078 -1.657,-0.117 -2.476,-0.117c-2.326,0 -4.268,0.181 -5.827,0.545l0,-3.371c-0.936,2.352 -2.664,3.528 -5.186,3.528c-1.624,0 -3.047,-0.394 -4.268,-1.179c-1.221,-0.787 -2.173,-1.999 -2.855,-3.636c-0.682,-1.637 -1.024,-3.69 -1.024,-6.159c0,-2.339 0.381,-4.321 1.14,-5.945c0.761,-1.624 1.814,-2.839 3.158,-3.645c1.346,-0.805 2.887,-1.209 4.629,-1.209c1.936,0 3.405,0.501 4.406,1.501l0,-6.743c0,-1.235 -0.193,-2.131 -0.576,-2.69c-0.383,-0.559 -1.043,-0.838 -1.978,-0.838l0,-0.839c0.844,0.079 1.669,0.118 2.476,0.118c2.339,0 4.28,-0.182 5.828,-0.546l0,26.878c0,1.222 0.191,2.112 0.574,2.671Z" style="fill-rule:nonzero;"/><path d="M182.749,61.089c-0.63,1.183 -1.023,3.008 -1.178,5.477l6.257,0c0.039,-2.079 -0.173,-3.807 -0.634,-5.185c-0.461,-1.377 -1.153,-2.066 -2.076,-2.066c-0.949,0 -1.737,0.591 -2.369,1.774Zm9.308,12.65l0.721,0.273c-0.338,1.079 -0.86,2.089 -1.569,3.031c-0.708,0.942 -1.608,1.709 -2.7,2.3c-1.091,0.591 -2.332,0.887 -3.722,0.887c-1.833,0 -3.437,-0.391 -4.815,-1.17c-1.378,-0.78 -2.452,-1.969 -3.226,-3.567c-0.773,-1.598 -1.159,-3.58 -1.159,-5.945c0,-2.403 0.412,-4.437 1.237,-6.101c0.826,-1.663 1.972,-2.91 3.441,-3.742c1.468,-0.832 3.164,-1.248 5.087,-1.248c5.002,0 7.505,2.957 7.505,8.87l-11.17,0c-0.052,0.519 -0.077,1.149 -0.077,1.89c0,1.754 0.246,3.21 0.74,4.366c0.494,1.156 1.137,2.004 1.93,2.544c0.792,0.539 1.637,0.809 2.534,0.809c2.195,0 3.944,-1.066 5.243,-3.197Z" style="fill-rule:nonzero;"/><path d="M204.66,58.837c0.844,0.254 1.507,0.537 1.988,0.848c0.285,0.182 0.526,0.273 0.721,0.273c0.494,0 0.805,-0.487 0.935,-1.461l0.858,0c-0.117,1.299 -0.175,3.639 -0.175,7.016l-0.838,0c-0.248,-1.754 -0.774,-3.222 -1.58,-4.404c-0.805,-1.183 -1.988,-1.774 -3.547,-1.774c-0.793,0 -1.442,0.231 -1.949,0.692c-0.507,0.462 -0.76,1.088 -0.76,1.881c0,0.636 0.166,1.218 0.498,1.744c0.33,0.527 0.742,1.001 1.236,1.423c0.495,0.422 1.183,0.952 2.067,1.589c0.246,0.168 0.617,0.435 1.111,0.799c1.078,0.806 1.942,1.511 2.592,2.114c0.649,0.605 1.176,1.294 1.579,2.066c0.402,0.774 0.604,1.661 0.604,2.661c0,1.183 -0.339,2.222 -1.013,3.119c-0.676,0.896 -1.592,1.589 -2.749,2.076c-1.157,0.487 -2.424,0.731 -3.8,0.731c-1.469,0 -2.717,-0.28 -3.743,-0.838c-0.871,-0.442 -1.488,-0.721 -1.851,-0.839c-0.079,-0.025 -0.137,-0.039 -0.176,-0.039c-0.429,0 -0.754,0.475 -0.975,1.424l-0.837,0c0.103,-1.521 0.155,-4.178 0.155,-7.973l0.858,0c0.546,4.899 2.339,7.348 5.379,7.348c0.78,0 1.443,-0.237 1.989,-0.711c0.545,-0.474 0.818,-1.186 0.818,-2.134c0,-0.741 -0.165,-1.404 -0.497,-1.988c-0.331,-0.585 -0.753,-1.111 -1.266,-1.579c-0.514,-0.468 -1.271,-1.092 -2.272,-1.872c-1.182,-0.922 -2.092,-1.682 -2.728,-2.28c-0.638,-0.598 -1.176,-1.296 -1.618,-2.095c-0.442,-0.8 -0.663,-1.699 -0.663,-2.7c0,-1.143 0.312,-2.131 0.936,-2.963c0.624,-0.831 1.459,-1.461 2.504,-1.89c1.046,-0.429 2.186,-0.644 3.422,-0.644c1.013,0 1.941,0.127 2.787,0.38Z" style="fill-rule:nonzero;"/><path d="M75.225,87.435c1.144,0.449 2.255,1.088 3.334,1.92c0.298,0.26 0.565,0.39 0.799,0.39c0.273,0 0.487,-0.195 0.643,-0.585c0.156,-0.389 0.273,-1 0.351,-1.832l0.916,0c-0.104,1.82 -0.156,5.042 -0.156,9.668l-0.916,0c-0.208,-1.806 -0.52,-3.268 -0.936,-4.386c-0.416,-1.117 -1.105,-2.066 -2.066,-2.845c-0.65,-0.611 -1.443,-1.092 -2.377,-1.443c-0.936,-0.35 -1.885,-0.526 -2.847,-0.526c-1.858,0 -3.404,0.633 -4.638,1.9c-1.235,1.267 -2.148,2.941 -2.739,5.019c-0.591,2.079 -0.887,4.347 -0.887,6.803c0,9.226 2.554,13.839 7.66,13.839c1.118,0 2.059,-0.26 2.826,-0.78c0.364,-0.259 0.617,-0.549 0.761,-0.867c0.142,-0.319 0.214,-0.724 0.214,-1.219l0,-3.917c0,-1.247 -0.105,-2.161 -0.312,-2.739c-0.208,-0.578 -0.585,-0.975 -1.131,-1.189c-0.545,-0.214 -1.41,-0.347 -2.592,-0.4l0,-0.799c1.533,0.092 3.808,0.137 6.822,0.137c2.443,0 4.23,-0.045 5.36,-0.137l0,0.799c-0.545,0.053 -0.938,0.16 -1.178,0.322c-0.241,0.163 -0.407,0.468 -0.497,0.916c-0.092,0.449 -0.137,1.18 -0.137,2.193l0,7.914l-0.799,0c-0.027,-0.559 -0.14,-1.078 -0.342,-1.56c-0.201,-0.48 -0.477,-0.721 -0.828,-0.721c-0.428,0 -1.144,0.273 -2.144,0.819c-2.327,1.352 -4.509,2.027 -6.549,2.027c-3.079,0 -5.682,-0.569 -7.806,-1.705c-2.125,-1.137 -3.73,-2.778 -4.815,-4.922c-1.085,-2.144 -1.628,-4.723 -1.628,-7.738c0,-2.976 0.614,-5.601 1.843,-7.875c1.227,-2.273 2.936,-4.035 5.126,-5.282c2.189,-1.248 4.68,-1.871 7.475,-1.871c1.65,0 3.047,0.224 4.19,0.672Z" style="fill-rule:nonzero;"/><path d="M101.334,94.91c0.546,0.351 0.948,0.806 1.209,1.365c0.26,0.559 0.39,1.157 0.39,1.793c0,0.987 -0.284,1.793 -0.848,2.417c-0.566,0.624 -1.316,0.935 -2.251,0.935c-0.923,0 -1.651,-0.23 -2.183,-0.691c-0.534,-0.462 -0.799,-1.088 -0.799,-1.881c0,-1.274 0.584,-2.3 1.754,-3.08c-0.17,-0.065 -0.345,-0.098 -0.526,-0.098c-0.157,0 -0.345,0.033 -0.566,0.098c-0.676,0.117 -1.293,0.445 -1.852,0.984c-0.559,0.54 -0.994,1.186 -1.305,1.939c-0.312,0.755 -0.468,1.495 -0.468,2.223l0,10.564c0,0.846 0.136,1.504 0.409,1.978c0.273,0.475 0.675,0.809 1.208,1.004c0.533,0.195 1.241,0.292 2.125,0.292l0,0.839c-0.143,0 -0.436,-0.012 -0.877,-0.04c-2.768,-0.077 -4.587,-0.116 -5.457,-0.116c-1.378,0 -3.035,0.046 -4.971,0.136l-0.741,0.02l0,-0.839c0.636,0 1.137,-0.084 1.501,-0.253c0.363,-0.168 0.63,-0.461 0.799,-0.877c0.169,-0.415 0.254,-0.994 0.254,-1.734l0,-12.592c0,-1.235 -0.192,-2.131 -0.576,-2.69c-0.383,-0.559 -1.042,-0.838 -1.978,-0.838l0,-0.839c0.975,0.092 1.8,0.137 2.476,0.137c2.261,0 4.203,-0.188 5.828,-0.565l0,3.723c0.506,-1.131 1.231,-2.053 2.172,-2.768c0.943,-0.714 2.019,-1.072 3.226,-1.072c0.82,0 1.501,0.176 2.047,0.526Z" style="fill-rule:nonzero;"/><path d="M114.842,104.364c-0.371,0.286 -0.926,0.656 -1.667,1.11c-0.845,0.625 -1.508,1.297 -1.988,2.018c-0.481,0.722 -0.722,1.628 -0.722,2.719c0,1.052 0.228,1.832 0.683,2.339c0.454,0.506 1.059,0.76 1.812,0.76c1.027,0 1.924,-0.539 2.691,-1.618l0,-8.186c-0.169,0.286 -0.439,0.572 -0.809,0.858Zm2.758,-9.561c0.961,0.28 1.754,0.738 2.377,1.374c0.559,0.572 0.936,1.277 1.131,2.115c0.195,0.838 0.293,1.998 0.293,3.479l0,10.857c0,0.65 0.061,1.108 0.185,1.374c0.123,0.266 0.347,0.4 0.672,0.4c0.247,0 0.48,-0.059 0.702,-0.176c0.22,-0.116 0.474,-0.285 0.76,-0.506l0.41,0.682c-0.625,0.507 -1.294,0.877 -2.008,1.111c-0.715,0.234 -1.567,0.351 -2.554,0.351c-1.364,0 -2.342,-0.299 -2.933,-0.897c-0.591,-0.597 -0.894,-1.377 -0.907,-2.339c-0.65,1.079 -1.497,1.888 -2.543,2.426c-1.046,0.54 -2.161,0.81 -3.343,0.81c-1.521,0 -2.742,-0.4 -3.665,-1.2c-0.923,-0.798 -1.383,-1.912 -1.383,-3.342c0,-1.39 0.454,-2.537 1.364,-3.441c0.91,-0.903 2.326,-1.711 4.249,-2.426c0.195,-0.064 0.357,-0.13 0.488,-0.195c1.156,-0.428 2.043,-0.786 2.661,-1.072c0.616,-0.286 1.12,-0.617 1.51,-0.994c0.389,-0.377 0.585,-0.818 0.585,-1.325l0,-3.119c0,-1.104 -0.261,-1.975 -0.78,-2.612c-0.52,-0.636 -1.345,-0.955 -2.476,-0.955c-0.52,0 -1.039,0.082 -1.559,0.244c-0.52,0.163 -0.949,0.406 -1.286,0.73c0.741,0.248 1.318,0.637 1.735,1.17c0.415,0.533 0.623,1.19 0.623,1.969c0,0.832 -0.299,1.517 -0.896,2.056c-0.598,0.54 -1.385,0.809 -2.359,0.809c-0.857,0 -1.543,-0.289 -2.056,-0.867c-0.514,-0.579 -0.77,-1.316 -0.77,-2.212c0,-1.352 0.746,-2.462 2.241,-3.333c1.625,-0.91 3.645,-1.365 6.062,-1.365c1.352,0 2.508,0.14 3.47,0.419Z" style="fill-rule:nonzero;"/><path d="M144.897,95.943c0.441,0.507 0.761,1.164 0.955,1.969c0.195,0.806 0.293,1.878 0.293,3.216l0,10.76c0,0.74 0.083,1.319 0.253,1.734c0.168,0.416 0.435,0.709 0.799,0.877c0.363,0.169 0.864,0.253 1.501,0.253l0,0.839l-0.682,-0.02c-1.82,-0.09 -3.347,-0.136 -4.581,-0.136c-1.3,0 -2.813,0.046 -4.541,0.136l-0.644,0.02l0,-0.839c0.546,0 0.972,-0.084 1.278,-0.253c0.305,-0.168 0.525,-0.461 0.662,-0.877c0.136,-0.415 0.205,-0.994 0.205,-1.734l0,-12.417c0,-1.091 -0.176,-1.92 -0.526,-2.485c-0.352,-0.565 -0.995,-0.848 -1.93,-0.848c-0.741,0 -1.413,0.202 -2.018,0.605c-0.604,0.403 -1.078,0.958 -1.422,1.666c-0.345,0.709 -0.518,1.491 -0.518,2.349l0,11.13c0,0.74 0.068,1.319 0.206,1.734c0.135,0.416 0.357,0.709 0.662,0.877c0.305,0.169 0.731,0.253 1.277,0.253l0,0.839l-0.624,-0.02c-1.663,-0.09 -3.106,-0.136 -4.327,-0.136c-1.313,0 -2.911,0.046 -4.795,0.136l-0.702,0.02l0,-0.839c0.637,0 1.137,-0.084 1.501,-0.253c0.364,-0.168 0.63,-0.461 0.8,-0.877c0.168,-0.415 0.253,-0.994 0.253,-1.734l0,-12.592c0,-1.235 -0.192,-2.131 -0.575,-2.69c-0.383,-0.559 -1.043,-0.838 -1.979,-0.838l0,-0.839c0.975,0.092 1.8,0.137 2.476,0.137c2.261,0 4.203,-0.188 5.827,-0.565l0,3.606c1.209,-2.482 3.379,-3.723 6.511,-3.723c2.027,0 3.495,0.52 4.405,1.559Z" style="fill-rule:nonzero;"/><path d="M163.17,113.516c0.663,-0.606 1.084,-1.421 1.267,-2.447l0,-14.19c-0.689,-0.896 -1.657,-1.345 -2.905,-1.345c-1.403,0 -2.488,0.813 -3.254,2.436c-0.768,1.625 -1.144,4.055 -1.131,7.29c-0.013,3.263 0.305,5.604 0.955,7.027c0.65,1.423 1.585,2.134 2.807,2.134c0.845,0 1.598,-0.302 2.261,-0.905Zm7.592,0.379c0.383,0.559 1.042,0.838 1.978,0.838l0,0.838c-0.832,-0.078 -1.657,-0.117 -2.475,-0.117c-2.326,0 -4.269,0.182 -5.828,0.546l0,-3.372c-0.936,2.353 -2.664,3.528 -5.185,3.528c-1.624,0 -3.048,-0.393 -4.269,-1.179c-1.221,-0.787 -2.173,-1.998 -2.855,-3.635c-0.682,-1.638 -1.023,-3.69 -1.023,-6.16c0,-2.339 0.38,-4.32 1.139,-5.945c0.762,-1.623 1.814,-2.839 3.159,-3.645c1.345,-0.805 2.887,-1.208 4.629,-1.208c1.936,0 3.404,0.501 4.405,1.501l0,-6.745c0,-1.233 -0.192,-2.13 -0.576,-2.689c-0.382,-0.558 -1.042,-0.839 -1.977,-0.839l0,-0.837c0.844,0.078 1.669,0.117 2.475,0.117c2.339,0 4.281,-0.182 5.828,-0.546l0,26.879c0,1.222 0.191,2.112 0.575,2.67Z" style="fill-rule:nonzero;"/><path d="M185.477,94.764c0.845,0.253 1.508,0.536 1.989,0.848c0.285,0.182 0.526,0.273 0.721,0.273c0.493,0 0.805,-0.488 0.936,-1.462l0.857,0c-0.117,1.3 -0.176,3.638 -0.176,7.017l-0.837,0c-0.248,-1.755 -0.774,-3.222 -1.579,-4.405c-0.807,-1.183 -1.988,-1.774 -3.547,-1.774c-0.793,0 -1.443,0.231 -1.95,0.692c-0.506,0.461 -0.76,1.088 -0.76,1.881c0,0.637 0.165,1.218 0.497,1.744c0.331,0.526 0.744,1.002 1.238,1.423c0.493,0.423 1.181,0.953 2.066,1.589c0.246,0.169 0.616,0.436 1.11,0.799c1.079,0.806 1.943,1.511 2.594,2.116c0.649,0.603 1.175,1.292 1.578,2.064c0.402,0.774 0.604,1.661 0.604,2.661c0,1.183 -0.338,2.223 -1.014,3.119c-0.675,0.897 -1.592,1.588 -2.748,2.076c-1.156,0.487 -2.423,0.731 -3.801,0.731c-1.469,0 -2.716,-0.28 -3.742,-0.839c-0.871,-0.44 -1.489,-0.72 -1.852,-0.837c-0.077,-0.026 -0.136,-0.039 -0.175,-0.039c-0.428,0 -0.754,0.475 -0.974,1.423l-0.839,0c0.104,-1.521 0.156,-4.178 0.156,-7.972l0.858,0c0.545,4.899 2.339,7.348 5.38,7.348c0.78,0 1.442,-0.237 1.988,-0.711c0.546,-0.475 0.819,-1.186 0.819,-2.135c0,-0.74 -0.166,-1.403 -0.498,-1.988c-0.33,-0.585 -0.753,-1.111 -1.266,-1.579c-0.514,-0.467 -1.271,-1.092 -2.271,-1.871c-1.184,-0.922 -2.093,-1.683 -2.729,-2.281c-0.637,-0.597 -1.177,-1.296 -1.618,-2.095c-0.442,-0.799 -0.663,-1.699 -0.663,-2.699c0,-1.144 0.312,-2.131 0.936,-2.963c0.624,-0.832 1.459,-1.462 2.504,-1.891c1.047,-0.429 2.186,-0.643 3.421,-0.643c1.014,0 1.943,0.126 2.787,0.38Z" style="fill-rule:nonzero;"/><path d="M66.465,124.337c-0.345,0.188 -0.583,0.523 -0.712,1.003c-0.13,0.482 -0.195,1.196 -0.195,2.145l0,9.823l1.715,0c1.494,0 2.661,-0.285 3.498,-0.858c0.839,-0.571 1.417,-1.338 1.736,-2.3c0.318,-0.961 0.477,-2.117 0.477,-3.469c0,-2.183 -0.387,-3.833 -1.16,-4.951c-0.773,-1.117 -2.036,-1.676 -3.79,-1.676c-0.702,0 -1.226,0.094 -1.569,0.283Zm14.501,27.2c-0.825,0.363 -1.822,0.545 -2.992,0.545c-1.521,0 -2.729,-0.324 -3.625,-0.974c-0.897,-0.649 -1.489,-1.766 -1.774,-3.353l-0.702,-3.976c-0.221,-1.299 -0.461,-2.339 -0.721,-3.118c-0.26,-0.78 -0.627,-1.4 -1.101,-1.861c-0.475,-0.462 -1.109,-0.693 -1.901,-0.693l-2.592,0l0,9.18c0,1.002 0.075,1.729 0.223,2.184c0.15,0.455 0.426,0.767 0.829,0.936c0.402,0.169 1.053,0.272 1.95,0.311l0,0.799c-1.443,-0.077 -3.457,-0.116 -6.043,-0.116c-2.846,0 -4.944,0.039 -6.295,0.116l0,-0.799c0.896,-0.039 1.542,-0.142 1.939,-0.311c0.396,-0.169 0.669,-0.481 0.819,-0.936c0.149,-0.455 0.224,-1.182 0.224,-2.184l0,-19.802c0,-1.001 -0.075,-1.728 -0.224,-2.184c-0.15,-0.454 -0.427,-0.766 -0.829,-0.935c-0.403,-0.168 -1.046,-0.273 -1.929,-0.312l0,-0.799c1.351,0.078 3.371,0.116 6.061,0.116c0.494,0 1.989,-0.019 4.484,-0.058l1.793,-0.019c3.664,0 6.422,0.601 8.274,1.803c1.851,1.201 2.777,2.914 2.777,5.136c0,1.196 -0.28,2.326 -0.838,3.391c-0.559,1.066 -1.504,1.991 -2.836,2.778c-1.332,0.786 -3.096,1.303 -5.292,1.549l0.019,0c1.611,0.144 2.937,0.417 3.977,0.819c1.039,0.403 1.855,0.965 2.445,1.686c0.593,0.722 1.005,1.64 1.239,2.758l0.896,4.113c0.221,1.079 0.468,1.825 0.741,2.241c0.273,0.416 0.656,0.624 1.15,0.624c0.325,0 0.607,-0.071 0.848,-0.214c0.241,-0.143 0.497,-0.377 0.77,-0.702l0.545,0.487c-0.714,0.819 -1.484,1.411 -2.309,1.774Z" style="fill-rule:nonzero;"/><path d="M98.596,120.429c0,0.584 -0.208,1.13 -0.623,1.637c-0.286,0.351 -0.608,0.672 -0.965,0.965c-0.358,0.293 -0.861,0.672 -1.511,1.14c-1.715,1.26 -3.138,2.404 -4.268,3.43l-0.429,-0.35c0.753,-1.365 1.506,-3.015 2.261,-4.951c0.311,-0.806 0.568,-1.416 0.769,-1.832c0.202,-0.416 0.452,-0.799 0.751,-1.151c0.507,-0.623 1.143,-0.935 1.91,-0.935c0.532,0 0.995,0.169 1.384,0.507c0.48,0.389 0.721,0.903 0.721,1.54Zm-7.456,12.513c-0.63,1.183 -1.023,3.009 -1.178,5.477l6.257,0c0.039,-2.078 -0.173,-3.807 -0.634,-5.184c-0.461,-1.378 -1.154,-2.067 -2.076,-2.067c-0.949,0 -1.738,0.592 -2.369,1.774Zm9.308,12.65l0.721,0.273c-0.338,1.079 -0.86,2.088 -1.569,3.031c-0.709,0.942 -1.608,1.709 -2.7,2.3c-1.091,0.591 -2.333,0.886 -3.722,0.886c-1.833,0 -3.438,-0.389 -4.815,-1.169c-1.378,-0.779 -2.452,-1.968 -3.226,-3.566c-0.773,-1.599 -1.16,-3.58 -1.16,-5.946c0,-2.403 0.413,-4.436 1.238,-6.1c0.826,-1.663 1.972,-2.911 3.441,-3.743c1.468,-0.831 3.163,-1.247 5.087,-1.247c5.002,0 7.504,2.956 7.504,8.868l-11.169,0c-0.052,0.521 -0.077,1.151 -0.077,1.891c0,1.755 0.246,3.21 0.74,4.366c0.494,1.157 1.137,2.005 1.93,2.544c0.792,0.539 1.637,0.808 2.534,0.808c2.195,0 3.944,-1.065 5.243,-3.196Z" style="fill-rule:nonzero;"/><path d="M116.762,130.642c0.87,0.221 1.605,0.52 2.203,0.897c0.688,0.416 1.228,0.945 1.617,1.588c0.391,0.644 0.586,1.355 0.586,2.135c0,0.948 -0.296,1.722 -0.888,2.319c-0.591,0.598 -1.348,0.896 -2.27,0.896c-0.949,0 -1.699,-0.269 -2.252,-0.808c-0.552,-0.539 -0.828,-1.258 -0.828,-2.154c0,-0.805 0.251,-1.501 0.75,-2.086c0.501,-0.584 1.128,-0.98 1.881,-1.188c-0.208,-0.274 -0.529,-0.5 -0.964,-0.683c-0.436,-0.181 -0.913,-0.273 -1.433,-0.273c-1.079,0 -1.998,0.406 -2.759,1.218c-0.759,0.812 -1.331,1.931 -1.714,3.353c-0.384,1.423 -0.575,3.05 -0.575,4.882c0,1.95 0.246,3.525 0.741,4.728c0.493,1.201 1.133,2.055 1.92,2.562c0.785,0.507 1.659,0.76 2.621,0.76c0.909,0 1.825,-0.239 2.749,-0.721c0.922,-0.48 1.746,-1.325 2.475,-2.534l0.701,0.254c-0.338,1.092 -0.845,2.112 -1.52,3.06c-0.676,0.949 -1.557,1.726 -2.642,2.329c-1.084,0.605 -2.341,0.906 -3.771,0.906c-1.793,0 -3.388,-0.386 -4.785,-1.159c-1.397,-0.773 -2.499,-1.969 -3.303,-3.586c-0.807,-1.618 -1.209,-3.629 -1.209,-6.033c0,-2.339 0.421,-4.333 1.267,-5.984c0.845,-1.65 2.009,-2.897 3.498,-3.742c1.488,-0.845 3.187,-1.267 5.097,-1.267c1,0 1.936,0.11 2.807,0.331Z" style="fill-rule:nonzero;"/><path d="M131.216,121.393c0.655,0.553 0.984,1.304 0.984,2.251c0,0.963 -0.329,1.719 -0.984,2.271c-0.657,0.553 -1.538,0.829 -2.642,0.829c-1.13,0 -2.021,-0.276 -2.67,-0.829c-0.65,-0.552 -0.974,-1.308 -0.974,-2.271c0,-0.947 0.328,-1.698 0.984,-2.251c0.655,-0.552 1.542,-0.828 2.66,-0.828c1.104,0 1.985,0.276 2.642,0.828Zm0.74,28.155c0.162,0.417 0.429,0.709 0.798,0.878c0.372,0.169 0.875,0.253 1.512,0.253l0,0.838l-0.683,-0.019c-1.793,-0.09 -3.346,-0.136 -4.658,-0.136c-1.326,0 -2.93,0.046 -4.815,0.136l-0.701,0.019l0,-0.838c0.636,0 1.137,-0.084 1.501,-0.253c0.363,-0.169 0.63,-0.461 0.799,-0.878c0.168,-0.415 0.254,-0.994 0.254,-1.734l0,-12.592c0,-1.234 -0.193,-2.13 -0.576,-2.689c-0.383,-0.558 -1.043,-0.839 -1.978,-0.839l0,-0.838c0.974,0.092 1.799,0.137 2.475,0.137c2.261,0 4.204,-0.188 5.829,-0.566l0,17.387c0,0.74 0.08,1.319 0.243,1.734Z" style="fill-rule:nonzero;"/><path d="M148.826,130.895l0,0.799l-4.717,0l0,16.1c0,0.793 0.143,1.362 0.429,1.706c0.285,0.345 0.727,0.516 1.325,0.516c1.118,0 2.027,-0.799 2.729,-2.397l0.662,0.37c-1.001,2.729 -2.82,4.093 -5.457,4.093c-1.767,0 -3.099,-0.447 -3.995,-1.344c-0.56,-0.558 -0.939,-1.264 -1.14,-2.115c-0.202,-0.851 -0.303,-2.004 -0.303,-3.46l0,-13.469l-3.352,0l0,-0.799l3.352,0l0,-5.282c2.286,-0.025 4.203,-0.454 5.75,-1.286l0,6.568l4.717,0Z" style="fill-rule:nonzero;"/><path d="M160.258,140.291c-0.371,0.285 -0.927,0.656 -1.667,1.11c-0.845,0.624 -1.508,1.297 -1.988,2.018c-0.481,0.721 -0.721,1.627 -0.721,2.719c0,1.052 0.226,1.832 0.682,2.339c0.454,0.506 1.059,0.76 1.813,0.76c1.025,0 1.922,-0.539 2.689,-1.618l0,-8.186c-0.169,0.286 -0.439,0.572 -0.808,0.858Zm2.758,-9.561c0.961,0.279 1.754,0.738 2.377,1.374c0.558,0.572 0.936,1.277 1.131,2.114c0.195,0.839 0.292,1.998 0.292,3.48l0,10.856c0,0.651 0.062,1.109 0.186,1.374c0.123,0.267 0.347,0.4 0.672,0.4c0.246,0 0.48,-0.058 0.702,-0.175c0.22,-0.117 0.474,-0.285 0.76,-0.506l0.409,0.681c-0.624,0.507 -1.293,0.878 -2.007,1.112c-0.716,0.234 -1.567,0.35 -2.553,0.35c-1.365,0 -2.343,-0.298 -2.934,-0.896c-0.592,-0.597 -0.894,-1.378 -0.907,-2.34c-0.65,1.08 -1.497,1.889 -2.544,2.427c-1.045,0.539 -2.16,0.809 -3.342,0.809c-1.52,0 -2.742,-0.399 -3.664,-1.199c-0.923,-0.798 -1.384,-1.912 -1.384,-3.342c0,-1.391 0.454,-2.537 1.364,-3.441c0.909,-0.903 2.326,-1.712 4.249,-2.426c0.195,-0.065 0.357,-0.129 0.487,-0.195c1.156,-0.429 2.044,-0.786 2.661,-1.072c0.617,-0.285 1.121,-0.616 1.511,-0.994c0.389,-0.377 0.584,-0.818 0.584,-1.325l0,-3.119c0,-1.104 -0.26,-1.975 -0.779,-2.612c-0.521,-0.636 -1.345,-0.955 -2.476,-0.955c-0.519,0 -1.04,0.081 -1.559,0.244c-0.52,0.162 -0.948,0.406 -1.286,0.73c0.74,0.248 1.318,0.637 1.735,1.17c0.415,0.533 0.623,1.189 0.623,1.968c0,0.832 -0.299,1.518 -0.896,2.057c-0.598,0.539 -1.385,0.809 -2.359,0.809c-0.858,0 -1.543,-0.289 -2.057,-0.868c-0.513,-0.578 -0.769,-1.315 -0.769,-2.212c0,-1.351 0.747,-2.462 2.241,-3.333c1.624,-0.909 3.645,-1.364 6.062,-1.364c1.351,0 2.508,0.14 3.47,0.419Z" style="fill-rule:nonzero;"/><path d="M179.057,149.548c0.168,0.417 0.435,0.709 0.799,0.878c0.364,0.169 0.864,0.253 1.501,0.253l0,0.838l-0.682,-0.019c-1.819,-0.09 -3.366,-0.136 -4.639,-0.136c-0.74,0 -2.339,0.039 -4.795,0.116c-0.39,0.027 -0.637,0.039 -0.74,0.039l0,-0.838c0.636,0 1.14,-0.084 1.509,-0.253c0.372,-0.169 0.637,-0.461 0.8,-0.878c0.162,-0.415 0.244,-0.994 0.244,-1.734l0,-22.747c0,-1.233 -0.192,-2.131 -0.576,-2.69c-0.382,-0.558 -1.042,-0.838 -1.977,-0.838l0,-0.837c0.843,0.077 1.669,0.116 2.475,0.116c2.339,0 4.281,-0.181 5.828,-0.545l0,27.541c0,0.74 0.084,1.319 0.253,1.734Z" style="fill-rule:nonzero;"/><path d="M193.754,130.691c0.844,0.253 1.506,0.536 1.988,0.848c0.285,0.182 0.526,0.273 0.721,0.273c0.493,0 0.805,-0.488 0.936,-1.462l0.857,0c-0.117,1.3 -0.175,3.638 -0.175,7.017l-0.838,0c-0.248,-1.755 -0.774,-3.222 -1.579,-4.406c-0.807,-1.181 -1.988,-1.774 -3.548,-1.774c-0.792,0 -1.442,0.231 -1.949,0.693c-0.506,0.461 -0.76,1.089 -0.76,1.881c0,0.637 0.165,1.218 0.497,1.744c0.331,0.527 0.743,1.001 1.238,1.424c0.493,0.421 1.182,0.951 2.066,1.588c0.247,0.169 0.617,0.435 1.111,0.799c1.078,0.806 1.942,1.511 2.593,2.115c0.649,0.604 1.175,1.293 1.578,2.065c0.402,0.774 0.604,1.661 0.604,2.661c0,1.183 -0.338,2.223 -1.013,3.119c-0.676,0.897 -1.593,1.588 -2.749,2.076c-1.157,0.487 -2.424,0.73 -3.801,0.73c-1.468,0 -2.716,-0.279 -3.742,-0.838c-0.871,-0.441 -1.488,-0.721 -1.851,-0.837c-0.078,-0.027 -0.137,-0.039 -0.176,-0.039c-0.428,0 -0.753,0.475 -0.975,1.422l-0.838,0c0.104,-1.52 0.157,-4.177 0.157,-7.971l0.857,0c0.546,4.898 2.339,7.348 5.379,7.348c0.781,0 1.443,-0.237 1.988,-0.712c0.547,-0.475 0.82,-1.185 0.82,-2.134c0,-0.741 -0.166,-1.403 -0.498,-1.988c-0.33,-0.585 -0.753,-1.111 -1.266,-1.579c-0.514,-0.468 -1.271,-1.092 -2.271,-1.871c-1.183,-0.922 -2.093,-1.683 -2.729,-2.281c-0.637,-0.597 -1.176,-1.296 -1.618,-2.096c-0.442,-0.798 -0.662,-1.698 -0.662,-2.698c0,-1.144 0.311,-2.131 0.935,-2.963c0.624,-0.831 1.459,-1.462 2.504,-1.891c1.047,-0.429 2.187,-0.643 3.421,-0.643c1.014,0 1.942,0.126 2.788,0.38Z" style="fill-rule:nonzero;"/><path d="M68.442,185.368c0.663,-0.605 1.085,-1.419 1.267,-2.446l0,-14.19c-0.689,-0.897 -1.656,-1.345 -2.904,-1.345c-1.403,0 -2.489,0.812 -3.255,2.436c-0.767,1.626 -1.143,4.055 -1.131,7.29c-0.012,3.262 0.305,5.605 0.956,7.026c0.649,1.424 1.585,2.135 2.806,2.135c0.845,0 1.599,-0.302 2.261,-0.906Zm7.592,0.38c0.383,0.559 1.044,0.838 1.979,0.838l0,0.838c-0.832,-0.077 -1.657,-0.117 -2.475,-0.117c-2.327,0 -4.269,0.182 -5.829,0.546l0,-3.372c-0.935,2.352 -2.664,3.528 -5.184,3.528c-1.625,0 -3.048,-0.393 -4.269,-1.18c-1.222,-0.785 -2.172,-1.997 -2.856,-3.634c-0.681,-1.637 -1.023,-3.691 -1.023,-6.159c0,-2.34 0.38,-4.32 1.14,-5.946c0.761,-1.624 1.814,-2.838 3.158,-3.644c1.345,-0.806 2.888,-1.209 4.63,-1.209c1.935,0 3.403,0.5 4.404,1.501l0,-6.744c0,-1.234 -0.191,-2.131 -0.575,-2.69c-0.383,-0.558 -1.042,-0.838 -1.978,-0.838l0,-0.838c0.844,0.078 1.67,0.117 2.475,0.117c2.339,0 4.282,-0.181 5.828,-0.545l0,26.878c0,1.221 0.193,2.112 0.575,2.67Z" style="fill-rule:nonzero;"/><path d="M87.378,168.868c-0.63,1.183 -1.023,3.009 -1.178,5.478l6.257,0c0.039,-2.079 -0.173,-3.808 -0.634,-5.186c-0.461,-1.376 -1.153,-2.065 -2.076,-2.065c-0.949,0 -1.738,0.592 -2.369,1.773Zm9.308,12.65l0.721,0.273c-0.338,1.079 -0.86,2.089 -1.569,3.032c-0.708,0.941 -1.608,1.708 -2.7,2.299c-1.091,0.592 -2.332,0.887 -3.722,0.887c-1.833,0 -3.437,-0.389 -4.815,-1.169c-1.378,-0.78 -2.453,-1.969 -3.227,-3.568c-0.772,-1.598 -1.159,-3.579 -1.159,-5.944c0,-2.404 0.413,-4.438 1.238,-6.101c0.825,-1.663 1.972,-2.91 3.441,-3.742c1.468,-0.831 3.164,-1.248 5.087,-1.248c5.002,0 7.505,2.956 7.505,8.869l-11.17,0c-0.052,0.52 -0.077,1.15 -0.077,1.89c0,1.754 0.246,3.21 0.74,4.367c0.494,1.157 1.137,2.004 1.93,2.543c0.792,0.539 1.637,0.809 2.534,0.809c2.195,0 3.944,-1.065 5.243,-3.197Z" style="fill-rule:nonzero;"/><path d="M116.445,160.263c-0.345,0.188 -0.583,0.523 -0.712,1.004c-0.13,0.481 -0.195,1.196 -0.195,2.144l0,11.811l1.715,0c2.17,0 3.665,-0.691 4.484,-2.075c0.818,-1.384 1.228,-3.258 1.228,-5.623c0,-2.586 -0.384,-4.489 -1.151,-5.712c-0.767,-1.22 -2.034,-1.831 -3.8,-1.831c-0.702,0 -1.225,0.094 -1.569,0.282Zm-0.907,22.717c0,1.066 0.11,1.843 0.332,2.329c0.22,0.488 0.616,0.816 1.188,0.984c0.572,0.17 1.488,0.262 2.749,0.274l0,0.877c-2.183,-0.078 -4.607,-0.117 -7.271,-0.117c-1.909,0 -4.022,0.039 -6.334,0.117l0,-0.799c0.897,-0.039 1.543,-0.143 1.939,-0.312c0.396,-0.169 0.669,-0.48 0.82,-0.936c0.148,-0.454 0.222,-1.182 0.222,-2.183l0,-19.803c0,-1.001 -0.074,-1.728 -0.222,-2.183c-0.151,-0.454 -0.428,-0.767 -0.829,-0.935c-0.403,-0.169 -1.047,-0.273 -1.93,-0.312l0,-0.799c1.351,0.078 3.372,0.116 6.061,0.116c0.495,0 1.989,-0.019 4.484,-0.058l1.793,-0.019c2.417,0 4.45,0.328 6.101,0.983c1.65,0.657 2.887,1.576 3.713,2.759c0.825,1.182 1.237,2.56 1.237,4.132c0,1.468 -0.367,2.875 -1.1,4.219c-0.734,1.346 -1.989,2.467 -3.763,3.363c-1.773,0.897 -4.129,1.345 -7.065,1.345l-2.125,0l0,6.958Z" style="fill-rule:nonzero;"/><path d="M139.211,157.32c0.656,0.552 0.984,1.304 0.984,2.251c0,0.962 -0.328,1.718 -0.984,2.27c-0.656,0.553 -1.537,0.829 -2.641,0.829c-1.131,0 -2.022,-0.276 -2.671,-0.829c-0.65,-0.552 -0.975,-1.308 -0.975,-2.27c0,-0.947 0.329,-1.699 0.986,-2.251c0.655,-0.553 1.541,-0.828 2.66,-0.828c1.104,0 1.985,0.275 2.641,0.828Zm0.741,28.155c0.162,0.416 0.428,0.709 0.798,0.878c0.371,0.169 0.874,0.253 1.511,0.253l0,0.838l-0.682,-0.02c-1.793,-0.09 -3.346,-0.137 -4.659,-0.137c-1.325,0 -2.931,0.047 -4.814,0.137l-0.702,0.02l0,-0.838c0.637,0 1.137,-0.084 1.501,-0.253c0.364,-0.169 0.63,-0.462 0.799,-0.878c0.169,-0.416 0.254,-0.994 0.254,-1.735l0,-12.591c0,-1.234 -0.192,-2.131 -0.575,-2.69c-0.384,-0.558 -1.043,-0.838 -1.979,-0.838l0,-0.838c0.975,0.091 1.8,0.136 2.476,0.136c2.261,0 4.203,-0.188 5.827,-0.565l0,17.386c0,0.741 0.082,1.319 0.245,1.735Z" style="fill-rule:nonzero;"/><path d="M154.219,176.216c-0.371,0.287 -0.926,0.657 -1.667,1.112c-0.844,0.623 -1.507,1.296 -1.988,2.016c-0.481,0.723 -0.72,1.628 -0.72,2.72c0,1.053 0.226,1.832 0.681,2.339c0.455,0.507 1.059,0.76 1.813,0.76c1.026,0 1.923,-0.538 2.69,-1.618l0,-8.186c-0.169,0.286 -0.439,0.572 -0.809,0.857Zm2.758,-9.559c0.961,0.278 1.754,0.737 2.378,1.373c0.558,0.572 0.936,1.277 1.131,2.115c0.195,0.839 0.292,1.998 0.292,3.479l0,10.857c0,0.65 0.061,1.108 0.185,1.374c0.124,0.267 0.348,0.4 0.672,0.4c0.247,0 0.481,-0.059 0.702,-0.175c0.221,-0.118 0.474,-0.286 0.76,-0.507l0.41,0.682c-0.624,0.506 -1.294,0.877 -2.008,1.111c-0.715,0.234 -1.566,0.351 -2.553,0.351c-1.365,0 -2.343,-0.299 -2.933,-0.897c-0.592,-0.597 -0.895,-1.377 -0.907,-2.339c-0.65,1.079 -1.498,1.888 -2.544,2.426c-1.046,0.54 -2.16,0.81 -3.343,0.81c-1.52,0 -2.741,-0.399 -3.664,-1.199c-0.923,-0.799 -1.384,-1.913 -1.384,-3.343c0,-1.39 0.455,-2.537 1.365,-3.44c0.909,-0.903 2.325,-1.712 4.248,-2.427c0.196,-0.065 0.358,-0.13 0.488,-0.195c1.156,-0.429 2.043,-0.786 2.661,-1.071c0.617,-0.286 1.12,-0.618 1.51,-0.995c0.39,-0.376 0.585,-0.819 0.585,-1.325l0,-3.119c0,-1.104 -0.26,-1.975 -0.78,-2.611c-0.52,-0.637 -1.344,-0.956 -2.475,-0.956c-0.52,0 -1.04,0.081 -1.559,0.244c-0.521,0.162 -0.949,0.407 -1.287,0.731c0.741,0.247 1.319,0.637 1.735,1.169c0.416,0.534 0.623,1.189 0.623,1.969c0,0.832 -0.299,1.517 -0.896,2.057c-0.598,0.539 -1.384,0.809 -2.359,0.809c-0.857,0 -1.542,-0.29 -2.056,-0.868c-0.514,-0.578 -0.77,-1.316 -0.77,-2.213c0,-1.35 0.747,-2.462 2.242,-3.333c1.624,-0.908 3.645,-1.364 6.062,-1.364c1.351,0 2.507,0.139 3.469,0.42Z" style="fill-rule:nonzero;"/><path d="M183.876,167.796c0.44,0.507 0.76,1.163 0.955,1.969c0.194,0.806 0.292,1.878 0.292,3.216l0,10.759c0,0.741 0.084,1.319 0.254,1.735c0.167,0.416 0.434,0.709 0.798,0.878c0.364,0.169 0.865,0.253 1.501,0.253l0,0.838l-0.682,-0.02c-1.819,-0.09 -3.347,-0.137 -4.58,-0.137c-1.3,0 -2.814,0.047 -4.542,0.137l-0.644,0.02l0,-0.838c0.547,0 0.972,-0.084 1.278,-0.253c0.305,-0.169 0.525,-0.462 0.662,-0.878c0.136,-0.416 0.205,-0.994 0.205,-1.735l0,-12.416c0,-1.091 -0.176,-1.92 -0.526,-2.485c-0.352,-0.566 -0.994,-0.847 -1.93,-0.847c-0.741,0 -1.413,0.202 -2.018,0.603c-0.603,0.403 -1.078,0.959 -1.422,1.666c-0.344,0.709 -0.517,1.492 -0.517,2.35l0,11.129c0,0.741 0.068,1.319 0.206,1.735c0.135,0.416 0.356,0.709 0.662,0.878c0.304,0.169 0.731,0.253 1.276,0.253l0,0.838l-0.624,-0.02c-1.663,-0.09 -3.106,-0.137 -4.327,-0.137c-1.312,0 -2.911,0.047 -4.795,0.137l-0.701,0.02l0,-0.838c0.636,0 1.136,-0.084 1.5,-0.253c0.364,-0.169 0.63,-0.462 0.8,-0.878c0.168,-0.416 0.253,-0.994 0.253,-1.735l0,-12.591c0,-1.234 -0.192,-2.131 -0.575,-2.69c-0.383,-0.558 -1.043,-0.838 -1.978,-0.838l0,-0.838c0.974,0.091 1.799,0.136 2.475,0.136c2.261,0 4.204,-0.188 5.828,-0.565l0,3.606c1.208,-2.482 3.378,-3.723 6.51,-3.723c2.027,0 3.496,0.52 4.406,1.559Z" style="fill-rule:nonzero;"/><path d="M196.72,169.521c-0.676,1.658 -1.013,4.194 -1.013,7.612c0,3.418 0.337,5.952 1.013,7.601c0.675,1.651 1.585,2.476 2.729,2.476c1.157,0 2.072,-0.825 2.749,-2.476c0.675,-1.649 1.013,-4.183 1.013,-7.601c0,-3.418 -0.338,-5.954 -1.013,-7.612c-0.677,-1.656 -1.592,-2.485 -2.749,-2.485c-1.144,0 -2.054,0.829 -2.729,2.485Zm9.912,-0.662c1.734,1.747 2.602,4.506 2.602,8.274c0,3.781 -0.868,6.539 -2.602,8.274c-1.735,1.734 -4.13,2.602 -7.183,2.602c-3.04,0 -5.428,-0.868 -7.162,-2.602c-1.736,-1.735 -2.603,-4.493 -2.603,-8.274c0,-3.768 0.867,-6.527 2.603,-8.274c1.734,-1.748 4.122,-2.622 7.162,-2.622c3.053,0 5.448,0.874 7.183,2.622Z" style="fill-rule:nonzero;"/><path d="M52.036,43.308c-6.52,0.918 -8.631,5.509 -7.896,20.933c0.55,11.017 1.469,20.199 1.376,29.563c-0.182,14.323 -3.212,20.932 -9.915,26.074c6.519,5.141 9.915,11.568 9.915,27.544c0,7.161 -0.55,15.791 -0.917,24.972c-0.734,17.811 -0.092,23.32 7.437,24.238l0.092,5.692c-5.325,1.102 -14.599,-6.059 -14.599,-28.277c0,-9.365 0.734,-26.993 0.734,-36.725c0,-10.834 -2.754,-14.506 -7.712,-14.506l-0.551,-5.509c5.142,-0.184 8.263,-4.039 8.171,-15.056c0,-9.365 -0.642,-24.973 -0.642,-32.869c0,-24.972 9.457,-32.501 14.782,-31.766l-0.275,5.692Z" style="fill-rule:nonzero;"/></g></g></svg>