<?xml version="1.0" encoding="UTF-8" standalone="no"?><!DOCTYPE svg PUBLIC "-//W3C//DTD SVG 1.1//EN" "http://www.w3.org/Graphics/SVG/1.1/DTD/svg11.dtd"><svg width="100%" height="100%" viewBox="0 0 1000 1000" version="1.1" xmlns="http://www.w3.org/2000/svg" xmlns:xlink="http://www.w3.org/1999/xlink" xml:space="preserve" style="fill-rule:evenodd;clip-rule:evenodd;stroke-linecap:round;stroke-linejoin:round;"><rect id="white" x="0" y="0" width="1000" height="1000" style="fill:#fff;"/><g><path d="M128.558,755.172l721.966,0" style="fill:none;stroke:#403f41;stroke-width:6px;"/><path d="M553.871,355.071l0,332.26c0,23.692 13.164,36.664 37.783,36.664l115.63,0c85.864,0 167.716,-29.339 167.716,-122.975c0,-31.583 -14.315,-73.333 -62.967,-88.556l0,-1.132c30.917,-18.058 46.358,-54.162 46.358,-85.745c0,-71.642 -61.233,-107.186 -149.384,-107.186l-117.353,0c-24.619,0 -37.783,12.412 -37.783,36.67m6.218,0c0,-20.49 10.323,-30.452 31.565,-30.452l117.353,0c90.987,0 143.165,36.807 143.165,100.968c0,25.421 -11.33,61.718 -43.28,80.379c-1.909,1.113 -3.078,3.159 -3.078,5.366l0,1.132c0,2.718 1.766,5.124 4.359,5.932c54.38,17.014 58.609,67.544 58.609,82.624c0,101.59 -101.186,116.756 -161.498,116.756l-115.63,0c-20.944,0 -31.565,-10.241 -31.565,-30.445l0,-332.26" style="fill:#403f41;fill-rule:nonzero;"/><path d="M553.871,355.071l0,332.26c0,23.692 13.164,36.664 37.783,36.664l115.63,0c85.864,0 167.716,-29.339 167.716,-122.975c0,-31.583 -14.315,-73.333 -62.967,-88.556l0,-1.132c30.917,-18.058 46.358,-54.162 46.358,-85.745c0,-71.642 -61.233,-107.186 -149.384,-107.186l-117.353,0c-24.619,0 -37.783,12.412 -37.783,36.67m6.218,0c0,-20.49 10.323,-30.452 31.565,-30.452l117.353,0c90.987,0 143.165,36.807 143.165,100.968c0,25.421 -11.33,61.718 -43.28,80.379c-1.909,1.113 -3.078,3.159 -3.078,5.366l0,1.132c0,2.718 1.766,5.124 4.359,5.932c54.38,17.014 58.609,67.544 58.609,82.624c0,101.59 -101.186,116.756 -161.498,116.756l-115.63,0c-20.944,0 -31.565,-10.241 -31.565,-30.445l0,-332.26" style="fill:none;stroke:#403f41;stroke-width:1px;stroke-linecap:butt;stroke-miterlimit:1.41421;"/><path d="M345.877,611.538c0,-9.19 -4.776,-13.232 -11.386,-13.232c-21.69,0 -22.43,26.459 -22.43,48.515l0,53.286c0,15.434 -8.084,23.891 -23.885,23.891l-28.666,0c-15.801,0 -23.885,-8.457 -23.885,-23.891l0,-88.569c0,-9.19 -4.776,-13.232 -11.392,-13.232c-21.69,0 -22.424,26.459 -22.424,48.515l0,53.286c0,15.434 -8.444,23.891 -24.245,23.891l-28.673,0c-15.434,0 -23.891,-8.457 -23.891,-23.891l0,-142.961c0,-15.801 8.457,-23.885 23.891,-23.885l25.359,0c13.226,0 23.517,8.445 23.517,26.827l0.74,0c8.818,-14.34 22.418,-31.242 52.552,-31.242c20.216,0 41.899,8.457 51.457,30.875l0.727,0c8.084,-16.541 30.875,-30.875 58.068,-30.875c31.241,0 61.375,16.174 61.375,70.567l0,100.694c0,15.434 -8.084,23.891 -23.891,23.891l-28.66,0c-15.808,0 -24.258,-8.457 -24.258,-23.891l0,-88.569Z" style="fill:#403f41;fill-rule:nonzero;"/><path d="M448.099,557.147c0,-15.801 8.451,-23.891 23.891,-23.891l28.667,0c15.807,0 24.252,8.09 24.252,23.891l0,142.96c0,15.434 -8.445,23.891 -24.252,23.891l-28.667,0c-15.44,0 -23.891,-8.457 -23.891,-23.891l0,-142.96Z" style="fill:#403f41;fill-rule:nonzero;"/><path d="M125.001,342.226l0,142.96c0,15.434 8.45,23.891 23.891,23.891l28.666,0c15.807,0 24.252,-8.457 24.252,-23.891l0,-53.285c0,-22.057 0.734,-48.516 22.423,-48.516c6.617,0 11.393,4.042 11.393,13.233l0,88.568c0,15.434 8.083,23.891 23.884,23.891l28.667,0c15.801,0 23.885,-8.457 23.885,-23.891l0,-53.285c0,-22.057 0.74,-48.516 22.429,-48.516c6.611,0 11.386,4.042 11.386,13.233l0,88.568c0,15.434 8.451,23.891 24.258,23.891l28.661,0c15.801,0 23.891,-8.457 23.891,-23.891l0,-100.7c0,-54.386 -30.135,-70.56 -61.376,-70.56c-27.193,0 -49.983,14.333 -58.067,30.868l-0.727,0c-9.558,-22.411 -31.242,-30.868 -51.457,-30.868c-30.135,0 -43.734,16.901 -52.552,31.241l-0.74,0c0,-18.382 -10.291,-26.832 -23.518,-26.832l-25.358,0c-15.441,0 -23.891,8.09 -23.891,23.891m6.218,0c0,-12.22 5.447,-17.673 17.673,-17.673l25.358,0c11.156,0 17.3,7.319 17.3,20.614c0,3.432 2.785,6.218 6.218,6.218l0.74,0c2.158,0 4.16,-1.125 5.292,-2.96c9.041,-14.688 21.018,-28.281 47.26,-28.281c10.278,0 35.307,2.643 45.736,27.094c0.976,2.288 3.227,3.774 5.721,3.774l0.727,0c2.376,0 4.54,-1.349 5.584,-3.482c6.654,-13.612 26.814,-27.386 52.483,-27.386c25.16,0 55.157,11.162 55.157,64.342l0,100.7c0,12.219 -5.453,17.673 -17.672,17.673l-28.661,0c-12.306,0 -18.039,-5.616 -18.039,-17.673l0,-88.568c0,-11.815 -6.909,-19.451 -17.605,-19.451c-28.648,0 -28.648,34.263 -28.648,54.734l0,53.285c0,12.219 -5.447,17.673 -17.666,17.673l-28.667,0c-12.219,0 -17.666,-5.454 -17.666,-17.673l0,-88.568c0,-11.815 -6.915,-19.451 -17.611,-19.451c-28.641,0 -28.641,34.263 -28.641,54.734l0,53.285c0,12.057 -5.728,17.673 -18.034,17.673l-28.666,0c-12.058,0 -17.673,-5.616 -17.673,-17.673l0,-142.96" style="fill:#403f41;fill-rule:nonzero;"/><path d="M449.571,268.719l0,7.717c0,15.801 8.084,24.258 23.891,24.258l26.092,0c15.434,0 23.891,-8.457 23.891,-24.258l0,-7.717c0,-15.801 -8.457,-23.891 -23.891,-23.891l-26.092,0c-15.807,0 -23.891,8.09 -23.891,23.891m-1.474,73.508l0,142.96c0,15.434 8.457,23.885 23.891,23.885l28.673,0c15.801,0 24.246,-8.451 24.246,-23.885l0,-142.96c0,-15.807 -8.445,-23.891 -24.246,-23.891l-28.673,0c-15.434,0 -23.891,8.084 -23.891,23.891m7.693,-73.508c0,-12.387 5.285,-17.672 17.672,-17.672l26.092,0c12.226,0 17.673,5.453 17.673,17.672l0,7.717c0,12.307 -5.615,18.04 -17.673,18.04l-26.092,0c-12.225,0 -17.672,-5.566 -17.672,-18.04l0,-7.717m-1.474,73.508c0,-12.226 5.453,-17.673 17.672,-17.673l28.673,0c12.468,0 18.027,5.447 18.027,17.673l0,142.96c0,12.051 -5.727,17.667 -18.027,17.667l-28.673,0c-12.057,0 -17.672,-5.616 -17.672,-17.667l0,-142.96" style="fill:#403f41;fill-rule:nonzero;"/></g></svg>