<?xml version="1.0" encoding="UTF-8" standalone="no"?><!DOCTYPE svg PUBLIC "-//W3C//DTD SVG 1.1//EN" "http://www.w3.org/Graphics/SVG/1.1/DTD/svg11.dtd"><svg width="100%" height="100%" viewBox="0 0 1000 1000" version="1.1" xmlns="http://www.w3.org/2000/svg" xmlns:xlink="http://www.w3.org/1999/xlink" xml:space="preserve" style="fill-rule:evenodd;clip-rule:evenodd;stroke-linejoin:round;stroke-miterlimit:1.41421;"><rect id="outlined-logo" x="0" y="0" width="1000" height="1000" style="fill:none;"/><clipPath id="_clip1"><rect x="0" y="0" width="1000" height="1000"/></clipPath><g clip-path="url(#_clip1)"><g id="Layer-1"><rect x="0" y="0" width="1000" height="1000" style="fill:#fff;"/><g><path d="M356.752,396.742l4.919,0l0,77.422l29.751,0l0,4.568l-34.67,0l0,-81.99Z" style="fill:#005e83;fill-rule:nonzero;"/><path d="M393.304,395.687l5.385,0l-4.567,17.686l-4.099,0l3.281,-17.686Z" style="fill:#005e83;fill-rule:nonzero;"/><path d="M438.516,475.453c14.761,0 27.059,-14.056 27.059,-38.302c0,-23.66 -12.298,-37.13 -27.059,-37.13c-14.755,0 -26.939,13.47 -26.939,37.13c0,24.246 12.184,38.302 26.939,38.302m0,-80.117c17.804,0 32.213,15.578 32.213,41.815c0,26.823 -14.409,42.987 -32.213,42.987c-17.567,0 -31.976,-16.164 -31.976,-42.987c0,-26.237 14.409,-41.815 31.976,-41.815" style="fill:#005e83;fill-rule:nonzero;"/><path d="M540.194,396.742l5.74,0l0,8.55l-5.74,0l0,-8.55Zm-62.429,23.426l5.623,0l0,-2.343c0,-19.327 10.073,-21.669 14.406,-21.669c0.821,0 1.759,0 2.928,0.235l0,4.45c-0.7,-0.117 -1.287,-0.233 -1.99,-0.233c-3.515,0 -10.425,1.873 -10.425,17.1l0,2.46l24.362,0l0,-2.343c0,-19.327 10.073,-21.669 14.292,-21.669c0.935,0 1.873,0 2.928,0.235l0,4.45c-0.586,-0.117 -1.172,-0.233 -1.876,-0.233c-3.629,0 -10.422,1.873 -10.422,17.1l0,2.46l27.874,0l0,58.564l-4.802,0l0,-54.114l-23.072,0l0,54.114l-4.922,0l0,-54.114l-24.362,0l0,54.114l-4.919,0l0,-54.114l-5.623,0l0,-4.45Z" style="fill:#005e83;fill-rule:nonzero;"/><path d="M580.967,418.762c5.271,0 11.246,1.757 14.875,5.973l-2.225,4.334c-3.28,-3.513 -7.73,-5.74 -12.767,-5.74c-11.595,0 -19.56,10.425 -19.56,26.237c0,15.579 7.848,26.004 19.56,26.004c5.506,0 10.542,-2.46 14.172,-6.677l1.759,4.45c-2.929,3.749 -9.487,6.794 -16.517,6.794c-13.703,0 -24.011,-11.947 -24.011,-30.571c0,-18.623 10.191,-30.804 24.714,-30.804" style="fill:#005e83;fill-rule:nonzero;"/><path d="M606.511,420.168l4.802,0l0,58.564l-4.802,0l0,-58.564Zm-0.469,-23.426l5.74,0l0,8.55l-5.74,0l0,-8.55Z" style="fill:#005e83;fill-rule:nonzero;"/><path d="M625.256,420.168l4.802,0l0,6.792c0,2.11 -0.352,3.749 -0.352,3.749l0.235,0c1.521,-4.333 7.144,-11.947 18.739,-11.947c11.597,0 14.875,7.848 14.875,18.272l0,41.698l-4.802,0l0,-40.41c0,-7.027 -0.818,-14.992 -10.657,-14.992c-10.307,0 -18.038,9.253 -18.038,19.796l0,35.606l-4.802,0l0,-58.564Z" style="fill:#005e83;fill-rule:nonzero;"/><path d="M709.945,444.062c-0.234,-14.291 -5.388,-20.733 -13.705,-20.733c-8.783,0 -15.227,7.029 -16.749,20.733l30.454,0Zm-13.705,-25.3c13.705,0 18.742,12.884 18.742,25.767c0,1.172 -0.117,2.695 -0.235,4.1l-35.49,0c0.117,17.922 7.965,26.823 18.273,26.823c5.502,0 10.891,-2.459 14.523,-6.442l1.639,4.1c-3.281,3.864 -9.604,7.027 -16.514,7.027c-13.706,0 -22.958,-11.948 -22.958,-31.156c0,-18.858 9.018,-30.219 22.02,-30.219" style="fill:#005e83;fill-rule:nonzero;"/><path d="M742.09,475.291c5.271,0 8.637,-4.464 8.637,-14.932c0,-7.614 -2.048,-15.006 -8.417,-15.006c-5.563,0 -8.637,5.49 -8.637,15.006c0,9.149 2.708,14.932 8.417,14.932m-0.512,-34.258c4.393,0 7.539,2.197 9.078,5.783l0.146,0c0,0 -0.221,-1.317 -0.221,-2.854l0,-16.69l4.759,0l0,51.46l-4.613,0l0,-3.075c0,-1.61 0.22,-2.781 0.22,-2.781l-0.145,0c-1.245,3.586 -4.245,6.734 -9.662,6.734c-8.346,0 -12.373,-7.905 -12.373,-19.324c0,-11.639 4.539,-19.253 12.811,-19.253" style="fill:#005e83;fill-rule:nonzero;"/><path d="M783.017,456.625c-0.074,-7.833 -2.708,-11.419 -7.467,-11.419c-4.905,0 -8.197,4.026 -9.075,11.419l16.542,0Zm-7.393,-15.592c8.858,0 12.224,8.053 12.224,16.397c0,0.952 -0.074,1.903 -0.146,3.074l-21.227,0c0.145,9.956 4.684,14.714 10.393,14.714c3.366,0 6.661,-1.391 8.929,-3.807l1.393,3.88c-2.271,2.415 -6.444,4.319 -10.762,4.319c-9.296,0 -14.858,-7.905 -14.858,-19.618c0,-11.491 5.488,-18.959 14.054,-18.959" style="fill:#005e83;fill-rule:nonzero;"/><path d="M793.345,471.85c1.465,1.319 4.39,3.514 7.98,3.514c3.658,0 6.146,-2.268 6.146,-5.856c0,-8.783 -14.858,-6.441 -14.858,-18.373c0,-6.075 3.953,-10.102 10.539,-10.102c2.783,0 5.784,0.879 8.054,2.635l-1.61,4.027c-1.684,-1.318 -4.173,-2.416 -6.515,-2.416c-3.295,0 -5.783,1.976 -5.783,5.637c0,8.856 14.858,6.441 14.858,18.226c0,5.637 -3.512,10.468 -10.831,10.468c-3.735,0 -7.322,-1.463 -9.956,-3.953l1.976,-3.807Z" style="fill:#005e83;fill-rule:nonzero;"/><path d="M354.292,567.886c2.577,2.108 7.262,5.386 12.416,5.386c4.802,0 8.2,-2.926 8.2,-7.614c0,-12.064 -22.841,-9.487 -22.841,-28.226c0,-10.307 7.027,-16.983 18.039,-16.983c4.919,0 9.956,1.404 13.937,4.45l-3.515,8.784c-2.694,-1.991 -6.558,-3.747 -10.305,-3.747c-4.336,0 -7.731,2.577 -7.731,7.262c0,11.946 22.723,9.252 22.723,27.877c0,9.604 -5.974,17.569 -18.155,17.569c-6.444,0 -12.416,-2.342 -16.984,-6.444l4.216,-8.314Z" style="fill:#00b25a;fill-rule:nonzero;"/><path d="M392.949,521.853l10.894,0l0,39.472c0,5.74 1.287,11.011 7.848,11.011c7.848,0 12.999,-9.02 12.999,-16.865l0,-33.618l10.777,0l0,59.384l-10.425,0l0,-4.919c0,-2.108 0.235,-3.747 0.235,-3.747l-0.235,0c-1.99,3.864 -6.793,10.073 -16.397,10.073c-10.425,0 -15.696,-6.795 -15.696,-19.328l0,-41.463Z" style="fill:#00b25a;fill-rule:nonzero;"/><path d="M469.324,573.154c7.614,0 11.95,-7.845 11.95,-21.433c0,-13.119 -3.75,-21.551 -11.715,-21.551c-7.379,0 -11.947,6.441 -11.947,21.434c0,11.011 2.577,21.55 11.712,21.55m-22.254,-51.301l9.956,0l0,4.099c0,2.459 -0.235,4.335 -0.235,4.335l0.235,0c1.876,-4.919 6.209,-9.838 14.992,-9.838c13.354,0 20.264,12.764 20.264,30.92c0,19.094 -7.965,31.275 -20.85,31.275c-5.737,0 -11.36,-2.811 -13.585,-8.2l-0.235,0c0,0 0.352,2.108 0.352,4.919l0,25.301l-10.894,0l0,-82.811Z" style="fill:#00b25a;fill-rule:nonzero;"/><path d="M523.328,573.154c7.614,0 11.95,-7.845 11.95,-21.433c0,-13.119 -3.75,-21.551 -11.715,-21.551c-7.379,0 -11.947,6.441 -11.947,21.434c0,11.011 2.577,21.55 11.712,21.55m-22.254,-51.301l9.956,0l0,4.099c0,2.459 -0.235,4.335 -0.235,4.335l0.235,0c1.876,-4.919 6.209,-9.838 14.992,-9.838c13.354,0 20.264,12.764 20.264,30.92c0,19.094 -7.965,31.275 -20.85,31.275c-5.737,0 -11.36,-2.811 -13.585,-8.2l-0.235,0c0,0 0.352,2.108 0.352,4.919l0,25.301l-10.894,0l0,-82.811Z" style="fill:#00b25a;fill-rule:nonzero;"/><path d="M555.078,498.426l10.894,0l0,64.658c0,7.262 1.756,8.666 4.802,8.666c0.469,0 1.056,0 1.639,-0.117l0,9.838c-0.818,0.118 -1.99,0.235 -3.512,0.235c-5.975,0 -13.823,-1.756 -13.823,-16.866l0,-66.414Z" style="fill:#00b25a;fill-rule:nonzero;"/><path d="M600.997,498.309l11.363,0l-9.37,14.993l-8.786,0l6.793,-14.993Zm8.2,46.737c-0.118,-10.425 -3.395,-15.579 -10.074,-15.579c-6.792,0 -10.891,5.857 -11.946,15.579l22.02,0Zm-9.839,-24.597c14.523,0 20.381,12.882 20.381,26.939c0,1.756 -0.117,3.512 -0.235,5.623l-32.21,0c0.469,13.82 7.027,19.912 14.875,19.912c5.154,0 10.308,-1.994 13.937,-5.623l2.929,8.431c-4.098,4.102 -11.125,6.913 -18.038,6.913c-16.163,0 -24.714,-13.471 -24.714,-31.626c0,-17.919 8.551,-30.569 23.075,-30.569" style="fill:#00b25a;fill-rule:nonzero;"/><path d="M628.413,521.853l10.542,0l0,5.037c0,2.108 -0.351,3.749 -0.351,3.749l0.234,0c1.874,-3.866 6.209,-10.19 15.814,-10.19c6.792,0 11.008,3.747 12.884,10.19l0.466,0c2.46,-4.453 6.913,-10.19 16.283,-10.19c9.369,0 14.406,6.675 14.406,19.325l0,41.463l-10.894,0l0,-39.355c0,-5.974 -1.404,-11.128 -7.144,-11.128c-6.91,0 -11.712,7.731 -11.712,16.165l0,34.318l-10.895,0l0,-39.355c0,-5.974 -1.404,-11.128 -7.144,-11.128c-7.027,0 -11.595,8.2 -11.595,16.869l0,33.614l-10.894,0l0,-59.384Z" style="fill:#00b25a;fill-rule:nonzero;"/><path d="M739.813,545.045c-0.117,-10.425 -3.395,-15.579 -10.073,-15.579c-6.793,0 -10.891,5.858 -11.946,15.579l22.019,0Zm-9.838,-24.596c14.523,0 20.38,12.881 20.38,26.939c0,1.756 -0.117,3.512 -0.234,5.623l-32.21,0c0.469,13.819 7.027,19.911 14.875,19.911c5.154,0 10.308,-1.993 13.937,-5.623l2.929,8.432c-4.099,4.101 -11.126,6.913 -18.039,6.913c-16.162,0 -24.714,-13.471 -24.714,-31.627c0,-17.918 8.552,-30.568 23.076,-30.568" style="fill:#00b25a;fill-rule:nonzero;"/><path d="M759.03,521.853l10.542,0l0,5.037c0,2.108 -0.352,3.749 -0.352,3.749l0.235,0c1.99,-4.101 7.027,-10.19 16.866,-10.19c10.307,0 15.578,6.793 15.578,19.325l0,41.463l-10.776,0l0,-39.355c0,-5.857 -1.287,-11.128 -7.846,-11.128c-8.434,0 -13.353,9.255 -13.353,16.986l0,33.497l-10.894,0l0,-59.384Z" style="fill:#00b25a;fill-rule:nonzero;"/><path d="M814.558,531.692l-5.974,0l0,-9.135l6.323,0l0,-16.983l10.542,0l0,16.983l10.543,0l0,9.135l-10.543,0l0,26.704c0,11.715 5.154,13.354 9.256,13.354c0.466,0 1.404,0 2.108,-0.235l0,9.956c-0.47,0.118 -2.226,0.235 -3.516,0.235c-6.323,0 -18.739,-2.343 -18.739,-22.137l0,-27.877Z" style="fill:#00b25a;fill-rule:nonzero;"/><path d="M844.077,567.886c2.577,2.108 7.262,5.386 12.416,5.386c4.802,0 8.2,-2.926 8.2,-7.614c0,-12.064 -22.841,-9.487 -22.841,-28.226c0,-10.307 7.027,-16.983 18.039,-16.983c4.919,0 9.955,1.404 13.937,4.45l-3.512,8.784c-2.695,-1.991 -6.561,-3.747 -10.308,-3.747c-4.333,0 -7.731,2.577 -7.731,7.262c0,11.946 22.723,9.252 22.723,27.877c0,9.604 -5.974,17.569 -18.155,17.569c-6.441,0 -12.416,-2.342 -16.984,-6.444l4.216,-8.314Z" style="fill:#00b25a;fill-rule:nonzero;"/><rect x="266.425" y="468.752" width="43.235" height="17.225" style="fill:#0086b4;fill-rule:nonzero;"/><rect x="266.425" y="396.576" width="43.235" height="20.154" style="fill:#53b7e8;fill-rule:nonzero;"/><rect x="266.425" y="422.588" width="43.235" height="17.225" style="fill:#00abe6;fill-rule:nonzero;"/><rect x="266.425" y="445.67" width="43.235" height="17.225" style="fill:#1ea0ca;fill-rule:nonzero;"/><rect x="220.259" y="537.999" width="17.225" height="43.238" style="fill:#007298;fill-rule:nonzero;"/><rect x="220.259" y="491.835" width="40.308" height="17.226" style="fill:#00abe6;fill-rule:nonzero;"/><rect x="220.259" y="514.918" width="40.308" height="17.223" style="fill:#0086b4;fill-rule:nonzero;"/><rect x="243.342" y="537.999" width="17.226" height="43.238" style="fill:#1ea0ca;fill-rule:nonzero;"/><rect x="125" y="561.083" width="43.235" height="20.154" style="fill:#0086b4;fill-rule:nonzero;"/><rect x="125" y="491.836" width="20.153" height="40.305" style="fill:#53b7e8;fill-rule:nonzero;"/><rect x="151.011" y="491.836" width="17.225" height="40.305" style="fill:#1ea0ca;fill-rule:nonzero;"/><rect x="125" y="537.999" width="43.235" height="17.226" style="fill:#005e83;fill-rule:nonzero;"/><rect x="220.259" y="396.576" width="40.308" height="43.236" style="fill:#005e83;fill-rule:nonzero;"/><rect x="220.259" y="445.67" width="40.308" height="40.307" style="fill:#53b7e8;fill-rule:nonzero;"/><rect x="266.425" y="491.835" width="43.235" height="89.402" style="fill:#005e83;fill-rule:nonzero;"/><rect x="174.093" y="491.836" width="40.308" height="40.305" style="fill:#005e83;fill-rule:nonzero;"/><rect x="174.093" y="537.999" width="40.308" height="43.238" style="fill:#53b7e8;fill-rule:nonzero;"/><path d="M200.018,445.67l-25.925,0l0,25.925l-5.857,0l0,-25.925l-25.924,0l0,-5.857l25.924,0l0,-25.925l5.857,0l0,25.925l25.925,0l0,5.857Zm-28.853,-49.094l-46.165,0l0,89.403l89.402,0l0,-89.403l-43.237,0Z" style="fill:#00b25a;fill-rule:nonzero;"/></g></g></g></svg>