<?xml version="1.0" encoding="UTF-8" standalone="no"?><!DOCTYPE svg PUBLIC "-//W3C//DTD SVG 1.1//EN" "http://www.w3.org/Graphics/SVG/1.1/DTD/svg11.dtd"><svg width="100%" height="100%" viewBox="0 0 1000 1000" version="1.1" xmlns="http://www.w3.org/2000/svg" xmlns:xlink="http://www.w3.org/1999/xlink" xml:space="preserve" style="fill-rule:evenodd;clip-rule:evenodd;stroke-linejoin:round;stroke-miterlimit:1.41421;"><rect id="outlined" x="0" y="0" width="1000" height="1000" style="fill:none;"/><g id="Layer-1"><rect x="0" y="0" width="1000" height="1000" style="fill:#fff;"/><g><path d="M862.564,537.863l0,-94.443c0,-19.6 -15.889,-35.489 -35.488,-35.489l-173.009,0c-19.599,0 -35.489,15.889 -35.489,35.489l0,94.443c0,19.6 15.89,35.489 35.489,35.489l173.009,0c0,0 23.961,-1.293 47.924,30.998c0,0 -12.436,-25.805 -12.436,-66.487" style="fill:#47b972;fill-rule:nonzero;"/><path d="M603.395,539l-22.351,0l0,-96.613l22.351,0l0,96.613Zm-52.038,-143.35c4.677,0 8.65,0.37 11.911,1.107c3.265,0.74 5.822,1.48 7.667,2.217l-3.509,18.105c-1.727,-0.615 -3.788,-1.17 -6.188,-1.664c-2.404,-0.489 -5.019,-0.737 -7.852,-0.737c-7.387,0 -12.47,1.971 -15.239,5.91c-2.769,3.944 -4.158,9.052 -4.158,15.332l0,6.467l35.471,0l0,18.658l-35.471,0l0,77.955l-22.352,0l0,-103.448c0,-12.562 3.261,-22.353 9.791,-29.373c6.526,-7.02 16.503,-10.529 29.929,-10.529m-74.632,94.951c0,-9.606 -2.065,-17.21 -6.187,-22.813c-4.131,-5.604 -9.886,-8.407 -17.274,-8.407c-7.391,0 -13.146,2.803 -17.273,8.407c-4.126,5.603 -6.187,13.207 -6.187,22.813c0,9.731 2.061,17.427 6.187,23.091c4.127,5.665 9.882,8.497 17.273,8.497c7.388,0 13.143,-2.832 17.274,-8.497c4.122,-5.664 6.187,-13.36 6.187,-23.091m22.907,0c0,7.638 -1.11,14.592 -3.329,20.875c-2.214,6.28 -5.353,11.638 -9.417,16.071c-4.068,4.434 -8.961,7.881 -14.689,10.344c-5.727,2.462 -12.037,3.696 -18.933,3.696c-6.9,0 -13.178,-1.234 -18.842,-3.696c-5.665,-2.463 -10.531,-5.91 -14.595,-10.344c-4.063,-4.433 -7.234,-9.791 -9.511,-16.071c-2.282,-6.283 -3.419,-13.237 -3.419,-20.875c0,-7.635 1.137,-14.562 3.419,-20.782c2.277,-6.217 5.475,-11.545 9.606,-15.979c4.122,-4.433 9.02,-7.851 14.685,-10.253c5.664,-2.402 11.883,-3.601 18.657,-3.601c6.77,0 13.021,1.199 18.749,3.601c5.727,2.402 10.621,5.82 14.689,10.253c4.063,4.434 7.229,9.762 9.511,15.979c2.278,6.22 3.419,13.147 3.419,20.782m-95.689,-28.079c-1.849,-0.615 -4.406,-1.26 -7.667,-1.939c-3.265,-0.677 -7.053,-1.017 -11.36,-1.017c-2.467,0 -5.083,0.248 -7.852,0.739c-2.769,0.494 -4.709,0.923 -5.818,1.293l0,77.402l-22.352,0l0,-91.994c4.307,-1.602 9.697,-3.11 16.164,-4.526c6.463,-1.416 13.638,-2.127 21.522,-2.127c1.475,0 3.197,0.093 5.168,0.278c1.971,0.185 3.942,0.433 5.913,0.739c1.971,0.309 3.878,0.679 5.727,1.11c1.845,0.433 3.324,0.83 4.434,1.199l-3.879,18.843Zm-122.293,-45.627l22.356,-3.696l0,29.188l34.357,0l0,18.658l-34.357,0l0,39.345c0,7.76 1.227,13.302 3.694,16.626c2.462,3.326 6.648,4.988 12.56,4.988c4.064,0 7.667,-0.43 10.806,-1.292c3.144,-0.861 5.633,-1.664 7.482,-2.401l3.694,17.733c-2.584,1.109 -5.976,2.248 -10.161,3.419c-4.185,1.168 -9.115,1.754 -14.775,1.754c-6.9,0 -12.655,-0.925 -17.273,-2.771c-4.618,-1.847 -8.285,-4.526 -10.991,-8.037c-2.71,-3.509 -4.618,-7.757 -5.728,-12.745c-1.109,-4.988 -1.664,-10.682 -1.664,-17.089l0,-83.68Zm-33.802,64.285c0,-3.078 -0.433,-6.005 -1.294,-8.774c-0.862,-2.772 -2.125,-5.173 -3.789,-7.205c-1.66,-2.032 -3.694,-3.633 -6.093,-4.803c-2.404,-1.17 -5.268,-1.754 -8.591,-1.754c-3.451,0 -6.468,0.645 -9.052,1.939c-2.584,1.292 -4.776,2.988 -6.557,5.08c-1.786,2.095 -3.171,4.497 -4.159,7.203c-0.987,2.71 -1.659,5.482 -2.029,8.314l41.564,0Zm-64.84,9.974c0,-8.497 1.263,-15.948 3.788,-22.352c2.521,-6.402 5.877,-11.73 10.066,-15.979c4.186,-4.248 8.989,-7.45 14.41,-9.606c5.416,-2.153 10.959,-3.231 16.624,-3.231c13.3,0 23.673,4.126 31.128,12.375c7.45,8.253 11.175,20.57 11.175,36.946c0,1.233 -0.031,2.618 -0.094,4.156c-0.063,1.542 -0.154,2.927 -0.275,4.158l-63.731,0c0.613,7.757 3.355,13.762 8.222,18.011c4.861,4.248 11.911,6.372 21.147,6.372c5.421,0 10.377,-0.489 14.874,-1.477c4.492,-0.985 8.037,-2.031 10.621,-3.141l2.954,18.288c-1.231,0.618 -2.927,1.265 -5.078,1.939c-2.156,0.679 -4.618,1.295 -7.388,1.85c-2.773,0.552 -5.759,1.014 -8.961,1.384c-3.202,0.37 -6.467,0.555 -9.791,0.555c-8.497,0 -15.884,-1.265 -22.167,-3.789c-6.282,-2.521 -11.455,-6.032 -15.519,-10.528c-4.063,-4.494 -7.08,-9.791 -9.051,-15.887c-1.971,-6.097 -2.954,-12.774 -2.954,-20.044m-2.959,-28.632c-1.844,-0.615 -4.402,-1.26 -7.667,-1.939c-3.261,-0.677 -7.049,-1.017 -11.36,-1.017c-2.463,0 -5.079,0.248 -7.848,0.739c-2.773,0.494 -4.713,0.923 -5.822,1.293l0,77.402l-22.352,0l0,-91.994c4.312,-1.602 9.701,-3.11 16.164,-4.526c6.467,-1.416 13.638,-2.127 21.522,-2.127c1.479,0 3.202,0.093 5.173,0.278c1.966,0.185 3.937,0.433 5.912,0.739c1.967,0.309 3.879,0.679 5.723,1.11c1.85,0.433 3.329,0.83 4.434,1.199l-3.879,18.843Z" style="fill:#3483aa;fill-rule:nonzero;"/><path d="M668.553,527.732c0,4.312 -1.452,7.823 -4.343,10.529c-2.895,2.708 -6.373,4.066 -10.436,4.066c-4.19,0 -7.699,-1.358 -10.531,-4.066c-2.832,-2.706 -4.248,-6.217 -4.248,-10.529c0,-4.309 1.416,-7.852 4.248,-10.621c2.832,-2.771 6.341,-4.158 10.531,-4.158c4.063,0 7.541,1.387 10.436,4.158c2.891,2.769 4.343,6.312 4.343,10.621" style="fill:#fff;fill-rule:nonzero;"/><path d="M676.121,491.711c0,-7.141 1.11,-13.823 3.329,-20.044c2.214,-6.217 5.385,-11.607 9.511,-16.164c4.127,-4.555 9.146,-8.127 15.055,-10.714c5.912,-2.586 12.564,-3.878 19.952,-3.878c9.11,0 17.733,1.662 25.86,4.986l-4.803,18.29c-2.584,-1.11 -5.511,-2.034 -8.772,-2.772c-3.265,-0.739 -6.742,-1.109 -10.436,-1.109c-8.75,0 -15.397,2.742 -19.952,8.222c-4.56,5.479 -6.837,13.207 -6.837,23.183c0,9.604 2.155,17.21 6.467,22.814c4.307,5.606 11.572,8.404 21.797,8.404c3.815,0 7.576,-0.369 11.27,-1.107c3.694,-0.739 6.896,-1.664 9.606,-2.771l3.139,18.473c-2.467,1.231 -6.187,2.34 -11.175,3.324c-4.988,0.985 -10.13,1.479 -15.425,1.479c-8.253,0 -15.424,-1.265 -21.521,-3.789c-6.098,-2.521 -11.149,-6.032 -15.149,-10.528c-4.001,-4.494 -6.991,-9.852 -8.957,-16.071c-1.971,-6.217 -2.959,-12.96 -2.959,-20.228" style="fill:#fff;fill-rule:nonzero;"/><path d="M820.026,491.526c0,-9.606 -2.061,-17.21 -6.187,-22.814c-4.127,-5.603 -9.882,-8.406 -17.274,-8.406c-7.387,0 -13.146,2.803 -17.268,8.406c-4.132,5.604 -6.193,13.208 -6.193,22.814c0,9.731 2.061,17.427 6.193,23.091c4.122,5.665 9.881,8.497 17.268,8.497c7.392,0 13.147,-2.832 17.274,-8.497c4.126,-5.664 6.187,-13.36 6.187,-23.091m22.907,0c0,7.638 -1.11,14.592 -3.324,20.875c-2.219,6.28 -5.358,11.638 -9.422,16.071c-4.063,4.433 -8.961,7.881 -14.684,10.344c-5.728,2.462 -12.042,3.696 -18.938,3.696c-6.896,0 -13.178,-1.234 -18.842,-3.696c-5.665,-2.463 -10.527,-5.911 -14.59,-10.344c-4.068,-4.433 -7.239,-9.791 -9.516,-16.071c-2.282,-6.283 -3.419,-13.237 -3.419,-20.875c0,-7.635 1.137,-14.562 3.419,-20.782c2.277,-6.217 5.479,-11.545 9.606,-15.979c4.127,-4.433 9.02,-7.852 14.684,-10.253c5.665,-2.402 11.884,-3.601 18.658,-3.601c6.774,0 13.025,1.199 18.753,3.601c5.723,2.401 10.621,5.82 14.684,10.253c4.064,4.434 7.234,9.762 9.512,15.979c2.277,6.22 3.419,13.147 3.419,20.782" style="fill:#fff;fill-rule:nonzero;"/></g></g></svg>