<?xml version="1.0" standalone="no"?>
<!DOCTYPE svg PUBLIC "-//W3C//DTD SVG 20010904//EN"
 "http://www.w3.org/TR/2001/REC-SVG-20010904/DTD/svg10.dtd">
<svg version="1.0" xmlns="http://www.w3.org/2000/svg"
 width="16.000000pt" height="16.000000pt" viewBox="0 0 16.000000 16.000000"
 preserveAspectRatio="xMidYMid meet">
<metadata>
Created by potrace 1.11, written by Peter Selinger 2001-2013
</metadata>
<g transform="translate(0.000000,16.000000) scale(0.006154,-0.006154)"
fill="#000000" stroke="none">
<path d="M0 2305 c0 -232 3 -293 13 -289 24 10 107 127 147 207 45 92 75 199
86 306 l7 71 -127 0 -126 0 0 -295z"/>
<path d="M280 2561 c0 -66 -29 -211 -57 -280 -39 -100 -98 -195 -164 -265
l-59 -64 0 -221 c0 -121 3 -221 7 -221 20 0 274 162 374 239 249 191 374 425
386 724 l6 127 -247 0 -246 0 0 -39z"/>
<path d="M800 2511 c0 -278 -125 -553 -329 -728 -81 -69 -278 -204 -398 -273
l-73 -41 0 -189 c0 -105 3 -190 6 -190 16 0 465 235 584 306 473 281 658 533
701 955 6 65 8 146 5 183 l-8 66 -244 0 -244 0 0 -89z"/>
<path d="M1328 2511 c12 -241 -59 -502 -188 -691 -140 -206 -428 -412 -918
-655 l-222 -110 0 -190 0 -190 443 220 c471 235 685 356 862 487 300 222 458
479 504 821 12 87 15 279 5 351 l-7 46 -241 0 -242 0 4 -89z"/>
<path d="M1848 2435 c6 -251 -29 -428 -125 -620 -118 -237 -294 -404 -658
-627 -66 -40 -331 -179 -590 -308 l-470 -235 -3 -208 -2 -208 57 38 c145 93
331 193 768 408 599 295 768 393 1018 583 259 198 426 473 484 796 18 101 23
346 10 469 l-9 77 -242 0 -242 0 4 -165z"/>
<path d="M2367 2518 c15 -151 7 -383 -16 -495 -96 -463 -347 -751 -948 -1088
-102 -58 -334 -174 -858 -431 -159 -78 -318 -166 -448 -247 l-97 -62 0 -97 0
-98 176 0 176 0 97 58 c173 105 352 199 637 335 687 329 928 462 1189 658 119
89 191 154 267 242 l58 68 0 619 0 620 -121 0 -120 0 8 -82z"/>
<path d="M2490 1199 c-238 -238 -505 -402 -1247 -763 -433 -211 -698 -349
-793 -413 l-35 -23 346 0 345 0 427 204 c236 113 494 239 575 281 141 73 422
237 470 273 l22 17 -2 265 -3 265 -105 -106z"/>
<path d="M2504 674 c-215 -135 -424 -243 -1145 -589 l-166 -80 378 -3 378 -2
203 96 c112 52 258 125 326 160 l122 65 0 205 c0 112 -1 204 -3 204 -2 0 -43
-25 -93 -56z"/>
<path d="M2490 230 c-52 -28 -178 -90 -280 -139 l-185 -90 288 0 287 -1 0 140
c0 77 -3 140 -7 140 -5 0 -51 -23 -103 -50z"/>
</g>
</svg>
