<?xml version="1.0" encoding="UTF-8" standalone="no"?><!DOCTYPE svg PUBLIC "-//W3C//DTD SVG 1.1//EN" "http://www.w3.org/Graphics/SVG/1.1/DTD/svg11.dtd"><svg width="100%" height="100%" viewBox="0 0 500 500" version="1.1" xmlns="http://www.w3.org/2000/svg" xmlns:xlink="http://www.w3.org/1999/xlink" xml:space="preserve" style="fill-rule:evenodd;clip-rule:evenodd;stroke-linejoin:round;stroke-miterlimit:1.41421;"><rect id="Artboard1" x="0" y="0" width="500" height="500" style="fill:none;"/><clipPath id="_clip1"><rect x="0" y="0" width="500" height="500"/></clipPath><g clip-path="url(#_clip1)"><g><g opacity="0.5"><path d="M204.575,197.377l0,0.98l0.16,0c2.807,0.006 5.483,1.178 7.36,3.222c1.925,2.148 2.833,4.996 2.5,7.835c-0.667,6.021 -5.819,10.688 -12,10.871l-0.39,0c-2.788,-0.062 -5.423,-1.276 -7.25,-3.34c-1.891,-2.188 -2.753,-5.061 -2.37,-7.903c0.77,-5.943 5.887,-10.503 12,-10.695l0,-0.98m0,0c-6.635,0.157 -12.206,5.113 -13,11.567c-0.077,0.517 -0.116,1.039 -0.116,1.561c0,5.798 4.779,10.609 10.696,10.77l0.42,0c6.702,-0.161 12.302,-5.223 13,-11.753c0.061,-0.458 0.091,-0.919 0.091,-1.381c0,-5.885 -4.923,-10.736 -10.931,-10.773l-0.16,0.009Z" style="fill:#333;fill-rule:nonzero;"/><path d="M208.155,186.046c0.51,0 1,0 1.54,0c2.81,0.117 7.85,0.764 10,3.849c0.82,1.146 1.67,2.291 2.57,3.506c1,1.42 2.13,2.889 3.2,4.397c0.75,1.058 1.42,2.047 2,3.027c1.419,2.191 2.669,4.482 3.74,6.855c0.3,0.766 0.531,1.556 0.691,2.361c0.761,3.119 -0.08,6.413 -2.251,8.814c-1.781,1.792 -3.756,3.388 -5.89,4.76c-2.495,1.591 -4.771,3.49 -6.77,5.651c-3.73,4.251 -7.83,8.403 -13.35,8.403c-0.28,0 -0.56,0 -0.84,0c-1.409,-0.096 -2.807,-0.309 -4.18,-0.636c-1.327,-0.318 -2.625,-0.744 -3.88,-1.273c-1.165,-0.493 -2.289,-1.076 -3.36,-1.744c-4.12,-2.291 -5.75,-7.326 -6.88,-12.409c-0.483,-2.144 -1.152,-4.245 -2,-6.278c-0.566,-1.362 -1.053,-2.755 -1.46,-4.172c-0.64,-2.076 0.24,-4.848 1,-6.758c0.31,-0.842 0.67,-1.674 1.07,-2.477c0.4,-0.804 0.8,-1.548 1.28,-2.331l0.09,-0.157c2.35,-4.045 4.79,-8.217 8.95,-10.303c4.16,-2.086 8.5,-2.586 13.41,-3.046c0.47,0 1,0 1.42,0m0,-0.98c-0.493,0 -0.986,0 -1.48,0c-4.92,0.451 -9.52,0.98 -13.82,3.154c-4.48,2.243 -7.06,6.748 -9.45,10.842c-0.47,0.774 -0.91,1.577 -1.31,2.39c-0.4,0.813 -0.78,1.684 -1.1,2.566c-0.9,2.389 -1.66,5.141 -1,7.374c0.9,3.36 2.63,6.337 3.48,10.362c1.08,4.897 2.73,10.5 7.37,13.066c1.116,0.694 2.286,1.3 3.5,1.811c1.294,0.549 2.632,0.991 4,1.323c1.428,0.341 2.884,0.564 4.35,0.666c0.307,0 0.614,0 0.92,0c6,0 10.34,-4.447 14.11,-8.746c3.77,-4.3 8.91,-6.357 12.64,-10.382c2.392,-2.627 3.324,-6.242 2.491,-9.667c-0.17,-0.868 -0.417,-1.72 -0.74,-2.546c-1.095,-2.427 -2.372,-4.771 -3.821,-7.012c-0.67,-1.048 -1.37,-2.067 -2.07,-3.056c-2,-2.782 -4,-5.397 -5.77,-7.914c-2.09,-2.938 -6.6,-4.103 -10.78,-4.27c-0.526,0 -1.053,0 -1.58,0l0.06,0.039Z" style="fill:#333;fill-rule:nonzero;"/><path d="M211.755,173.715c1,0 1.93,0 2.9,0.098c4.49,0.225 12.4,1.342 15,6.366c2.388,4.353 5.106,8.523 8.131,12.478l1.64,2.223l1.67,2.262c2.57,3.399 5,7.081 6.78,9.902c0.593,1.119 1.078,2.289 1.45,3.496c1.59,5.436 0.27,10.774 -3.47,14.055c-2.697,2.314 -5.633,4.345 -8.76,6.062c-4.32,2.566 -8.781,5.22 -12.001,9.559c-5.28,6.993 -11.27,14.926 -20.3,14.926c-0.44,0 -0.89,0 -1.35,-0.059c-2.196,-0.175 -4.374,-0.529 -6.51,-1.058c-2.053,-0.512 -4.059,-1.186 -6,-2.017c-1.817,-0.779 -3.569,-1.696 -5.24,-2.743c-6.79,-3.653 -8.43,-12.653 -9.75,-19.881c-0.805,-3.925 -2.239,-7.7 -4.25,-11.185c-0.81,-1.567 -1.58,-3.046 -2.23,-4.632c-1.37,-3.105 -0.08,-7.454 1.19,-10.891c0.49,-1.342 1.06,-2.674 1.68,-3.918c0.62,-1.244 1.27,-2.468 2,-3.712l1.06,-1.88c3.35,-5.965 6.82,-12.125 13,-15.053c6.18,-2.929 12.65,-3.477 19.56,-4.094l2,-0.186c0.59,0 1.19,0 1.78,0m0,-0.98c-0.613,0 -1.23,0 -1.85,0c-7.81,0.725 -15.07,1.117 -22,4.368c-7.21,3.399 -10.87,10.911 -14.55,17.345c-0.74,1.225 -1.42,2.478 -2.05,3.771c-0.63,1.293 -1.21,2.664 -1.72,4.045c-1.41,3.79 -2.67,8.227 -1.17,11.615c2,4.897 5.26,9.099 6.41,15.592c1.34,7.375 3.07,16.719 10.26,20.568c1.715,1.077 3.514,2.02 5.38,2.82c1.999,0.854 4.066,1.545 6.18,2.067c2.189,0.543 4.42,0.907 6.67,1.087c0.48,0 1,0.059 1.43,0.059c9.41,0 15.64,-8.09 21.1,-15.318c5.3,-7.198 14.191,-9.569 20.611,-15.484c4.36,-3.781 5.29,-9.794 3.75,-15.044c-0.396,-1.282 -0.915,-2.525 -1.55,-3.712c-2.26,-3.545 -4.49,-6.855 -6.85,-10.009l-3.3,-4.476c-2.98,-3.914 -5.655,-8.042 -8.001,-12.35c-2.52,-4.956 -9.58,-6.591 -15.8,-6.856c-0.98,-0.065 -1.963,-0.098 -2.95,-0.098l0,0.01Z" style="fill:#333;fill-rule:nonzero;"/><path d="M215.375,161.384c1.42,0 2.84,0.049 4.26,0.157c7.54,0.412 17.111,2.292 19.941,8.942c2.25,5.122 5.47,10.362 10.44,16.983c1.55,2.066 3.17,4.143 4.55,5.876c3.35,4.133 6.64,8.599 9.81,12.918c0.895,1.478 1.646,3.036 2.24,4.652c3,9.04 -0.44,15.925 -4.71,19.373c-3.663,2.926 -7.628,5.47 -11.83,7.59c-6.2,3.399 -12.62,6.915 -16.92,13.183l-0.24,0.343c-7.001,9.901 -14.861,21.135 -27.001,21.135c-0.61,0 -1.23,0 -1.86,-0.088c-2.98,-0.255 -5.933,-0.749 -8.83,-1.479c-2.795,-0.703 -5.527,-1.627 -8.17,-2.762c-2.472,-1.064 -4.856,-2.315 -7.13,-3.741c-9,-4.75 -10.92,-16.748 -12.47,-26.444l-0.16,-0.979c-1,-6.504 -3.78,-11.156 -6.42,-15.671c-1.08,-1.841 -2.11,-3.584 -3,-5.455c-2.12,-4.172 -0.48,-9.96 1.41,-15.083c0.67,-1.841 1.44,-3.672 2.29,-5.435c0.85,-1.763 1.74,-3.389 2.76,-5.103c0.61,-1.077 1.22,-2.194 1.84,-3.31c4.4,-8.002 8.94,-16.268 17.35,-20.117c8,-3.663 16.39,-4.368 25.28,-5.112l4.46,-0.392c0.72,0 1.45,0 2.17,0m0,-0.98c-0.74,0 -1.483,0 -2.23,0c-10.7,0.98 -20.61,1.244 -30.1,5.593c-9.93,4.544 -14.67,15.063 -19.64,23.838c-1,1.665 -1.94,3.389 -2.79,5.152c-0.85,1.763 -1.64,3.633 -2.33,5.524c-1.91,5.181 -3.67,11.321 -1.36,15.856c3.13,6.444 7.9,11.87 9.34,20.812c1.61,9.902 3.4,22.938 13.14,28.089c2.315,1.456 4.742,2.733 7.26,3.82c2.691,1.156 5.474,2.096 8.32,2.811c2.952,0.745 5.963,1.249 9,1.508c0.667,0.059 1.314,0.088 1.94,0.088c12.83,0 20.94,-11.753 28.091,-21.899c7,-10.137 19.48,-12.781 28.58,-20.567c6.21,-5.015 7.39,-13.252 5,-20.411c-0.621,-1.703 -1.408,-3.343 -2.35,-4.897c-3.39,-4.603 -6.59,-8.952 -9.87,-12.997c-1.56,-1.958 -3.07,-3.917 -4.53,-5.876c-4.086,-5.191 -7.552,-10.824 -10.33,-16.787c-3,-6.934 -12.561,-9.088 -20.811,-9.529c-1.426,-0.105 -2.866,-0.157 -4.32,-0.157l-0.01,0.029Z" style="fill:#333;fill-rule:nonzero;"/><path d="M219.005,149.054c1.87,0 3.75,0.068 5.62,0.215c9.591,0.549 21.701,2.988 24.941,11.538c2.63,6.718 6.56,13.339 12.74,21.458c1.64,2.155 3.48,4.486 5.8,7.346c3.39,4.015 6.75,8.246 10.31,12.732l2.53,3.183c1.187,1.838 2.191,3.782 3,5.808c3.43,9.558 1.1,19.254 -6,24.71c-4.53,3.721 -9.82,6.493 -14.95,9.167c-8.07,4.211 -16.41,8.569 -21.79,16.738l-0.61,0.901c-8.57,12.732 -18.291,27.129 -33.631,27.129c-0.78,0 -1.57,0 -2.37,-0.108c-3.742,-0.324 -7.451,-0.946 -11.09,-1.861c-3.527,-0.896 -6.975,-2.069 -10.31,-3.506c-3.12,-1.351 -6.129,-2.935 -9,-4.74c-11.23,-5.877 -13.45,-20.9 -15.23,-32.976l-0.28,-1.91c-1.29,-8.452 -5,-14.319 -8.56,-19.98c-1.36,-2.155 -2.65,-4.201 -3.81,-6.376c-2.891,-5.269 -0.81,-12.732 1.61,-19.304c0.85,-2.34 1.83,-4.661 2.91,-6.914c1.08,-2.253 2.2,-4.3 3.51,-6.484c0.86,-1.518 1.72,-3.124 2.56,-4.662c5.45,-10.068 11.09,-20.469 21.72,-25.248c9.9,-4.466 20.24,-5.289 31.19,-6.161c2.18,-0.176 4.44,-0.352 6.7,-0.568c0.85,0 1.71,0 2.55,0m0,-0.979c-0.866,0 -1.74,0 -2.62,0c-13.58,1.263 -26.16,1.371 -38.24,6.856c-12.66,5.69 -18.48,19.225 -24.74,30.361c-1.27,2.115 -2.45,4.29 -3.54,6.532c-1.103,2.285 -2.087,4.622 -2.95,7.003c-2.42,6.582 -4.671,14.417 -1.55,20.097c4.25,7.982 10.53,14.642 12.27,26.042c1.87,12.439 3.74,29.157 16,35.601c2.918,1.836 5.977,3.447 9.15,4.819c3.383,1.462 6.881,2.654 10.46,3.565c3.709,0.956 7.492,1.611 11.31,1.959c0.84,0.078 1.65,0.117 2.46,0.117c16.25,0 26.241,-15.386 35.071,-28.471c8.62,-13.085 24.77,-16.003 36.55,-25.689c8.07,-6.239 9.5,-16.738 6.25,-25.788c-0.848,-2.109 -1.903,-4.133 -3.15,-6.043c-4.51,-5.661 -8.69,-11.008 -12.89,-15.983c-2,-2.459 -3.93,-4.897 -5.76,-7.307c-5.25,-6.904 -9.69,-13.789 -12.6,-21.223c-3.38,-8.913 -15.53,-11.577 -25.821,-12.164c-1.88,-0.144 -3.773,-0.216 -5.68,-0.216l0.02,-0.068Z" style="fill:#333;fill-rule:nonzero;"/><path d="M222.595,136.714c2.33,0 4.67,0.097 7,0.274c11.641,0.685 26.281,3.692 29.951,14.142c3,8.168 7.73,16.405 15,25.925c2,2.644 4.26,5.426 7,8.765c3.45,3.977 6.88,8.12 10.52,12.497c1.74,2.103 3.524,4.244 5.35,6.425c1.498,2.196 2.777,4.528 3.82,6.964c4.38,11.674 1.56,23.505 -7.2,30.057c-5.5,4.408 -11.9,7.64 -18.09,10.774c-9.93,5.014 -20.19,10.195 -26.64,20.263l-0.95,1.45c-10.19,15.533 -21.741,33.152 -40.271,33.152c-0.94,0 -1.91,0 -2.88,-0.137c-4.547,-0.413 -9.052,-1.189 -13.47,-2.321c-4.259,-1.092 -8.423,-2.517 -12.45,-4.26c-3.775,-1.637 -7.416,-3.555 -10.89,-5.74c-13.49,-7.022 -16,-25.092 -18,-39.616c-0.134,-0.94 -0.264,-1.864 -0.39,-2.772c-1.52,-10.391 -6.191,-17.443 -10.701,-24.269c-1.64,-2.488 -3.2,-4.829 -4.61,-7.346c-3.67,-6.366 -1.14,-15.464 1.81,-23.505c1.03,-2.854 2.205,-5.655 3.52,-8.393c1.24,-2.586 2.67,-5.221 4.251,-7.836c1.09,-1.958 2.2,-4.005 3.26,-5.993c6.52,-12.145 13.25,-24.701 26.11,-30.42c11.84,-5.279 24.14,-6.22 37.16,-7.219c2.89,-0.225 5.88,-0.45 8.88,-0.724c1,0 2,0 2.94,0m0,-0.98c-1,0 -2,0.017 -3,0.049c-16.47,1.528 -31.71,1.489 -46.38,8.031c-15.38,6.856 -22.28,23.378 -29.831,36.825c-1.53,2.566 -3,5.201 -4.28,7.914c-1.331,2.767 -2.519,5.598 -3.56,8.482c-2.93,7.982 -5.67,17.511 -1.74,24.337c5.36,9.52 13.171,17.404 15.201,31.263c2.13,14.965 4.07,35.385 18.92,43.093c3.508,2.214 7.186,4.159 11,5.818c4.075,1.764 8.289,3.205 12.6,4.309c4.47,1.147 9.029,1.933 13.63,2.35c1,0.098 2,0.138 3,0.138c19.67,0 31.541,-19.03 42.061,-35.043c10.28,-16.023 30.06,-19.216 44.52,-30.792c9.92,-7.463 11.6,-20.235 7.51,-31.155c-1.091,-2.524 -2.431,-4.938 -4,-7.208c-5.63,-6.719 -10.78,-13.055 -15.92,-18.971c-2.44,-2.938 -4.78,-5.827 -7,-8.717c-6.35,-8.275 -11.6,-16.581 -14.88,-25.66c-3.82,-10.881 -18.51,-14.074 -30.831,-14.798c-2.333,-0.19 -4.666,-0.284 -7,-0.284l-0.02,0.019Z" style="fill:#333;fill-rule:nonzero;"/><path d="M226.205,124.383c2.78,0 5.581,0.118 8.351,0.343c13.69,0.822 30.87,4.397 35,16.757c3.3,9.696 8.8,19.343 17.31,30.361c2.37,3.076 5.07,6.406 8.27,10.186c3.53,3.986 7,8.109 10.77,12.458c2.62,3.065 5.32,6.229 8.13,9.451c1.803,2.558 3.35,5.281 4.62,8.129c5.331,13.79 2.001,27.688 -8.45,35.415c-6.47,5.083 -14,8.815 -21.24,12.37c-11.78,5.808 -24,11.821 -31.47,23.77l-1.27,1.958c-11.81,18.364 -25.191,39.176 -46.931,39.176c-1.11,0 -2.25,-0.059 -3.39,-0.166c-5.331,-0.493 -10.611,-1.41 -15.79,-2.743c-4.992,-1.285 -9.87,-2.959 -14.59,-5.004c-4.427,-1.923 -8.696,-4.175 -12.77,-6.739c-15.77,-8.178 -18.56,-29.303 -20.801,-46.286c-0.16,-1.227 -0.32,-2.429 -0.48,-3.604c-1.75,-12.311 -7.39,-20.567 -12.84,-28.53c-1.93,-2.82 -3.74,-5.474 -5.41,-8.325c-4.45,-7.472 -1.48,-18.216 2,-27.756c1.211,-3.356 2.592,-6.651 4.14,-9.872c1.46,-3.036 3.13,-6.141 5,-9.245c1.33,-2.37 2.6,-4.77 4,-7.307c7.581,-14.23 15.421,-28.941 30.511,-35.601c13.78,-6.091 28.05,-7.149 43.16,-8.275c3.58,-0.265 7.29,-0.539 11,-0.892c1.11,0 2.22,-0.049 3.32,-0.049m0,-0.979c-1.126,0 -2.256,0.02 -3.39,0.059c-19.36,1.802 -37.25,1.616 -54.53,9.255c-18.11,7.992 -26.091,27.541 -34.931,43.319c-1.8,3.006 -3.48,6.101 -5,9.294c-1.563,3.249 -2.958,6.574 -4.18,9.96c-3.43,9.373 -6.67,20.568 -1.93,28.569c6.48,11.058 15.8,20.176 18.12,36.493c2.39,17.492 4.411,41.604 21.801,50.624c4.116,2.608 8.432,4.9 12.91,6.856c4.768,2.067 9.697,3.757 14.74,5.054c5.247,1.351 10.598,2.278 16,2.772c1.187,0.111 2.35,0.166 3.49,0.166c23.091,0 36.841,-22.683 49.001,-41.614c11.93,-18.971 35.34,-22.428 52.49,-35.895c11.781,-8.697 13.701,-23.721 8.761,-36.532c-1.306,-2.935 -2.9,-5.74 -4.761,-8.373c-6.75,-7.777 -12.88,-15.112 -18.94,-21.968c-2.88,-3.399 -5.64,-6.768 -8.23,-10.137c-7.44,-9.657 -13.5,-19.382 -17.16,-30.106c-4.25,-12.86 -21.49,-16.572 -35.85,-17.434c-2.78,-0.228 -5.584,-0.342 -8.411,-0.342l0,-0.02Z" style="fill:#333;fill-rule:nonzero;"/><path d="M229.825,112.052c3.241,0 6.501,0.138 9.711,0.402c15.74,0.979 35.46,5.103 40,19.382c3.65,11.214 9.88,22.281 19.59,34.837c2.73,3.536 5.84,7.326 9.51,11.606c3.62,4.035 7.22,8.158 11.001,12.536c3.49,3.996 7.1,8.129 10.89,12.38c2.107,2.92 3.922,6.033 5.42,9.294c6.28,15.906 2.48,31.909 -9.7,40.782c-7.451,5.769 -16.061,9.951 -24.401,13.986c-13.62,6.611 -27.71,13.437 -36.29,27.266l-1.55,2.478c-13.43,21.204 -28.65,45.238 -53.601,45.238c-1.28,0 -2.59,-0.068 -3.91,-0.196c-6.114,-0.574 -12.171,-1.635 -18.11,-3.173c-5.724,-1.478 -11.318,-3.401 -16.73,-5.749c-5.079,-2.208 -9.976,-4.795 -14.65,-7.737c-18.051,-9.334 -21.131,-33.535 -23.591,-52.975c-0.193,-1.509 -0.383,-2.984 -0.57,-4.427c-2,-14.221 -8.59,-23.653 -15,-32.771c-2.21,-3.153 -4.29,-6.131 -6.21,-9.314c-5.22,-8.579 -1.82,-20.978 2.21,-31.987c1.388,-3.859 2.974,-7.648 4.75,-11.351c1.68,-3.487 3.6,-7.052 5.73,-10.626c1.56,-2.792 3.06,-5.612 4.64,-8.609c8.65,-16.317 17.591,-33.192 34.911,-40.792c15.73,-6.915 32,-8.09 49.18,-9.343c4.27,-0.314 8.69,-0.627 13.14,-1.048c1.24,0 2.48,-0.059 3.71,-0.059m0,-0.98c-1.253,0 -2.51,0.02 -3.77,0.059c-22.24,2.067 -42.8,1.743 -62.67,10.47c-20.831,9.147 -29.891,31.703 -40.001,49.822c-2.07,3.457 -4,7.012 -5.76,10.675c-1.792,3.732 -3.391,7.55 -4.79,11.439c-3.94,10.774 -7.68,23.692 -2.12,32.81c7.59,12.605 18.43,22.937 21.05,41.722c2.65,20.019 4.75,47.824 24.691,58.137c4.717,2.98 9.661,5.6 14.79,7.835c5.46,2.37 11.105,4.309 16.88,5.798c5.994,1.551 12.108,2.618 18.28,3.193c1.36,0.127 2.69,0.196 4,0.196c26.501,0 42.141,-26.326 56.001,-48.196c13.52,-21.958 40.52,-25.66 60.371,-41.037c13.63,-9.921 15.81,-27.217 10,-41.898c-1.533,-3.349 -3.395,-6.544 -5.56,-9.539c-7.88,-8.815 -15.001,-17.169 -22.001,-24.955c-3.32,-3.918 -6.49,-7.708 -9.46,-11.547c-8.53,-11.028 -15.41,-22.174 -19.44,-34.544c-4.68,-14.828 -24.47,-19.059 -40.86,-20.058c-3.227,-0.267 -6.484,-0.401 -9.771,-0.401l0.14,0.019Z" style="fill:#333;fill-rule:nonzero;"/><path d="M233.436,99.722c3.69,0 7.41,0.157 11.07,0.46c11.12,0.686 20.41,2.507 27.61,5.397c9.31,3.751 15.16,9.333 17.37,16.649c4,12.732 10.95,25.21 21.87,39.284c3.09,3.986 6.6,8.246 10.741,13.026c3.71,4.094 7.4,8.256 11.32,12.673c4.36,4.897 8.86,9.99 13.63,15.239c2.412,3.283 4.495,6.786 6.22,10.46c3.28,7.959 4.186,16.669 2.61,25.112c-1.64,8.437 -6.492,15.957 -13.57,21.028c-8.42,6.454 -18.15,11.106 -27.561,15.601c-15.47,7.405 -31.47,15.054 -41.1,30.753l-1.89,3.017c-15.05,24.034 -32.11,51.281 -60.271,51.281c-1.45,0 -2.94,-0.069 -4.42,-0.216c-6.901,-0.653 -13.737,-1.855 -20.44,-3.594c-6.456,-1.671 -12.766,-3.843 -18.87,-6.493c-5.734,-2.494 -11.263,-5.415 -16.54,-8.737c-20.341,-10.489 -23.701,-37.755 -26.401,-59.674c-0.22,-1.782 -0.44,-3.529 -0.66,-5.24c-2.21,-16.13 -9.78,-26.737 -17.1,-37.001c-2.49,-3.497 -4.84,-6.787 -7,-10.323c-6,-9.686 -2.16,-23.741 2.4,-36.238c1.569,-4.362 3.361,-8.644 5.37,-12.83c1.89,-3.917 4.07,-7.972 6.47,-12.007c1.79,-3.203 3.51,-6.464 5.33,-9.902c9.72,-18.402 19.76,-37.442 39.321,-46.031c17.69,-7.737 35.92,-9.03 55.22,-10.411c5,-0.353 10.08,-0.715 15.25,-1.195c1.36,0 2.741,-0.059 4.091,-0.059m0,-0.979c-1.38,0 -2.767,0.019 -4.161,0.059c-25.13,2.34 -48.35,1.86 -70.81,11.694c-23.561,10.293 -33.701,35.855 -45.121,56.315c-2.33,3.917 -4.51,7.923 -6.5,12.056c-2.025,4.217 -3.831,8.532 -5.41,12.928c-4.45,12.174 -8.68,26.786 -2.31,37.05c8.71,14.143 21.07,25.71 24,46.943c2.91,22.526 5.08,54.053 27.581,65.619c5.317,3.353 10.89,6.3 16.67,8.815c6.146,2.671 12.499,4.859 19,6.542c6.755,1.752 13.645,2.96 20.6,3.614c1.54,0.15 3.047,0.225 4.52,0.225c29.921,0 47.441,-29.979 63.001,-54.767c15.25,-24.857 45.921,-28.863 68.421,-46.1c15.48,-11.146 17.91,-30.714 11.27,-47.266c-1.781,-3.754 -3.931,-7.33 -6.42,-10.675c-9,-9.902 -17.07,-19.226 -25,-27.942c-3.761,-4.349 -7.351,-8.649 -10.701,-12.968c-9.63,-12.399 -17.31,-24.974 -21.71,-38.98c-5.11,-16.806 -27.45,-21.546 -45.87,-22.692c-3.68,-0.307 -7.394,-0.46 -11.14,-0.46l0.09,-0.01Z" style="fill:#333;fill-rule:nonzero;"/><path d="M237.006,87.381c4.15,0 8.33,0.177 12.44,0.52c28.87,1.802 45.69,10.087 50,24.631c4.34,14.241 12,28.138 24.151,43.73c3.45,4.437 7.37,9.158 12,14.437c3.81,4.162 7.6,8.383 11.61,12.849c5.22,5.818 10.62,11.821 16.36,18.05c2.709,3.646 5.054,7.539 7,11.626c3.709,8.874 4.75,18.605 3,28.04c-1.814,9.446 -7.256,17.862 -15.2,23.505c-9.4,7.14 -20.24,12.262 -30.72,17.228c-17.311,8.188 -35.221,16.649 -45.911,34.279l-2.19,3.525c-16.68,26.875 -35.58,57.344 -67.001,57.344c-1.62,0 -3.28,-0.078 -4.94,-0.245c-7.685,-0.733 -15.297,-2.075 -22.76,-4.015c-7.184,-1.865 -14.207,-4.286 -21,-7.238c-6.385,-2.783 -12.544,-6.041 -18.42,-9.745c-22.631,-11.645 -26.271,-41.997 -29.201,-66.383c-0.25,-2.057 -0.49,-4.075 -0.74,-6.043c-2.44,-18.041 -11,-29.823 -19.23,-41.223c-2.65,-3.663 -5.39,-7.453 -7.82,-11.322c-6.79,-10.773 -2.5,-26.502 2.59,-40.459c1.753,-4.865 3.756,-9.641 6,-14.308c2.11,-4.398 4.53,-8.893 7.22,-13.389c2,-3.624 4,-7.306 6,-11.204c10.76,-20.606 21.92,-41.81 43.761,-51.291c19.64,-8.56 39.86,-9.98 61.26,-11.478c5.64,-0.392 11.47,-0.803 17.351,-1.352c1.49,0 3,-0.069 4.48,-0.069m0,-0.979c-1.507,0 -3.02,0.023 -4.54,0.069c-28.001,2.605 -53.891,1.958 -79.001,12.908c-26.291,11.439 -37.501,40.018 -50.211,62.809c-2.6,4.348 -5,8.814 -7.24,13.437c-2.247,4.7 -4.25,9.508 -6,14.407c-5,13.564 -9.68,29.881 -2.5,41.291c9.82,15.67 23.7,28.481 26.91,52.172c3.18,25.073 5.42,60.272 30.461,73.161c5.918,3.725 12.119,6.999 18.55,9.794c6.844,2.979 13.92,5.418 21.16,7.296c7.515,1.957 15.181,3.31 22.92,4.045c1.714,0.17 3.38,0.255 5,0.255c33.341,0 52.741,-33.623 70.001,-61.34c16.91,-27.795 51.211,-32.075 76.401,-51.222c17.34,-12.379 20,-34.2 12.52,-52.642c-1.991,-4.175 -4.392,-8.151 -7.17,-11.87c-10.12,-10.96 -19.17,-21.273 -28,-30.939c-4.2,-4.819 -8.2,-9.589 -11.93,-14.378c-10.721,-13.78 -19.221,-27.766 -24.001,-43.416c-5.54,-18.766 -30.42,-24.025 -50.88,-25.308c-4.127,-0.346 -8.294,-0.519 -12.5,-0.519l0.05,-0.01Z" style="fill:#333;fill-rule:nonzero;"/><path d="M240.666,75.051c4.61,0 9.24,0.196 13.8,0.578c31.86,1.959 50.36,11.175 55,27.256c4.69,15.749 13.091,31.067 26.431,48.177c3.81,4.897 8.13,10.068 13.21,15.856c3.9,4.241 7.79,8.521 11.91,13.065c6.08,6.699 12.36,13.633 19.09,20.832c3.02,3.998 5.638,8.271 7.82,12.761c4.134,9.791 5.308,20.543 3.38,30.969c-2.01,10.428 -8.043,19.708 -16.84,25.905c-10.37,7.835 -22.33,13.427 -33.89,18.853c-20,9.392 -39.001,18.276 -50.721,37.726l-2.49,4.075c-18.3,29.714 -39,63.406 -73.641,63.406c-1.79,0 -3.62,-0.089 -5.45,-0.275c-8.469,-0.811 -16.856,-2.295 -25.08,-4.436c-7.934,-2.062 -15.689,-4.738 -23.19,-8.002c-7.038,-3.078 -13.825,-6.68 -20.301,-10.773c-24.92,-12.801 -28.85,-46.228 -32,-73.092c-0.27,-2.341 -0.54,-4.623 -0.82,-6.856c-2.67,-19.941 -12.17,-32.908 -21.35,-45.444c-2.92,-3.986 -5.94,-8.119 -8.63,-12.34c-7.61,-11.88 -2.9,-29.265 2.75,-44.69c1.927,-5.368 4.13,-10.637 6.6,-15.788c2.32,-4.848 5,-9.794 8,-14.769c2.25,-4.035 4.4,-8.139 6.69,-12.488c11.8,-22.594 24.06,-45.953 48.061,-56.364c21.6,-9.382 43.8,-10.92 67.31,-12.546c6.32,-0.44 12.85,-0.891 19.441,-1.498c1.62,0 3.26,-0.069 4.87,-0.069m0,-0.979c-1.634,0 -3.277,0.023 -4.93,0.068c-30.901,2.88 -59.441,2.116 -87.091,14.133c-29.001,12.595 -41.311,44.171 -55.311,69.302c-2.86,4.799 -5.54,9.735 -8,14.818c-2.486,5.182 -4.702,10.484 -6.64,15.886c-5.4,14.936 -10.65,32.947 -2.65,45.512c10.94,17.218 26.34,31.243 29.84,57.393c3.44,27.599 5.75,66.491 33.35,80.673c6.519,4.097 13.349,7.699 20.431,10.773c7.536,3.281 15.328,5.97 23.3,8.041c8.276,2.157 16.717,3.651 25.24,4.466c1.844,0.182 3.697,0.274 5.55,0.274c36.761,0 58.001,-37.266 77.001,-67.911c18.57,-30.743 56.491,-35.258 84.361,-56.306c19.19,-13.603 22.12,-37.696 13.78,-58.009c-2.227,-4.593 -4.906,-8.962 -8,-13.046c-11.24,-12.017 -21.27,-23.329 -31,-33.926c-4.65,-5.288 -9.06,-10.528 -13.16,-15.797c-11.82,-15.152 -21.131,-30.567 -26.271,-47.863c-6,-20.754 -33.41,-26.542 -55.9,-27.962c-4.58,-0.385 -9.2,-0.581 -13.86,-0.588l-0.04,0.069Z" style="fill:#333;fill-rule:nonzero;"/><path d="M244.276,61.77l0,0.98c5.06,0 10.15,0.215 15.16,0.646c34.85,2.204 55,12.252 60.001,29.881c5,17.267 14.15,33.985 28.71,52.623c4.17,5.338 8.89,10.989 14.45,17.277c4,4.319 8,8.687 12.21,13.3c6.93,7.58 14.09,15.425 21.81,23.584c3.33,4.375 6.22,9.056 8.63,13.976c4.601,11.126 5.941,23.153 3.761,33.877c-2.191,11.424 -8.813,21.586 -18.471,28.344c-11.35,8.51 -24.42,14.593 -37.06,20.469c-22,10.225 -42.721,19.882 -55.521,41.213l-2.79,4.544c-19.93,32.565 -42.52,69.469 -80.331,69.469c-2.004,-0.003 -4.006,-0.104 -6,-0.304c-9.253,-0.904 -18.417,-2.542 -27.4,-4.897c-8.652,-2.254 -17.109,-5.175 -25.29,-8.736c-7.689,-3.358 -15.104,-7.287 -22.181,-11.753c-27.25,-14.025 -31.46,-50.498 -34.85,-79.84c-0.3,-2.605 -0.59,-5.162 -0.9,-7.63c-2.9,-21.85 -13.36,-35.992 -23.48,-49.665c-3.19,-4.319 -6.5,-8.814 -9.43,-13.349c-3.85,-6.003 -5.14,-13.604 -3.95,-23.251c1.11,-8.951 4.28,-18.422 6.93,-25.679c2.105,-5.871 4.511,-11.634 7.21,-17.267c2.54,-5.299 5.46,-10.773 8.7,-16.15c2.48,-4.447 4.85,-8.981 7.36,-13.78c12.92,-24.681 26.29,-50.214 52.571,-61.594c23.56,-10.215 47.75,-11.871 73.36,-13.614c7,-0.48 14.231,-0.979 21.531,-1.655c1.75,-0.049 3.51,-0.078 5.25,-0.078l0,-0.941m0,0c-1.767,0 -3.537,0.026 -5.31,0.079c-33.791,3.144 -65.001,2.233 -95.232,15.347c-31.74,13.711 -45.11,48.333 -60.41,75.805c-3.13,5.24 -6.06,10.636 -8.73,16.199c-2.715,5.665 -5.135,11.46 -7.25,17.365c-6,16.365 -11.681,36.071 -2.88,49.772c12.05,18.756 29,34.015 32.77,62.623c3.7,30.126 6.09,72.72 36.24,88.145c7.121,4.491 14.583,8.44 22.321,11.812c8.228,3.594 16.735,6.541 25.44,8.814c9.036,2.362 18.253,4 27.56,4.897c2.014,0.201 4.036,0.303 6.06,0.304c40.181,0 63.341,-40.919 84.001,-74.493c20.23,-33.691 61.781,-38.51 92.331,-61.408c21.001,-14.838 24.221,-41.183 15,-63.386c-2.445,-5.005 -5.382,-9.764 -8.77,-14.211c-12.4,-13.114 -23.4,-25.425 -34.05,-36.953c-5.09,-5.758 -9.91,-11.468 -14.39,-17.208c-12.91,-16.522 -23,-33.367 -28.55,-52.299c-6.411,-22.732 -36.411,-29.039 -60.911,-30.596c-5,-0.405 -10.077,-0.608 -15.23,-0.608l-0.01,0Z" style="fill:#333;fill-rule:nonzero;"/><path d="M247.896,49.401l0,0.979c5.52,0 11.07,0.235 16.52,0.705c37.84,2.409 59.711,13.34 65.001,32.506c5.37,18.775 15.22,36.904 31,57.07c4.53,5.788 9.65,11.899 15.68,18.686c4.11,4.408 8.19,8.815 12.52,13.555c7.78,8.462 15.82,17.198 24.531,26.326c3.634,4.738 6.792,9.809 9.43,15.142c5,12.076 6.5,25.15 4.15,36.795c-2.384,12.421 -9.601,23.463 -20.121,30.783c-12.33,9.196 -26.51,15.758 -40.22,22.095c-23.9,11.047 -46.47,21.488 -60.331,44.69l-3.05,5.063c-21.56,35.405 -46,75.531 -87.001,75.531c-2.164,-0.001 -4.327,-0.109 -6.48,-0.323c-10.036,-0.97 -19.975,-2.736 -29.72,-5.279c-9.385,-2.447 -18.557,-5.617 -27.43,-9.481c-8.34,-3.637 -16.383,-7.894 -24.061,-12.732c-29.51,-15.122 -34,-54.709 -37.62,-86.529c-0.33,-2.88 -0.65,-5.691 -1,-8.423c-3.23,-23.799 -14.69,-39.117 -25.69,-53.935c-3.46,-4.643 -7,-9.451 -10.231,-14.358c-9.13,-14.113 -3.52,-34.798 3.171,-53.162c2.286,-6.373 4.899,-12.63 7.83,-18.745c2.76,-5.759 5.93,-11.645 9.44,-17.531c2.71,-4.897 5.3,-9.794 8,-15.073c14,-26.777 28.46,-54.474 57,-66.795c25.521,-11.038 51.701,-12.81 79.421,-14.691c7.68,-0.519 15.611,-1.058 23.621,-1.802c1.88,-0.049 3.77,-0.078 5.64,-0.078l0,-0.98m0,0c-1.894,0 -3.794,0.027 -5.7,0.079c-36.671,3.418 -70.531,2.36 -103.382,16.571c-34.46,14.897 -48.92,52.486 -65.5,82.269c-3.4,5.69 -6.57,11.547 -9.47,17.629c-2.936,6.138 -5.553,12.417 -7.841,18.814c-6.47,17.757 -12.69,39.176 -3.07,54.014c13.141,20.303 31.571,36.786 35.661,67.833c4,32.663 6.42,78.939 39.12,95.696c7.721,4.87 15.811,9.153 24.201,12.811c8.921,3.886 18.143,7.073 27.58,9.529c9.798,2.58 19.795,4.375 29.89,5.367c2.186,0.22 4.383,0.331 6.58,0.333c43.591,0 68.641,-44.562 91.001,-81.064c21.891,-36.629 67.071,-41.722 100.302,-66.511c22.9,-16.062 26.32,-44.68 16.28,-68.753c-2.673,-5.418 -5.878,-10.567 -9.57,-15.377c-13.491,-14.132 -25.461,-27.423 -37.081,-39.91c-5.53,-6.229 -10.77,-12.409 -15.63,-18.608c-14,-17.894 -24.94,-36.16 -30.82,-56.737c-6.84,-24.7 -39.361,-31.536 -65.921,-33.221c-5.48,-0.47 -11.01,-0.705 -16.59,-0.705l-0.04,-0.059Z" style="fill:#333;fill-rule:nonzero;"/><path d="M251.506,37.07l0,0.979c6,0 12,0.255 17.88,0.764c40.82,2.615 64.381,14.427 70.001,35.141c5.71,20.283 16.29,39.832 33.27,61.506c4.89,6.239 10.42,12.81 16.92,20.107c4.21,4.505 8.4,9.02 12.82,13.809c8.631,9.334 17.551,18.971 27.241,29.049c3.938,5.1 7.364,10.561 10.23,16.307c5.46,13.036 7.07,27.149 4.53,39.734c-2.57,13.417 -10.379,25.34 -21.76,33.221c-13.31,9.882 -28.601,16.924 -43.391,23.721c-25.82,11.88 -50.21,23.094 -65.131,48.167l-3.38,5.563c-23.18,38.245 -49.46,81.593 -93.711,81.593c-2.338,-0.002 -4.674,-0.12 -7,-0.353c-10.806,-1.051 -21.508,-2.958 -32,-5.7c-10.117,-2.64 -20.004,-6.059 -29.57,-10.225c-8.991,-3.917 -17.663,-8.501 -25.941,-13.711c-31.8,-16.278 -36.58,-58.96 -40.42,-93.248c-0.36,-3.203 -0.7,-6.229 -1.06,-9.216c-3.36,-25.651 -15.75,-42.114 -27.731,-58.098c-3.74,-4.975 -7.6,-10.117 -11,-15.377c-4.58,-7.032 -6.13,-15.964 -4.74,-27.295c1.28,-10.421 4.82,-21.057 8.11,-30.107c2.426,-6.894 5.207,-13.664 8.33,-20.283c3.001,-6.209 6.391,-12.566 10.181,-18.912c2.93,-5.279 5.74,-10.656 8.71,-16.356c15.11,-28.863 30.64,-58.734 61.41,-72.005c27.481,-11.87 55.651,-13.711 85.481,-15.758c8.35,-0.559 17.001,-1.137 25.701,-1.959c2,-0.059 4,-0.088 6,-0.088l0,-0.98m0,0c-2,0 -4.03,0.03 -6.09,0.088c-39.541,3.693 -76.061,2.498 -111.492,17.767c-37.19,16.042 -52.72,56.648 -70.6,88.791c-3.66,6.141 -7.091,12.449 -10.211,18.961c-3.175,6.63 -6.006,13.413 -8.48,20.323c-7,19.157 -13.69,42.251 -3.26,58.254c14.28,21.841 34.241,39.548 38.621,73.073c4.22,35.189 6.76,85.207 42,103.198c8.32,5.25 17.039,9.866 26.081,13.81c9.613,4.189 19.551,7.625 29.72,10.274c10.557,2.761 21.326,4.677 32.2,5.729c2.359,0.239 4.729,0.36 7.1,0.363c47.001,0 73.941,-48.216 97.941,-87.637c23.541,-39.577 72.361,-44.934 108.272,-71.613c24.75,-17.286 28.43,-48.166 17.54,-74.13c-2.904,-5.831 -6.38,-11.371 -10.38,-16.542c-14.61,-15.19 -27.561,-29.49 -40.101,-42.897c-6,-6.7 -11.62,-13.35 -16.86,-20.039c-15.1,-19.274 -26.84,-38.96 -33.1,-61.173c-7.27,-26.639 -42.381,-33.995 -70.931,-35.826c-5.927,-0.509 -11.927,-0.764 -18,-0.764l0.03,-0.01Z" style="fill:#333;fill-rule:nonzero;"/><path d="M255.116,24.739l0,0.98c6.43,0 12.9,0.274 19.25,0.823c43.81,2.81 69.061,15.513 75.001,37.765c6.05,21.791 17.35,42.751 35.55,65.952c5.25,6.69 11.18,13.712 18.15,21.547c4.321,4.593 8.601,9.206 13.131,14.084c9.48,10.195 19.28,20.743 30,31.771c4.232,5.464 7.916,11.315 11,17.473c5.9,13.995 7.64,29.146 4.92,42.662c-2.757,14.413 -11.158,27.216 -23.4,35.66c-14.28,10.577 -30.69,18.089 -46.561,25.346c-27.75,12.733 -54,24.701 -69.93,51.654l-3.671,6.062c-24.81,41.135 -52.93,87.666 -100.401,87.666c-2.508,-0.004 -5.015,-0.131 -7.51,-0.382c-11.603,-1.129 -23.094,-3.176 -34.36,-6.122c-10.84,-2.847 -21.433,-6.527 -31.68,-11.008c-9.645,-4.196 -18.949,-9.108 -27.831,-14.691c-34.1,-17.443 -39.16,-63.2 -43.23,-99.967c-0.39,-3.476 -0.75,-6.767 -1.13,-9.999c-3.66,-27.629 -17.021,-45.297 -29.931,-62.407c-4,-5.299 -8.15,-10.773 -11.85,-16.395c-4.95,-7.551 -6.63,-17.14 -5.14,-29.323c1.37,-11.175 5.16,-22.605 8.7,-32.32c2.645,-7.38 5.669,-14.623 9.06,-21.704c3.19,-6.659 6.86,-13.476 10.92,-20.293c3.161,-5.69 6.191,-11.498 9.391,-17.629c16.13,-30.968 32.81,-62.994 65.83,-77.215c29.441,-12.732 59.601,-14.691 91.541,-16.826c9,-0.598 18.361,-1.224 27.781,-2.096c2.13,-0.059 4.29,-0.088 6.41,-0.088l0,-0.98m0,0c-2.147,0 -4.304,0.03 -6.47,0.089c-42.451,3.956 -81.651,2.605 -119.652,19.01c-39.93,17.188 -56.55,60.81 -75.711,95.304c-3.93,6.582 -7.6,13.359 -11,20.342c-3.39,7.103 -6.41,14.37 -9.05,21.772c-7.49,20.568 -14.69,45.346 -3.45,62.495c15.4,23.379 36.871,42.32 41.551,78.293c4.49,37.717 7.09,91.387 44.9,110.672c8.933,5.63 18.294,10.581 28.001,14.808c10.305,4.495 20.959,8.183 31.86,11.028c11.318,2.963 22.862,5.02 34.52,6.151c2.529,0.253 5.069,0.381 7.61,0.382c50.431,0 79.231,-51.908 104.932,-94.208c25.2,-42.516 77.64,-48.157 116.241,-76.716c26.61,-18.52 30.53,-51.663 18.79,-79.498c-3.137,-6.227 -6.885,-12.141 -11.19,-17.658c-15.73,-16.248 -29.65,-31.546 -43.121,-45.885c-6.41,-7.169 -12.48,-14.299 -18.09,-21.458c-16.19,-20.646 -28.75,-41.752 -35.38,-65.619c-7.75,-28.638 -45.361,-36.551 -75.981,-38.51c-6.373,-0.549 -12.81,-0.823 -19.31,-0.823l0,0.029Z" style="fill:#333;fill-rule:nonzero;"/><path d="M258.736,13.379c6.89,0 13.81,0.293 20.61,0.881c46.801,3.017 73.731,16.65 80.061,40.4c6.4,23.3 18.42,45.669 37.83,70.399c5.6,7.14 11.941,14.632 19.381,22.937c4.42,4.691 8.8,9.393 13.45,14.368c10.32,11.067 21,22.526 32.67,34.484c4.546,5.816 8.507,12.048 11.83,18.609c6.33,14.955 8.21,31.145 5.3,45.591c-2.933,15.403 -11.912,29.086 -25,38.098c-15.26,11.263 -32.79,19.255 -49.731,26.982c-29.68,13.526 -57.7,26.307 -74.73,55.13l-4,6.582c-26.401,43.955 -56.401,93.738 -107.092,93.738c-2.672,-0.005 -5.342,-0.143 -8,-0.412c-12.387,-1.208 -24.654,-3.396 -36.68,-6.542c-11.582,-3.038 -22.901,-6.968 -33.851,-11.753c-10.32,-4.482 -20.276,-9.731 -29.78,-15.699c-36.39,-18.609 -41.74,-67.442 -46,-106.696c-0.41,-3.751 -0.8,-7.296 -1.21,-10.773c-3.81,-29.45 -18.131,-48.294 -32.001,-66.52c-4.28,-5.632 -8.7,-11.449 -12.65,-17.414c-5.31,-8.07 -7.13,-18.324 -5.54,-31.341c1.4,-11.997 5.4,-24.21 9.22,-34.592c2.822,-7.885 6.05,-15.626 9.67,-23.192c3.41,-7.11 7.33,-14.397 11.67,-21.674c3.39,-6.101 6.63,-12.33 10.06,-18.931c17.201,-33.065 35.001,-67.255 70.251,-82.426c31.401,-13.516 63.551,-15.671 97.601,-17.904c9.701,-0.646 19.741,-1.302 29.861,-2.252c2.26,-0.059 4.55,-0.098 6.8,-0.098m0,-0.979c-2.28,0 -4.567,0.032 -6.86,0.097c-45.331,4.241 -87.171,2.753 -127.802,20.254c-42.64,18.335 -60.33,64.964 -80.791,101.779c-4.19,7.032 -8.12,14.26 -11.69,21.723c-3.637,7.594 -6.878,15.364 -9.71,23.28c-8,21.948 -15.69,48.441 -3.65,66.736c16.51,24.916 39.501,45.052 44.481,83.523c4.75,40.243 7.43,97.606 47.78,118.222c9.52,6.008 19.496,11.293 29.84,15.808c10.999,4.791 22.368,8.721 34.001,11.752c12.078,3.164 24.399,5.362 36.84,6.572c2.701,0.272 5.415,0.41 8.13,0.411c53.851,0 84.531,-55.502 111.912,-100.789c26.86,-45.463 82.931,-51.369 124.211,-81.819c28.46,-19.744 32.63,-55.149 20,-84.874c-3.365,-6.657 -7.384,-12.978 -12,-18.873c-16.85,-17.306 -31.75,-33.603 -46.14,-48.871c-6.79,-7.62 -13.281,-15.21 -19.281,-22.859c-17.29,-22.017 -30.66,-44.553 -37.66,-70.056c-8.14,-30.626 -48.301,-39.01 -81.001,-41.135c-6.827,-0.588 -13.72,-0.885 -20.68,-0.891l0.07,0.01Z" style="fill:#333;fill-rule:nonzero;"/><path d="M262.346,0.069l0,0.979c7.34,0 14.73,0.313 22,0.979c49.761,3.183 78.381,17.629 85.041,42.996c6.74,24.808 19.48,48.587 40.111,74.835c6,7.59 12.7,15.543 20.62,24.358c4.53,4.789 9,9.578 13.76,14.691c11.17,11.929 22.72,24.259 35.38,37.217c4.855,6.186 9.088,12.818 12.64,19.803c6.761,15.915 8.781,33.143 5.691,48.519c-3.129,16.41 -12.715,30.978 -26.681,40.547c-16.24,11.87 -34.9,20.332 -52.9,28.53c-31.601,14.358 -61.451,27.912 -79.531,58.607l-4.26,7.09c-28.061,46.776 -59.861,99.791 -113.782,99.791c-2.852,-0.002 -5.702,-0.146 -8.54,-0.431c-13.17,-1.287 -26.213,-3.616 -39,-6.964c-12.317,-3.221 -24.354,-7.39 -36.001,-12.467c-10.949,-4.785 -21.51,-10.38 -31.59,-16.738c-38.69,-19.764 -44.32,-71.692 -48.85,-113.424c-0.441,-4.025 -0.851,-7.835 -1.291,-11.576c-4,-31.341 -19.32,-51.369 -34.1,-70.732c-4.55,-5.955 -9.25,-12.115 -13.46,-18.432c-5.68,-8.589 -7.62,-19.5 -5.94,-33.378c1.54,-12.732 5.86,-25.699 9.88,-36.747c3,-8.388 6.431,-16.622 10.28,-24.671c3.62,-7.57 7.79,-15.317 12.41,-23.055c3.62,-6.513 7.08,-13.172 10.74,-20.214c18.271,-35.16 37.171,-71.496 74.671,-87.636c33.271,-14.378 67.421,-16.601 103.581,-19.001c10.381,-0.685 21.111,-1.39 31.941,-2.399c2.39,-0.098 4.84,-0.098 7.18,-0.098l0,-0.979m0,0c-2.407,0 -4.82,0.032 -7.24,0.097c-48.221,4.496 -92.721,2.841 -135.942,21.449c-45.37,19.49 -64.161,69.126 -85.891,108.282c-4.46,7.483 -8.63,15.171 -12.43,23.104c-3.866,8.076 -7.31,16.34 -10.32,24.759c-8.52,23.349 -16.7,51.487 -3.84,70.977c17.63,26.443 42.14,47.853 47.41,88.742c5.001,42.771 7.771,103.816 50.671,125.735c10.12,6.387 20.724,12.005 31.72,16.806c11.691,5.101 23.775,9.286 36.141,12.517c12.838,3.375 25.934,5.724 39.16,7.022c2.871,0.291 5.755,0.438 8.64,0.441c57.271,0 89.831,-59.155 118.902,-107.361c28.52,-48.402 88.221,-54.582 132.171,-86.921c30.311,-20.969 34.741,-58.646 21.3,-90.242c-3.588,-7.076 -7.872,-13.794 -12.79,-20.058c-18,-18.363 -33.85,-35.659 -49.17,-51.907c-7.3,-8.12 -14.18,-16.18 -20.56,-24.289c-18.381,-23.398 -32.561,-47.354 -39.931,-74.493c-8.58,-32.594 -51.281,-41.507 -86.001,-43.75c-7.273,-0.653 -14.607,-0.979 -22,-0.979l0,0.069Z" style="fill:#333;fill-rule:nonzero;"/></g></g></g></svg>