<?xml version="1.0" encoding="UTF-8" standalone="no"?><!DOCTYPE svg PUBLIC "-//W3C//DTD SVG 1.1//EN" "http://www.w3.org/Graphics/SVG/1.1/DTD/svg11.dtd"><svg width="100%" height="100%" viewBox="0 0 1000 1000" version="1.1" xmlns="http://www.w3.org/2000/svg" xmlns:xlink="http://www.w3.org/1999/xlink" xml:space="preserve" style="fill-rule:evenodd;clip-rule:evenodd;stroke-linejoin:round;stroke-miterlimit:1.41421;"><rect id="outlined" x="0" y="0" width="1000" height="1000" style="fill:none;"/><rect x="0" y="0" width="1000" height="1000" style="fill:#fff;"/><g id="Layer-1"><g><path d="M588.215,293.782c-6.439,-8.754 -11.562,-19.073 -19.629,-26.004c0.91,10.112 5.306,19.21 6.889,29.159c-4.063,-5.249 -7.533,-11.095 -11.159,-16.772c-3.067,-4.987 -6.277,-9.845 -9.473,-14.726c-4.563,0.139 -8.809,-2.749 -11.439,-7.031c-6.301,-10.004 -8.129,-22.698 -13.576,-33.258c-1.581,-2.993 -3.713,-5.89 -6.66,-7.019c-3.137,-1.193 -6.479,0.027 -9.284,1.761c-3.655,2.19 -6.34,5.973 -8.835,9.69c-5.845,9.091 -10.723,19.113 -13.896,29.907c-6.627,22.129 -7.096,46.355 -3.198,69.225c3.705,21.324 11.183,41.902 22.57,59.157c8.123,12.275 18.362,22.859 30.431,29.448c7.328,3.984 15.263,6.426 23.331,7.017c-18.639,25.535 -42.413,45.081 -67.214,61.527c-11.162,-10.544 -20.591,-23.511 -28.084,-37.823c-10.088,-19.235 -16.936,-40.653 -21.192,-62.628c-4.729,-24.227 -6.231,-49.214 -5.415,-74.009c-5.438,9.01 -8.968,19.418 -11.552,29.982c-0.635,2.52 -1.021,5.126 -1.757,7.626c-0.785,-14.2 0.983,-28.496 4.482,-42.089c1.88,-7.635 4.475,-14.991 6.678,-22.495c-6.486,6.477 -12.271,13.968 -17.143,22.168c-3.119,5.179 -5.518,10.871 -7.767,16.618c3.073,-23.066 11.189,-45.14 23.084,-63.826c1.947,-3.086 4.151,-5.934 6.162,-8.964c-12.597,6.683 -23.873,16.755 -32.784,29.143c2.93,-10.594 7.89,-20.276 13.8,-28.942c8.292,-12.262 18.371,-22.579 28.175,-33.104c-7.553,2.809 -15.789,4.493 -22.035,10.633c5.157,-8.514 11.848,-15.575 18.922,-21.847c16.023,-13.889 34.706,-23.836 54.395,-27.747c16.342,-3.26 34.331,-2.16 48.513,8.444c14.368,10.745 25.602,18.525 34.66,106.779" style="fill:#231f20;fill-rule:nonzero;"/><path d="M147.731,714.093l13.836,0c5.818,0 9.442,-2.855 9.442,-7.357c0,-4.173 -3.624,-6.807 -9.442,-6.807l-13.836,0l0,14.164Zm0,-29.757l13.836,0c4.502,0 7.356,-2.635 7.356,-6.698c0,-3.954 -2.854,-6.369 -7.356,-6.369l-13.836,0l0,13.067Zm15.044,-30.196c18.007,0 29.536,7.575 29.536,19.435c0,7.796 -5.05,14.275 -13.066,16.581c9.444,1.975 15.483,9.663 15.483,19.435c0,13.177 -11.859,21.523 -30.308,21.523l-39.42,0l0,-76.974l37.775,0Z" style="fill:#231f20;fill-rule:nonzero;"/><path d="M255.89,712.007l0,19.106l-55.121,0l0,-76.974l22.839,0l0,57.868l32.282,0Z" style="fill:#231f20;fill-rule:nonzero;"/><path d="M306.587,676.979l-9.442,25.145l18.666,0l-9.224,-25.145Zm-15.813,41.836l-4.61,12.299l-23.5,0l32.832,-76.974l23.5,0l31.733,76.974l-24.376,0l-4.502,-12.299l-31.077,0Z" style="fill:#231f20;fill-rule:nonzero;"/><path d="M420.787,667.096l-13.175,15.593c-4.832,-6.149 -11.969,-10.212 -18.339,-10.212c-10.432,0 -18.336,8.455 -18.336,19.764c0,11.311 7.904,19.876 18.336,19.876c5.93,0 13.068,-3.514 18.339,-8.895l13.175,14.056c-8.345,9.005 -20.972,14.825 -32.612,14.825c-23.389,0 -40.628,-16.911 -40.628,-39.642c0,-22.4 17.57,-38.981 41.397,-38.981c11.64,0 24.047,5.271 31.843,13.616" style="fill:#231f20;fill-rule:nonzero;"/><path d="M459.223,703.003l-8.675,9.663l0,18.447l-22.841,0l0,-76.974l22.841,0l0,29.647l25.804,-29.647l26.354,0l-27.89,31.294l29.647,45.68l-27.342,0l-17.898,-28.11Z" style="fill:#231f20;fill-rule:nonzero;"/><path d="M595.202,662.046l-8.454,17.569c-7.906,-4.502 -19.109,-8.567 -25.586,-8.567c-3.843,0 -6.369,1.32 -6.369,4.175c0,11.309 40.189,4.61 40.189,32.392c0,16.36 -14.493,24.157 -31.733,24.157c-13.068,0 -27.341,-4.612 -37.007,-12.189l8.568,-17.348c7.904,6.698 20.752,11.749 28.658,11.749c4.832,0 7.905,-1.647 7.905,-5.161c0,-11.64 -40.189,-4.282 -40.189,-31.406c0,-14.822 12.628,-24.266 31.845,-24.266c11.75,0 23.827,3.514 32.173,8.895" style="fill:#231f20;fill-rule:nonzero;"/><path d="M672.07,731.113l-12.299,-49.083l-12.519,49.083l-23.495,0l-25.037,-76.973l24.376,0l13.177,53.256l12.848,-53.147l22.292,-0.109l13.175,53.256l12.846,-53.256l23.39,0l-25.255,76.973l-23.499,0Z" style="fill:#231f20;fill-rule:nonzero;"/><path d="M752.233,676.979l-9.443,25.145l18.666,0l-9.223,-25.145Zm-17.643,41.836l-4.612,12.299l-23.498,0l32.832,-76.974l23.498,0l31.733,76.974l-24.376,0l-4.502,-12.299l-31.075,0Z" style="fill:#231f20;fill-rule:nonzero;"/><path d="M855.563,731.113l-32.612,-42.824l0,42.824l-20.972,0l0,-76.973l19.545,0l32.614,43.044l0,-43.044l20.862,0l0,76.973l-19.437,0Z" style="fill:#231f20;fill-rule:nonzero;"/><path d="M180.342,822.623l-46.119,-61.712l0,61.712l-8.785,0l0,-76.864l9.112,0l46.121,61.82l0,-61.82l8.675,0l0,76.864l-9.004,0Z" style="fill:#ec008c;fill-rule:nonzero;"/><path d="M295.313,790.998c0,19.986 -12.079,32.065 -32.173,32.065c-20.203,0 -32.393,-12.079 -32.393,-32.065l0,-45.24l8.784,0l0,45.24c0,14.935 9.004,23.608 23.609,23.608c14.603,0 23.388,-8.673 23.388,-23.608l0,-45.24l8.785,0l0,45.24Z" style="fill:#ec008c;fill-rule:nonzero;"/><path d="M359.993,754.214l0,68.409l-8.785,0l0,-68.409l-25.035,0l0,-8.455l58.965,0l0,8.455l-25.145,0Z" style="fill:#ec008c;fill-rule:nonzero;"/><path d="M446.852,789.901c13.946,0 21.852,-6.149 21.852,-18.117c0,-11.642 -7.906,-17.57 -21.852,-17.57l-20.423,0l0,35.687l20.423,0Zm5.161,8.236c-1.647,0.11 -3.404,0.219 -5.161,0.219l-20.423,0l0,24.267l-8.785,0l0,-76.864l29.208,0c19.217,0 30.307,9.443 30.307,25.803c0,12.739 -6.149,21.304 -17.238,24.928l18.005,26.133l-9.991,0l-15.922,-24.486Z" style="fill:#ec008c;fill-rule:nonzero;"/><rect x="516.803" y="745.758" width="8.785" height="76.864" style="fill:#ec008c;fill-rule:nonzero;"/><path d="M592.021,754.214l0,68.409l-8.785,0l0,-68.409l-25.035,0l0,-8.455l58.964,0l0,8.455l-25.144,0Z" style="fill:#ec008c;fill-rule:nonzero;"/><rect x="649.673" y="745.758" width="8.785" height="76.864" style="fill:#ec008c;fill-rule:nonzero;"/><path d="M703.151,784.191c0,16.909 14.275,30.415 31.404,30.415c17.13,0 31.184,-13.506 31.184,-30.415c0,-16.909 -14.054,-30.308 -31.184,-30.308c-17.129,0 -31.404,13.399 -31.404,30.308m71.593,0c0,21.631 -17.79,38.871 -40.189,38.871c-22.511,0 -40.299,-17.24 -40.299,-38.871c0,-21.743 17.788,-38.652 40.299,-38.652c22.399,0 40.189,17.021 40.189,38.652" style="fill:#ec008c;fill-rule:nonzero;"/><path d="M865.447,822.623l-46.119,-61.712l0,61.712l-8.785,0l0,-76.864l9.115,0l46.119,61.82l0,-61.82l8.675,0l0,76.864l-9.005,0Z" style="fill:#ec008c;fill-rule:nonzero;"/><path d="M609.585,272.557c7.785,14.412 12.158,30.589 12.158,47.687c0,60.407 -54.507,109.377 -121.742,109.377c-67.238,0 -121.742,-48.97 -121.742,-109.377c0,-17.098 4.372,-33.275 12.156,-47.687c-23.871,23.611 -38.421,54.969 -38.421,89.38c0,73.44 66.265,132.974 148.007,132.974c81.741,0 148.005,-59.534 148.005,-132.974c0,-34.411 -14.548,-65.769 -38.421,-89.38" style="fill:#231f20;fill-rule:nonzero;"/><path d="M646.113,247.851c10.379,19.217 16.21,40.788 16.21,63.583c0,80.544 -72.675,145.838 -162.323,145.838c-89.648,0 -162.323,-65.294 -162.323,-145.838c0,-22.795 5.83,-44.366 16.21,-63.583c-31.828,31.481 -51.228,73.294 -51.228,119.175c0,97.918 88.352,177.299 197.341,177.299c108.988,0 197.342,-79.381 197.342,-177.299c0,-45.881 -19.4,-87.694 -51.229,-119.175" style="fill:#231f20;fill-rule:nonzero;"/><path d="M694.817,214.91c13.84,25.625 21.613,54.383 21.613,84.776c0,107.394 -96.899,194.452 -216.431,194.452c-119.531,0 -216.43,-87.058 -216.43,-194.452c0,-30.393 7.773,-59.151 21.613,-84.776c-42.438,41.976 -68.303,97.723 -68.303,158.899c0,130.56 117.802,236.399 263.12,236.399c145.319,0 263.122,-105.839 263.122,-236.399c0,-61.176 -25.864,-116.923 -68.304,-158.899" style="fill:#231f20;fill-rule:nonzero;"/><path d="M569.706,234.234c1.114,3.933 0.124,7.659 -2.215,8.323c-2.337,0.663 -5.137,-1.989 -6.252,-5.922c-1.116,-3.935 -0.124,-7.661 2.213,-8.324c2.339,-0.662 5.139,1.99 6.254,5.923" style="fill:#fff;fill-rule:nonzero;"/><path d="M568.588,234.551c0.822,2.895 0.091,5.638 -1.629,6.125c-1.722,0.489 -3.781,-1.464 -4.603,-4.357c-0.822,-2.896 -0.091,-5.639 1.629,-6.128c1.722,-0.487 3.781,1.464 4.603,4.36" style="fill:#ec008c;fill-rule:nonzero;"/></g></g></svg>