<?xml version="1.0" encoding="UTF-8" standalone="no"?><!DOCTYPE svg PUBLIC "-//W3C//DTD SVG 1.1//EN" "http://www.w3.org/Graphics/SVG/1.1/DTD/svg11.dtd"><svg width="100%" height="100%" viewBox="0 0 1000 1000" version="1.1" xmlns="http://www.w3.org/2000/svg" xmlns:xlink="http://www.w3.org/1999/xlink" xml:space="preserve" style="fill-rule:evenodd;clip-rule:evenodd;stroke-linejoin:round;stroke-miterlimit:1.41421;"><rect id="outlined" x="0" y="0" width="1000" height="1000" style="fill:none;"/><clipPath id="_clip1"><rect x="0" y="0" width="1000" height="1000"/></clipPath><g clip-path="url(#_clip1)"><g id="Layer-1"><rect x="0" y="0" width="1000" height="1000" style="fill:#fff;"/><g><path d="M685.831,529.799c-0.765,-0.764 -1.629,-1.431 -2.572,-1.976c-0.944,0.545 -1.809,1.212 -2.573,1.976c-2.248,2.248 -3.638,5.354 -3.638,8.783l0,29.653l12.42,0l0,-29.653c0,-3.429 -1.39,-6.535 -3.637,-8.783" style="fill:#9e0912;fill-rule:nonzero;"/><path d="M374.266,462.73c4.301,0 7.33,-4.545 7.33,-10.966c0,-2.908 -0.606,-5.575 -1.816,-7.695c-1.272,-2.242 -3.092,-3.333 -5.514,-3.333l-3.211,0l0,21.994l3.211,0Zm-15.631,-31.143l15.631,0c6.664,0 11.208,1.759 14.904,5.697c3.515,3.755 5.393,8.783 5.393,14.419c0,12.057 -7.938,20.296 -19.511,20.296l-16.417,0l0,-40.412Z" style="fill:#4c4c4e;fill-rule:nonzero;"/><path d="M411.289,452.188c0,7.572 1.939,11.269 5.876,11.269c3.09,0 4.785,-1.879 5.393,-5.999c0.303,-1.636 0.485,-4.545 0.485,-6.724c0,-7.15 -1.818,-10.604 -5.696,-10.604c-3.939,0 -6.058,4.181 -6.058,12.058m19.631,-15.815c3.755,3.878 5.451,8.724 5.451,15.33c0,12.42 -7.816,20.901 -19.145,20.901c-11.511,0 -19.265,-8.36 -19.265,-20.78c0,-12.542 7.693,-20.842 19.325,-20.842c5.696,0 10.059,1.697 13.634,5.391" style="fill:#4c4c4e;fill-rule:nonzero;"/><path d="M453.156,452.188c0,7.572 1.939,11.269 5.878,11.269c3.09,0 4.786,-1.879 5.392,-5.999c0.303,-1.636 0.485,-4.545 0.485,-6.724c0,-7.15 -1.818,-10.604 -5.696,-10.604c-3.938,0 -6.059,4.181 -6.059,12.058m19.632,-15.815c3.755,3.878 5.452,8.724 5.452,15.33c0,12.42 -7.817,20.901 -19.146,20.901c-11.511,0 -19.267,-8.36 -19.267,-20.78c0,-12.542 7.696,-20.842 19.328,-20.842c5.696,0 10.058,1.697 13.633,5.391" style="fill:#4c4c4e;fill-rule:nonzero;"/><path d="M501.206,447.947c3.333,0 5.211,-1.454 5.211,-3.878c0,-2.424 -1.757,-3.878 -4.787,-3.878l-5.694,0l0,7.756l5.27,0Zm4.545,24.052l-5.937,-15.389l-3.878,0l0,15.389l-12.421,0l0,-40.412l21.145,0c9.148,0 14.662,4.605 14.662,12.3c0,5.088 -1.939,7.938 -7.15,10.543l7.271,17.569l-13.692,0Z" style="fill:#4c4c4e;fill-rule:nonzero;"/><path d="M532.775,458.246c1.274,3.515 3.272,4.848 7.514,4.848c2.969,0 4.605,-0.909 4.605,-2.545c0,-1.697 -1.273,-2.545 -4.908,-3.211c-4.908,-0.97 -8.362,-2.061 -11.028,-3.454c-3.573,-1.818 -5.634,-5.393 -5.634,-9.635c0,-7.996 6.543,-13.268 16.601,-13.268c8.301,0 13.874,3.333 16.48,9.936l-10.301,3.092c-1.15,-2.848 -3.089,-4.062 -6.482,-4.062c-2.484,0 -3.997,0.97 -3.997,2.547c0,1.515 1.028,2.181 4.482,2.908c7.513,1.576 9.089,2.059 11.694,3.453c3.513,1.939 5.694,5.756 5.694,10.058c0,8.239 -7.21,13.692 -18.115,13.692c-5.878,0 -10.542,-1.636 -13.995,-4.906c-2.061,-2 -3.091,-3.819 -4.121,-7.394l11.511,-2.059Z" style="fill:#4c4c4e;fill-rule:nonzero;"/><path d="M588.885,452.188c0,7.572 1.939,11.269 5.876,11.269c3.09,0 4.785,-1.879 5.393,-5.999c0.302,-1.636 0.484,-4.545 0.484,-6.724c0,-7.15 -1.818,-10.604 -5.695,-10.604c-3.939,0 -6.058,4.181 -6.058,12.058m19.63,-15.815c3.755,3.878 5.452,8.724 5.452,15.33c0,12.42 -7.817,20.901 -19.146,20.901c-11.511,0 -19.265,-8.36 -19.265,-20.78c0,-12.542 7.694,-20.842 19.326,-20.842c5.696,0 10.058,1.697 13.633,5.391" style="fill:#4c4c4e;fill-rule:nonzero;"/><path d="M634.692,448.673c3.755,0 5.453,-1.273 5.453,-3.998c0,-2.545 -1.698,-3.817 -5.089,-3.817l-4.484,0l0,7.815l4.12,0Zm-3.999,23.326l-12.541,0l0,-40.412l17.207,0c6.241,0 9.693,0.909 12.662,3.212c2.787,2.241 4.484,5.816 4.484,9.693c0,7.697 -5.878,12.845 -14.783,12.845l-7.029,0l0,14.662Z" style="fill:#4c4c4e;fill-rule:nonzero;"/><path d="M686.411,471.999l-30.354,0l0,-40.412l30.354,0l0,9.331l-18.176,0l0,5.876l14.724,0l0,8.968l-14.724,0l0,6.604l18.176,0l0,9.633Z" style="fill:#4c4c4e;fill-rule:nonzero;"/><path d="M715.801,471.999l-11.026,-17.813c-0.85,-1.514 -1.636,-2.967 -2.486,-4.423c-0.423,-0.788 -0.97,-2 -1.818,-3.938c0.789,3.514 0.969,4.605 0.969,6.606l0,19.568l-10.056,0l0,-40.412l11.692,0l9.392,14.785c2.242,3.633 3.515,5.997 4.302,7.814c-0.666,-3.694 -0.969,-7.392 -0.969,-10.602l0,-11.997l10.117,0l0,40.412l-10.117,0Z" style="fill:#4c4c4e;fill-rule:nonzero;"/><path d="M370.691,505.031l0,15.086l-12.058,0l0,-40.412l29.204,0l0,9.633l-17.146,0l0,6.604l13.208,0l0,9.089l-13.208,0Z" style="fill:#4c4c4e;fill-rule:nonzero;"/><path d="M402.925,500.306c0,7.573 1.939,11.269 5.878,11.269c3.09,0 4.786,-1.879 5.392,-5.999c0.303,-1.636 0.485,-4.544 0.485,-6.724c0,-7.15 -1.818,-10.604 -5.696,-10.604c-3.938,0 -6.059,4.181 -6.059,12.058m19.632,-15.815c3.755,3.878 5.452,8.724 5.452,15.33c0,12.42 -7.817,20.902 -19.146,20.902c-11.511,0 -19.267,-8.361 -19.267,-20.78c0,-12.543 7.696,-20.843 19.328,-20.843c5.695,0 10.058,1.697 13.633,5.391" style="fill:#4c4c4e;fill-rule:nonzero;"/><path d="M450.975,496.065c3.333,0 5.211,-1.454 5.211,-3.878c0,-2.424 -1.757,-3.878 -4.786,-3.878l-5.694,0l0,7.756l5.269,0Zm4.545,24.052l-5.936,-15.389l-3.878,0l0,15.389l-12.422,0l0,-40.412l21.145,0c9.148,0 14.662,4.605 14.662,12.3c0,5.088 -1.939,7.938 -7.15,10.543l7.271,17.569l-13.692,0Z" style="fill:#4c4c4e;fill-rule:nonzero;"/><path d="M534.167,520.117l-11.511,0l0,-28.899l-7.513,28.899l-7.877,0l-7.754,-28.899l0,28.899l-9.269,0l0,-40.412l16.176,0l5.878,21.448l5.573,-21.448l16.297,0l0,40.412Z" style="fill:#4c4c4e;fill-rule:nonzero;"/><path d="M573.918,506.485c0,4.665 -1.091,7.695 -3.575,10.058c-2.969,2.787 -7.15,4.179 -12.662,4.179c-5.696,0 -10.362,-1.452 -13.331,-4.058c-2.422,-2.181 -3.575,-5.211 -3.575,-9.572l0,-27.386l12.603,0l0,25.93c0,2.121 0.243,3.212 1.031,4.001c0.848,0.97 2.423,1.574 4.12,1.574c2.181,0 4.12,-0.848 4.967,-2.24c0.606,-0.97 0.666,-1.396 0.666,-5.575l0,-23.69l9.756,0l0,26.779Z" style="fill:#4c4c4e;fill-rule:nonzero;"/><path d="M588.702,506.365c1.273,3.514 3.272,4.847 7.514,4.847c2.969,0 4.605,-0.909 4.605,-2.545c0,-1.696 -1.273,-2.545 -4.908,-3.211c-4.908,-0.97 -8.362,-2.06 -11.028,-3.454c-3.573,-1.818 -5.633,-5.393 -5.633,-9.634c0,-7.997 6.542,-13.269 16.6,-13.269c8.302,0 13.874,3.333 16.48,9.936l-10.301,3.092c-1.149,-2.848 -3.088,-4.062 -6.482,-4.062c-2.484,0 -3.997,0.97 -3.997,2.547c0,1.515 1.028,2.182 4.482,2.909c7.512,1.575 9.089,2.058 11.695,3.452c3.512,1.939 5.694,5.756 5.694,10.058c0,8.239 -7.211,13.692 -18.116,13.692c-5.878,0 -10.541,-1.636 -13.995,-4.906c-2.06,-1.999 -3.091,-3.819 -4.121,-7.394l11.511,-2.058Z" style="fill:#4c4c4e;fill-rule:nonzero;"/><rect x="618.151" y="479.705" width="12.422" height="40.412" style="fill:#4c4c4e;fill-rule:nonzero;"/><path d="M671.106,505.395c-0.667,5.028 -1.818,7.633 -4.544,10.481c-3.089,3.211 -7.33,4.847 -12.42,4.847c-11.208,0 -18.356,-7.937 -18.356,-20.478c0,-6.666 1.999,-12.483 5.633,-16.298c3.09,-3.212 7.451,-4.848 12.846,-4.848c6.724,0 11.632,2.667 14.48,7.817c1.392,2.483 1.999,4.544 2.361,8.36l-11.511,0.667c-0.06,-2.303 -0.242,-3.333 -0.848,-4.666c-0.788,-1.816 -2.485,-3.028 -4.424,-3.028c-2.058,0 -3.877,1.452 -4.724,3.755c-0.789,2.062 -1.092,4.484 -1.092,8.303c0,7.813 1.759,11.085 5.816,11.085c3.273,0 5.09,-2.18 5.456,-6.724l11.327,0.727Z" style="fill:#4c4c4e;fill-rule:nonzero;"/><path d="M376.266,551.513l-3.272,-11.755l-3.272,11.755l6.544,0Zm2.181,8.787l-10.846,0l-2.424,7.935l-10.056,0l12.48,-40.412l13.086,0l12.664,40.412l-12.664,0l-2.24,-7.935Z" style="fill:#9e0912;fill-rule:nonzero;"/><path d="M411.348,568.235l-11.755,0l0,-30.717l-8.36,0l0,-9.695l28.476,0l0,9.695l-8.361,0l0,30.717Z" style="fill:#9e0912;fill-rule:nonzero;"/><path d="M445.704,554.483c1.274,3.514 3.272,4.847 7.513,4.847c2.969,0 4.605,-0.909 4.605,-2.545c0,-1.696 -1.272,-2.545 -4.908,-3.211c-4.908,-0.97 -8.362,-2.06 -11.028,-3.454c-3.573,-1.818 -5.633,-5.393 -5.633,-9.634c0,-7.997 6.542,-13.268 16.601,-13.268c8.301,0 13.874,3.332 16.479,9.935l-10.301,3.092c-1.149,-2.848 -3.088,-4.061 -6.481,-4.061c-2.485,0 -3.998,0.969 -3.998,2.546c0,1.515 1.029,2.182 4.483,2.909c7.513,1.575 9.089,2.058 11.694,3.452c3.513,1.939 5.694,5.756 5.694,10.058c0,8.239 -7.211,13.693 -18.116,13.693c-5.877,0 -10.541,-1.636 -13.995,-4.907c-2.06,-1.999 -3.09,-3.819 -4.12,-7.394l11.511,-2.058Z" style="fill:#9e0912;fill-rule:nonzero;"/><path d="M486.606,548.424c0,7.573 1.939,11.269 5.876,11.269c3.09,0 4.785,-1.879 5.393,-5.999c0.303,-1.636 0.484,-4.544 0.484,-6.724c0,-7.15 -1.817,-10.604 -5.695,-10.604c-3.939,0 -6.058,4.181 -6.058,12.058m19.631,-15.815c3.755,3.878 5.451,8.724 5.451,15.331c0,12.419 -7.816,20.901 -19.146,20.901c-11.51,0 -19.265,-8.36 -19.265,-20.78c0,-12.543 7.694,-20.843 19.326,-20.843c5.696,0 10.059,1.697 13.634,5.391" style="fill:#9e0912;fill-rule:nonzero;"/><path d="M549.679,554.603c0,4.665 -1.09,7.695 -3.575,10.058c-2.969,2.787 -7.15,4.179 -12.662,4.179c-5.696,0 -10.361,-1.452 -13.33,-4.058c-2.422,-2.181 -3.575,-5.211 -3.575,-9.572l0,-27.386l12.603,0l0,25.93c0,2.121 0.242,3.212 1.03,4.001c0.848,0.97 2.424,1.574 4.119,1.574c2.183,0 4.122,-0.848 4.968,-2.24c0.606,-0.97 0.667,-1.396 0.667,-5.575l0,-23.69l9.755,0l0,26.779Z" style="fill:#9e0912;fill-rule:nonzero;"/><path d="M573.009,568.235l-11.755,0l0,-30.717l-8.36,0l0,-9.695l28.475,0l0,9.695l-8.36,0l0,30.717Z" style="fill:#9e0912;fill-rule:nonzero;"/><path d="M619.058,568.235l-12.42,0l0,-15.692l-9.39,0l0,15.692l-12.422,0l0,-40.412l12.422,0l0,14.904l9.39,0l0,-14.904l12.42,0l0,40.412Z" style="fill:#9e0912;fill-rule:nonzero;"/><path d="M670.015,568.235l-11.511,0l0,-28.899l-7.514,28.899l-7.877,0l-7.754,-28.899l0,28.899l-9.269,0l0,-40.412l16.177,0l5.877,21.448l5.573,-21.448l16.298,0l0,40.412Z" style="fill:#9e0912;fill-rule:nonzero;"/><path d="M720.916,568.235l-11.026,-17.812c-0.85,-1.515 -1.636,-2.968 -2.487,-4.424c-0.422,-0.787 -0.969,-1.999 -1.817,-3.938c0.789,3.514 0.969,4.605 0.969,6.606l0,19.568l-10.057,0l0,-40.412l11.693,0l9.392,14.785c2.242,3.634 3.515,5.997 4.302,7.815c-0.666,-3.695 -0.969,-7.393 -0.969,-10.602l0,-11.998l10.117,0l0,40.412l-10.117,0Z" style="fill:#9e0912;fill-rule:nonzero;"/><path d="M745.394,554.483c1.275,3.514 3.272,4.847 7.514,4.847c2.969,0 4.605,-0.909 4.605,-2.545c0,-1.696 -1.272,-2.545 -4.908,-3.211c-4.908,-0.97 -8.362,-2.06 -11.028,-3.454c-3.573,-1.818 -5.633,-5.393 -5.633,-9.634c0,-7.997 6.542,-13.268 16.6,-13.268c8.302,0 13.874,3.332 16.48,9.935l-10.301,3.092c-1.149,-2.848 -3.088,-4.061 -6.482,-4.061c-2.484,0 -3.997,0.969 -3.997,2.546c0,1.515 1.028,2.182 4.482,2.909c7.514,1.575 9.089,2.058 11.695,3.452c3.512,1.939 5.694,5.756 5.694,10.058c0,8.239 -7.211,13.693 -18.116,13.693c-5.878,0 -10.541,-1.636 -13.995,-4.907c-2.06,-1.999 -3.09,-3.819 -4.121,-7.394l11.511,-2.058Z" style="fill:#9e0912;fill-rule:nonzero;"/><path d="M791.93,568.235l-11.755,0l0,-30.717l-8.36,0l0,-9.695l28.476,0l0,9.695l-8.361,0l0,30.717Z" style="fill:#9e0912;fill-rule:nonzero;"/><path d="M834.1,568.235l-30.354,0l0,-40.412l30.354,0l0,9.332l-18.176,0l0,5.875l14.724,0l0,8.968l-14.724,0l0,6.605l18.176,0l0,9.632Z" style="fill:#9e0912;fill-rule:nonzero;"/><path d="M856.763,544.183c3.333,0 5.211,-1.454 5.211,-3.878c0,-2.424 -1.757,-3.878 -4.787,-3.878l-5.694,0l0,7.756l5.27,0Zm4.545,24.052l-5.937,-15.389l-3.878,0l0,15.389l-12.421,0l0,-40.412l21.145,0c9.148,0 14.662,4.605 14.662,12.3c0,5.088 -1.939,7.938 -7.15,10.544l7.271,17.568l-13.692,0Z" style="fill:#9e0912;fill-rule:nonzero;"/><path d="M269.577,547.533l-22.277,0l0,-75.769c0,-6.152 2.493,-11.721 6.525,-15.752c1.372,-1.372 2.922,-2.566 4.614,-3.545c1.691,0.979 3.241,2.173 4.614,3.545c4.031,4.031 6.524,9.6 6.524,15.752l0,75.769Zm-33.415,0l-22.277,0l0,-75.769c0,-6.152 2.493,-11.721 6.524,-15.752c1.373,-1.372 2.923,-2.566 4.614,-3.545c1.692,0.979 3.242,2.173 4.614,3.545c4.032,4.031 6.525,9.6 6.525,15.752l0,75.769Zm-33.416,0l-22.276,0l0,-75.769c0,-6.152 2.493,-11.721 6.524,-15.752c1.372,-1.372 2.923,-2.566 4.614,-3.545c1.691,0.979 3.242,2.173 4.614,3.545c4.031,4.031 6.524,9.6 6.524,15.752l0,75.769Zm22.277,-136.64c-49.212,0 -89.107,39.894 -89.107,89.108c0,49.212 39.895,89.107 89.107,89.107c49.213,0 89.108,-39.895 89.108,-89.107c0,-49.214 -39.895,-89.108 -89.108,-89.108" style="fill:#9e0912;fill-rule:nonzero;"/><path d="M225.023,399.977c-55.152,0 -100.023,44.871 -100.023,100.023c0,55.152 44.871,100.023 100.023,100.023c55.153,0 100.024,-44.871 100.024,-100.023c0,-55.152 -44.871,-100.023 -100.024,-100.023m0,5.346c52.289,0 94.677,42.389 94.677,94.677c0,52.288 -42.388,94.677 -94.677,94.677c-52.288,0 -94.677,-42.389 -94.677,-94.677c0,-52.288 42.389,-94.677 94.677,-94.677" style="fill:#4c4c4e;fill-rule:nonzero;"/></g></g></g></svg>