<?xml version="1.0" encoding="UTF-8" standalone="no"?><!DOCTYPE svg PUBLIC "-//W3C//DTD SVG 1.1//EN" "http://www.w3.org/Graphics/SVG/1.1/DTD/svg11.dtd"><svg width="100%" height="100%" viewBox="0 0 1000 1000" version="1.1" xmlns="http://www.w3.org/2000/svg" xmlns:xlink="http://www.w3.org/1999/xlink" xml:space="preserve" style="fill-rule:evenodd;clip-rule:evenodd;stroke-linejoin:round;stroke-miterlimit:1.41421;"><rect id="outlined" x="0" y="0" width="1000" height="1000" style="fill:none;"/><rect x="0" y="0" width="1000" height="1000" style="fill:#fff;"/><g id="Logotype"><g><path d="M242.929,499.687c-0.422,-12.476 -4.474,-22.459 -12.167,-29.949c-7.698,-7.485 -18.305,-11.232 -31.823,-11.232c-13.522,0 -24.439,3.747 -32.757,11.232c-8.323,7.49 -13.314,17.473 -14.975,29.949l91.722,0Zm20.9,59.59c-8.734,11.232 -18.301,19.087 -28.7,23.555c-10.404,4.468 -22.464,6.708 -36.19,6.708c-11.441,0 -21.738,-2.025 -30.888,-6.083c-9.151,-4.057 -16.899,-9.517 -23.241,-16.381c-6.349,-6.86 -11.233,-14.975 -14.666,-24.334c-3.427,-9.358 -5.144,-19.34 -5.144,-29.949c0,-11.232 1.869,-21.576 5.616,-31.04c3.743,-9.466 8.938,-17.574 15.6,-24.339c6.652,-6.753 14.553,-12.009 23.708,-15.756c9.15,-3.743 19.134,-5.612 29.949,-5.612c10.191,0 19.55,1.711 28.081,5.144c8.525,3.433 15.858,8.425 21.992,14.975c6.134,6.555 10.866,14.564 14.198,24.024c3.326,9.47 4.991,20.229 4.991,32.29l0,7.799l-117.928,0c0.412,6.241 1.919,12.222 4.525,17.941c2.594,5.721 5.97,10.714 10.136,14.974c4.157,4.265 9.047,7.648 14.663,10.14c5.616,2.499 11.75,3.743 18.408,3.743c10.607,0 19.549,-1.869 26.832,-5.616c7.277,-3.743 13.827,-9.252 19.656,-16.534l18.402,14.351Z" style="fill-rule:nonzero;"/><path d="M395.178,476.289c-5.2,-6.235 -10.816,-10.761 -16.848,-13.569c-6.033,-2.808 -12.689,-4.214 -19.966,-4.214c-8.11,0 -15.284,1.406 -21.525,4.214c-6.241,2.808 -11.39,6.709 -15.442,11.7c-4.057,4.992 -7.13,10.76 -9.207,17.315c-2.082,6.551 -3.118,13.568 -3.118,21.058c0,7.485 1.194,14.508 3.585,21.058c2.393,6.551 5.719,12.325 9.984,17.316c4.26,4.991 9.409,8.891 15.446,11.699c6.028,2.808 12.792,4.21 20.277,4.21c16.015,0 28.39,-6.028 37.129,-18.092l18.093,17.157c-7.075,8.11 -15.398,14.04 -24.959,17.783c-9.571,3.743 -19.656,5.616 -30.263,5.616c-11.232,0 -21.525,-1.873 -30.884,-5.616c-9.363,-3.743 -17.315,-9.049 -23.871,-15.909c-6.55,-6.865 -11.648,-14.975 -15.284,-24.338c-3.641,-9.359 -5.46,-19.652 -5.46,-30.884c0,-11.024 1.819,-21.214 5.46,-30.573c3.636,-9.364 8.784,-17.473 15.441,-24.339c6.657,-6.86 14.61,-12.211 23.866,-16.066c9.253,-3.843 19.5,-5.769 30.732,-5.769c10.809,0 21.058,1.869 30.731,5.612c9.674,3.747 18.142,9.571 25.425,17.473l-19.342,17.158Z" style="fill-rule:nonzero;"/><path d="M426.061,349.936l24.334,0l0,110.128l0.625,0c1.659,-2.909 3.945,-5.768 6.86,-8.576c2.914,-2.808 6.397,-5.352 10.455,-7.643c4.052,-2.288 8.576,-4.157 13.567,-5.616c4.993,-1.45 10.298,-2.183 15.915,-2.183c9.561,0 17.828,1.457 24.8,4.368c6.967,2.914 12.741,6.972 17.315,12.167c4.576,5.199 7.957,11.495 10.141,18.873c2.183,7.384 3.276,15.442 3.276,24.182l0,90.162l-24.334,0l0,-87.67c0,-12.268 -2.707,-21.94 -8.114,-29.015c-5.408,-7.068 -13.832,-10.607 -25.268,-10.607c-7.906,0 -14.72,1.356 -20.438,4.057c-5.723,2.707 -10.4,6.55 -14.035,11.543c-3.646,4.991 -6.347,10.921 -8.115,17.781c-1.766,6.866 -2.65,14.463 -2.65,22.775l0,71.136l-24.334,0l0,-235.862Z" style="fill-rule:nonzero;"/><path d="M658.8,391.742l-16.844,0c-3.33,0 -5.98,0.68 -7.956,2.027c-1.981,1.356 -3.539,3.229 -4.682,5.616c-1.143,2.396 -1.869,5.046 -2.183,7.957c-0.31,2.914 -0.467,5.926 -0.467,9.048l0,54.907c0,7.073 -1.042,13.055 -3.118,17.941c-2.082,4.89 -4.58,8.891 -7.491,12.013c-2.914,3.118 -5.879,5.459 -8.891,7.018c-3.015,1.56 -5.459,2.549 -7.332,2.966l0,0.619c1.873,0.213 4.317,0.99 7.332,2.341c3.012,1.355 5.977,3.54 8.891,6.555c2.911,3.016 5.409,7.068 7.491,12.166c2.076,5.099 3.118,11.491 3.118,19.185l0,54.597c0,3.123 0.157,6.135 0.467,9.049c0.314,2.909 1.04,5.51 2.183,7.8c1.143,2.285 2.701,4.158 4.682,5.616c1.976,1.451 4.626,2.183 7.956,2.183l16.844,0l0,18.718l-21.835,0c-3.955,0 -7.855,-0.834 -11.699,-2.494c-3.854,-1.666 -7.332,-4.164 -10.455,-7.49c-3.118,-3.326 -5.667,-7.439 -7.643,-12.324c-1.98,-4.884 -2.965,-10.45 -2.965,-16.691l0,-54.596c0,-5.617 -0.776,-10.609 -2.336,-14.975c-1.564,-4.368 -3.589,-8.11 -6.088,-11.232c-2.494,-3.118 -5.357,-5.46 -8.577,-7.018c-3.229,-1.56 -6.505,-2.341 -9.826,-2.341l0,-18.717c3.321,0 6.597,-0.828 9.826,-2.499c3.22,-1.66 6.083,-4.001 8.577,-7.018c2.499,-3.01 4.524,-6.706 6.088,-11.074c1.56,-4.368 2.336,-9.251 2.336,-14.665l0,-54.906c0,-6.241 1.041,-11.801 3.122,-16.691c2.078,-4.885 4.677,-8.998 7.801,-12.324c3.118,-3.326 6.601,-5.82 10.449,-7.49c3.844,-1.661 7.643,-2.494 11.39,-2.494l21.835,0l0,18.717Z" style="fill-rule:nonzero;"/><path d="M793.571,373.025l21.84,0c3.742,0 7.535,0.834 11.39,2.493c3.843,1.671 7.327,4.165 10.451,7.491c3.117,3.326 5.717,7.439 7.799,12.323c2.077,4.89 3.117,10.451 3.117,16.692l0,54.906c0,5.414 0.783,10.298 2.341,14.665c1.559,4.366 3.591,8.064 6.083,11.075c2.499,3.016 5.353,5.357 8.582,7.017c3.22,1.672 6.496,2.499 9.826,2.499l0,18.717c-3.33,0 -6.606,0.781 -9.826,2.341c-3.229,1.558 -6.083,3.899 -8.582,7.018c-2.492,3.122 -4.524,6.864 -6.083,11.232c-1.558,4.366 -2.341,9.359 -2.341,14.975l0,54.596c0,6.241 -0.989,11.805 -2.964,16.691c-1.976,4.885 -4.519,8.998 -7.643,12.324c-3.118,3.326 -6.606,5.825 -10.451,7.49c-3.848,1.661 -7.748,2.492 -11.699,2.492l-21.84,0l0,-18.715l16.849,0c3.326,0 5.976,-0.733 7.957,-2.185c1.97,-1.457 3.479,-3.33 4.525,-5.616c1.036,-2.29 1.762,-4.89 2.183,-7.799c0.411,-2.915 0.619,-5.926 0.619,-9.049l0,-54.597c0,-7.693 1.042,-14.086 3.123,-19.184c2.076,-5.099 4.57,-9.151 7.486,-12.167c2.913,-3.016 5.875,-5.199 8.891,-6.555c3.015,-1.351 5.463,-2.128 7.332,-2.341l0,-0.619c-1.869,-0.417 -4.317,-1.408 -7.332,-2.966c-3.016,-1.559 -5.978,-3.9 -8.891,-7.018c-2.916,-3.123 -5.41,-7.125 -7.486,-12.014c-2.081,-4.884 -3.123,-10.867 -3.123,-17.939l0,-54.908c0,-3.122 -0.208,-6.134 -0.619,-9.049c-0.421,-2.909 -1.147,-5.56 -2.183,-7.957c-1.046,-2.386 -2.555,-4.261 -4.525,-5.616c-1.981,-1.345 -4.631,-2.025 -7.957,-2.025l-16.849,0l0,-18.718Z" style="fill-rule:nonzero;"/><path d="M726.188,436.047c-43.076,0 -77.995,34.919 -77.995,77.995c0,43.076 34.919,77.997 77.995,77.997c43.076,0 77.996,-34.921 77.996,-77.997c0,-43.076 -34.92,-77.995 -77.996,-77.995m0,5.199c40.14,0 72.796,32.656 72.796,72.796c0,40.14 -32.656,72.796 -72.796,72.796c-40.14,0 -72.796,-32.656 -72.796,-72.796c0,-40.14 32.656,-72.796 72.796,-72.796" style="fill:#ffd200;fill-rule:nonzero;"/><path d="M779.851,514.042c0,29.637 -24.025,53.663 -53.662,53.663c-29.638,0 -53.664,-24.026 -53.664,-53.663c0,-29.636 24.026,-53.662 53.664,-53.662c29.637,0 53.662,24.026 53.662,53.662" style="fill:#ffd200;fill-rule:nonzero;"/></g></g></svg>