<?xml version="1.0" encoding="UTF-8" standalone="no"?><!DOCTYPE svg PUBLIC "-//W3C//DTD SVG 1.1//EN" "http://www.w3.org/Graphics/SVG/1.1/DTD/svg11.dtd"><svg width="100%" height="100%" viewBox="0 0 1000 1000" version="1.1" xmlns="http://www.w3.org/2000/svg" xmlns:xlink="http://www.w3.org/1999/xlink" xml:space="preserve" style="fill-rule:evenodd;clip-rule:evenodd;stroke-linejoin:round;stroke-miterlimit:1.41421;"><rect id="outlined" x="0" y="0" width="1000" height="1000" style="fill:none;"/><clipPath id="_clip1"><rect x="0" y="0" width="1000" height="1000"/></clipPath><g clip-path="url(#_clip1)"><rect x="0" y="0" width="1000" height="1000" style="fill:#fff;"/><g><path d="M152.999,473.705l27.133,0l0,4.594l-21.98,0l0,13.35l21.545,0l0,4.594l-21.545,0l0,14.281l21.98,0l0,4.594l-27.133,0l0,-41.413Z" style="fill-rule:nonzero;"/><path d="M203.723,497.485l-13.225,17.633l-6.27,0l16.143,-21.234l-15.212,-20.179l6.271,0l12.293,16.578l12.232,-16.578l6.271,0l-15.15,20.117l16.081,21.296l-6.208,0l-13.226,-17.633Z" style="fill-rule:nonzero;"/><path d="M244.825,478.299l-10.865,0l0,15.771l10.865,0c4.905,0 8.258,-3.229 8.258,-7.885c0,-4.657 -3.353,-7.886 -8.258,-7.886m-16.019,-4.594l16.64,0c8.32,0 12.976,5.712 12.976,12.48c0,6.768 -4.781,12.48 -12.976,12.48l-11.486,0l0,16.453l-5.154,0l0,-41.413Z" style="fill-rule:nonzero;"/><path d="M265.251,473.705l27.133,0l0,4.594l-21.98,0l0,13.35l21.545,0l0,4.594l-21.545,0l0,14.281l21.98,0l0,4.594l-27.133,0l0,-41.413Z" style="fill-rule:nonzero;"/><path d="M316.596,478.299l-10.865,0l0,15.833l10.865,0c4.905,0 8.258,-3.291 8.258,-7.947c0,-4.657 -3.353,-7.886 -8.258,-7.886m-2.607,20.366l-8.258,0l0,16.453l-5.154,0l0,-41.413l16.64,0c7.575,0 12.977,4.843 12.977,12.48c0,7.45 -5.092,11.548 -10.741,12.045l11.176,16.888l-6.085,0l-10.555,-16.453Z" style="fill-rule:nonzero;"/><path d="M347.95,478.299l-13.101,0l0,-4.594l31.417,0l0,4.594l-13.163,0l0,36.819l-5.153,0l0,-36.819Z" style="fill-rule:nonzero;"/><path d="M405.131,478.299l-10.865,0l0,15.771l10.865,0c4.905,0 8.258,-3.229 8.258,-7.885c0,-4.657 -3.353,-7.886 -8.258,-7.886m-16.018,-4.594l16.639,0c8.32,0 12.977,5.712 12.977,12.48c0,6.768 -4.781,12.48 -12.977,12.48l-11.486,0l0,16.453l-5.153,0l0,-41.413Z" style="fill-rule:nonzero;"/><rect x="425.557" y="473.705" width="5.154" height="41.413" style="fill-rule:nonzero;"/><path d="M447.164,501.334l17.571,0l-8.755,-22.289l-8.816,22.289Zm19.123,4.595l-20.613,0l-3.664,9.189l-5.898,0l16.64,-41.413l6.395,0l16.702,41.413l-5.899,0l-3.663,-9.189Z" style="fill-rule:nonzero;"/><path d="M486.402,482.087l0,33.031l-5.153,0l0,-41.413l5.277,0l23.842,32.348l0,-32.348l5.154,0l0,41.413l-4.967,0l-24.153,-33.031Z" style="fill-rule:nonzero;"/><path d="M544.081,477.617c-9.313,0 -15.212,7.14 -15.212,16.826c0,9.624 5.899,16.826 15.212,16.826c9.251,0 15.212,-7.202 15.212,-16.826c0,-9.686 -5.961,-16.826 -15.212,-16.826m0,-4.595c12.232,0 20.552,9.189 20.552,21.421c0,12.231 -8.32,21.42 -20.552,21.42c-12.293,0 -20.551,-9.189 -20.551,-21.42c0,-12.232 8.258,-21.421 20.551,-21.421" style="fill-rule:nonzero;"/><path d="M606.168,500.59l-9.375,0l0,11.176l9.375,0c3.477,0 6.085,-2.173 6.085,-5.588c0,-3.477 -2.608,-5.588 -6.085,-5.588m-18.192,-7.761l19.372,0c9.003,0 13.908,6.085 13.908,13.349c0,7.203 -4.967,13.349 -13.908,13.349l-10.555,0l0,14.715l-8.817,0l0,-41.413Z" style="fill-rule:nonzero;"/><path d="M626.718,492.829l8.817,0l0,33.652l17.509,0l0,7.761l-26.326,0l0,-41.413Z" style="fill-rule:nonzero;"/><path d="M669.869,519.465l12.914,0l-6.457,-17.819l-6.457,17.819Zm15.336,7.761l-17.757,0l-2.609,7.017l-10.058,0l16.019,-41.414l11.052,0l15.957,41.414l-10.059,0l-2.545,-7.017Z" style="fill-rule:nonzero;"/><path d="M707.245,500.59l-12.108,0l0,-7.761l33.032,0l0,7.761l-12.045,0l0,33.652l-8.879,0l0,-33.652Z" style="fill-rule:nonzero;"/><path d="M733.817,492.829l29.306,0l0,7.761l-20.489,0l0,8.755l20.054,0l0,7.761l-20.054,0l0,9.375l20.489,0l0,7.761l-29.306,0l0,-41.413Z" style="fill-rule:nonzero;"/><path d="M780.693,519.465l12.914,0l-6.457,-17.819l-6.457,17.819Zm15.336,7.761l-17.757,0l-2.608,7.017l-10.059,0l16.019,-41.414l11.052,0l15.957,41.414l-10.058,0l-2.546,-7.017Z" style="fill-rule:nonzero;"/><path d="M810.433,492.829l8.94,0l0,24.588c0,5.774 3.353,9.747 9.748,9.747c6.395,0 9.686,-3.973 9.686,-9.747l0,-24.588l9.003,0l0,24.836c0,10.306 -6.085,17.322 -18.689,17.322c-12.604,0 -18.688,-7.077 -18.688,-17.26l0,-24.898Z" style="fill-rule:nonzero;"/><path d="M769.001,555.427c1.841,0 3.396,1.554 3.396,3.395c0,1.841 -1.555,3.395 -3.396,3.395c-1.841,0 -3.396,-1.554 -3.396,-3.395c0,-1.841 1.555,-3.395 3.396,-3.395" style="fill-rule:nonzero;"/><path d="M774.67,551.269c0,-6.537 5.014,-10.949 11.647,-10.949c5.554,0 8.346,3.238 9.616,6.157l-5.522,2.571c-0.54,-1.65 -2.19,-3.079 -4.094,-3.079c-3.078,0 -5.141,2.349 -5.141,5.3c0,2.951 2.063,5.3 5.141,5.3c1.904,0 3.554,-1.428 4.094,-3.078l5.522,2.538c-1.238,2.825 -4.062,6.189 -9.616,6.189c-6.633,0 -11.647,-4.443 -11.647,-10.949" style="fill-rule:nonzero;"/><path d="M808.647,545.969c-3.078,0 -5.077,2.349 -5.077,5.3c0,2.951 1.999,5.3 5.077,5.3c3.078,0 5.078,-2.349 5.078,-5.3c0,-2.951 -2,-5.3 -5.078,-5.3m0,-5.649c6.537,0 11.584,4.443 11.584,10.949c0,6.506 -5.047,10.949 -11.584,10.949c-6.537,0 -11.583,-4.443 -11.583,-10.949c0,-6.506 5.046,-10.949 11.583,-10.949" style="fill-rule:nonzero;"/><path d="M841.399,549.111l-4.728,12.726l-2.856,0l-4.728,-12.726l0,12.726l-6.411,0l0,-21.167l8.854,0l3.713,10.155l3.713,-10.155l8.854,0l0,21.167l-6.411,0l0,-12.726Z" style="fill-rule:nonzero;"/><rect x="587.976" y="480.14" width="259.834" height="7.761" style="fill:#231f20;fill-rule:nonzero;"/><path d="M875,403.42l-750,0l0,193.16l750,0l0,-193.16Zm-7.726,185.434l-734.548,0l0,-177.708l734.548,0l0,177.708Z" style="fill-rule:nonzero;"/></g></g></svg>