<?xml version="1.0" encoding="UTF-8" standalone="no"?><!DOCTYPE svg PUBLIC "-//W3C//DTD SVG 1.1//EN" "http://www.w3.org/Graphics/SVG/1.1/DTD/svg11.dtd"><svg width="100%" height="100%" viewBox="0 0 1000 1000" version="1.1" xmlns="http://www.w3.org/2000/svg" xmlns:xlink="http://www.w3.org/1999/xlink" xml:space="preserve" style="fill-rule:evenodd;clip-rule:evenodd;stroke-linejoin:round;stroke-miterlimit:1.41421;"><rect id="icon-outlined" x="0" y="0" width="1000" height="1000" style="fill:none;"/><clipPath id="_clip1"><rect x="0" y="0" width="1000" height="1000"/></clipPath><g clip-path="url(#_clip1)"><g id="Layer-1"><rect x="0" y="0" width="1000" height="1000" style="fill:#fff;"/><path d="M614.014,707.86c-65.395,0 -103.966,-27.634 -103.966,-90.516c0,-13.414 1.677,-26.393 5.032,-42.323l31.86,-150.696c1.678,-7.546 2.513,-14.983 2.513,-21.691c0,-30.183 -15.926,-49.412 -38.564,-49.412c-20.123,0 -35.214,10.845 -52.82,22.583l-71.264,343.695l-120.733,0l88.871,-438l120.732,0l-10.06,49.721c34.373,-25.152 72.94,-43.049 109.831,-43.049c45.275,0 96.417,49.739 96.417,105.913c0,6.708 0,13.97 -1.677,20.678l-34.374,160.416c-2.514,9.222 -4.193,18.584 -4.193,26.968c0,18.446 9.226,29.347 41.919,29.347c33.539,0 46.116,-43.494 79.652,-54.494l28.507,0c-38.567,62.5 -102.289,130.86 -167.683,130.86m-114.014,-582.86c-207.107,0 -375,167.893 -375,375c0,207.106 167.893,375 375,375c207.106,0 375,-167.894 375,-375c0,-207.107 -167.894,-375 -375,-375" style="fill:#ffb900;fill-rule:nonzero;"/></g></g></svg>