<?xml version="1.0" encoding="UTF-8" standalone="no"?><!DOCTYPE svg PUBLIC "-//W3C//DTD SVG 1.1//EN" "http://www.w3.org/Graphics/SVG/1.1/DTD/svg11.dtd"><svg width="100%" height="100%" viewBox="0 0 1000 1000" version="1.1" xmlns="http://www.w3.org/2000/svg" xmlns:xlink="http://www.w3.org/1999/xlink" xml:space="preserve" style="fill-rule:evenodd;clip-rule:evenodd;stroke-miterlimit:10;"><rect id="logo-outlined" x="0" y="0" width="1000" height="1000" style="fill:none;"/><clipPath id="_clip1"><rect x="0" y="0" width="1000" height="1000"/></clipPath><g clip-path="url(#_clip1)"><g id="Layer-1"><rect x="0" y="0" width="1000" height="1000" style="fill:#fff;"/><g><path d="M138.36,592.064l727.447,0" style="fill:none;stroke:#fff;stroke-width:2px;"/><path d="M442.972,545.863l-11.991,0l0,17.592l-5.127,0l0,-10.399l-2.254,0l0,-15.062l-8.173,0l0,-2.965l-4.219,0l0,14.223l-2.114,0l0,-11.14l-7.649,0l0,5.971l-3.945,6.143l0,6.7l-13.045,0l0,-6.182l-6.294,0l0,5.042l-2.533,0l0,10.779l-2.159,0l0,-26.953l-4.819,-9.003l-3.149,0l-4.816,9.003l0,7.682l-2.683,4.839l0,10.434l-4.395,0l0,-9.114l-8.834,0l0,-8.294l-5.009,0l0,3.237l-2.861,0l0,21.112l-3.591,0l0,-17.546l-4.183,0l0,-17.436l-9.138,0l0,20.637l-4.33,0l0,3.507l-3.447,0l0,-8.391l-4.212,-2.442l-4.233,0l0,-15.89l-5.923,0l0,12.691l-1.962,0l0,16.203l-2.52,0l0,-6.636l-3.954,0l0,3.196l-4.482,0l0,-3.196l-9.328,0l0,9.259l-2.601,0l0,-3.039l-3.915,0l0,-1.919l-4.019,0l0,-9.466l-8.082,0l0,12.2l-4.718,0l0,-8.14l-10.083,0l0,-2.044l-3.929,0l0,4.754l-4.47,0l-2.372,2.696l0,2.349l-2.857,0l0,-2.536l-6.107,0l0,-14.197l-9.408,0l0,2.512l-2.555,0l0,13.668l-9.117,0l-2.269,-0.879l-8.001,0l0,-3.631l-4.384,0l0,6.115l-2.229,1.166l0,3.842l-2.204,0l0,-11.123l-5.173,0l-2.316,2.714l-9.229,0l0,-4.01l-5.392,0l0,-5.165l-2.59,0l0,2.493l-5.287,0l0,4.228l-3.986,4.409l-13.506,0l0,25.941l491.021,0l0,-27.896l-12.158,0l0,-5.296l-10.828,0l0,8.576l-3.058,0l0,3.529l-3.912,0l0,2.441l-2.696,0l0,-14.563l-10.863,0l0,11.117l-8.413,0l0,-16.919l-4.505,0l0,-1.972l-2.783,0l0,2.146l-4.224,0l0,15.902l-4.587,0l-1.152,1.72l-3.599,0l0,-4.487l-8.1,0l0,-4.816l-6.137,0l0,4.816l-3.496,0l-2.972,4.114l-15.413,0l0,-7.768l-6.089,0l-1.794,2.781l-3.549,-1.981l-7.418,0l0,-3.456l-5.332,0l0,-1.635l-2.571,0l0,5.83l-3.218,2.363l-5.926,0l0,-23.177l-12.496,0l0,12.835l-3.971,0l0,3.21l-2.999,2.95l0,3.954l-5.537,0l0,-11.152l-5.151,0" style="fill:#969696;fill-rule:nonzero;"/><path d="M152.584,416.991c-5.624,2.316 -9.986,5.779 -13.087,10.389c-3.1,4.61 -4.651,10.368 -4.651,17.272c0,1.613 0.093,2.926 0.279,3.939c0.186,1.014 0.382,1.829 0.589,2.45c0.206,0.62 0.404,1.096 0.59,1.426c0.185,0.332 0.279,0.62 0.279,0.868c-2.193,0 -4.135,-0.217 -5.83,-0.651c-1.696,-0.434 -3.112,-1.137 -4.249,-2.109c-1.137,-0.97 -2.006,-2.242 -2.605,-3.814c-0.6,-1.571 -0.899,-3.493 -0.899,-5.768c0,-2.811 0.61,-5.582 1.83,-8.311c1.219,-2.729 2.893,-5.312 5.023,-7.752c2.129,-2.439 4.63,-4.703 7.505,-6.791c2.873,-2.088 5.954,-3.886 9.241,-5.396c3.287,-1.509 6.718,-2.688 10.295,-3.535c3.576,-0.848 7.143,-1.272 10.699,-1.272c0.951,0 1.829,0.031 2.636,0.093c0.806,0.062 1.622,0.135 2.45,0.217l-19.537,91.17c2.191,0.497 4.393,1.252 6.605,2.264c2.212,1.013 4.455,2.129 6.729,3.349c2.274,1.22 4.579,2.46 6.916,3.722c2.335,1.26 4.713,2.418 7.132,3.473c2.419,1.054 4.9,1.912 7.442,2.574c2.544,0.661 5.157,0.992 7.846,0.992c1.736,0 3.483,-0.145 5.241,-0.434c1.757,-0.29 3.566,-0.828 5.427,-1.613c-0.373,3.06 -0.941,5.82 -1.706,8.28c-0.766,2.459 -1.705,4.559 -2.822,6.295c-1.116,1.736 -2.409,3.071 -3.876,4c-1.468,0.931 -3.07,1.396 -4.807,1.396c-3.018,0 -5.996,-0.713 -8.931,-2.14c-2.936,-1.427 -5.882,-3.204 -8.838,-5.334c-2.956,-2.13 -5.944,-4.444 -8.962,-6.946c-3.018,-2.502 -6.12,-4.817 -9.303,-6.946c-3.184,-2.13 -6.481,-3.908 -9.892,-5.334c-3.411,-1.426 -6.999,-2.14 -10.76,-2.14l-1.427,0c-0.455,0 -0.952,0.041 -1.488,0.125l18.916,-88.008Z" style="fill:#ffb900;fill-rule:nonzero;"/><path d="M211.781,450.544c0,-0.372 -0.083,-0.837 -0.248,-1.395c-0.166,-0.558 -0.445,-1.095 -0.837,-1.613c-0.394,-0.516 -0.921,-0.95 -1.582,-1.302c-0.662,-0.351 -1.509,-0.527 -2.543,-0.527c-1.778,0 -3.463,0.579 -5.054,1.736c-1.593,1.158 -3.05,2.698 -4.373,4.621c-1.324,1.923 -2.502,4.104 -3.535,6.543c-1.033,2.44 -1.913,4.952 -2.636,7.536c-0.724,2.584 -1.271,5.127 -1.643,7.628c-0.373,2.502 -0.558,4.745 -0.558,6.729c0,2.44 0.226,4.322 0.682,5.644c0.454,1.324 1.002,2.306 1.643,2.946c0.641,0.642 1.334,1.024 2.078,1.147c0.744,0.125 1.405,0.187 1.985,0.187c0.951,0 1.953,-0.238 3.008,-0.713c1.054,-0.475 2.067,-1.179 3.038,-2.109c0.972,-0.93 1.861,-2.098 2.667,-3.505c0.807,-1.405 1.416,-3.038 1.83,-4.899l6.078,-28.654Zm11.722,31.073c-0.208,0.703 -0.352,1.395 -0.434,2.078c-0.083,0.682 -0.124,1.354 -0.124,2.015c0,1.778 0.423,3.008 1.271,3.691c0.847,0.682 2.16,1.023 3.939,1.023c0.578,0 1.095,-0.041 1.55,-0.124c0.454,-0.083 0.868,-0.227 1.241,-0.434c-0.869,2.192 -1.696,4.093 -2.482,5.705c-0.785,1.613 -1.653,2.946 -2.604,4.001c-0.952,1.054 -2.037,1.84 -3.256,2.357c-1.221,0.516 -2.657,0.775 -4.311,0.775c-3.515,0 -6.347,-1.024 -8.497,-3.07c-2.15,-2.047 -3.473,-4.951 -3.969,-8.714c-0.951,1.448 -2.057,2.874 -3.318,4.279c-1.261,1.406 -2.667,2.667 -4.217,3.783c-1.551,1.117 -3.278,2.016 -5.179,2.698c-1.902,0.682 -3.969,1.024 -6.202,1.024c-2.192,0 -4.301,-0.352 -6.326,-1.054c-2.027,-0.704 -3.825,-1.861 -5.396,-3.473c-1.572,-1.613 -2.833,-3.722 -3.783,-6.327c-0.951,-2.605 -1.427,-5.788 -1.427,-9.551c0,-2.893 0.29,-5.995 0.869,-9.303c0.579,-3.308 1.467,-6.615 2.666,-9.924c1.199,-3.307 2.698,-6.481 4.497,-9.52c1.799,-3.038 3.907,-5.726 6.326,-8.062c2.419,-2.336 5.157,-4.197 8.217,-5.582c3.06,-1.385 6.43,-2.078 10.11,-2.078c3.598,0 6.211,0.62 7.846,1.861c1.632,1.24 2.449,2.771 2.449,4.589l0,0.931l1.365,-6.761l18.296,0l-9.117,43.167Z" style="fill:#ffb900;fill-rule:nonzero;"/><path d="M330.486,479.198c-1.778,5.21 -3.69,9.365 -5.736,12.466c-2.047,3.101 -4.115,5.469 -6.203,7.101c-2.088,1.634 -4.135,2.698 -6.14,3.194c-2.005,0.497 -3.856,0.745 -5.551,0.745c-2.812,0 -5.169,-0.404 -7.07,-1.21c-1.902,-0.806 -3.432,-1.881 -4.589,-3.224c-1.158,-1.344 -1.996,-2.874 -2.512,-4.59c-0.518,-1.715 -0.775,-3.483 -0.775,-5.303c0,-2.149 0.299,-4.661 0.899,-7.535c0.599,-2.874 1.25,-5.82 1.954,-8.838c0.702,-3.018 1.353,-5.933 1.953,-8.745c0.599,-2.812 0.899,-5.23 0.899,-7.257c0,-4.341 -1.53,-6.512 -4.589,-6.512c-1.158,0 -2.233,0.31 -3.225,0.93c-0.992,0.62 -1.902,1.458 -2.729,2.512c-0.828,1.055 -1.572,2.295 -2.232,3.721c-0.662,1.427 -1.241,2.946 -1.738,4.559l-8.62,40.747l-18.296,0l13.458,-63.509l18.296,0l-1.364,6.575c1.364,-1.53 2.718,-2.761 4.062,-3.691c1.343,-0.93 2.656,-1.643 3.939,-2.139c1.281,-0.496 2.49,-0.827 3.627,-0.993c1.138,-0.164 2.203,-0.248 3.194,-0.248c2.026,0 3.908,0.269 5.644,0.806c1.737,0.538 3.236,1.386 4.497,2.543c1.261,1.158 2.242,2.647 2.946,4.466c0.703,1.82 1.054,3.99 1.054,6.512c0,1.696 -0.154,3.525 -0.465,5.489c-0.31,1.964 -0.693,3.969 -1.147,6.016c-0.456,2.046 -0.941,4.083 -1.458,6.109c-0.517,2.026 -1.003,3.969 -1.457,5.829c-0.455,1.861 -0.838,3.588 -1.147,5.179c-0.311,1.593 -0.466,2.988 -0.466,4.187c0,1.572 0.362,2.853 1.086,3.845c0.722,0.992 2.056,1.489 4,1.489c1.365,0 2.563,-0.269 3.597,-0.806c1.033,-0.538 1.963,-1.303 2.791,-2.295c0.827,-0.993 1.582,-2.181 2.264,-3.566c0.682,-1.385 1.354,-2.905 2.016,-4.559l5.333,0Z" style="fill:#ffb900;fill-rule:nonzero;"/><path d="M366.55,450.544c0,-0.372 -0.083,-0.837 -0.248,-1.395c-0.166,-0.558 -0.445,-1.095 -0.837,-1.613c-0.394,-0.516 -0.921,-0.95 -1.582,-1.302c-0.662,-0.351 -1.509,-0.527 -2.543,-0.527c-1.778,0 -3.463,0.579 -5.054,1.736c-1.593,1.158 -3.05,2.698 -4.373,4.621c-1.324,1.923 -2.502,4.104 -3.535,6.543c-1.034,2.44 -1.913,4.952 -2.636,7.536c-0.724,2.584 -1.271,5.127 -1.643,7.628c-0.373,2.502 -0.558,4.745 -0.558,6.729c0,2.44 0.226,4.322 0.682,5.644c0.454,1.324 1.002,2.306 1.643,2.946c0.641,0.642 1.334,1.024 2.078,1.147c0.744,0.125 1.405,0.187 1.985,0.187c0.951,0 1.953,-0.238 3.008,-0.713c1.054,-0.475 2.067,-1.179 3.038,-2.109c0.972,-0.93 1.861,-2.098 2.667,-3.505c0.807,-1.405 1.416,-3.038 1.83,-4.899l6.078,-28.654Zm32.003,28.654c-1.2,3.432 -2.502,6.409 -3.908,8.931c-1.406,2.522 -2.863,4.651 -4.372,6.388c-1.51,1.736 -3.049,3.143 -4.62,4.218c-1.572,1.075 -3.102,1.902 -4.59,2.48c-1.489,0.58 -2.915,0.971 -4.279,1.178c-1.365,0.207 -2.606,0.311 -3.722,0.311c-3.597,0 -6.46,-0.982 -8.59,-2.946c-2.129,-1.963 -3.421,-4.869 -3.876,-8.714c-1.034,1.447 -2.171,2.863 -3.411,4.248c-1.24,1.386 -2.626,2.627 -4.155,3.722c-1.53,1.095 -3.236,1.984 -5.117,2.666c-1.882,0.682 -3.96,1.024 -6.233,1.024c-2.192,0 -4.301,-0.352 -6.326,-1.054c-2.027,-0.704 -3.825,-1.861 -5.396,-3.473c-1.572,-1.613 -2.833,-3.722 -3.783,-6.327c-0.951,-2.605 -1.427,-5.788 -1.427,-9.551c0,-2.893 0.29,-5.995 0.869,-9.303c0.579,-3.308 1.467,-6.615 2.666,-9.924c1.199,-3.307 2.698,-6.481 4.497,-9.52c1.799,-3.038 3.907,-5.726 6.326,-8.062c2.419,-2.336 5.157,-4.197 8.217,-5.582c3.06,-1.385 6.429,-2.078 10.11,-2.078c3.598,0 6.211,0.62 7.846,1.861c1.632,1.24 2.449,2.771 2.449,4.589l0,0.931l1.365,-6.761l18.296,0l-9.117,43.167c-0.208,0.703 -0.352,1.395 -0.434,2.078c-0.083,0.682 -0.124,1.354 -0.124,2.015c0,3.639 1.737,5.458 5.21,5.458c1.24,0 2.387,-0.32 3.441,-0.962c1.055,-0.64 2.016,-1.498 2.885,-2.573c0.868,-1.075 1.632,-2.346 2.294,-3.815c0.661,-1.467 1.22,-3.008 1.675,-4.62l5.334,0Z" style="fill:#ffb900;fill-rule:nonzero;"/><path d="M433.748,479.198c-1.2,3.432 -2.533,6.409 -4,8.931c-1.468,2.522 -2.999,4.651 -4.589,6.388c-1.593,1.736 -3.226,3.143 -4.9,4.218c-1.675,1.075 -3.298,1.902 -4.869,2.48c-1.572,0.58 -3.07,0.971 -4.496,1.178c-1.427,0.207 -2.698,0.311 -3.814,0.311c-1.903,0 -3.681,-0.29 -5.335,-0.869c-1.653,-0.578 -3.091,-1.488 -4.31,-2.729c-1.22,-1.24 -2.181,-2.811 -2.884,-4.713c-0.703,-1.901 -1.054,-4.196 -1.054,-6.885c0,-1.156 0.083,-2.427 0.248,-3.813c0.166,-1.385 0.414,-2.885 0.744,-4.497l7.629,-35.662l-4.218,0l1.055,-5.086l4.155,0l3.845,-17.551l18.793,-2.543l-4.342,20.094l7.629,0l-0.993,5.086l-7.628,0l-8.125,38.081c-0.207,0.703 -0.341,1.395 -0.403,2.078c-0.062,0.682 -0.093,1.354 -0.093,2.015c0,1.778 0.413,3.008 1.24,3.69c0.827,0.683 2.13,1.024 3.908,1.024c1.24,0 2.449,-0.279 3.628,-0.838c1.178,-0.557 2.264,-1.333 3.256,-2.325c0.993,-0.993 1.881,-2.18 2.667,-3.566c0.785,-1.385 1.426,-2.885 1.923,-4.497l5.333,0Z" style="fill:#ffb900;fill-rule:nonzero;"/><path d="M499.148,479.198c-1.2,3.432 -2.503,6.409 -3.908,8.931c-1.406,2.522 -2.863,4.651 -4.372,6.388c-1.51,1.736 -3.05,3.143 -4.621,4.218c-1.572,1.075 -3.1,1.902 -4.589,2.48c-1.489,0.58 -2.915,0.971 -4.279,1.178c-1.365,0.207 -2.606,0.311 -3.722,0.311c-3.638,0 -6.533,-1.003 -8.683,-3.008c-2.15,-2.006 -3.452,-5.013 -3.907,-9.024c-1.612,2.605 -3.247,4.693 -4.899,6.264c-1.655,1.572 -3.288,2.791 -4.9,3.659c-1.613,0.868 -3.185,1.436 -4.714,1.705c-1.53,0.269 -2.957,0.404 -4.28,0.404c-1.902,0 -3.68,-0.29 -5.333,-0.869c-1.654,-0.578 -3.091,-1.488 -4.31,-2.729c-1.22,-1.24 -2.181,-2.811 -2.885,-4.713c-0.702,-1.901 -1.054,-4.196 -1.054,-6.885c0,-1.156 0.084,-2.427 0.248,-3.813c0.166,-1.385 0.414,-2.885 0.745,-4.497l8.62,-40.748l18.296,0l-9.116,43.167c-0.249,1.324 -0.372,2.522 -0.372,3.597c0,1.448 0.268,2.677 0.805,3.69c0.537,1.014 1.53,1.52 2.978,1.52c1.24,0 2.377,-0.279 3.411,-0.838c1.033,-0.557 1.974,-1.333 2.822,-2.325c0.847,-0.993 1.591,-2.18 2.233,-3.566c0.64,-1.385 1.209,-2.885 1.705,-4.497l8.621,-40.748l18.296,0l-9.117,43.167c-0.207,0.703 -0.351,1.395 -0.434,2.078c-0.084,0.682 -0.124,1.354 -0.124,2.015c0,1.778 0.423,3.008 1.271,3.69c0.847,0.683 2.16,1.024 3.939,1.024c1.24,0 2.387,-0.279 3.442,-0.838c1.054,-0.557 2.015,-1.333 2.884,-2.325c0.868,-0.993 1.632,-2.18 2.294,-3.566c0.661,-1.385 1.219,-2.885 1.675,-4.497l5.334,0Z" style="fill:#ffb900;fill-rule:nonzero;"/><path d="M490.247,501.959l13.458,-63.509l18.296,0l-1.613,7.877c1.117,-0.992 2.253,-1.963 3.412,-2.915c1.157,-0.951 2.366,-1.788 3.628,-2.512c1.261,-0.722 2.574,-1.312 3.939,-1.767c1.364,-0.455 2.811,-0.683 4.341,-0.683c1.447,0 2.718,0.27 3.814,0.807c1.095,0.538 2.016,1.24 2.76,2.108c0.744,0.868 1.302,1.882 1.674,3.039c0.373,1.158 0.558,2.357 0.558,3.598c0,1.116 -0.185,2.222 -0.558,3.318c-0.372,1.095 -0.941,2.077 -1.705,2.946c-0.766,0.868 -1.727,1.581 -2.884,2.139c-1.158,0.559 -2.502,0.838 -4.031,0.838c-1.2,0 -2.12,-0.207 -2.76,-0.621c-0.642,-0.412 -1.127,-0.93 -1.458,-1.55c-0.331,-0.62 -0.569,-1.292 -0.713,-2.016c-0.145,-0.723 -0.301,-1.395 -0.465,-2.015c-0.166,-0.621 -0.383,-1.137 -0.651,-1.551c-0.27,-0.413 -0.714,-0.62 -1.333,-0.62c-1.945,0 -3.578,0.445 -4.9,1.333c-1.324,0.89 -2.771,2.058 -4.342,3.504l-10.171,48.252l-18.296,0Z" style="fill:#ffb900;fill-rule:nonzero;"/><path d="M582.439,464.623c-1.323,-0.33 -2.223,-0.982 -2.698,-1.954c-0.476,-0.97 -0.713,-2.098 -0.713,-3.38c0,-1.777 0.362,-3.234 1.085,-4.372c0.723,-1.137 1.685,-1.974 2.884,-2.512c-0.083,-1.364 -0.227,-2.512 -0.434,-3.442c-0.207,-0.93 -0.496,-1.695 -0.868,-2.295c-0.372,-0.599 -0.837,-1.023 -1.395,-1.271c-0.559,-0.248 -1.272,-0.372 -2.14,-0.372c-1.53,0 -2.998,0.589 -4.404,1.767c-1.406,1.179 -2.739,2.74 -4,4.683c-1.262,1.944 -2.419,4.165 -3.474,6.667c-1.054,2.502 -1.952,5.076 -2.697,7.722c-0.744,2.646 -1.324,5.262 -1.737,7.845c-0.413,2.585 -0.62,4.931 -0.62,7.04c0,2.108 0.114,3.824 0.341,5.147c0.227,1.324 0.599,2.368 1.116,3.133c0.517,0.765 1.189,1.292 2.016,1.581c0.827,0.29 1.839,0.434 3.039,0.434c1.529,0 3.071,-0.682 4.621,-2.047c1.55,-1.364 2.987,-3.225 4.31,-5.582c1.323,-2.356 2.491,-5.147 3.505,-8.373c1.013,-3.225 1.767,-6.698 2.263,-10.419m33.057,-10.916c-2.481,2.606 -5.685,4.818 -9.613,6.637c-3.929,1.82 -8.228,3.122 -12.9,3.907c-0.496,5.871 -1.623,11.164 -3.38,15.877c-1.758,4.714 -3.98,8.725 -6.668,12.032c-2.688,3.309 -5.768,5.852 -9.241,7.629c-3.473,1.778 -7.154,2.666 -11.039,2.666c-2.936,0 -5.655,-0.362 -8.156,-1.084c-2.502,-0.724 -4.651,-1.882 -6.45,-3.474c-1.799,-1.591 -3.205,-3.659 -4.218,-6.202c-1.012,-2.543 -1.519,-5.633 -1.519,-9.272c0,-2.481 0.259,-5.303 0.775,-8.466c0.518,-3.163 1.343,-6.419 2.481,-9.768c1.137,-3.349 2.605,-6.625 4.403,-9.83c1.799,-3.204 3.99,-6.067 6.574,-8.59c2.584,-2.522 5.572,-4.559 8.963,-6.109c3.389,-1.551 7.256,-2.326 11.598,-2.326c10.873,0 16.311,6.76 16.311,20.28l0,0.125c0.207,0.083 0.403,0.124 0.589,0.124l0.775,0c1.489,0 3.091,-0.217 4.807,-0.652c1.715,-0.433 3.442,-1.001 5.179,-1.705c1.736,-0.702 3.431,-1.519 5.085,-2.45c1.654,-0.93 3.163,-1.87 4.528,-2.822l1.116,3.473Z" style="fill:#ffb900;fill-rule:nonzero;"/><path d="M617.387,488.749c0.248,0.704 0.754,1.365 1.519,1.985c0.765,0.62 1.871,0.93 3.318,0.93c2.233,0 4.218,-0.568 5.954,-1.705c1.737,-1.137 3.266,-2.646 4.59,-4.528c1.323,-1.881 2.439,-4.021 3.349,-6.419c0.909,-2.398 1.653,-4.858 2.233,-7.381c0.578,-2.521 1.002,-5.013 1.271,-7.473c0.269,-2.459 0.403,-4.683 0.403,-6.667c0,-2.44 -0.227,-4.362 -0.682,-5.768c-0.455,-1.405 -1.003,-2.459 -1.643,-3.163c-0.642,-0.703 -1.334,-1.148 -2.078,-1.334c-0.745,-0.186 -1.406,-0.279 -1.985,-0.279c-1.447,0 -2.967,0.527 -4.558,1.582c-1.593,1.054 -2.988,2.615 -4.187,4.683l-7.504,35.537Zm-27.786,44.965l21.211,-99.977l18.296,0l-2.046,9.551c1.861,-1.571 3.99,-2.873 6.388,-3.907c2.398,-1.033 5.21,-1.551 8.435,-1.551c2.15,0 4.176,0.341 6.078,1.023c1.902,0.683 3.545,1.799 4.931,3.35c1.385,1.55 2.481,3.607 3.287,6.171c0.806,2.564 1.209,5.727 1.209,9.489c0,2.853 -0.197,5.944 -0.589,9.272c-0.393,3.329 -1.065,6.657 -2.016,9.985c-0.951,3.329 -2.201,6.534 -3.752,9.613c-1.551,3.081 -3.484,5.8 -5.799,8.156c-2.316,2.357 -5.054,4.249 -8.217,5.675c-3.164,1.426 -6.792,2.14 -10.885,2.14c-1.612,0 -3.019,-0.125 -4.217,-0.372c-1.2,-0.249 -2.224,-0.579 -3.071,-0.993c-0.848,-0.413 -1.55,-0.899 -2.109,-1.457c-0.558,-0.558 -1.023,-1.126 -1.395,-1.705l-6.574,30.947l-19.165,4.59Z" style="fill:#ffb900;fill-rule:nonzero;"/><path d="M701.951,450.544c0,-0.372 -0.084,-0.837 -0.249,-1.395c-0.165,-0.558 -0.444,-1.095 -0.837,-1.613c-0.393,-0.516 -0.92,-0.95 -1.581,-1.302c-0.662,-0.351 -1.51,-0.527 -2.543,-0.527c-1.778,0 -3.463,0.579 -5.055,1.736c-1.592,1.158 -3.049,2.698 -4.372,4.621c-1.324,1.923 -2.502,4.104 -3.535,6.543c-1.034,2.44 -1.913,4.952 -2.636,7.536c-0.724,2.584 -1.272,5.127 -1.644,7.628c-0.372,2.502 -0.558,4.745 -0.558,6.729c0,2.44 0.227,4.322 0.682,5.644c0.455,1.324 1.002,2.306 1.644,2.946c0.64,0.642 1.333,1.024 2.077,1.147c0.744,0.125 1.405,0.187 1.986,0.187c0.95,0 1.952,-0.238 3.007,-0.713c1.054,-0.475 2.067,-1.179 3.039,-2.109c0.971,-0.93 1.861,-2.098 2.667,-3.505c0.807,-1.405 1.416,-3.038 1.83,-4.899l6.078,-28.654Zm32.003,28.654c-1.2,3.432 -2.503,6.409 -3.908,8.931c-1.406,2.522 -2.864,4.651 -4.372,6.388c-1.51,1.736 -3.05,3.143 -4.621,4.218c-1.572,1.075 -3.101,1.902 -4.589,2.48c-1.489,0.58 -2.915,0.971 -4.28,1.178c-1.364,0.207 -2.605,0.311 -3.721,0.311c-3.597,0 -6.461,-0.982 -8.59,-2.946c-2.13,-1.963 -3.422,-4.869 -3.876,-8.714c-1.034,1.447 -2.171,2.863 -3.411,4.248c-1.241,1.386 -2.626,2.627 -4.156,3.722c-1.53,1.095 -3.235,1.984 -5.117,2.666c-1.882,0.682 -3.959,1.024 -6.233,1.024c-2.192,0 -4.301,-0.352 -6.326,-1.054c-2.027,-0.704 -3.825,-1.861 -5.395,-3.473c-1.572,-1.613 -2.833,-3.722 -3.784,-6.327c-0.951,-2.605 -1.427,-5.788 -1.427,-9.551c0,-2.893 0.29,-5.995 0.869,-9.303c0.579,-3.308 1.467,-6.615 2.667,-9.924c1.199,-3.307 2.698,-6.481 4.496,-9.52c1.799,-3.038 3.908,-5.726 6.326,-8.062c2.419,-2.336 5.158,-4.197 8.218,-5.582c3.059,-1.385 6.429,-2.078 10.11,-2.078c3.597,0 6.211,0.62 7.845,1.861c1.633,1.24 2.45,2.771 2.45,4.589l0,0.931l1.364,-6.761l18.297,0l-9.118,43.167c-0.207,0.703 -0.351,1.395 -0.434,2.078c-0.083,0.682 -0.124,1.354 -0.124,2.015c0,3.639 1.737,5.458 5.21,5.458c1.241,0 2.388,-0.32 3.442,-0.962c1.054,-0.64 2.016,-1.498 2.884,-2.573c0.869,-1.075 1.633,-2.346 2.295,-3.815c0.661,-1.467 1.219,-3.008 1.674,-4.62l5.335,0Z" style="fill:#ffb900;fill-rule:nonzero;"/><path d="M769.149,479.198c-1.2,3.432 -2.533,6.409 -4.001,8.931c-1.467,2.522 -2.998,4.651 -4.589,6.388c-1.592,1.736 -3.226,3.143 -4.9,4.218c-1.674,1.075 -3.298,1.902 -4.868,2.48c-1.572,0.58 -3.071,0.971 -4.497,1.178c-1.426,0.207 -2.698,0.311 -3.814,0.311c-1.903,0 -3.68,-0.29 -5.334,-0.869c-1.654,-0.578 -3.091,-1.488 -4.311,-2.729c-1.22,-1.24 -2.181,-2.811 -2.884,-4.713c-0.702,-1.901 -1.054,-4.196 -1.054,-6.885c0,-1.156 0.083,-2.427 0.248,-3.813c0.166,-1.385 0.414,-2.885 0.745,-4.497l7.628,-35.662l-4.217,0l1.054,-5.086l4.155,0l3.846,-17.551l18.792,-2.543l-4.342,20.094l7.629,0l-0.992,5.086l-7.629,0l-8.125,38.081c-0.207,0.703 -0.341,1.395 -0.403,2.078c-0.061,0.682 -0.093,1.354 -0.093,2.015c0,1.778 0.413,3.008 1.241,3.69c0.826,0.683 2.129,1.024 3.907,1.024c1.24,0 2.45,-0.279 3.628,-0.838c1.178,-0.557 2.264,-1.333 3.256,-2.325c0.993,-0.993 1.881,-2.18 2.667,-3.566c0.785,-1.385 1.427,-2.885 1.923,-4.497l5.334,0Z" style="fill:#ffb900;fill-rule:nonzero;"/><path d="M834.549,479.198c-1.779,5.21 -3.691,9.365 -5.737,12.466c-2.047,3.101 -4.115,5.469 -6.203,7.101c-2.088,1.634 -4.134,2.698 -6.14,3.194c-2.006,0.497 -3.856,0.745 -5.551,0.745c-2.812,0 -5.169,-0.404 -7.07,-1.21c-1.902,-0.806 -3.433,-1.881 -4.589,-3.224c-1.158,-1.344 -1.996,-2.874 -2.513,-4.59c-0.517,-1.715 -0.775,-3.483 -0.775,-5.303c0,-2.149 0.3,-4.661 0.9,-7.535c0.599,-2.874 1.25,-5.82 1.954,-8.838c0.702,-3.018 1.353,-5.933 1.953,-8.745c0.599,-2.812 0.899,-5.23 0.899,-7.257c0,-4.341 -1.53,-6.512 -4.589,-6.512c-1.158,0 -2.233,0.31 -3.225,0.93c-0.993,0.62 -1.902,1.458 -2.729,2.512c-0.828,1.055 -1.572,2.295 -2.233,3.721c-0.662,1.427 -1.241,2.946 -1.736,4.559l-8.622,40.747l-18.296,0l18.421,-86.394l18.792,-2.543l-6.822,32.003c1.364,-1.53 2.718,-2.761 4.062,-3.691c1.343,-0.93 2.656,-1.643 3.939,-2.139c1.281,-0.496 2.49,-0.827 3.627,-0.993c1.137,-0.164 2.202,-0.248 3.195,-0.248c2.025,0 3.907,0.269 5.644,0.806c1.736,0.538 3.234,1.386 4.496,2.543c1.261,1.158 2.242,2.647 2.946,4.466c0.702,1.82 1.054,3.99 1.054,6.512c0,1.696 -0.155,3.525 -0.465,5.489c-0.31,1.964 -0.693,3.969 -1.147,6.016c-0.456,2.046 -0.941,4.083 -1.458,6.109c-0.517,2.026 -1.003,3.969 -1.457,5.829c-0.456,1.861 -0.838,3.588 -1.147,5.179c-0.311,1.593 -0.466,2.988 -0.466,4.187c0,1.572 0.362,2.853 1.086,3.845c0.722,0.992 2.056,1.489 4,1.489c1.364,0 2.563,-0.269 3.597,-0.806c1.033,-0.538 1.964,-1.303 2.791,-2.295c0.827,-0.993 1.582,-2.181 2.264,-3.566c0.682,-1.385 1.354,-2.905 2.016,-4.559l5.334,0Z" style="fill:#ffb900;fill-rule:nonzero;"/><path d="M848.657,470.205c2.439,-0.082 4.775,-0.734 7.008,-1.954c2.233,-1.219 4.207,-2.791 5.923,-4.713c1.715,-1.923 3.08,-4.125 4.093,-6.605c1.013,-2.482 1.52,-5.045 1.52,-7.691c0,-1.571 -0.228,-2.832 -0.682,-3.783c-0.456,-0.951 -1.282,-1.427 -2.481,-1.427c-1.613,0 -3.194,0.797 -4.745,2.388c-1.55,1.592 -2.998,3.65 -4.341,6.171c-1.344,2.522 -2.565,5.334 -3.659,8.435c-1.096,3.101 -1.975,6.162 -2.636,9.179m21.707,13.707c-0.662,3.68 -1.696,6.719 -3.101,9.117c-1.406,2.398 -3.081,4.321 -5.024,5.768c-1.944,1.447 -4.093,2.46 -6.45,3.038c-2.357,0.578 -4.817,0.869 -7.381,0.869c-2.976,0 -5.674,-0.383 -8.093,-1.148c-2.419,-0.765 -4.487,-1.953 -6.202,-3.566c-1.716,-1.612 -3.05,-3.69 -4.001,-6.233c-0.95,-2.543 -1.426,-5.613 -1.426,-9.21c0,-2.439 0.248,-5.25 0.744,-8.435c0.496,-3.183 1.281,-6.45 2.357,-9.799c1.075,-3.349 2.501,-6.636 4.279,-9.862c1.778,-3.225 3.928,-6.108 6.451,-8.651c2.521,-2.543 5.478,-4.59 8.869,-6.14c3.389,-1.551 7.256,-2.326 11.598,-2.326c2.852,0 5.178,0.341 6.977,1.024c1.798,0.682 3.225,1.581 4.279,2.697c1.055,1.117 1.777,2.409 2.171,3.876c0.393,1.469 0.589,2.988 0.589,4.559c0,3.681 -0.806,7.101 -2.419,10.265c-1.612,3.162 -3.773,5.923 -6.481,8.28c-2.709,2.356 -5.821,4.258 -9.334,5.705c-3.515,1.448 -7.174,2.295 -10.978,2.543c-0.083,0.704 -0.155,1.375 -0.217,2.016c-0.062,0.641 -0.093,1.251 -0.093,1.829c0,2.026 0.207,3.721 0.621,5.086c0.412,1.364 0.97,2.45 1.674,3.256c0.703,0.806 1.529,1.375 2.481,1.706c0.951,0.331 1.984,0.496 3.101,0.496c1.24,0 2.532,-0.186 3.876,-0.558c1.343,-0.373 2.667,-0.868 3.969,-1.489c1.303,-0.62 2.574,-1.333 3.815,-2.14c1.24,-0.806 2.357,-1.663 3.349,-2.573" style="fill:#ffb900;fill-rule:nonzero;"/><path d="M644.386,518.811l0,45.218l15.751,0l0,3.302l-15.751,0l0,15.878l19.816,0l0,3.429l-23.372,0l0,-71.003l23.372,0l0,3.176l-19.816,0Z" style="fill:#969696;fill-rule:nonzero;"/><path d="M698.115,580.288c-0.381,-3.43 -0.762,-6.605 -0.889,-10.162l0,-54.491l3.556,0l0,71.003l-3.429,0l-18.926,-54.872c-0.762,-2.54 -1.651,-6.096 -2.413,-9.018l-0.128,0c0.382,3.176 0.763,6.859 0.89,9.145l0,54.745l-3.557,0l0,-71.003l3.43,0l18.545,54.491c1.016,3.683 1.905,6.859 2.794,10.162l0.127,0Z" style="fill:#969696;fill-rule:nonzero;"/><path d="M748.539,582.32l3.048,-23.245l6.732,-43.567l3.557,0l-11.051,71.13l-4.827,0l-10.669,-71.13l3.429,0l6.605,43.567l2.922,23.245l0.254,0Z" style="fill:#969696;fill-rule:nonzero;"/><rect x="771.274" y="515.635" width="3.556" height="71.003" style="fill:#969696;fill-rule:nonzero;"/><path d="M805.569,583.336l0,3.302l-19.434,0l0,-71.003l3.556,0l0,67.701l15.878,0Z" style="fill:#969696;fill-rule:nonzero;"/><path d="M833.765,583.336l0,3.302l-19.434,0l0,-71.003l3.557,0l0,67.701l15.877,0Z" style="fill:#969696;fill-rule:nonzero;"/><path d="M844.813,518.811l0,45.218l15.751,0l0,3.302l-15.751,0l0,15.878l19.816,0l0,3.429l-23.372,0l0,-71.003l23.372,0l0,3.176l-19.816,0Z" style="fill:#969696;fill-rule:nonzero;"/></g></g></g></svg>