<?xml version="1.0" encoding="UTF-8" standalone="no"?><!DOCTYPE svg PUBLIC "-//W3C//DTD SVG 1.1//EN" "http://www.w3.org/Graphics/SVG/1.1/DTD/svg11.dtd"><svg width="100%" height="100%" viewBox="0 0 1000 1000" version="1.1" xmlns="http://www.w3.org/2000/svg" xmlns:xlink="http://www.w3.org/1999/xlink" xml:space="preserve" style="fill-rule:evenodd;clip-rule:evenodd;stroke-linejoin:round;stroke-miterlimit:1.41421;"><rect id="outlined-logo" x="0" y="0" width="1000" height="1000" style="fill:none;"/><clipPath id="_clip1"><rect x="0" y="0" width="1000" height="1000"/></clipPath><g clip-path="url(#_clip1)"><g id="Layer-1"><rect x="0" y="0" width="1000" height="1000" style="fill:#fff;"/><g><path d="M318.115,544.921l26.491,0l0,6.336l-33.744,0l0,-50.922l7.253,0l0,44.586Z" style="fill:#64d29b;fill-rule:nonzero;"/><path d="M372.773,532.323c-1.298,0.536 -2.519,0.918 -4.353,1.375l-7.176,1.681c-4.275,0.99 -6.183,2.748 -6.183,5.649c0,3.357 2.748,5.649 6.87,5.649c5.956,0 10.842,-4.351 10.842,-9.619l0,-4.735Zm-23.056,-5.725c0.305,-4.352 1.145,-6.947 2.977,-9.008c2.367,-2.672 6.795,-4.199 11.986,-4.199c9.162,0 14.353,4.351 14.353,11.985l0,17.331c0,2.901 0.382,3.513 1.985,3.513c0.611,0 0.992,-0.077 1.832,-0.381l0,5.418c-1.679,0.382 -3.13,0.535 -4.58,0.535c-3.359,0 -4.886,-1.449 -5.497,-4.962c-3.74,3.74 -7.788,5.421 -12.75,5.421c-7.176,0 -12.062,-4.429 -12.062,-10.919c0,-5.953 3.664,-9.618 11.146,-11.145l8.168,-1.604c4.429,-0.84 5.346,-1.527 5.346,-3.817c0,-3.588 -3.13,-5.802 -8.092,-5.802c-3.588,0 -6.415,1.145 -7.407,3.13c-0.534,0.992 -0.687,1.832 -0.84,4.504l-6.565,0Z" style="fill:#64d29b;fill-rule:nonzero;"/><path d="M423.385,524.156c4.504,0 7.253,-2.672 7.253,-7.025c0,-4.428 -2.749,-7.024 -7.253,-7.024l-9.008,0l0,14.049l9.008,0Zm-9.008,27.102l-11.453,0l0,-50.922l20.003,0c6.947,0 10.611,0.992 13.894,3.893c3.513,3.13 5.497,7.787 5.497,13.283c0,4.657 -1.449,8.705 -4.352,11.758c-3.053,3.207 -6.947,4.657 -12.825,4.657l-10.764,0l0,17.331Z" style="fill:#0096ff;fill-rule:nonzero;"/><path d="M468.12,533.698c-1.146,0.458 -2.138,0.764 -3.97,1.145l-3.894,0.84c-3.893,0.916 -5.572,2.214 -5.572,4.428c0,2.444 2.061,3.893 5.496,3.893c3.588,0 6.184,-1.527 7.94,-4.657l0,-5.649Zm-22.217,-7.71c0.687,-8.476 5.956,-12.598 16.338,-12.598c5.573,0 9.848,1.298 12.749,3.817c2.672,2.367 3.664,5.344 3.664,10.766l0,16.949c0,3.969 0.153,4.504 1.376,6.336l-11.071,0c-0.458,-1.298 -0.458,-1.527 -0.839,-2.901c-3.588,2.977 -6.184,3.893 -10.535,3.893c-8.169,0 -13.591,-4.582 -13.591,-11.527c0,-6.949 4.352,-10.537 14.659,-12.216l5.879,-0.992c2.442,-0.382 3.282,-0.993 3.282,-2.52c0,-2.062 -2.137,-3.359 -5.649,-3.359c-3.97,0 -6.107,1.374 -6.565,4.352l-9.697,0Z" style="fill:#0096ff;fill-rule:nonzero;"/><path d="M496.594,514.383l-0.305,6.566c2.137,-5.956 4.886,-7.634 12.749,-7.558l0,10.23c-1.298,-0.153 -1.831,-0.153 -2.747,-0.153c-3.742,0 -6.796,1.679 -8.017,4.429c-1.069,2.442 -1.451,5.877 -1.451,12.978l0,10.382l-10.84,0l0,-36.874l10.611,0Z" style="fill:#0096ff;fill-rule:nonzero;"/><path d="M534.765,533.698c-1.145,0.458 -2.137,0.764 -3.969,1.145l-3.894,0.84c-3.893,0.916 -5.573,2.214 -5.573,4.428c0,2.444 2.062,3.893 5.497,3.893c3.588,0 6.183,-1.527 7.939,-4.657l0,-5.649Zm-22.216,-7.71c0.687,-8.476 5.956,-12.598 16.338,-12.598c5.573,0 9.848,1.298 12.749,3.817c2.672,2.367 3.664,5.344 3.664,10.766l0,16.949c0,3.969 0.153,4.504 1.376,6.336l-11.071,0c-0.458,-1.298 -0.458,-1.527 -0.84,-2.901c-3.588,2.977 -6.183,3.893 -10.535,3.893c-8.168,0 -13.59,-4.582 -13.59,-11.527c0,-6.949 4.352,-10.537 14.659,-12.216l5.878,-0.992c2.443,-0.382 3.283,-0.993 3.283,-2.52c0,-2.062 -2.138,-3.359 -5.649,-3.359c-3.97,0 -6.108,1.374 -6.566,4.352l-9.696,0Z" style="fill:#0096ff;fill-rule:nonzero;"/><path d="M559.574,532.553c0,8.933 3.665,13.819 10.46,13.819c6.642,0 10.383,-4.886 10.383,-13.59c0,-8.704 -3.741,-13.59 -10.383,-13.59c-6.643,0 -10.46,4.886 -10.46,13.361m0.382,-18.476l0,4.048c3.435,-3.359 6.718,-4.811 11.224,-4.811c9.847,0 16.338,7.788 16.338,19.773c0,11.68 -6.109,19.163 -15.728,19.163c-4.962,0 -9.008,-1.755 -11.834,-5.191l0,15.879l-7.023,0l0,-48.861l7.023,0Z" style="fill:#64d29b;fill-rule:nonzero;"/><path d="M600.568,517.743c3.59,-3.132 6.567,-4.353 10.995,-4.353c4.504,0 8.168,1.527 10.382,4.275c1.756,2.139 2.445,4.734 2.445,8.933l0,24.66l-7.025,0l0,-23.515c0,-3.13 -0.382,-4.733 -1.527,-5.956c-1.221,-1.372 -3.208,-2.136 -5.649,-2.136c-6.107,0 -9.621,3.663 -9.621,9.848l0,21.759l-7.023,0l0,-50.922l7.023,0l0,17.407Z" style="fill:#64d29b;fill-rule:nonzero;"/><path d="M655.381,532.323c-1.299,0.536 -2.519,0.918 -4.353,1.375l-7.176,1.681c-4.275,0.99 -6.183,2.748 -6.183,5.649c0,3.357 2.748,5.649 6.871,5.649c5.956,0 10.841,-4.351 10.841,-9.619l0,-4.735Zm-23.057,-5.725c0.306,-4.352 1.145,-6.947 2.978,-9.008c2.367,-2.672 6.795,-4.199 11.986,-4.199c9.162,0 14.353,4.351 14.353,11.985l0,17.331c0,2.901 0.382,3.513 1.985,3.513c0.611,0 0.993,-0.077 1.834,-0.381l0,5.418c-1.681,0.382 -3.132,0.535 -4.582,0.535c-3.361,0 -4.887,-1.449 -5.497,-4.962c-3.74,3.74 -7.788,5.421 -12.75,5.421c-7.176,0 -12.062,-4.429 -12.062,-10.919c0,-5.953 3.663,-9.618 11.146,-11.145l8.168,-1.604c4.43,-0.84 5.344,-1.527 5.344,-3.817c0,-3.588 -3.128,-5.802 -8.09,-5.802c-3.59,0 -6.415,1.145 -7.407,3.13c-0.534,0.992 -0.687,1.832 -0.84,4.504l-6.566,0Z" style="fill:#64d29b;fill-rule:nonzero;"/><path d="M676.678,514.383l0,5.802c1.45,-2.139 2.062,-2.977 3.055,-3.893c1.679,-1.756 4.351,-2.901 6.565,-2.901c1.374,0 2.672,0.305 3.893,0.915l0,6.337c-1.45,-0.307 -2.213,-0.381 -3.206,-0.381c-5.649,0 -10.002,5.038 -10.002,11.603l0,19.392l-7.022,0l0,-36.874l6.717,0Z" style="fill:#64d29b;fill-rule:nonzero;"/><path d="M700.953,514.383l0,4.657c2.826,-4.199 5.422,-5.649 10.002,-5.649c4.886,0 7.863,1.909 9.543,6.182c2.901,-4.426 5.954,-6.182 11.147,-6.182c3.893,0 7.252,1.374 9.084,3.817c1.68,2.061 2.368,4.733 2.368,9.008l0,25.041l-7.024,0l0,-24.505c0,-4.811 -1.985,-7.101 -6.108,-7.101c-4.809,0 -7.788,3.512 -7.788,9.161l0,22.445l-7.023,0l0,-25.117c0,-4.199 -2.138,-6.489 -6.107,-6.489c-4.735,0 -7.789,3.435 -7.789,8.779l0,22.827l-7.021,0l0,-36.874l6.716,0Z" style="fill:#64d29b;fill-rule:nonzero;"/><path d="M774.089,532.323c-1.299,0.536 -2.519,0.918 -4.353,1.375l-7.176,1.681c-4.275,0.99 -6.183,2.748 -6.183,5.649c0,3.357 2.748,5.649 6.87,5.649c5.956,0 10.842,-4.351 10.842,-9.619l0,-4.735Zm-23.058,-5.725c0.307,-4.352 1.145,-6.947 2.979,-9.008c2.367,-2.672 6.794,-4.199 11.986,-4.199c9.162,0 14.353,4.351 14.353,11.985l0,17.331c0,2.901 0.382,3.513 1.985,3.513c0.611,0 0.992,-0.077 1.834,-0.381l0,5.418c-1.681,0.382 -3.132,0.535 -4.582,0.535c-3.361,0 -4.888,-1.449 -5.497,-4.962c-3.741,3.74 -7.788,5.421 -12.75,5.421c-7.176,0 -12.062,-4.429 -12.062,-10.919c0,-5.953 3.663,-9.618 11.146,-11.145l8.168,-1.604c4.429,-0.84 5.344,-1.527 5.344,-3.817c0,-3.588 -3.129,-5.802 -8.091,-5.802c-3.589,0 -6.414,1.145 -7.406,3.13c-0.535,0.992 -0.687,1.832 -0.84,4.504l-6.567,0Z" style="fill:#64d29b;fill-rule:nonzero;"/><path d="M814.472,526.904c-1.069,-5.039 -4.275,-7.634 -9.315,-7.634c-6.717,0 -11.221,5.343 -11.221,13.435c0,8.323 4.427,13.667 11.221,13.667c5.498,0 8.781,-2.977 9.773,-8.933l6.642,0c-0.991,9.391 -7.024,14.813 -16.566,14.813c-10.993,0 -18.171,-7.712 -18.171,-19.469c0,-11.759 7.253,-19.393 18.4,-19.393c9.009,0 14.886,4.962 15.88,13.514l-6.643,0Z" style="fill:#64d29b;fill-rule:nonzero;"/><path d="M833.784,551.258l-7.023,0l0,-36.874l7.023,0l0,36.874Zm0,-42.754l-7.023,0l0,-8.168l7.023,0l0,8.168Z" style="fill:#64d29b;fill-rule:nonzero;"/><path d="M866.458,529.423c-0.304,-6.718 -3.663,-10.46 -9.237,-10.46c-5.726,0 -9.848,4.275 -10.23,10.46l19.467,0Zm-19.545,5.115c0.536,7.558 4.353,11.834 10.689,11.834c4.352,0 7.253,-2.062 8.934,-6.414l6.716,0c-1.754,7.711 -7.634,12.293 -15.802,12.293c-10.383,0 -17.559,-7.941 -17.559,-19.469c0,-11.529 7.022,-19.392 17.33,-19.392c7.328,0 12.674,3.894 15.117,10.993c0.914,2.75 1.374,5.726 1.45,10.155l-26.875,0Z" style="fill:#64d29b;fill-rule:nonzero;"/><path d="M409.318,594.369l11.984,0l-0.591,2.885l-15.318,0l4.933,-23.17l3.299,0l-4.307,20.285Z" style="fill:#0096ff;fill-rule:nonzero;"/><path d="M435.543,586.276c0,-2.362 -1.389,-3.718 -3.785,-3.718c-2.606,0 -4.448,1.599 -5.315,4.552l9.066,0l0.034,-0.834Zm-9.657,3.37c-0.069,0.52 -0.104,0.765 -0.104,1.111c0,2.64 1.528,4.272 3.996,4.272c1.841,0 3.403,-0.902 4.376,-2.569l3.265,0c-1.667,3.542 -4.203,5.244 -7.817,5.244c-4.237,0 -6.841,-2.745 -6.841,-7.191c0,-2.812 0.972,-5.626 2.639,-7.64c1.564,-1.947 3.856,-2.988 6.462,-2.988c4.063,0 6.703,2.64 6.703,6.773c0,0.904 -0.104,1.737 -0.347,2.988l-12.332,0Z" style="fill:#0096ff;fill-rule:nonzero;"/><path d="M451.209,585.617c-0.07,-1.773 -1.46,-2.954 -3.542,-2.954c-1.877,0 -3.266,0.904 -3.266,2.119c0,0.731 0.415,1.113 2.014,1.841l2.536,1.113c2.779,1.249 3.89,2.57 3.89,4.619c0,3.16 -2.812,5.35 -6.843,5.35c-4.203,0 -6.877,-2.432 -6.877,-6.288l0,-0.487l3.126,0c-0.035,0.278 -0.035,0.521 -0.035,0.73c0,2.014 1.598,3.37 3.927,3.37c2.013,0 3.542,-1.043 3.542,-2.396c0,-0.939 -0.417,-1.389 -2.084,-2.154l-2.675,-1.252c-1.458,-0.658 -1.945,-0.971 -2.433,-1.492c-0.694,-0.731 -1.042,-1.598 -1.042,-2.641c0,-3.022 2.571,-5.107 6.253,-5.107c2.64,0 4.863,1.146 5.836,3.058c0.452,0.798 0.557,1.389 0.557,2.571l-2.884,0Z" style="fill:#0096ff;fill-rule:nonzero;"/><path d="M475.487,585.617c-0.07,-1.773 -1.459,-2.954 -3.542,-2.954c-1.876,0 -3.266,0.904 -3.266,2.119c0,0.731 0.416,1.113 2.014,1.841l2.536,1.113c2.779,1.249 3.891,2.57 3.891,4.619c0,3.16 -2.813,5.35 -6.844,5.35c-4.203,0 -6.876,-2.432 -6.876,-6.288l0,-0.487l3.125,0c-0.035,0.278 -0.035,0.521 -0.035,0.73c0,2.014 1.599,3.37 3.927,3.37c2.014,0 3.542,-1.043 3.542,-2.396c0,-0.939 -0.417,-1.389 -2.084,-2.154l-2.675,-1.252c-1.458,-0.658 -1.945,-0.971 -2.432,-1.492c-0.695,-0.731 -1.043,-1.598 -1.043,-2.641c0,-3.022 2.571,-5.107 6.254,-5.107c2.64,0 4.863,1.146 5.835,3.058c0.452,0.798 0.558,1.389 0.558,2.571l-2.885,0Z" style="fill:#0096ff;fill-rule:nonzero;"/><path d="M491.917,597.253l-2.953,0l0.591,-2.744c-1.875,2.292 -3.474,3.196 -5.732,3.196c-2.675,0 -4.481,-1.632 -4.481,-3.994c0,-0.626 0.174,-1.842 0.452,-3.127l2.154,-10.108l3.161,0l-2.258,10.732c-0.139,0.661 -0.245,1.426 -0.245,1.877c0,1.215 0.801,1.979 2.051,1.979c1.354,0 3.057,-0.938 4.17,-2.361c0.9,-1.182 1.319,-2.224 1.839,-4.655l1.633,-7.572l3.197,0l-3.579,16.777Z" style="fill:#0096ff;fill-rule:nonzero;"/><path d="M499.94,590.654c0,2.708 1.39,4.376 3.648,4.376c1.389,0 2.988,-0.904 3.89,-2.188c1.076,-1.564 1.875,-4.065 1.875,-5.837c0,-2.674 -1.389,-4.341 -3.648,-4.341c-3.056,0 -5.765,3.751 -5.765,7.99m2.19,-10.178l-0.419,1.84c1.981,-1.771 3.127,-2.327 4.865,-2.327c3.472,0 5.904,2.883 5.904,7.016c0,5.872 -3.857,10.7 -8.511,10.7c-2.085,0 -3.404,-0.66 -4.827,-2.466l-1.634,7.816l-3.196,0l4.863,-22.579l2.955,0Z" style="fill:#0096ff;fill-rule:nonzero;"/><path d="M517.689,590.654c0,2.708 1.39,4.376 3.648,4.376c1.389,0 2.988,-0.904 3.89,-2.188c1.077,-1.564 1.875,-4.065 1.875,-5.837c0,-2.674 -1.389,-4.341 -3.648,-4.341c-3.056,0 -5.765,3.751 -5.765,7.99m2.19,-10.178l-0.419,1.84c1.981,-1.771 3.127,-2.327 4.865,-2.327c3.472,0 5.904,2.883 5.904,7.016c0,5.872 -3.857,10.7 -8.51,10.7c-2.086,0 -3.405,-0.66 -4.828,-2.466l-1.634,7.816l-3.196,0l4.863,-22.579l2.955,0Z" style="fill:#0096ff;fill-rule:nonzero;"/><path d="M534.222,597.253l-3.196,0l4.933,-23.169l3.161,0l-4.898,23.169Z" style="fill:#0096ff;fill-rule:nonzero;"/><path d="M554.023,574.084l-4.83,4.619l-2.779,0l3.022,-4.619l4.587,0Zm-2.675,12.192c0,-2.362 -1.39,-3.717 -3.787,-3.717c-2.605,0 -4.448,1.599 -5.315,4.55l9.066,0l0.036,-0.833Zm-9.657,3.369c-0.069,0.521 -0.106,0.765 -0.106,1.112c0,2.64 1.528,4.273 3.996,4.273c1.841,0 3.403,-0.904 4.377,-2.571l3.266,0c-1.669,3.542 -4.203,5.246 -7.817,5.246c-4.237,0 -6.843,-2.745 -6.843,-7.191c0,-2.814 0.974,-5.628 2.639,-7.642c1.564,-1.946 3.857,-2.986 6.462,-2.986c4.064,0 6.704,2.638 6.704,6.771c0,0.904 -0.104,1.738 -0.346,2.988l-12.332,0Z" style="fill:#0096ff;fill-rule:nonzero;"/><path d="M561.628,580.476l-0.485,2.223c2.188,-1.912 3.855,-2.675 5.731,-2.675c2.187,0 3.542,1.043 3.855,3.023c1.807,-1.98 3.821,-3.023 5.871,-3.023c2.499,0 4.168,1.495 4.168,3.786c0,0.66 -0.104,1.39 -0.313,2.466l-2.362,10.976l-3.16,0l2.223,-10.559c0.311,-1.389 0.346,-1.632 0.346,-2.154c0,-1.11 -0.729,-1.84 -1.875,-1.84c-2.606,0 -4.864,2.292 -5.592,5.696l-1.877,8.857l-3.195,0l2.258,-10.559c0.243,-1.18 0.311,-1.598 0.311,-2.118c0,-1.216 -0.624,-1.876 -1.804,-1.876c-1.425,0 -2.953,0.834 -3.891,2.083c-0.87,1.146 -1.459,2.675 -1.946,4.864l-1.599,7.606l-3.194,0l3.577,-16.776l2.953,0Z" style="fill:#0096ff;fill-rule:nonzero;"/><path d="M595.252,586.276c0,-2.362 -1.389,-3.718 -3.786,-3.718c-2.607,0 -4.448,1.599 -5.315,4.552l9.066,0l0.035,-0.834Zm-9.657,3.37c-0.069,0.52 -0.105,0.765 -0.105,1.111c0,2.64 1.528,4.272 3.995,4.272c1.842,0 3.404,-0.902 4.378,-2.569l3.266,0c-1.669,3.542 -4.204,5.244 -7.818,5.244c-4.236,0 -6.843,-2.745 -6.843,-7.191c0,-2.812 0.974,-5.626 2.64,-7.64c1.564,-1.947 3.857,-2.988 6.462,-2.988c4.064,0 6.704,2.64 6.704,6.773c0,0.904 -0.104,1.737 -0.347,2.988l-12.332,0Z" style="fill:#0096ff;fill-rule:nonzero;"/><path d="M605.533,580.476l-0.486,2.223c1.981,-1.912 3.576,-2.675 5.523,-2.675c2.743,0 4.516,1.597 4.516,3.994c0,0.661 -0.07,1.286 -0.279,2.292l-2.362,10.942l-3.161,0l2.293,-10.767c0.243,-1.113 0.278,-1.424 0.278,-1.806c0,-1.25 -0.729,-1.98 -1.98,-1.98c-1.111,0 -2.362,0.521 -3.405,1.388c-1.285,1.078 -1.98,2.398 -2.466,4.551l-1.807,8.614l-3.194,0l3.577,-16.776l2.953,0Z" style="fill:#0096ff;fill-rule:nonzero;"/><path d="M625.296,582.804l-2.502,0l-2.014,9.551c-0.209,0.869 -0.209,0.869 -0.209,1.18c0,0.695 0.418,1.043 1.285,1.043c0.487,0 0.904,-0.068 1.495,-0.278l-0.521,2.64c-0.764,0.209 -1.389,0.313 -1.98,0.313c-2.05,0 -3.579,-1.181 -3.579,-2.743c0,-0.313 0.106,-1.251 0.21,-1.669l2.119,-10.037l-2.501,0l0.556,-2.327l2.5,0l1.008,-4.935l3.161,0l-0.973,4.935l2.466,0l-0.521,2.327Z" style="fill:#0096ff;fill-rule:nonzero;"/><path d="M636.308,585.617c-0.071,-1.773 -1.46,-2.954 -3.543,-2.954c-1.876,0 -3.265,0.904 -3.265,2.119c0,0.731 0.415,1.113 2.013,1.841l2.536,1.113c2.779,1.249 3.891,2.57 3.891,4.619c0,3.16 -2.813,5.35 -6.843,5.35c-4.204,0 -6.877,-2.432 -6.877,-6.288l0,-0.487l3.125,0c-0.035,0.278 -0.035,0.521 -0.035,0.73c0,2.014 1.599,3.37 3.927,3.37c2.014,0 3.542,-1.043 3.542,-2.396c0,-0.939 -0.417,-1.389 -2.084,-2.154l-2.675,-1.252c-1.458,-0.658 -1.945,-0.971 -2.432,-1.492c-0.695,-0.731 -1.043,-1.598 -1.043,-2.641c0,-3.022 2.571,-5.107 6.254,-5.107c2.64,0 4.863,1.146 5.835,3.058c0.452,0.798 0.558,1.389 0.558,2.571l-2.884,0Z" style="fill:#0096ff;fill-rule:nonzero;"/><path d="M652.492,590.341c0,2.814 1.562,4.688 3.891,4.688c1.389,0 2.847,-0.764 3.821,-1.945c1.249,-1.528 2.118,-3.89 2.118,-5.765c0,-2.953 -1.423,-4.62 -3.89,-4.62c-3.3,0 -5.94,3.405 -5.94,7.642m13.061,-3.057c0,2.779 -1.112,5.628 -2.987,7.642c-1.704,1.841 -3.821,2.778 -6.322,2.778c-4.307,0 -6.982,-2.813 -6.982,-7.293c0,-5.767 4.133,-10.387 9.344,-10.387c4.307,0 6.947,2.744 6.947,7.26" style="fill:#0096ff;fill-rule:nonzero;"/><path d="M672.812,580.476l-0.485,2.223c1.98,-1.912 3.575,-2.675 5.522,-2.675c2.744,0 4.516,1.597 4.516,3.994c0,0.661 -0.07,1.286 -0.279,2.292l-2.362,10.942l-3.161,0l2.294,-10.767c0.243,-1.113 0.278,-1.424 0.278,-1.806c0,-1.25 -0.73,-1.98 -1.981,-1.98c-1.111,0 -2.362,0.521 -3.404,1.388c-1.286,1.078 -1.981,2.398 -2.466,4.551l-1.808,8.614l-3.194,0l3.577,-16.776l2.953,0Z" style="fill:#0096ff;fill-rule:nonzero;"/><path d="M692.576,582.804l-2.503,0l-2.014,9.551c-0.209,0.869 -0.209,0.869 -0.209,1.18c0,0.695 0.419,1.043 1.286,1.043c0.487,0 0.904,-0.068 1.495,-0.278l-0.521,2.64c-0.765,0.209 -1.389,0.313 -1.98,0.313c-2.051,0 -3.579,-1.181 -3.579,-2.743c0,-0.313 0.105,-1.251 0.209,-1.669l2.119,-10.037l-2.501,0l0.556,-2.327l2.501,0l1.006,-4.935l3.162,0l-0.972,4.935l2.465,0l-0.52,2.327Z" style="fill:#0096ff;fill-rule:nonzero;"/><path d="M714.459,597.253l-2.952,0l0.59,-2.744c-1.874,2.292 -3.473,3.196 -5.731,3.196c-2.675,0 -4.481,-1.632 -4.481,-3.994c0,-0.626 0.174,-1.842 0.452,-3.127l2.154,-10.108l3.16,0l-2.258,10.732c-0.139,0.661 -0.244,1.426 -0.244,1.877c0,1.215 0.8,1.979 2.05,1.979c1.355,0 3.057,-0.938 4.17,-2.361c0.901,-1.182 1.319,-2.224 1.84,-4.655l1.632,-7.572l3.197,0l-3.579,16.777Z" style="fill:#0096ff;fill-rule:nonzero;"/><path d="M724.6,580.476l-0.486,2.223c1.981,-1.912 3.576,-2.675 5.523,-2.675c2.743,0 4.516,1.597 4.516,3.994c0,0.661 -0.07,1.286 -0.279,2.292l-2.362,10.942l-3.161,0l2.293,-10.767c0.243,-1.113 0.278,-1.424 0.278,-1.806c0,-1.25 -0.729,-1.98 -1.98,-1.98c-1.111,0 -2.362,0.521 -3.405,1.388c-1.285,1.078 -1.98,2.398 -2.465,4.551l-1.808,8.614l-3.194,0l3.577,-16.776l2.953,0Z" style="fill:#0096ff;fill-rule:nonzero;"/><path d="M748.672,586.276c0,-2.362 -1.389,-3.718 -3.786,-3.718c-2.606,0 -4.448,1.599 -5.315,4.552l9.066,0l0.035,-0.834Zm-9.657,3.37c-0.068,0.52 -0.105,0.765 -0.105,1.111c0,2.64 1.528,4.272 3.996,4.272c1.841,0 3.403,-0.902 4.377,-2.569l3.266,0c-1.669,3.542 -4.203,5.244 -7.817,5.244c-4.237,0 -6.844,-2.745 -6.844,-7.191c0,-2.812 0.975,-5.626 2.64,-7.64c1.564,-1.947 3.857,-2.988 6.462,-2.988c4.064,0 6.704,2.64 6.704,6.773c0,0.904 -0.104,1.737 -0.347,2.988l-12.332,0Z" style="fill:#0096ff;fill-rule:nonzero;"/><path d="M773.194,589.125c-0.452,0.069 -0.626,0.103 -0.974,0.173c-0.173,0 -0.486,0.035 -0.903,0.105l-0.833,0.069l-1.91,0.208c-2.155,0.242 -3.196,1.181 -3.196,2.849c0,1.528 1.041,2.501 2.744,2.501c1.389,0 2.882,-0.695 3.612,-1.703c0.522,-0.693 0.973,-1.91 1.319,-3.647l0.141,-0.555Zm-9.241,-4.03c0.973,-3.37 3.474,-5.071 7.433,-5.071c3.405,0 5.628,1.495 5.628,3.787c0,0.416 -0.173,1.665 -0.348,2.397l-1.249,5.904c-0.245,1.18 -0.28,1.424 -0.28,1.806c0,0.869 0.348,1.147 1.321,1.147l0.626,0l-0.522,2.397l-1.216,0c-1.806,0 -2.397,-0.486 -2.569,-2.014c-1.391,1.562 -2.953,2.257 -5.176,2.257c-1.669,0 -3.023,-0.452 -3.961,-1.356c-0.937,-0.901 -1.528,-2.396 -1.528,-3.82c0,-1.527 0.66,-2.988 1.771,-3.891c1.043,-0.902 2.536,-1.354 4.828,-1.493l2.71,-0.174c1.321,-0.104 1.806,-0.243 2.154,-0.695c0.312,-0.416 0.521,-1.111 0.521,-1.841c0,-1.354 -0.902,-1.979 -2.883,-1.979c-2.502,0 -3.716,0.764 -4.307,2.639l-2.953,0Z" style="fill:#0096ff;fill-rule:nonzero;"/><path d="M783.787,584.991c-1.111,1.667 -1.839,4.031 -1.839,5.906c0,2.534 1.354,4.133 3.472,4.133c1.528,0 3.056,-0.904 4.064,-2.362c1.111,-1.666 1.91,-4.135 1.91,-5.906c0,-2.605 -1.319,-4.098 -3.612,-4.098c-1.562,0 -2.987,0.832 -3.995,2.327m8.441,12.262l-2.952,0l0.417,-1.981c-1.737,1.773 -3.057,2.433 -4.931,2.433c-3.65,0 -6.045,-2.709 -6.045,-6.773c0,-2.884 1.147,-6.01 2.986,-8.164c1.494,-1.738 3.683,-2.779 5.836,-2.779c2.189,0 3.473,0.834 4.55,2.918l1.876,-8.824l3.197,0l-4.934,23.17Z" style="fill:#0096ff;fill-rule:nonzero;"/><path d="M802.474,580.129l-0.764,3.542c1.561,-2.605 2.884,-3.683 4.655,-3.683c0.658,0 1.11,0.105 1.875,0.489l-0.834,2.951c-0.765,-0.209 -1.147,-0.243 -1.667,-0.243c-1.216,0 -2.292,0.521 -3.162,1.529c-0.834,0.972 -1.249,1.943 -1.701,3.923l-1.806,8.616l-3.196,0l3.646,-17.124l2.954,0Z" style="fill:#0096ff;fill-rule:nonzero;"/><path d="M819.843,586.276c0,-2.362 -1.389,-3.718 -3.786,-3.718c-2.607,0 -4.448,1.599 -5.315,4.552l9.066,0l0.035,-0.834Zm-9.657,3.37c-0.069,0.52 -0.105,0.765 -0.105,1.111c0,2.64 1.528,4.272 3.995,4.272c1.842,0 3.404,-0.902 4.378,-2.569l3.266,0c-1.669,3.542 -4.204,5.244 -7.818,5.244c-4.236,0 -6.843,-2.745 -6.843,-7.191c0,-2.812 0.974,-5.626 2.64,-7.64c1.564,-1.947 3.857,-2.988 6.462,-2.988c4.064,0 6.704,2.64 6.704,6.773c0,0.904 -0.104,1.737 -0.348,2.988l-12.331,0Z" style="fill:#0096ff;fill-rule:nonzero;"/><path d="M835.508,585.617c-0.07,-1.773 -1.46,-2.954 -3.542,-2.954c-1.877,0 -3.266,0.904 -3.266,2.119c0,0.731 0.415,1.113 2.014,1.841l2.536,1.113c2.779,1.249 3.89,2.57 3.89,4.619c0,3.16 -2.812,5.35 -6.843,5.35c-4.203,0 -6.877,-2.432 -6.877,-6.288l0,-0.487l3.126,0c-0.036,0.278 -0.036,0.521 -0.036,0.73c0,2.014 1.599,3.37 3.927,3.37c2.014,0 3.543,-1.043 3.543,-2.396c0,-0.939 -0.417,-1.389 -2.084,-2.154l-2.675,-1.252c-1.459,-0.658 -1.946,-0.971 -2.433,-1.492c-0.694,-0.731 -1.042,-1.598 -1.042,-2.641c0,-3.022 2.571,-5.107 6.253,-5.107c2.64,0 4.863,1.146 5.836,3.058c0.452,0.798 0.557,1.389 0.557,2.571l-2.884,0Z" style="fill:#0096ff;fill-rule:nonzero;"/><path d="M850.478,585.617c-0.07,-1.773 -1.46,-2.954 -3.542,-2.954c-1.877,0 -3.266,0.904 -3.266,2.119c0,0.731 0.415,1.113 2.014,1.841l2.536,1.113c2.778,1.249 3.89,2.57 3.89,4.619c0,3.16 -2.812,5.35 -6.843,5.35c-4.203,0 -6.877,-2.432 -6.877,-6.288l0,-0.487l3.125,0c-0.035,0.278 -0.035,0.521 -0.035,0.73c0,2.014 1.599,3.37 3.927,3.37c2.014,0 3.542,-1.043 3.542,-2.396c0,-0.939 -0.416,-1.389 -2.084,-2.154l-2.675,-1.252c-1.458,-0.658 -1.945,-0.971 -2.432,-1.492c-0.694,-0.731 -1.043,-1.598 -1.043,-2.641c0,-3.022 2.572,-5.107 6.254,-5.107c2.64,0 4.863,1.146 5.836,3.058c0.452,0.798 0.557,1.389 0.557,2.571l-2.884,0Z" style="fill:#0096ff;fill-rule:nonzero;"/><path d="M866.873,586.276c0,-2.362 -1.389,-3.718 -3.786,-3.718c-2.607,0 -4.448,1.599 -5.315,4.552l9.066,0l0.035,-0.834Zm-9.657,3.37c-0.069,0.52 -0.105,0.765 -0.105,1.111c0,2.64 1.528,4.272 3.995,4.272c1.842,0 3.404,-0.902 4.378,-2.569l3.266,0c-1.669,3.542 -4.204,5.244 -7.818,5.244c-4.237,0 -6.843,-2.745 -6.843,-7.191c0,-2.812 0.974,-5.626 2.64,-7.64c1.563,-1.947 3.857,-2.988 6.461,-2.988c4.065,0 6.705,2.64 6.705,6.773c0,0.904 -0.104,1.737 -0.348,2.988l-12.331,0Z" style="fill:#0096ff;fill-rule:nonzero;"/><path d="M874.201,597.253l-3.578,0l0.8,-3.681l3.577,0l-0.799,3.681Z" style="fill:#0096ff;fill-rule:nonzero;"/><path d="M201.316,396.945c-42.148,0 -76.316,34.167 -76.316,76.316l0,76.318l19.079,0l0,-76.318c0,-31.612 25.626,-57.237 57.237,-57.237c31.611,0 57.237,25.625 57.237,57.237c0,31.61 -25.626,57.239 -57.237,57.239c-14.68,0 -28.028,-5.576 -38.158,-14.662l0,23.445c11.234,6.511 24.241,10.296 38.158,10.296c42.149,0 76.316,-34.169 76.316,-76.318c0,-42.149 -34.167,-76.316 -76.316,-76.316" style="fill:#0096ff;fill-rule:nonzero;"/><path d="M239.474,473.261c0,21.075 -17.083,38.158 -38.158,38.158c-21.074,0 -38.158,-17.083 -38.158,-38.158c0,-21.074 17.084,-38.158 38.158,-38.158c21.075,0 38.158,17.084 38.158,38.158" style="fill:#64d29b;fill-rule:nonzero;"/></g></g></g></svg>