<?xml version="1.0" encoding="UTF-8" standalone="no"?><!DOCTYPE svg PUBLIC "-//W3C//DTD SVG 1.1//EN" "http://www.w3.org/Graphics/SVG/1.1/DTD/svg11.dtd"><svg width="100%" height="100%" viewBox="0 0 1000 1000" version="1.1" xmlns="http://www.w3.org/2000/svg" xmlns:xlink="http://www.w3.org/1999/xlink" xml:space="preserve" style="fill-rule:evenodd;clip-rule:evenodd;stroke-linejoin:round;stroke-miterlimit:1.41421;"><rect id="outlined-icon" x="0" y="0" width="1000" height="1000" style="fill:none;"/><rect x="0" y="0" width="1000" height="1000" style="fill:#fff;"/><g id="Favicon"><g><path d="M499.997,740.614c17.106,0 29.94,-4.401 38.504,-13.215c8.553,-8.802 12.84,-23.026 12.84,-42.655l0,-228.012c0,-19.629 -4.287,-33.842 -12.84,-42.655c-8.564,-8.802 -21.398,-13.209 -38.504,-13.209c-17.116,0 -29.951,4.407 -38.504,13.209c-8.564,8.813 -12.834,23.026 -12.834,42.655l0,228.012c0,19.629 4.27,33.853 12.834,42.655c8.553,8.814 21.388,13.215 38.504,13.215m288.407,-169.873c0,55.371 -6.794,102.297 -20.383,140.801c-13.595,38.509 -32.843,69.839 -57.758,93.999c-24.915,24.161 -55.246,41.782 -90.977,52.847c-35.742,11.065 -75.499,16.612 -119.289,16.612c-43.789,0 -83.558,-5.547 -119.289,-16.612c-35.741,-11.065 -66.061,-28.686 -90.971,-52.847c-24.92,-24.16 -44.169,-55.49 -57.758,-93.999c-13.589,-38.504 -20.384,-85.43 -20.384,-140.801c0,-54.855 6.795,-101.668 20.384,-140.432c13.589,-38.754 32.838,-70.214 57.758,-94.374c24.91,-24.161 55.23,-41.771 90.971,-52.847c35.731,-11.065 75.5,-16.612 119.289,-16.612c43.79,0 83.547,5.547 119.289,16.612c35.731,11.076 66.062,28.686 90.977,52.847c24.915,24.16 44.163,55.62 57.758,94.374c13.589,38.764 20.383,85.577 20.383,140.432" style="fill:#ff3c00;fill-rule:nonzero;"/><rect x="267.695" y="125" width="464.61" height="123.82" style="fill:#ff3c00;fill-rule:nonzero;"/></g></g></svg>