<?xml version="1.0" encoding="UTF-8" standalone="no"?><!DOCTYPE svg PUBLIC "-//W3C//DTD SVG 1.1//EN" "http://www.w3.org/Graphics/SVG/1.1/DTD/svg11.dtd"><svg width="100%" height="100%" viewBox="0 0 240 240" version="1.1" xmlns="http://www.w3.org/2000/svg" xmlns:xlink="http://www.w3.org/1999/xlink" xml:space="preserve" style="fill-rule:evenodd;clip-rule:evenodd;stroke-linejoin:round;stroke-miterlimit:1.41421;"><rect id="outlined" x="0" y="0" width="240" height="240" style="fill:none;"/><rect x="0" y="0" width="240" height="240" style="fill:#fff;"/><g id="Layer-1"><g><path d="M99.033,40.519c-0.474,0.199 -0.799,0.566 -0.975,1.102c-0.176,0.535 -0.264,1.393 -0.264,2.571l0,23.322c0,1.179 0.088,2.036 0.264,2.571c0.176,0.536 0.501,0.904 0.975,1.102c0.474,0.2 1.24,0.322 2.296,0.368l0,0.941c-1.745,-0.092 -4.209,-0.138 -7.392,-0.138c-3.351,0 -5.83,0.046 -7.437,0.138l0,-0.941c1.132,-0.046 1.955,-0.168 2.468,-0.368c0.512,-0.198 0.864,-0.566 1.056,-1.102c0.191,-0.535 0.286,-1.392 0.286,-2.571l0,-24.47l-11.317,29.521l-0.757,0l-12.695,-30.325l0,22.543c0,1.867 0.096,3.229 0.288,4.086c0.191,0.857 0.599,1.485 1.228,1.882c0.627,0.398 1.644,0.666 3.053,0.804l0,0.941c-1.21,-0.092 -2.908,-0.138 -5.097,-0.138c-1.729,0 -3.091,0.046 -4.086,0.138l0,-0.941c1.025,-0.138 1.783,-0.402 2.273,-0.792c0.489,-0.391 0.823,-0.991 0.998,-1.802c0.176,-0.811 0.265,-2.013 0.265,-3.604l0,-21.165c0,-1.178 -0.089,-2.036 -0.265,-2.571c-0.175,-0.536 -0.501,-0.903 -0.975,-1.102c-0.475,-0.199 -1.24,-0.322 -2.296,-0.367l0,-0.942c0.995,0.092 2.357,0.138 4.086,0.138c2.908,0 5.387,-0.046 7.438,-0.138l9.481,22.864l8.677,-22.726l3.328,0c3.183,0 5.647,-0.046 7.392,-0.138l0,0.942c-1.056,0.045 -1.822,0.168 -2.296,0.367" style="fill-rule:nonzero;"/><path d="M115.803,59.273c-0.437,0.337 -1.091,0.774 -1.963,1.309c-0.996,0.734 -1.776,1.526 -2.342,2.376c-0.566,0.849 -0.849,1.917 -0.849,3.202c0,1.24 0.267,2.158 0.803,2.755c0.536,0.597 1.247,0.895 2.135,0.895c1.209,0 2.265,-0.635 3.168,-1.905l0,-9.642c-0.199,0.337 -0.517,0.674 -0.952,1.01m3.248,-11.259c1.132,0.329 2.066,0.868 2.8,1.618c0.658,0.674 1.102,1.504 1.332,2.491c0.229,0.987 0.344,2.353 0.344,4.097l0,12.787c0,0.765 0.072,1.304 0.218,1.618c0.145,0.314 0.409,0.47 0.792,0.47c0.29,0 0.566,-0.068 0.826,-0.206c0.26,-0.138 0.559,-0.337 0.896,-0.597l0.482,0.803c-0.735,0.597 -1.524,1.033 -2.365,1.309c-0.842,0.275 -1.844,0.413 -3.007,0.413c-1.607,0 -2.758,-0.351 -3.454,-1.056c-0.697,-0.704 -1.053,-1.622 -1.068,-2.754c-0.766,1.27 -1.764,2.223 -2.996,2.858c-1.232,0.634 -2.545,0.952 -3.937,0.952c-1.79,0 -3.229,-0.47 -4.315,-1.412c-1.087,-0.941 -1.63,-2.253 -1.63,-3.937c0,-1.637 0.535,-2.987 1.607,-4.051c1.07,-1.063 2.739,-2.016 5.004,-2.858c0.23,-0.076 0.421,-0.153 0.574,-0.23c1.362,-0.505 2.407,-0.925 3.134,-1.262c0.726,-0.337 1.319,-0.727 1.778,-1.171c0.459,-0.443 0.689,-0.964 0.689,-1.561l0,-3.673c0,-1.3 -0.307,-2.326 -0.918,-3.076c-0.613,-0.749 -1.584,-1.125 -2.915,-1.125c-0.613,0 -1.225,0.096 -1.837,0.287c-0.612,0.192 -1.117,0.479 -1.515,0.861c0.872,0.291 1.553,0.75 2.043,1.377c0.489,0.628 0.735,1.401 0.735,2.319c0,0.98 -0.353,1.787 -1.056,2.422c-0.705,0.635 -1.63,0.953 -2.778,0.953c-1.01,0 -1.817,-0.341 -2.422,-1.022c-0.604,-0.681 -0.907,-1.549 -0.907,-2.605c0,-1.592 0.88,-2.9 2.64,-3.926c1.913,-1.071 4.293,-1.607 7.14,-1.607c1.591,0 2.952,0.165 4.086,0.494" style="fill-rule:nonzero;"/><path d="M140.629,47.968c0.994,0.298 1.775,0.631 2.341,0.998c0.336,0.215 0.62,0.322 0.849,0.322c0.582,0 0.949,-0.574 1.102,-1.722l1.01,0c-0.137,1.531 -0.206,4.285 -0.206,8.264l-0.987,0c-0.291,-2.066 -0.911,-3.795 -1.86,-5.188c-0.949,-1.392 -2.341,-2.089 -4.178,-2.089c-0.933,0 -1.698,0.272 -2.295,0.815c-0.597,0.544 -0.895,1.282 -0.895,2.215c0,0.75 0.194,1.435 0.585,2.055c0.39,0.62 0.875,1.178 1.458,1.676c0.581,0.497 1.392,1.121 2.433,1.87c0.29,0.2 0.726,0.513 1.308,0.942c1.27,0.949 2.288,1.779 3.053,2.49c0.765,0.712 1.385,1.523 1.86,2.434c0.474,0.911 0.711,1.955 0.711,3.133c0,1.393 -0.398,2.617 -1.193,3.673c-0.796,1.056 -1.875,1.871 -3.237,2.445c-1.363,0.573 -2.855,0.861 -4.476,0.861c-1.73,0 -3.199,-0.33 -4.408,-0.988c-1.025,-0.52 -1.753,-0.849 -2.18,-0.987c-0.092,-0.03 -0.161,-0.046 -0.207,-0.046c-0.505,0 -0.888,0.559 -1.148,1.676l-0.987,0c0.122,-1.79 0.184,-4.92 0.184,-9.389l1.01,0c0.643,5.77 2.754,8.655 6.335,8.655c0.919,0 1.699,-0.28 2.342,-0.838c0.643,-0.559 0.964,-1.396 0.964,-2.514c0,-0.872 -0.195,-1.653 -0.586,-2.341c-0.389,-0.689 -0.887,-1.309 -1.491,-1.86c-0.605,-0.551 -1.497,-1.285 -2.675,-2.204c-1.393,-1.086 -2.464,-1.981 -3.214,-2.685c-0.75,-0.704 -1.385,-1.527 -1.905,-2.468c-0.52,-0.941 -0.78,-2.001 -0.78,-3.179c0,-1.347 0.367,-2.51 1.102,-3.49c0.734,-0.979 1.718,-1.721 2.949,-2.226c1.232,-0.505 2.575,-0.758 4.029,-0.758c1.194,0 2.287,0.149 3.283,0.448" style="fill-rule:nonzero;"/><path d="M164.893,48.209l0,0.941l-5.556,0l0,18.961c0,0.934 0.168,1.603 0.505,2.009c0.337,0.406 0.857,0.608 1.561,0.608c1.316,0 2.388,-0.941 3.214,-2.823l0.781,0.436c-1.179,3.214 -3.322,4.82 -6.428,4.82c-2.082,0 -3.65,-0.528 -4.706,-1.583c-0.658,-0.658 -1.105,-1.488 -1.342,-2.491c-0.238,-1.002 -0.357,-2.36 -0.357,-4.075l0,-15.862l-3.948,0l0,-0.941l3.948,0l0,-6.221c2.694,-0.03 4.951,-0.535 6.772,-1.515l0,7.736l5.556,0Z" style="fill-rule:nonzero;"/><path d="M175.165,50.619c-0.742,1.393 -1.205,3.543 -1.389,6.451l7.369,0c0.046,-2.449 -0.203,-4.484 -0.747,-6.106c-0.542,-1.622 -1.358,-2.434 -2.444,-2.434c-1.117,0 -2.047,0.697 -2.789,2.089m10.961,14.898l0.85,0.322c-0.399,1.27 -1.014,2.46 -1.849,3.569c-0.833,1.11 -1.893,2.013 -3.178,2.709c-1.286,0.696 -2.748,1.044 -4.385,1.044c-2.158,0 -4.048,-0.459 -5.67,-1.377c-1.622,-0.918 -2.889,-2.318 -3.8,-4.201c-0.91,-1.882 -1.365,-4.216 -1.365,-7.001c0,-2.831 0.486,-5.226 1.457,-7.185c0.973,-1.959 2.322,-3.428 4.052,-4.408c1.729,-0.979 3.726,-1.469 5.992,-1.469c5.891,0 8.837,3.482 8.837,10.445l-13.153,0c-0.061,0.612 -0.092,1.354 -0.092,2.227c0,2.066 0.29,3.78 0.873,5.142c0.581,1.362 1.338,2.36 2.272,2.995c0.933,0.636 1.928,0.953 2.984,0.953c2.586,0 4.645,-1.255 6.175,-3.765" style="fill-rule:nonzero;"/><path d="M208.118,48.14c0.642,0.413 1.116,0.949 1.423,1.607c0.306,0.658 0.459,1.362 0.459,2.112c0,1.163 -0.333,2.112 -0.998,2.846c-0.667,0.735 -1.55,1.102 -2.652,1.102c-1.087,0 -1.944,-0.271 -2.571,-0.815c-0.628,-0.543 -0.941,-1.281 -0.941,-2.215c0,-1.499 0.689,-2.709 2.066,-3.627c-0.199,-0.076 -0.406,-0.115 -0.62,-0.115c-0.184,0 -0.406,0.039 -0.666,0.115c-0.796,0.138 -1.523,0.524 -2.18,1.159c-0.659,0.636 -1.171,1.397 -1.538,2.284c-0.368,0.888 -0.551,1.761 -0.551,2.617l0,12.442c0,0.995 0.16,1.772 0.482,2.33c0.321,0.559 0.795,0.953 1.423,1.182c0.627,0.23 1.461,0.345 2.502,0.345l0,0.987c-0.169,0 -0.513,-0.015 -1.033,-0.046c-3.259,-0.092 -5.403,-0.138 -6.427,-0.138c-1.623,0 -3.574,0.054 -5.854,0.161l-0.872,0.023l0,-0.987c0.749,0 1.338,-0.1 1.767,-0.299c0.428,-0.199 0.742,-0.543 0.941,-1.033c0.199,-0.489 0.299,-1.171 0.299,-2.043l0,-14.829c0,-1.453 -0.226,-2.509 -0.678,-3.168c-0.451,-0.658 -1.228,-0.987 -2.329,-0.987l0,-0.987c1.147,0.107 2.119,0.161 2.915,0.161c2.663,0 4.95,-0.222 6.864,-0.666l0,4.384c0.597,-1.331 1.45,-2.417 2.559,-3.259c1.11,-0.842 2.376,-1.263 3.799,-1.263c0.964,0 1.768,0.207 2.411,0.62" style="fill-rule:nonzero;"/><path d="M72.945,82.796c-0.406,0.222 -0.686,0.616 -0.838,1.182c-0.154,0.567 -0.23,1.408 -0.23,2.525l0,13.911l2.02,0c2.556,0 4.316,-0.815 5.28,-2.445c0.964,-1.629 1.446,-3.837 1.446,-6.622c0,-3.046 -0.452,-5.287 -1.354,-6.726c-0.904,-1.439 -2.396,-2.158 -4.477,-2.158c-0.826,0 -1.442,0.111 -1.847,0.333m-1.068,26.754c0,1.256 0.13,2.17 0.39,2.743c0.26,0.575 0.727,0.962 1.401,1.16c0.673,0.199 1.752,0.307 3.236,0.321l0,1.033c-2.571,-0.092 -5.425,-0.137 -8.562,-0.137c-2.25,0 -4.737,0.045 -7.461,0.137l0,-0.941c1.056,-0.046 1.818,-0.168 2.285,-0.367c0.466,-0.199 0.788,-0.566 0.964,-1.102c0.176,-0.535 0.264,-1.392 0.264,-2.571l0,-23.323c0,-1.178 -0.088,-2.035 -0.264,-2.571c-0.176,-0.535 -0.502,-0.902 -0.976,-1.102c-0.475,-0.199 -1.232,-0.321 -2.273,-0.367l0,-0.941c1.592,0.092 3.972,0.138 7.14,0.138c0.581,0 2.341,-0.023 5.279,-0.069l2.112,-0.023c2.847,0 5.241,0.386 7.185,1.159c1.943,0.773 3.401,1.856 4.373,3.248c0.972,1.393 1.458,3.015 1.458,4.867c0,1.729 -0.432,3.386 -1.296,4.97c-0.865,1.584 -2.342,2.903 -4.432,3.959c-2.088,1.056 -4.863,1.584 -8.321,1.584l-2.502,0l0,8.195Z" style="fill-rule:nonzero;"/><path d="M99.757,79.33c0.772,0.65 1.159,1.534 1.159,2.651c0,1.133 -0.387,2.024 -1.159,2.674c-0.773,0.651 -1.811,0.976 -3.111,0.976c-1.331,0 -2.38,-0.325 -3.145,-0.976c-0.766,-0.65 -1.148,-1.541 -1.148,-2.674c0,-1.117 0.387,-2.001 1.16,-2.651c0.772,-0.65 1.816,-0.976 3.133,-0.976c1.3,0 2.338,0.326 3.111,0.976m0.872,33.159c0.191,0.49 0.505,0.834 0.941,1.033c0.437,0.199 1.029,0.298 1.779,0.298l0,0.987l-0.803,-0.023c-2.112,-0.106 -3.941,-0.16 -5.487,-0.16c-1.561,0 -3.451,0.054 -5.67,0.16l-0.826,0.023l0,-0.987c0.749,0 1.339,-0.099 1.767,-0.298c0.428,-0.199 0.742,-0.543 0.942,-1.033c0.198,-0.49 0.298,-1.171 0.298,-2.043l0,-14.83c0,-1.453 -0.226,-2.509 -0.678,-3.167c-0.45,-0.658 -1.227,-0.988 -2.329,-0.988l0,-0.987c1.148,0.108 2.119,0.161 2.915,0.161c2.663,0 4.95,-0.222 6.864,-0.666l0,20.477c0,0.872 0.095,1.553 0.287,2.043" style="fill-rule:nonzero;"/><path d="M117.433,101.585c-0.437,0.337 -1.091,0.773 -1.964,1.308c-0.995,0.735 -1.775,1.527 -2.341,2.376c-0.566,0.85 -0.849,1.917 -0.849,3.203c0,1.239 0.267,2.157 0.803,2.754c0.536,0.597 1.247,0.896 2.135,0.896c1.208,0 2.264,-0.635 3.168,-1.906l0,-9.641c-0.199,0.337 -0.517,0.673 -0.952,1.01m3.247,-11.26c1.133,0.329 2.066,0.869 2.801,1.619c0.657,0.673 1.102,1.503 1.331,2.49c0.23,0.987 0.345,2.353 0.345,4.098l0,12.786c0,0.766 0.072,1.305 0.218,1.618c0.145,0.314 0.409,0.471 0.792,0.471c0.29,0 0.565,-0.069 0.826,-0.207c0.26,-0.137 0.558,-0.336 0.895,-0.596l0.482,0.803c-0.734,0.597 -1.523,1.033 -2.364,1.308c-0.842,0.276 -1.845,0.414 -3.007,0.414c-1.607,0 -2.758,-0.352 -3.454,-1.056c-0.697,-0.704 -1.054,-1.622 -1.068,-2.755c-0.766,1.271 -1.764,2.223 -2.996,2.858c-1.232,0.635 -2.545,0.953 -3.937,0.953c-1.79,0 -3.229,-0.47 -4.316,-1.413c-1.087,-0.94 -1.629,-2.252 -1.629,-3.936c0,-1.637 0.535,-2.988 1.607,-4.052c1.07,-1.063 2.739,-2.016 5.004,-2.858c0.229,-0.076 0.42,-0.153 0.574,-0.229c1.362,-0.505 2.406,-0.926 3.134,-1.263c0.726,-0.336 1.319,-0.726 1.778,-1.17c0.459,-0.444 0.689,-0.965 0.689,-1.561l0,-3.673c0,-1.301 -0.307,-2.326 -0.918,-3.076c-0.613,-0.75 -1.584,-1.125 -2.916,-1.125c-0.612,0 -1.225,0.096 -1.836,0.287c-0.613,0.191 -1.118,0.478 -1.515,0.861c0.872,0.291 1.553,0.75 2.043,1.377c0.489,0.628 0.734,1.4 0.734,2.318c0,0.98 -0.352,1.787 -1.055,2.422c-0.705,0.636 -1.63,0.953 -2.778,0.953c-1.01,0 -1.817,-0.34 -2.422,-1.022c-0.605,-0.68 -0.907,-1.549 -0.907,-2.605c0,-1.591 0.88,-2.9 2.64,-3.925c1.913,-1.071 4.293,-1.607 7.139,-1.607c1.592,0 2.953,0.165 4.086,0.493" style="fill-rule:nonzero;"/><path d="M153.299,91.668c0.52,0.597 0.895,1.37 1.125,2.319c0.229,0.949 0.344,2.211 0.344,3.787l0,12.672c0,0.872 0.099,1.553 0.299,2.043c0.198,0.49 0.512,0.834 0.941,1.033c0.428,0.199 1.017,0.298 1.768,0.298l0,0.987l-0.804,-0.023c-2.143,-0.106 -3.941,-0.16 -5.394,-0.16c-1.531,0 -3.314,0.054 -5.349,0.16l-0.758,0.023l0,-0.987c0.643,0 1.144,-0.099 1.504,-0.298c0.359,-0.199 0.619,-0.543 0.781,-1.033c0.16,-0.49 0.24,-1.171 0.24,-2.043l0,-14.623c0,-1.285 -0.206,-2.261 -0.619,-2.927c-0.413,-0.665 -1.171,-0.998 -2.273,-0.998c-0.872,0 -1.664,0.237 -2.376,0.711c-0.711,0.475 -1.27,1.129 -1.675,1.963c-0.406,0.834 -0.609,1.756 -0.609,2.766l0,13.108c0,0.872 0.08,1.553 0.242,2.043c0.159,0.49 0.42,0.834 0.78,1.033c0.359,0.199 0.86,0.298 1.503,0.298l0,0.987l-0.734,-0.023c-1.96,-0.106 -3.659,-0.16 -5.096,-0.16c-1.547,0 -3.429,0.054 -5.647,0.16l-0.827,0.023l0,-0.987c0.749,0 1.339,-0.099 1.768,-0.298c0.428,-0.199 0.742,-0.543 0.941,-1.033c0.198,-0.49 0.298,-1.171 0.298,-2.043l0,-14.829c0,-1.454 -0.226,-2.51 -0.677,-3.168c-0.451,-0.658 -1.228,-0.987 -2.33,-0.987l0,-0.987c1.148,0.107 2.119,0.16 2.915,0.16c2.663,0 4.951,-0.222 6.864,-0.666l0,4.247c1.423,-2.922 3.979,-4.384 7.667,-4.384c2.388,0 4.117,0.612 5.188,1.836" style="fill-rule:nonzero;"/><path d="M167.487,93.7c-0.797,1.951 -1.194,4.939 -1.194,8.964c0,4.025 0.397,7.01 1.194,8.952c0.795,1.944 1.866,2.916 3.213,2.916c1.362,0 2.441,-0.972 3.237,-2.916c0.795,-1.942 1.194,-4.927 1.194,-8.952c0,-4.025 -0.399,-7.013 -1.194,-8.964c-0.796,-1.951 -1.875,-2.927 -3.237,-2.927c-1.347,0 -2.418,0.976 -3.213,2.927m11.673,-0.781c2.042,2.059 3.064,5.307 3.064,9.745c0,4.453 -1.022,7.701 -3.064,9.745c-2.044,2.042 -4.864,3.064 -8.46,3.064c-3.581,0 -6.393,-1.022 -8.435,-3.064c-2.044,-2.044 -3.065,-5.292 -3.065,-9.745c0,-4.438 1.021,-7.686 3.065,-9.745c2.042,-2.058 4.854,-3.087 8.435,-3.087c3.596,0 6.416,1.029 8.46,3.087" style="fill-rule:nonzero;"/><path d="M72.945,125.108c-0.406,0.221 -0.686,0.616 -0.838,1.182c-0.154,0.566 -0.23,1.408 -0.23,2.525l0,11.569l2.02,0c1.76,0 3.134,-0.336 4.12,-1.01c0.988,-0.673 1.669,-1.575 2.044,-2.709c0.375,-1.132 0.562,-2.493 0.562,-4.086c0,-2.571 -0.455,-4.514 -1.366,-5.83c-0.91,-1.316 -2.399,-1.975 -4.465,-1.975c-0.826,0 -1.442,0.112 -1.847,0.334m17.079,32.034c-0.973,0.428 -2.147,0.642 -3.524,0.642c-1.791,0 -3.214,-0.383 -4.27,-1.147c-1.056,-0.765 -1.753,-2.081 -2.089,-3.949l-0.826,-4.683c-0.261,-1.529 -0.544,-2.754 -0.85,-3.672c-0.306,-0.919 -0.738,-1.65 -1.296,-2.192c-0.559,-0.544 -1.306,-0.816 -2.239,-0.816l-3.053,0l0,10.812c0,1.179 0.088,2.036 0.264,2.571c0.176,0.537 0.501,0.904 0.976,1.102c0.474,0.199 1.239,0.322 2.295,0.367l0,0.942c-1.698,-0.092 -4.071,-0.138 -7.116,-0.138c-3.351,0 -5.823,0.046 -7.415,0.138l0,-0.942c1.056,-0.045 1.818,-0.168 2.285,-0.367c0.466,-0.198 0.788,-0.565 0.964,-1.102c0.176,-0.535 0.264,-1.392 0.264,-2.571l0,-23.322c0,-1.178 -0.088,-2.035 -0.264,-2.571c-0.176,-0.536 -0.502,-0.903 -0.976,-1.102c-0.475,-0.199 -1.232,-0.322 -2.273,-0.368l0,-0.941c1.592,0.092 3.972,0.138 7.14,0.138c0.581,0 2.341,-0.023 5.279,-0.069l2.112,-0.023c4.316,0 7.564,0.708 9.745,2.123c2.18,1.416 3.271,3.432 3.271,6.049c0,1.409 -0.33,2.74 -0.987,3.995c-0.658,1.255 -1.771,2.345 -3.34,3.27c-1.569,0.927 -3.647,1.536 -6.232,1.826l0.022,0c1.898,0.169 3.458,0.49 4.683,0.964c1.224,0.475 2.185,1.137 2.881,1.985c0.697,0.85 1.183,1.933 1.458,3.249l1.056,4.843c0.26,1.271 0.551,2.151 0.872,2.64c0.322,0.49 0.772,0.735 1.355,0.735c0.382,0 0.715,-0.084 0.998,-0.253c0.283,-0.168 0.586,-0.443 0.907,-0.826l0.643,0.574c-0.842,0.964 -1.749,1.661 -2.72,2.089" style="fill-rule:nonzero;"/><path d="M102.006,135.242c-0.742,1.393 -1.205,3.544 -1.389,6.451l7.369,0c0.046,-2.448 -0.203,-4.484 -0.746,-6.107c-0.543,-1.621 -1.359,-2.433 -2.445,-2.433c-1.117,0 -2.046,0.697 -2.789,2.089m10.961,14.898l0.85,0.322c-0.399,1.27 -1.014,2.46 -1.849,3.57c-0.833,1.109 -1.893,2.011 -3.178,2.708c-1.286,0.696 -2.748,1.044 -4.385,1.044c-2.158,0 -4.048,-0.459 -5.67,-1.377c-1.622,-0.918 -2.889,-2.318 -3.8,-4.201c-0.91,-1.882 -1.365,-4.215 -1.365,-7.001c0,-2.831 0.486,-5.226 1.457,-7.185c0.973,-1.959 2.322,-3.428 4.052,-4.408c1.729,-0.979 3.727,-1.469 5.992,-1.469c5.891,0 8.838,3.482 8.838,10.445l-13.154,0c-0.061,0.612 -0.092,1.354 -0.092,2.227c0,2.066 0.29,3.78 0.873,5.142c0.581,1.362 1.338,2.36 2.272,2.995c0.933,0.635 1.928,0.953 2.984,0.953c2.586,0 4.645,-1.254 6.175,-3.765" style="fill-rule:nonzero;"/><path d="M131.241,132.533c1.025,0.261 1.889,0.613 2.594,1.056c0.811,0.491 1.446,1.114 1.905,1.871c0.459,0.758 0.689,1.596 0.689,2.514c0,1.117 -0.348,2.028 -1.045,2.732c-0.696,0.704 -1.588,1.056 -2.674,1.056c-1.117,0 -2.001,-0.318 -2.652,-0.953c-0.65,-0.635 -0.975,-1.481 -0.975,-2.537c0,-0.948 0.295,-1.767 0.883,-2.456c0.59,-0.689 1.328,-1.155 2.216,-1.4c-0.245,-0.322 -0.623,-0.589 -1.136,-0.804c-0.513,-0.214 -1.076,-0.321 -1.687,-0.321c-1.271,0 -2.353,0.478 -3.249,1.434c-0.894,0.957 -1.569,2.274 -2.02,3.949c-0.451,1.676 -0.677,3.593 -0.677,5.75c0,2.296 0.29,4.152 0.872,5.568c0.582,1.414 1.335,2.421 2.262,3.018c0.925,0.597 1.954,0.895 3.087,0.895c1.071,0 2.149,-0.283 3.237,-0.849c1.086,-0.566 2.057,-1.561 2.915,-2.985l0.826,0.299c-0.398,1.285 -0.995,2.487 -1.79,3.604c-0.796,1.117 -1.833,2.032 -3.111,2.743c-1.277,0.712 -2.758,1.067 -4.441,1.067c-2.112,0 -3.991,-0.455 -5.636,-1.365c-1.645,-0.911 -2.942,-2.319 -3.891,-4.224c-0.949,-1.906 -1.423,-4.273 -1.423,-7.105c0,-2.755 0.497,-5.103 1.492,-7.047c0.994,-1.943 2.368,-3.412 4.12,-4.408c1.753,-0.994 3.754,-1.492 6.003,-1.492c1.178,0 2.28,0.131 3.306,0.39" style="fill-rule:nonzero;"/><path d="M148.263,121.641c0.772,0.651 1.158,1.535 1.158,2.651c0,1.134 -0.386,2.024 -1.158,2.674c-0.773,0.651 -1.811,0.976 -3.111,0.976c-1.332,0 -2.38,-0.325 -3.145,-0.976c-0.766,-0.65 -1.148,-1.54 -1.148,-2.674c0,-1.116 0.387,-2 1.16,-2.651c0.772,-0.65 1.816,-0.976 3.133,-0.976c1.3,0 2.338,0.326 3.111,0.976m0.872,33.159c0.191,0.491 0.505,0.835 0.94,1.033c0.437,0.199 1.03,0.299 1.78,0.299l0,0.987l-0.804,-0.023c-2.112,-0.107 -3.941,-0.161 -5.486,-0.161c-1.561,0 -3.452,0.054 -5.67,0.161l-0.826,0.023l0,-0.987c0.749,0 1.338,-0.1 1.767,-0.299c0.428,-0.198 0.742,-0.542 0.941,-1.033c0.199,-0.489 0.299,-1.171 0.299,-2.043l0,-14.829c0,-1.454 -0.226,-2.51 -0.678,-3.168c-0.451,-0.657 -1.227,-0.987 -2.329,-0.987l0,-0.987c1.147,0.107 2.119,0.161 2.915,0.161c2.663,0 4.95,-0.222 6.864,-0.666l0,20.476c0,0.872 0.095,1.554 0.287,2.043" style="fill-rule:nonzero;"/><path d="M169.003,132.832l0,0.941l-5.556,0l0,18.961c0,0.934 0.168,1.603 0.505,2.008c0.336,0.406 0.857,0.609 1.561,0.609c1.316,0 2.388,-0.941 3.214,-2.823l0.78,0.436c-1.178,3.213 -3.321,4.82 -6.427,4.82c-2.082,0 -3.65,-0.528 -4.706,-1.583c-0.658,-0.658 -1.105,-1.489 -1.342,-2.491c-0.238,-1.002 -0.357,-2.36 -0.357,-4.075l0,-15.862l-3.948,0l0,-0.941l3.948,0l0,-6.221c2.694,-0.03 4.951,-0.535 6.772,-1.515l0,7.736l5.556,0Z" style="fill-rule:nonzero;"/><path d="M183.407,143.896c-0.437,0.337 -1.091,0.774 -1.963,1.309c-0.996,0.734 -1.776,1.527 -2.342,2.375c-0.567,0.851 -0.849,1.917 -0.849,3.203c0,1.24 0.267,2.158 0.803,2.755c0.535,0.597 1.247,0.895 2.135,0.895c1.208,0 2.264,-0.635 3.168,-1.905l0,-9.642c-0.199,0.337 -0.517,0.674 -0.952,1.01m3.247,-11.259c1.132,0.329 2.066,0.869 2.801,1.618c0.657,0.674 1.102,1.504 1.331,2.49c0.23,0.988 0.345,2.354 0.345,4.098l0,12.786c0,0.766 0.072,1.305 0.218,1.618c0.145,0.314 0.409,0.471 0.792,0.471c0.29,0 0.565,-0.068 0.826,-0.206c0.26,-0.138 0.558,-0.336 0.895,-0.597l0.482,0.803c-0.734,0.597 -1.523,1.033 -2.364,1.309c-0.842,0.275 -1.845,0.413 -3.007,0.413c-1.607,0 -2.759,-0.352 -3.455,-1.056c-0.696,-0.703 -1.053,-1.621 -1.067,-2.755c-0.766,1.271 -1.764,2.223 -2.997,2.858c-1.231,0.635 -2.544,0.953 -3.936,0.953c-1.79,0 -3.229,-0.47 -4.316,-1.412c-1.087,-0.94 -1.629,-2.253 -1.629,-3.937c0,-1.637 0.535,-2.987 1.606,-4.052c1.071,-1.063 2.739,-2.015 5.005,-2.857c0.229,-0.076 0.42,-0.153 0.574,-0.23c1.361,-0.505 2.406,-0.925 3.134,-1.262c0.726,-0.336 1.319,-0.727 1.778,-1.171c0.459,-0.444 0.689,-0.964 0.689,-1.561l0,-3.673c0,-1.3 -0.307,-2.326 -0.918,-3.076c-0.613,-0.749 -1.584,-1.125 -2.916,-1.125c-0.612,0 -1.225,0.096 -1.836,0.288c-0.613,0.191 -1.118,0.478 -1.515,0.86c0.872,0.291 1.552,0.75 2.043,1.377c0.489,0.628 0.734,1.401 0.734,2.319c0,0.98 -0.352,1.787 -1.056,2.422c-0.704,0.635 -1.629,0.952 -2.777,0.952c-1.01,0 -1.817,-0.34 -2.423,-1.022c-0.604,-0.68 -0.906,-1.549 -0.906,-2.605c0,-1.591 0.88,-2.899 2.64,-3.925c1.913,-1.071 4.293,-1.607 7.139,-1.607c1.592,0 2.953,0.164 4.086,0.494" style="fill-rule:nonzero;"/><path d="M205.547,154.8c0.198,0.491 0.512,0.835 0.941,1.033c0.428,0.199 1.017,0.299 1.767,0.299l0,0.987l-0.803,-0.023c-2.143,-0.107 -3.964,-0.161 -5.463,-0.161c-0.873,0 -2.755,0.046 -5.647,0.138c-0.46,0.031 -0.751,0.046 -0.873,0.046l0,-0.987c0.749,0 1.344,-0.1 1.779,-0.299c0.437,-0.198 0.75,-0.542 0.942,-1.033c0.191,-0.489 0.286,-1.171 0.286,-2.043l0,-26.789c0,-1.453 -0.225,-2.509 -0.677,-3.168c-0.451,-0.657 -1.228,-0.987 -2.33,-0.987l0,-0.987c0.995,0.092 1.966,0.138 2.916,0.138c2.754,0 5.042,-0.214 6.863,-0.643l0,32.436c0,0.872 0.099,1.554 0.299,2.043" style="fill-rule:nonzero;"/><path d="M76.56,166.018c0.979,0.314 1.959,0.762 2.938,1.343c0.735,0.445 1.263,0.667 1.584,0.667c0.29,0 0.513,-0.161 0.666,-0.483c0.152,-0.321 0.283,-0.849 0.39,-1.584l1.079,0c-0.169,1.944 -0.252,5.518 -0.252,10.721l-1.079,0c-0.108,-1.714 -0.482,-3.332 -1.125,-4.855c-0.643,-1.523 -1.55,-2.763 -2.72,-3.719c-1.171,-0.957 -2.553,-1.435 -4.144,-1.435c-1.01,0 -1.905,0.195 -2.686,0.585c-0.78,0.391 -1.388,0.946 -1.825,1.665c-0.435,0.72 -0.654,1.569 -0.654,2.548c0,1.102 0.245,2.059 0.735,2.869c0.489,0.812 1.167,1.561 2.031,2.25c0.865,0.689 2.2,1.638 4.006,2.846c0.52,0.322 0.972,0.62 1.355,0.896c1.82,1.209 3.267,2.272 4.338,3.19c1.071,0.919 1.94,1.983 2.605,3.191c0.667,1.21 0.999,2.617 0.999,4.224c0,1.99 -0.521,3.673 -1.561,5.05c-1.041,1.378 -2.441,2.407 -4.201,3.087c-1.76,0.682 -3.727,1.022 -5.899,1.022c-1.745,0 -3.191,-0.157 -4.339,-0.471c-1.148,-0.313 -2.219,-0.737 -3.214,-1.273c-0.704,-0.444 -1.239,-0.666 -1.607,-0.666c-0.291,0 -0.513,0.164 -0.665,0.494c-0.154,0.329 -0.276,0.853 -0.367,1.572l-1.079,0c0.122,-1.959 0.183,-6.19 0.183,-12.694l1.079,0c0.214,3.505 0.995,6.347 2.342,8.527c1.346,2.182 3.42,3.272 6.22,3.272c1.117,0 2.116,-0.199 2.997,-0.597c0.879,-0.398 1.572,-0.991 2.077,-1.779c0.505,-0.788 0.757,-1.748 0.757,-2.881c0,-1.224 -0.287,-2.326 -0.86,-3.306c-0.575,-0.978 -1.347,-1.871 -2.32,-2.674c-0.971,-0.804 -2.26,-1.725 -3.867,-2.766c-1.882,-1.194 -3.386,-2.246 -4.51,-3.156c-1.126,-0.911 -2.052,-1.99 -2.779,-3.238c-0.726,-1.247 -1.09,-2.688 -1.09,-4.326c0,-1.897 0.482,-3.489 1.446,-4.775c0.964,-1.285 2.242,-2.242 3.834,-2.87c1.591,-0.627 3.343,-0.941 5.257,-0.941c1.637,0 2.945,0.157 3.925,0.47" style="fill-rule:nonzero;"/><path d="M95.992,177.554c-0.742,1.393 -1.204,3.543 -1.388,6.451l7.369,0c0.046,-2.448 -0.203,-4.484 -0.747,-6.107c-0.543,-1.621 -1.358,-2.433 -2.444,-2.433c-1.118,0 -2.047,0.697 -2.79,2.089m10.962,14.898l0.849,0.322c-0.398,1.27 -1.013,2.459 -1.848,3.57c-0.834,1.109 -1.893,2.011 -3.179,2.708c-1.285,0.696 -2.747,1.044 -4.384,1.044c-2.158,0 -4.049,-0.459 -5.67,-1.377c-1.623,-0.918 -2.889,-2.319 -3.8,-4.201c-0.91,-1.882 -1.365,-4.215 -1.365,-7.001c0,-2.831 0.485,-5.226 1.457,-7.185c0.972,-1.959 2.322,-3.428 4.052,-4.408c1.729,-0.979 3.726,-1.469 5.991,-1.469c5.892,0 8.838,3.482 8.838,10.445l-13.153,0c-0.062,0.612 -0.092,1.354 -0.092,2.226c0,2.067 0.29,3.781 0.872,5.142c0.581,1.363 1.339,2.361 2.273,2.996c0.933,0.635 1.928,0.953 2.984,0.953c2.586,0 4.644,-1.254 6.175,-3.765" style="fill-rule:nonzero;"/><path d="M128.281,175.075c0.642,0.413 1.116,0.949 1.423,1.607c0.305,0.658 0.459,1.362 0.459,2.112c0,1.163 -0.333,2.112 -0.998,2.846c-0.667,0.735 -1.55,1.102 -2.652,1.102c-1.087,0 -1.944,-0.272 -2.571,-0.815c-0.628,-0.543 -0.941,-1.281 -0.941,-2.215c0,-1.5 0.688,-2.709 2.066,-3.627c-0.2,-0.076 -0.406,-0.115 -0.62,-0.115c-0.184,0 -0.406,0.039 -0.666,0.115c-0.796,0.138 -1.523,0.524 -2.181,1.16c-0.658,0.634 -1.17,1.396 -1.538,2.283c-0.367,0.888 -0.55,1.76 -0.55,2.617l0,12.442c0,0.995 0.16,1.771 0.482,2.33c0.321,0.559 0.795,0.953 1.423,1.182c0.627,0.23 1.461,0.345 2.502,0.345l0,0.987c-0.169,0 -0.513,-0.015 -1.033,-0.046c-3.26,-0.092 -5.403,-0.138 -6.428,-0.138c-1.622,0 -3.573,0.054 -5.853,0.161l-0.873,0.023l0,-0.987c0.75,0 1.339,-0.1 1.768,-0.299c0.428,-0.198 0.742,-0.543 0.941,-1.033c0.199,-0.489 0.299,-1.171 0.299,-2.043l0,-14.829c0,-1.454 -0.226,-2.51 -0.678,-3.168c-0.451,-0.657 -1.228,-0.987 -2.33,-0.987l0,-0.987c1.148,0.107 2.12,0.16 2.916,0.16c2.663,0 4.95,-0.221 6.864,-0.665l0,4.384c0.596,-1.331 1.449,-2.417 2.559,-3.259c1.11,-0.841 2.376,-1.263 3.799,-1.263c0.964,0 1.768,0.207 2.411,0.62" style="fill-rule:nonzero;"/><path d="M140.872,163.952c0.772,0.651 1.159,1.535 1.159,2.652c0,1.133 -0.387,2.024 -1.159,2.674c-0.773,0.651 -1.811,0.976 -3.111,0.976c-1.331,0 -2.38,-0.325 -3.145,-0.976c-0.766,-0.65 -1.148,-1.541 -1.148,-2.674c0,-1.117 0.387,-2.001 1.16,-2.652c0.772,-0.65 1.816,-0.975 3.133,-0.975c1.3,0 2.338,0.325 3.111,0.975m0.872,33.16c0.191,0.49 0.505,0.835 0.941,1.033c0.437,0.199 1.029,0.299 1.779,0.299l0,0.987l-0.803,-0.023c-2.112,-0.107 -3.941,-0.161 -5.487,-0.161c-1.561,0 -3.451,0.054 -5.67,0.161l-0.826,0.023l0,-0.987c0.749,0 1.339,-0.1 1.767,-0.299c0.428,-0.198 0.742,-0.543 0.942,-1.033c0.198,-0.489 0.298,-1.171 0.298,-2.043l0,-14.829c0,-1.454 -0.226,-2.51 -0.678,-3.168c-0.45,-0.657 -1.227,-0.987 -2.329,-0.987l0,-0.987c1.148,0.107 2.119,0.161 2.915,0.161c2.663,0 4.95,-0.222 6.864,-0.666l0,20.476c0,0.872 0.095,1.554 0.287,2.043" style="fill-rule:nonzero;"/><path d="M154.599,177.554c-0.742,1.393 -1.204,3.543 -1.388,6.451l7.369,0c0.046,-2.448 -0.203,-4.484 -0.747,-6.107c-0.542,-1.621 -1.358,-2.433 -2.444,-2.433c-1.118,0 -2.047,0.697 -2.79,2.089m10.962,14.898l0.849,0.322c-0.398,1.27 -1.013,2.459 -1.848,3.57c-0.834,1.109 -1.893,2.011 -3.179,2.708c-1.285,0.696 -2.747,1.044 -4.384,1.044c-2.158,0 -4.049,-0.459 -5.67,-1.377c-1.623,-0.918 -2.889,-2.319 -3.8,-4.201c-0.91,-1.882 -1.365,-4.215 -1.365,-7.001c0,-2.831 0.485,-5.226 1.457,-7.185c0.972,-1.959 2.322,-3.428 4.052,-4.408c1.729,-0.979 3.726,-1.469 5.991,-1.469c5.892,0 8.838,3.482 8.838,10.445l-13.153,0c-0.062,0.612 -0.092,1.354 -0.092,2.226c0,2.067 0.29,3.781 0.872,5.142c0.581,1.363 1.339,2.361 2.273,2.996c0.933,0.635 1.928,0.953 2.984,0.953c2.586,0 4.644,-1.254 6.175,-3.765" style="fill-rule:nonzero;"/><path d="M181.813,174.903c0.995,0.298 1.775,0.631 2.342,0.998c0.336,0.215 0.62,0.322 0.849,0.322c0.582,0 0.949,-0.574 1.102,-1.722l1.01,0c-0.137,1.531 -0.206,4.285 -0.206,8.264l-0.987,0c-0.292,-2.066 -0.911,-3.795 -1.86,-5.188c-0.949,-1.392 -2.341,-2.089 -4.178,-2.089c-0.934,0 -1.699,0.272 -2.295,0.815c-0.597,0.543 -0.896,1.282 -0.896,2.215c0,0.75 0.195,1.435 0.586,2.054c0.39,0.621 0.875,1.179 1.457,1.677c0.582,0.497 1.393,1.121 2.434,1.87c0.29,0.2 0.726,0.514 1.308,0.941c1.27,0.95 2.287,1.78 3.053,2.491c0.765,0.712 1.385,1.523 1.86,2.433c0.473,0.911 0.711,1.956 0.711,3.134c0,1.393 -0.398,2.617 -1.193,3.673c-0.797,1.056 -1.875,1.87 -3.237,2.445c-1.363,0.573 -2.855,0.86 -4.476,0.86c-1.73,0 -3.2,-0.329 -4.408,-0.987c-1.025,-0.519 -1.753,-0.849 -2.181,-0.987c-0.092,-0.03 -0.16,-0.046 -0.206,-0.046c-0.505,0 -0.888,0.559 -1.148,1.676l-0.987,0c0.122,-1.791 0.184,-4.92 0.184,-9.389l1.01,0c0.642,5.77 2.754,8.654 6.335,8.654c0.918,0 1.699,-0.279 2.342,-0.837c0.643,-0.559 0.964,-1.397 0.964,-2.514c0,-0.872 -0.195,-1.653 -0.586,-2.341c-0.389,-0.689 -0.887,-1.309 -1.491,-1.86c-0.605,-0.551 -1.497,-1.285 -2.675,-2.204c-1.393,-1.086 -2.464,-1.981 -3.214,-2.685c-0.75,-0.704 -1.385,-1.526 -1.905,-2.469c-0.521,-0.94 -0.78,-1.999 -0.78,-3.178c0,-1.347 0.367,-2.51 1.101,-3.49c0.735,-0.979 1.718,-1.721 2.95,-2.226c1.232,-0.505 2.574,-0.758 4.029,-0.758c1.194,0 2.287,0.149 3.282,0.448" style="fill-rule:nonzero;"/><path d="M55.953,29.678c-7.679,1.082 -10.165,6.488 -9.3,24.653c0.648,12.975 1.73,23.788 1.621,34.817c-0.215,16.868 -3.784,24.653 -11.677,30.708c7.677,6.056 11.677,13.625 11.677,32.439c0,8.434 -0.648,18.597 -1.08,29.41c-0.865,20.977 -0.109,27.465 8.759,28.546l0.107,6.704c-6.272,1.297 -17.193,-7.137 -17.193,-33.303c0,-11.029 0.865,-31.79 0.865,-43.251c0,-12.759 -3.244,-17.085 -9.083,-17.085l-0.649,-6.487c6.056,-0.216 9.732,-4.758 9.624,-17.733c0,-11.029 -0.757,-29.41 -0.757,-38.71c0,-29.41 11.138,-38.276 17.41,-37.412l-0.324,6.704Z" style="fill-rule:nonzero;"/></g></g></svg>