<?xml version="1.0" encoding="UTF-8" standalone="no"?><!DOCTYPE svg PUBLIC "-//W3C//DTD SVG 1.1//EN" "http://www.w3.org/Graphics/SVG/1.1/DTD/svg11.dtd"><svg width="100%" height="100%" viewBox="0 0 80 80" version="1.1" xmlns="http://www.w3.org/2000/svg" xmlns:xlink="http://www.w3.org/1999/xlink" xml:space="preserve" style="fill-rule:evenodd;clip-rule:evenodd;stroke-miterlimit:10;"><rect id="outlined-icon" x="0" y="0" width="80" height="80" style="fill:none;"/><clipPath id="_clip1"><rect x="0" y="0" width="80" height="80"/></clipPath><g clip-path="url(#_clip1)"><rect x="0" y="0" width="80" height="80" style="fill:#fff;"/><g id="Layer-1"><g><rect x="55" y="32.5" width="15" height="7.5" style="fill:#0086b4;fill-rule:nonzero;"/><rect x="55" y="10.001" width="15" height="7.5" style="fill:#53b7e8;fill-rule:nonzero;"/><rect x="55" y="17.5" width="15" height="7.5" style="fill:#00abe6;fill-rule:nonzero;"/><rect x="55" y="25.001" width="15" height="7.5" style="fill:#1ea0ca;fill-rule:nonzero;"/><rect x="40" y="55" width="7.5" height="15" style="fill:#007298;fill-rule:nonzero;"/><rect x="40" y="40" width="15" height="7.5" style="fill:#00abe6;fill-rule:nonzero;"/><rect x="40" y="47.5" width="15" height="7.5" style="fill:#0086b4;fill-rule:nonzero;"/><rect x="47.5" y="55" width="7.5" height="15" style="fill:#1ea0ca;fill-rule:nonzero;"/><rect x="10" y="62.5" width="15" height="7.5" style="fill:#0086b4;fill-rule:nonzero;"/><rect x="10" y="40" width="7.5" height="15" style="fill:#53b7e8;fill-rule:nonzero;"/><rect x="17.5" y="40" width="7.5" height="15" style="fill:#1ea0ca;fill-rule:nonzero;"/><rect x="10" y="55" width="15" height="7.5" style="fill:#005e83;fill-rule:nonzero;"/><path d="M40,10l-15,0l-15,0l0,30l30,0l0,-15l0,-15Z" style="fill:#00b25a;fill-rule:nonzero;"/><rect x="40" y="10" width="15" height="15" style="fill:#005e83;fill-rule:nonzero;"/><rect x="40" y="25" width="15" height="15" style="fill:#53b7e8;fill-rule:nonzero;"/><rect x="55" y="40" width="15" height="30" style="fill:#005e83;fill-rule:nonzero;"/><rect x="25" y="40" width="15" height="15" style="fill:#005e83;fill-rule:nonzero;"/><rect x="25" y="55" width="15" height="15" style="fill:#53b7e8;fill-rule:nonzero;"/><path d="M25,34.375l0,-9.375l-9.375,0l9.375,0l0,-9.375l0,9.375l9.375,0l-9.375,0l0,9.375Z" style="fill:none;stroke:#fff;stroke-width:2px;"/><path d="M55,10l0,60" style="fill:none;stroke:#fff;stroke-width:2px;"/><path d="M40,10l0,60" style="fill:none;stroke:#fff;stroke-width:2px;"/><path d="M25,40l0,30" style="fill:none;stroke:#fff;stroke-width:2px;"/><path d="M17.5,40l0,15" style="fill:none;stroke:#fff;stroke-width:2px;"/><path d="M47.5,55l0,15" style="fill:none;stroke:#fff;stroke-width:2px;"/><path d="M25,55l-15,0" style="fill:none;stroke:#fff;stroke-width:2px;"/><path d="M25,62.5l-15,0" style="fill:none;stroke:#fff;stroke-width:2px;"/><path d="M55,55l-15,0" style="fill:none;stroke:#fff;stroke-width:2px;"/><path d="M55,47.5l-15,0" style="fill:none;stroke:#fff;stroke-width:2px;"/><path d="M55,40l-15,0" style="fill:none;stroke:#fff;stroke-width:2px;"/><path d="M55,25l-15,0" style="fill:none;stroke:#fff;stroke-width:2px;"/><path d="M70,17.5l-15,0" style="fill:none;stroke:#fff;stroke-width:2px;"/><path d="M70,25l-15,0" style="fill:none;stroke:#fff;stroke-width:2px;"/><path d="M70,32.5l-15,0" style="fill:none;stroke:#fff;stroke-width:2px;"/><path d="M70,40l-15,0" style="fill:none;stroke:#fff;stroke-width:2px;"/><path d="M40,40l-30,0" style="fill:none;stroke:#fff;stroke-width:2px;"/></g></g></g></svg>