<?xml version="1.0" encoding="UTF-8" standalone="no"?><!DOCTYPE svg PUBLIC "-//W3C//DTD SVG 1.1//EN" "http://www.w3.org/Graphics/SVG/1.1/DTD/svg11.dtd"><svg width="100%" height="100%" viewBox="0 0 1000 1000" version="1.1" xmlns="http://www.w3.org/2000/svg" xmlns:xlink="http://www.w3.org/1999/xlink" xml:space="preserve" style="fill-rule:evenodd;clip-rule:evenodd;stroke-linejoin:round;stroke-miterlimit:1.41421;"><rect id="outlined" x="0" y="0" width="1000" height="1000" style="fill:none;"/><rect x="0" y="0" width="1000" height="1000" style="fill:#fff;"/><g><g><path d="M240.94,493.071l-61.178,0c-7.891,0 -15.188,-1.164 -21.891,-3.494c-6.702,-2.329 -12.478,-5.728 -17.327,-10.196c-4.848,-4.468 -8.651,-9.888 -11.408,-16.257c-2.757,-6.37 -4.136,-13.643 -4.136,-21.819c0,-7.606 1.402,-14.594 4.207,-20.964c2.805,-6.37 6.631,-11.836 11.48,-16.4c4.849,-4.563 10.553,-8.105 17.113,-10.624c6.56,-2.52 13.595,-3.779 21.106,-3.779c7.511,0 14.546,1.283 21.106,3.85c6.56,2.567 12.264,6.132 17.113,10.696c4.849,4.563 8.675,10.006 11.48,16.328c2.804,6.323 4.207,13.287 4.207,20.893c0,3.612 -0.404,7.13 -1.212,10.553c-0.809,3.422 -2.021,6.655 -3.637,9.697c-1.616,3.042 -3.708,5.776 -6.275,8.2c-2.567,2.424 -5.561,4.397 -8.984,5.918l0,0.285l28.236,0l0,17.113Zm-92.837,-51.766c0,4.373 0.808,8.461 2.424,12.264c1.616,3.803 3.827,7.106 6.631,9.911c2.805,2.805 6.061,5.015 9.769,6.631c3.708,1.617 7.701,2.425 11.979,2.425c4.278,0 8.271,-0.808 11.979,-2.425c3.708,-1.616 6.964,-3.826 9.769,-6.631c2.804,-2.805 5.015,-6.108 6.631,-9.911c1.616,-3.803 2.424,-7.891 2.424,-12.264c0,-4.374 -0.808,-8.462 -2.424,-12.265c-1.616,-3.803 -3.827,-7.106 -6.631,-9.911c-2.805,-2.805 -6.061,-5.015 -9.769,-6.631c-3.708,-1.617 -7.701,-2.425 -11.979,-2.425c-4.278,0 -8.271,0.808 -11.979,2.425c-3.708,1.616 -6.964,3.826 -9.769,6.631c-2.804,2.805 -5.015,6.108 -6.631,9.911c-1.616,3.803 -2.424,7.891 -2.424,12.265Z" style="fill-rule:nonzero;"/><path d="M312.387,493.071l-20.535,0l0,-9.412l-0.286,0c-0.76,1.331 -1.735,2.662 -2.923,3.993c-1.189,1.331 -2.638,2.52 -4.35,3.565c-1.711,1.046 -3.66,1.902 -5.847,2.567c-2.186,0.666 -4.563,0.999 -7.13,0.999c-5.419,0 -9.816,-0.832 -13.191,-2.496c-3.375,-1.664 -5.99,-3.969 -7.844,-6.917c-1.854,-2.947 -3.09,-6.417 -3.708,-10.41c-0.618,-3.993 -0.927,-8.319 -0.927,-12.977l0,-38.219l21.392,0l0,33.94c0,1.997 0.071,4.065 0.214,6.204c0.142,2.139 0.57,4.112 1.283,5.918c0.713,1.807 1.806,3.28 3.28,4.421c1.474,1.141 3.589,1.711 6.346,1.711c2.757,0 4.991,-0.499 6.703,-1.497c1.711,-0.998 3.018,-2.329 3.921,-3.993c0.904,-1.664 1.498,-3.542 1.783,-5.633c0.285,-2.092 0.428,-4.278 0.428,-6.56l0,-34.511l21.391,0l0,69.307Z" style="fill-rule:nonzero;"/><path d="M367.434,484.372l-0.285,0c-2.377,3.708 -5.538,6.37 -9.484,7.986c-3.945,1.616 -8.105,2.425 -12.478,2.425c-3.232,0 -6.346,-0.452 -9.341,-1.355c-2.995,-0.903 -5.633,-2.258 -7.915,-4.065c-2.281,-1.806 -4.088,-4.04 -5.419,-6.702c-1.331,-2.662 -1.996,-5.752 -1.996,-9.27c0,-3.993 0.737,-7.368 2.21,-10.125c1.474,-2.757 3.47,-5.039 5.99,-6.845c2.519,-1.806 5.395,-3.209 8.628,-4.207c3.232,-0.998 6.583,-1.735 10.053,-2.21c3.471,-0.476 6.941,-0.761 10.411,-0.856c3.47,-0.095 6.679,-0.143 9.626,-0.143c0,-3.803 -1.355,-6.821 -4.064,-9.055c-2.71,-2.234 -5.919,-3.352 -9.627,-3.352c-3.517,0 -6.726,0.737 -9.626,2.211c-2.899,1.474 -5.49,3.494 -7.772,6.061l-11.408,-11.694c3.993,-3.708 8.651,-6.489 13.975,-8.343c5.324,-1.854 10.838,-2.781 16.543,-2.781c6.275,0 11.432,0.785 15.473,2.353c4.04,1.569 7.273,3.875 9.697,6.917c2.424,3.042 4.112,6.774 5.063,11.195c0.95,4.421 1.426,9.531 1.426,15.33l0,35.224l-19.68,0l0,-8.699Zm-5.277,-21.676c-1.616,0 -3.636,0.071 -6.061,0.214c-2.424,0.142 -4.753,0.546 -6.987,1.212c-2.234,0.665 -4.136,1.664 -5.705,2.995c-1.568,1.331 -2.353,3.185 -2.353,5.561c0,2.567 1.094,4.469 3.28,5.705c2.187,1.236 4.469,1.854 6.846,1.854c2.091,0 4.111,-0.286 6.06,-0.856c1.949,-0.571 3.684,-1.379 5.206,-2.424c1.521,-1.046 2.733,-2.377 3.636,-3.993c0.903,-1.617 1.355,-3.518 1.355,-5.705l0,-4.563l-5.277,0Z" style="fill-rule:nonzero;"/><path d="M483.232,423.764l21.391,0l0,11.123l0.285,0c2.282,-4.278 4.991,-7.487 8.129,-9.626c3.137,-2.139 7.083,-3.209 11.836,-3.209c1.236,0 2.472,0.048 3.708,0.143c1.236,0.095 2.377,0.285 3.423,0.57l0,19.538c-1.522,-0.476 -3.019,-0.832 -4.493,-1.07c-1.473,-0.237 -3.018,-0.356 -4.634,-0.356c-4.088,0 -7.321,0.57 -9.698,1.711c-2.376,1.141 -4.207,2.733 -5.49,4.777c-1.284,2.044 -2.115,4.493 -2.496,7.345c-0.38,2.852 -0.57,5.989 -0.57,9.412l0,28.949l-21.391,0l0,-69.307Z" style="fill-rule:nonzero;"/><path d="M581.203,484.372l-0.285,0c-2.377,3.708 -5.538,6.37 -9.483,7.986c-3.946,1.616 -8.105,2.425 -12.478,2.425c-3.233,0 -6.346,-0.452 -9.341,-1.355c-2.995,-0.903 -5.633,-2.258 -7.915,-4.065c-2.282,-1.806 -4.088,-4.04 -5.419,-6.702c-1.331,-2.662 -1.997,-5.752 -1.997,-9.27c0,-3.993 0.737,-7.368 2.211,-10.125c1.473,-2.757 3.47,-5.039 5.989,-6.845c2.52,-1.806 5.396,-3.209 8.628,-4.207c3.233,-0.998 6.584,-1.735 10.054,-2.21c3.47,-0.476 6.94,-0.761 10.41,-0.856c3.471,-0.095 6.679,-0.143 9.626,-0.143c0,-3.803 -1.354,-6.821 -4.064,-9.055c-2.709,-2.234 -5.918,-3.352 -9.626,-3.352c-3.518,0 -6.726,0.737 -9.626,2.211c-2.9,1.474 -5.49,3.494 -7.772,6.061l-11.409,-11.694c3.993,-3.708 8.652,-6.489 13.976,-8.343c5.324,-1.854 10.838,-2.781 16.542,-2.781c6.275,0 11.433,0.785 15.473,2.353c4.041,1.569 7.273,3.875 9.698,6.917c2.424,3.042 4.112,6.774 5.062,11.195c0.951,4.421 1.426,9.531 1.426,15.33l0,35.224l-19.68,0l0,-8.699Zm-5.276,-21.676c-1.616,0 -3.637,0.071 -6.061,0.214c-2.424,0.142 -4.753,0.546 -6.988,1.212c-2.234,0.665 -4.135,1.664 -5.704,2.995c-1.569,1.331 -2.353,3.185 -2.353,5.561c0,2.567 1.093,4.469 3.28,5.705c2.187,1.236 4.468,1.854 6.845,1.854c2.092,0 4.112,-0.286 6.061,-0.856c1.949,-0.571 3.684,-1.379 5.205,-2.424c1.521,-1.046 2.733,-2.377 3.637,-3.993c0.903,-1.617 1.354,-3.518 1.354,-5.705l0,-4.563l-5.276,0Z" style="fill-rule:nonzero;"/><path d="M610.723,423.764l20.536,0l0,9.412l0.285,0c0.666,-1.331 1.616,-2.662 2.852,-3.993c1.236,-1.331 2.71,-2.52 4.421,-3.565c1.711,-1.046 3.66,-1.902 5.847,-2.567c2.187,-0.666 4.564,-0.999 7.13,-0.999c5.42,0 9.793,0.832 13.12,2.496c3.328,1.664 5.919,3.969 7.773,6.917c1.853,2.947 3.113,6.417 3.779,10.41c0.665,3.993 0.998,8.319 0.998,12.977l0,38.219l-21.391,0l0,-33.94c0,-1.997 -0.072,-4.065 -0.214,-6.204c-0.143,-2.139 -0.571,-4.112 -1.284,-5.918c-0.713,-1.807 -1.806,-3.28 -3.28,-4.421c-1.473,-1.141 -3.589,-1.711 -6.346,-1.711c-2.757,0 -4.991,0.499 -6.702,1.497c-1.712,0.998 -3.019,2.329 -3.922,3.993c-0.903,1.664 -1.497,3.542 -1.783,5.633c-0.285,2.092 -0.427,4.278 -0.427,6.56l0,34.511l-21.392,0l0,-69.307Z" style="fill-rule:nonzero;"/><path d="M736.219,440.877l-18.825,0l0,23.102c0,1.902 0.095,3.637 0.285,5.205c0.191,1.569 0.618,2.924 1.284,4.065c0.665,1.141 1.687,2.02 3.066,2.638c1.379,0.618 3.209,0.927 5.49,0.927c1.141,0 2.639,-0.119 4.493,-0.357c1.853,-0.237 3.256,-0.784 4.207,-1.64l0,17.826c-2.377,0.856 -4.849,1.427 -7.416,1.712c-2.567,0.285 -5.086,0.428 -7.558,0.428c-3.613,0 -6.941,-0.381 -9.983,-1.141c-3.042,-0.761 -5.704,-1.973 -7.986,-3.637c-2.282,-1.664 -4.064,-3.826 -5.348,-6.488c-1.283,-2.662 -1.925,-5.895 -1.925,-9.698l0,-32.942l-13.69,0l0,-17.113l13.69,0l0,-20.536l21.391,0l0,20.536l18.825,0l0,17.113Z" style="fill-rule:nonzero;"/><path d="M193.309,564.257c-3.422,4.373 -7.748,7.749 -12.977,10.125c-5.229,2.377 -10.648,3.566 -16.257,3.566c-5.324,0 -10.339,-0.856 -15.046,-2.567c-4.706,-1.712 -8.794,-4.16 -12.264,-7.345c-3.47,-3.185 -6.203,-7.011 -8.2,-11.48c-1.996,-4.468 -2.995,-9.459 -2.995,-14.974c0,-5.514 0.999,-10.505 2.995,-14.973c1.997,-4.469 4.73,-8.295 8.2,-11.48c3.47,-3.185 7.558,-5.633 12.264,-7.345c4.707,-1.711 9.722,-2.567 15.046,-2.567c4.943,0 9.436,0.856 13.476,2.567c4.041,1.712 7.463,4.16 10.268,7.345c2.805,3.185 4.967,7.011 6.489,11.48c1.521,4.468 2.281,9.459 2.281,14.973l0,6.703l-49.627,0c0.855,4.088 2.709,7.344 5.561,9.769c2.853,2.424 6.37,3.636 10.553,3.636c3.518,0 6.489,-0.784 8.913,-2.353c2.425,-1.568 4.54,-3.589 6.346,-6.061l14.974,10.981Zm-18.111,-30.518c0.095,-3.613 -1.093,-6.703 -3.565,-9.269c-2.472,-2.567 -5.657,-3.851 -9.555,-3.851c-2.377,0 -4.468,0.38 -6.275,1.141c-1.806,0.761 -3.351,1.735 -4.634,2.923c-1.284,1.189 -2.282,2.567 -2.995,4.136c-0.713,1.569 -1.117,3.209 -1.212,4.92l28.236,0Z" style="fill-rule:nonzero;"/><path d="M206.001,506.929l20.536,0l0,9.412l0.285,0c0.666,-1.331 1.616,-2.662 2.852,-3.993c1.236,-1.331 2.71,-2.52 4.421,-3.565c1.712,-1.046 3.661,-1.902 5.847,-2.567c2.187,-0.666 4.564,-0.999 7.131,-0.999c5.419,0 9.792,0.832 13.12,2.496c3.327,1.664 5.918,3.969 7.772,6.917c1.854,2.947 3.113,6.417 3.779,10.41c0.665,3.993 0.998,8.319 0.998,12.977l0,38.219l-21.391,0l0,-33.94c0,-1.997 -0.071,-4.065 -0.214,-6.204c-0.143,-2.139 -0.571,-4.112 -1.284,-5.918c-0.713,-1.807 -1.806,-3.28 -3.28,-4.421c-1.473,-1.141 -3.589,-1.711 -6.346,-1.711c-2.757,0 -4.991,0.499 -6.702,1.497c-1.711,0.998 -3.019,2.329 -3.922,3.993c-0.903,1.664 -1.497,3.542 -1.783,5.633c-0.285,2.092 -0.427,4.278 -0.427,6.56l0,34.511l-21.392,0l0,-69.307Z" style="fill-rule:nonzero;"/><path d="M354.861,570.389c0,13.12 -3.304,23.079 -9.912,29.877c-6.607,6.797 -16.661,10.196 -30.161,10.196c-6.18,0 -12.265,-0.689 -18.254,-2.068c-5.99,-1.378 -11.504,-4.064 -16.543,-8.057l11.837,-17.683c3.327,2.757 6.821,4.943 10.481,6.56c3.661,1.616 7.678,2.424 12.051,2.424c6.56,0 11.385,-1.593 14.475,-4.777c3.089,-3.185 4.634,-7.25 4.634,-12.193l0,-6.703l-0.285,0c-2.472,3.328 -5.538,5.681 -9.198,7.059c-3.66,1.379 -7.107,2.068 -10.339,2.068c-5.134,0 -9.793,-0.88 -13.976,-2.638c-4.183,-1.759 -7.772,-4.231 -10.767,-7.416c-2.994,-3.185 -5.3,-6.964 -6.916,-11.337c-1.616,-4.374 -2.425,-9.175 -2.425,-14.404c0,-4.563 0.737,-9.032 2.211,-13.405c1.474,-4.373 3.565,-8.224 6.275,-11.551c2.709,-3.328 6.013,-6.013 9.911,-8.058c3.898,-2.044 8.319,-3.066 13.262,-3.066c3.043,0 5.824,0.333 8.343,0.999c2.519,0.665 4.777,1.521 6.774,2.567c1.996,1.045 3.708,2.21 5.134,3.494c1.426,1.283 2.567,2.543 3.422,3.779l0.286,0l0,-9.127l19.68,0l0,63.46Zm-53.906,-29.234c0,2.281 0.428,4.444 1.283,6.488c0.856,2.044 2.068,3.851 3.637,5.419c1.568,1.569 3.375,2.829 5.419,3.78c2.044,0.95 4.302,1.426 6.774,1.426c2.376,0 4.611,-0.476 6.702,-1.426c2.092,-0.951 3.922,-2.211 5.491,-3.78c1.568,-1.568 2.781,-3.375 3.636,-5.419c0.856,-2.044 1.284,-4.207 1.284,-6.488c0,-2.282 -0.428,-4.445 -1.284,-6.489c-0.855,-2.044 -2.068,-3.85 -3.636,-5.419c-1.569,-1.569 -3.399,-2.829 -5.491,-3.779c-2.091,-0.951 -4.326,-1.426 -6.702,-1.426c-2.472,0 -4.73,0.475 -6.774,1.426c-2.044,0.95 -3.851,2.21 -5.419,3.779c-1.569,1.569 -2.781,3.375 -3.637,5.419c-0.855,2.044 -1.283,4.207 -1.283,6.489Z" style="fill-rule:nonzero;"/><rect x="365.723" y="506.929" width="21.391" height="69.308" style="fill-rule:nonzero;"/><path d="M401.113,506.929l20.536,0l0,9.412l0.285,0c0.665,-1.331 1.616,-2.662 2.852,-3.993c1.236,-1.331 2.71,-2.52 4.421,-3.565c1.711,-1.046 3.66,-1.902 5.847,-2.567c2.187,-0.666 4.563,-0.999 7.13,-0.999c5.419,0 9.793,0.832 13.12,2.496c3.328,1.664 5.918,3.969 7.772,6.917c1.854,2.947 3.114,6.417 3.779,10.41c0.666,3.993 0.999,8.319 0.999,12.977l0,38.219l-21.391,0l0,-33.94c0,-1.997 -0.072,-4.065 -0.214,-6.204c-0.143,-2.139 -0.571,-4.112 -1.284,-5.918c-0.713,-1.807 -1.806,-3.28 -3.28,-4.421c-1.473,-1.141 -3.589,-1.711 -6.346,-1.711c-2.757,0 -4.991,0.499 -6.702,1.497c-1.712,0.998 -3.019,2.329 -3.922,3.993c-0.903,1.664 -1.498,3.542 -1.783,5.633c-0.285,2.092 -0.428,4.278 -0.428,6.56l0,34.511l-21.391,0l0,-69.307Z" style="fill-rule:nonzero;"/><path d="M545.005,564.257c-3.423,4.373 -7.749,7.749 -12.978,10.125c-5.229,2.377 -10.648,3.566 -16.257,3.566c-5.324,0 -10.339,-0.856 -15.045,-2.567c-4.706,-1.712 -8.794,-4.16 -12.264,-7.345c-3.471,-3.185 -6.204,-7.011 -8.2,-11.48c-1.997,-4.468 -2.995,-9.459 -2.995,-14.974c0,-5.514 0.998,-10.505 2.995,-14.973c1.996,-4.469 4.729,-8.295 8.2,-11.48c3.47,-3.185 7.558,-5.633 12.264,-7.345c4.706,-1.711 9.721,-2.567 15.045,-2.567c4.944,0 9.436,0.856 13.477,2.567c4.04,1.712 7.463,4.16 10.267,7.345c2.805,3.185 4.968,7.011 6.489,11.48c1.521,4.468 2.282,9.459 2.282,14.973l0,6.703l-49.628,0c0.856,4.088 2.71,7.344 5.562,9.769c2.852,2.424 6.37,3.636 10.553,3.636c3.517,0 6.488,-0.784 8.913,-2.353c2.424,-1.568 4.54,-3.589 6.346,-6.061l14.974,10.981Zm-18.111,-30.518c0.095,-3.613 -1.094,-6.703 -3.566,-9.269c-2.472,-2.567 -5.656,-3.851 -9.554,-3.851c-2.377,0 -4.469,0.38 -6.275,1.141c-1.807,0.761 -3.351,1.735 -4.635,2.923c-1.283,1.189 -2.282,2.567 -2.995,4.136c-0.713,1.569 -1.117,3.209 -1.212,4.92l28.237,0Z" style="fill-rule:nonzero;"/><path d="M623.297,564.257c-3.423,4.373 -7.749,7.749 -12.978,10.125c-5.229,2.377 -10.648,3.566 -16.257,3.566c-5.324,0 -10.339,-0.856 -15.045,-2.567c-4.706,-1.712 -8.794,-4.16 -12.265,-7.345c-3.47,-3.185 -6.203,-7.011 -8.199,-11.48c-1.997,-4.468 -2.995,-9.459 -2.995,-14.974c0,-5.514 0.998,-10.505 2.995,-14.973c1.996,-4.469 4.729,-8.295 8.199,-11.48c3.471,-3.185 7.559,-5.633 12.265,-7.345c4.706,-1.711 9.721,-2.567 15.045,-2.567c4.944,0 9.436,0.856 13.476,2.567c4.041,1.712 7.464,4.16 10.268,7.345c2.805,3.185 4.968,7.011 6.489,11.48c1.521,4.468 2.282,9.459 2.282,14.973l0,6.703l-49.628,0c0.856,4.088 2.71,7.344 5.562,9.769c2.852,2.424 6.37,3.636 10.553,3.636c3.517,0 6.488,-0.784 8.913,-2.353c2.424,-1.568 4.539,-3.589 6.346,-6.061l14.974,10.981Zm-18.112,-30.518c0.095,-3.613 -1.093,-6.703 -3.565,-9.269c-2.472,-2.567 -5.657,-3.851 -9.555,-3.851c-2.376,0 -4.468,0.38 -6.274,1.141c-1.807,0.761 -3.352,1.735 -4.635,2.923c-1.284,1.189 -2.282,2.567 -2.995,4.136c-0.713,1.569 -1.117,3.209 -1.212,4.92l28.236,0Z" style="fill-rule:nonzero;"/><path d="M635.989,506.929l21.391,0l0,11.123l0.285,0c2.282,-4.278 4.991,-7.487 8.129,-9.626c3.137,-2.139 7.083,-3.209 11.836,-3.209c1.236,0 2.472,0.048 3.708,0.143c1.236,0.095 2.377,0.285 3.423,0.57l0,19.538c-1.521,-0.476 -3.019,-0.832 -4.492,-1.07c-1.474,-0.237 -3.019,-0.356 -4.635,-0.356c-4.088,0 -7.321,0.57 -9.698,1.711c-2.376,1.141 -4.206,2.733 -5.49,4.777c-1.283,2.044 -2.115,4.493 -2.496,7.345c-0.38,2.852 -0.57,5.989 -0.57,9.412l0,28.949l-21.391,0l0,-69.307Z" style="fill-rule:nonzero;"/><rect x="690.75" y="506.929" width="21.391" height="69.308" style="fill-rule:nonzero;"/><path d="M723.978,506.929l20.536,0l0,9.412l0.285,0c0.665,-1.331 1.616,-2.662 2.852,-3.993c1.236,-1.331 2.709,-2.52 4.421,-3.565c1.711,-1.046 3.66,-1.902 5.847,-2.567c2.186,-0.666 4.563,-0.999 7.13,-0.999c5.419,0 9.793,0.832 13.12,2.496c3.328,1.664 5.918,3.969 7.772,6.917c1.854,2.947 3.114,6.417 3.779,10.41c0.666,3.993 0.999,8.319 0.999,12.977l0,38.219l-21.392,0l0,-33.94c0,-1.997 -0.071,-4.065 -0.214,-6.204c-0.142,-2.139 -0.57,-4.112 -1.283,-5.918c-0.713,-1.807 -1.806,-3.28 -3.28,-4.421c-1.474,-1.141 -3.589,-1.711 -6.346,-1.711c-2.757,0 -4.991,0.499 -6.703,1.497c-1.711,0.998 -3.018,2.329 -3.921,3.993c-0.904,1.664 -1.498,3.542 -1.783,5.633c-0.285,2.092 -0.428,4.278 -0.428,6.56l0,34.511l-21.391,0l0,-69.307Z" style="fill-rule:nonzero;"/><path d="M875,570.389c0,13.12 -3.304,23.079 -9.911,29.877c-6.608,6.797 -16.662,10.196 -30.162,10.196c-6.18,0 -12.264,-0.689 -18.254,-2.068c-5.989,-1.378 -11.503,-4.064 -16.542,-8.057l11.836,-17.683c3.328,2.757 6.822,4.943 10.482,6.56c3.66,1.616 7.677,2.424 12.05,2.424c6.56,0 11.385,-1.593 14.475,-4.777c3.09,-3.185 4.635,-7.25 4.635,-12.193l0,-6.703l-0.285,0c-2.472,3.328 -5.538,5.681 -9.199,7.059c-3.66,1.379 -7.106,2.068 -10.339,2.068c-5.134,0 -9.792,-0.88 -13.975,-2.638c-4.184,-1.759 -7.772,-4.231 -10.767,-7.416c-2.995,-3.185 -5.301,-6.964 -6.917,-11.337c-1.616,-4.374 -2.424,-9.175 -2.424,-14.404c0,-4.563 0.737,-9.032 2.21,-13.405c1.474,-4.373 3.566,-8.224 6.275,-11.551c2.71,-3.328 6.013,-6.013 9.911,-8.058c3.898,-2.044 8.319,-3.066 13.263,-3.066c3.042,0 5.823,0.333 8.342,0.999c2.52,0.665 4.778,1.521 6.774,2.567c1.997,1.045 3.708,2.21 5.134,3.494c1.426,1.283 2.567,2.543 3.423,3.779l0.285,0l0,-9.127l19.68,0l0,63.46Zm-53.906,-29.234c0,2.281 0.428,4.444 1.284,6.488c0.855,2.044 2.067,3.851 3.636,5.419c1.569,1.569 3.375,2.829 5.419,3.78c2.044,0.95 4.302,1.426 6.774,1.426c2.377,0 4.611,-0.476 6.703,-1.426c2.091,-0.951 3.921,-2.211 5.49,-3.78c1.569,-1.568 2.781,-3.375 3.637,-5.419c0.855,-2.044 1.283,-4.207 1.283,-6.488c0,-2.282 -0.428,-4.445 -1.283,-6.489c-0.856,-2.044 -2.068,-3.85 -3.637,-5.419c-1.569,-1.569 -3.399,-2.829 -5.49,-3.779c-2.092,-0.951 -4.326,-1.426 -6.703,-1.426c-2.472,0 -4.73,0.475 -6.774,1.426c-2.044,0.95 -3.85,2.21 -5.419,3.779c-1.569,1.569 -2.781,3.375 -3.636,5.419c-0.856,2.044 -1.284,4.207 -1.284,6.489Z" style="fill-rule:nonzero;"/></g><path d="M401.113,493.071l0,-69.285c0.581,-0.015 1.164,-0.022 1.748,-0.022c38.252,0 69.308,31.055 69.308,69.307l-71.056,0Z" style="fill:#c8c8c8;"/></g></svg>