<?xml version="1.0" encoding="UTF-8" standalone="no"?><!DOCTYPE svg PUBLIC "-//W3C//DTD SVG 1.1//EN" "http://www.w3.org/Graphics/SVG/1.1/DTD/svg11.dtd"><svg width="100%" height="100%" viewBox="0 0 1000 1000" version="1.1" xmlns="http://www.w3.org/2000/svg" xmlns:xlink="http://www.w3.org/1999/xlink" xml:space="preserve" style="fill-rule:evenodd;clip-rule:evenodd;stroke-linejoin:round;stroke-miterlimit:1.41421;"><rect id="outlined-logo" x="0" y="0" width="1000" height="1000" style="fill:none;"/><rect x="0" y="0" width="1000" height="1000" style="fill:#fff;"/><rect x="158.007" y="158.006" width="683.987" height="683.987" style="fill:#c4161c;"/><g id="Layer-1"><g><path d="M581.532,171.685c-64.568,0 -121.477,38.303 -154.309,83.173c-85.362,102.872 -151.025,258.275 -151.025,390.695c0,117.1 54.719,182.762 151.025,182.762c145.554,0 282.351,-247.331 283.446,-496.85c0,-102.873 -49.248,-159.78 -129.137,-159.78" style="fill:#d71920;fill-rule:nonzero;"/><path d="M617.553,841.994l224.441,0l0,-284.713c-32.769,122.209 -112.861,228.988 -224.441,284.713" style="fill:#d71920;fill-rule:nonzero;"/><path d="M371.722,158.006l-213.715,0l0,275.323c30.958,-118.653 104.805,-221.154 213.715,-275.323" style="fill:#d71920;fill-rule:nonzero;"/><path d="M841.994,313.275l0,-155.269l-119.524,0c56.297,32.525 98.011,84.35 119.524,155.269" style="fill:#d71920;fill-rule:nonzero;"/><path d="M158.006,680.66l0,161.334l120.217,0c-12.898,-7.841 -25.347,-17.058 -37.045,-27.906c-41.328,-38.196 -67.944,-83.566 -83.172,-133.428" style="fill:#d71920;fill-rule:nonzero;"/><path d="M425.693,253.663c-42.632,51.389 -80.916,116.998 -107.797,184.747c-28.549,71.948 -43.639,143.577 -43.639,207.143c0,58.673 13.406,104.608 39.845,136.531c13.054,15.763 29.248,27.851 48.132,35.926c19,8.126 40.865,12.246 64.99,12.246c35.771,0 71.691,-14.461 106.764,-42.979c32.766,-26.643 64.17,-65.67 90.82,-112.863c55.273,-97.878 87.275,-222.876 87.802,-342.941c0,-50.462 -12.122,-91.854 -35.053,-119.709c-22.63,-27.49 -55.836,-42.021 -96.024,-42.021c-69.598,0 -126.128,43.342 -155.84,83.92m-146.924,586.39c-13.106,-8.008 -25.307,-17.221 -36.271,-27.388c-38.897,-35.95 -66.669,-80.457 -82.551,-132.294l0,-246.792c15.709,-60.086 41.693,-114.225 77.229,-160.917c36.938,-48.532 82.356,-86.451 135.002,-112.715l349.77,0c28.02,16.262 52.173,37.284 71.797,62.488c20.237,25.993 35.816,56.651 46.308,91.129l0,243.46c-16.278,60.578 -44.718,118.095 -82.257,166.353c-39.074,50.231 -86.411,89.484 -140.701,116.676l-338.326,0Z" style="fill:#c4161c;fill-rule:nonzero;stroke:#c4161c;stroke-width:1px;"/><path d="M427.223,828.315c-96.306,0 -151.024,-65.663 -151.024,-182.762c0,-132.419 65.663,-287.823 151.024,-390.695c32.832,-44.87 89.74,-83.173 154.309,-83.173c79.889,0 129.138,56.908 129.138,159.779c-1.096,249.521 -137.893,496.851 -283.447,496.851m295.246,-670.309l-350.747,0c-108.911,54.169 -182.756,156.67 -213.715,275.323l0,247.331c15.227,49.863 41.844,95.232 83.171,133.428c11.698,10.848 24.148,20.065 37.045,27.906l339.33,0c111.58,-55.724 191.672,-162.504 224.441,-284.713l0,-244.006c-21.513,-70.919 -63.227,-122.745 -119.525,-155.269m-298.309,94.464c-21.381,25.778 -41.533,54.796 -59.899,86.255c-18.432,31.57 -34.638,64.868 -48.169,98.968c-28.638,72.174 -43.775,144.051 -43.775,207.86c0,29.349 3.435,55.946 10.211,79.05c6.749,23.014 16.869,42.77 30.079,58.719c13.253,16.004 29.693,28.275 48.863,36.473c19.243,8.23 41.366,12.402 65.753,12.402c18.312,0 36.951,-3.837 55.398,-11.405c17.713,-7.267 35.408,-18.036 52.591,-32.009c16.66,-13.547 32.944,-30.186 48.399,-49.454c15.177,-18.922 29.606,-40.441 42.887,-63.96c26.534,-46.988 48.542,-102.323 63.645,-160.023c15.927,-60.854 24.14,-122.715 24.409,-183.882c0,-25.701 -3.063,-49.074 -9.103,-69.467c-5.959,-20.116 -14.839,-37.432 -26.393,-51.467c-11.507,-13.977 -25.666,-24.711 -42.086,-31.902c-16.4,-7.183 -35.053,-10.825 -55.438,-10.825c-30.774,0 -62.239,8.741 -90.991,25.277c-25.86,14.872 -48.811,35.408 -66.381,59.39m297.265,-90.582c27.612,16.101 51.423,36.868 70.788,61.739c20.037,25.737 35.478,56.088 45.899,90.226l0,242.916c-8.087,30.032 -19.122,59.299 -32.801,87c-13.787,27.918 -30.289,54.301 -49.047,78.417c-19.031,24.465 -40.45,46.676 -63.663,66.016c-23.562,19.633 -49.116,36.421 -75.966,49.91l-337.32,0c-12.819,-7.874 -24.758,-16.911 -35.502,-26.875c-19.83,-18.327 -36.888,-39.025 -50.7,-61.519c-13.049,-21.251 -23.553,-44.678 -31.224,-69.639l0,-246.25c7.675,-29.297 18.022,-57.65 30.758,-84.283c12.95,-27.082 28.451,-52.554 46.074,-75.709c17.995,-23.643 38.354,-45.066 60.511,-63.671c22.576,-18.959 47.267,-35.198 73.404,-48.278l348.789,0" style="fill:#c4161c;fill-rule:nonzero;"/><path d="M228.064,613.036c2.175,0.312 4.038,0.622 5.901,0.622c24.221,0 29.19,-19.563 29.19,-26.706c0,-7.143 -2.95,-13.819 -6.832,-17.391c-5.589,-4.967 -12.732,-6.676 -20.495,-6.676c-2.484,0 -4.347,0.155 -5.589,0.932c-1.242,0.777 -1.863,2.639 -1.863,4.503l-0.312,44.716Zm-0.309,13.975c0,9.316 0.309,26.706 0.621,29.034c0.465,3.106 1.551,5.901 4.037,5.901l7.761,0c0.934,0 1.244,0.465 1.244,1.087l0,3.726c0,1.087 -0.466,1.398 -1.708,1.398c-2.019,0 -5.124,-0.466 -21.272,-0.466c-15.215,0 -18.941,0.466 -20.496,0.466c-0.929,0 -1.241,-0.466 -1.241,-1.398l0,-3.571c0,-0.777 0.312,-1.242 0.932,-1.242l5.279,0c3.415,0 5.899,-0.931 5.899,-5.124c0.312,-15.528 0.312,-30.122 0.312,-44.718l0,-40.834c0,-5.28 -2.175,-7.764 -4.97,-7.764l-6.055,0c-0.777,0 -1.085,-0.31 -1.085,-0.932l0,-4.191c0,-0.777 0.308,-1.088 1.085,-1.088c1.086,0 6.055,0.467 21.273,0.467c8.693,0 22.979,-0.467 27.637,-0.467c12.419,0 22.047,4.192 28.258,9.783c5.59,4.967 8.384,11.489 8.384,17.39c0,19.564 -11.799,27.636 -28.879,30.433l0,0.62c4.348,1.553 7.143,4.347 9.316,7.141c1.863,2.485 11.49,17.08 12.731,18.943c0.933,1.554 10.869,15.528 13.198,17.701c2.95,2.64 7.297,2.95 11.025,2.95c0.932,0 1.242,0.467 1.242,1.088l0,3.259c0,1.088 -0.31,1.554 -1.244,1.554c-1.242,0 -5.278,-0.466 -15.215,-0.466c-4.347,0 -10.247,0.31 -13.663,0.466c-1.865,-1.398 -4.813,-5.59 -6.832,-8.851c-2.794,-4.347 -8.849,-15.526 -10.248,-18.012c-1.553,-2.794 -5.9,-9.937 -8.385,-13.352c-3.88,-5.434 -7.451,-9.627 -13.973,-9.627c-0.621,0 -3.261,0.156 -4.968,0.311l0,8.385Z" style="fill:#f1f1f2;fill-rule:nonzero;"/><path d="M326.824,585.399c-4.967,0 -9.937,-3.882 -9.937,-9.316c0,-4.659 4.503,-9.626 10.869,-9.626c6.52,0 9.626,5.278 9.626,9.005c0,4.658 -3.261,9.937 -10.558,9.937m-5.279,38.04c0,-4.657 -0.931,-7.763 -8.073,-9.627c-1.399,-0.31 -1.555,-0.776 -1.555,-1.397l0,-1.707c0,-0.622 0.312,-0.931 1.088,-1.242c2.175,-0.932 17.545,-6.366 20.185,-7.453c1.553,-0.621 2.794,-0.932 3.727,-0.932c0.93,0 1.397,0.621 1.242,1.863c-0.312,2.484 -0.312,12.421 -0.312,25.309l0,16.769c0,5.899 0,11.489 0.312,13.353c0.309,2.794 0.93,4.036 2.484,4.036l6.21,0c1.241,0 1.554,0.312 1.554,1.087l0,3.105c0,0.931 -0.313,1.554 -1.242,1.554c-1.242,0 -8.385,-0.466 -18.788,-0.466c-9.006,0 -14.905,0.466 -16.768,0.466c-0.777,0 -1.242,-0.31 -1.242,-1.554l0,-2.949c0,-0.931 0.621,-1.243 1.55,-1.243l6.833,0c1.552,0 2.33,-0.621 2.486,-3.105c0.154,-4.657 0.309,-9.627 0.309,-13.973l0,-21.894Z" style="fill:#f1f1f2;fill-rule:nonzero;"/><path d="M400.111,621.887c0,-2.484 -0.309,-5.28 -1.553,-7.454c-2.173,-3.882 -7.14,-7.297 -13.662,-7.297c-3.726,0 -7.764,0.932 -10.714,4.658c-4.814,5.744 -6.21,12.266 -6.21,18.632c0,17.701 9.471,30.432 19.097,30.432c6.212,0 10.248,-3.105 11.8,-5.588c0.933,-1.864 1.242,-3.728 1.242,-6.212l0,-27.171Zm16.149,20.339c0,5.901 0.31,12.112 1.552,13.665c1.552,1.862 4.348,2.483 6.522,2.794c2.173,0 2.794,0.311 3.105,0.932l0.31,1.862c0.311,0.932 0,1.555 -0.931,1.864l-20.806,5.9c-0.931,0.311 -1.863,-0.31 -2.175,-1.553l-2.171,-7.142c-4.97,5.28 -14.597,9.006 -21.738,9.006c-6.057,0 -12.889,-1.864 -18.632,-7.608c-6.522,-6.366 -9.627,-12.888 -9.627,-22.825c0,-10.712 2.795,-19.407 10.869,-28.103c6.21,-6.522 13.663,-9.937 22.979,-9.937c5.901,0 10.868,0.932 14.594,2.174l-0.465,-30.122c-0.156,-5.28 -1.397,-7.453 -9.782,-9.006c-0.93,-0.31 -1.242,-0.621 -1.242,-1.242l0,-2.794c0,-0.621 0.312,-0.932 1.242,-1.242c7.764,-0.933 18.011,-1.864 22.049,-2.796c1.863,-0.311 2.795,-0.621 4.036,-0.621c0.621,0 1.242,0.932 0.932,2.794c-0.621,7.764 -0.621,30.124 -0.621,50.152l0,33.848Z" style="fill:#f1f1f2;fill-rule:nonzero;"/><path d="M466.105,622.818c3.262,0 5.125,-0.931 5.125,-2.173c0,-4.659 -1.554,-13.819 -9.627,-13.819c-7.609,0 -12.266,5.589 -14.285,15.992l18.787,0Zm-19.254,10.404c0,15.836 11.335,25.152 20.187,25.152c9.626,0 15.525,-4.036 18.786,-9.005c0.621,-1.086 1.243,-1.086 1.863,-0.776l2.33,1.397c0.775,0.467 1.088,1.087 0,3.106c-3.261,5.899 -11.179,16.458 -28.259,16.458c-9.938,0 -16.924,-2.174 -22.358,-8.386c-7.143,-8.228 -8.695,-15.992 -8.695,-25.618c0,-8.539 0.931,-14.284 7.607,-22.979c6.522,-8.385 13.508,-11.489 27.017,-11.489c17.701,0 23.446,18.475 23.446,24.841c0,2.329 -1.554,2.485 -4.347,2.485l-37.577,0l0,4.814Z" style="fill:#f1f1f2;fill-rule:nonzero;"/><path d="M530.081,633.222c-6.833,4.347 -17.08,6.987 -17.08,18.32c0,6.368 3.415,9.473 7.141,9.473c4.348,-0.311 9.939,-4.659 9.939,-7.454l0,-20.339Zm0.93,26.861c-3.414,3.726 -7.452,6.366 -13.507,8.384c-3.572,1.086 -6.833,1.086 -9.937,1.086c-5.745,0 -10.715,-4.657 -10.715,-13.352c0,-7.143 3.107,-14.13 14.284,-19.099c9.627,-4.657 15.528,-7.141 18.945,-9.626l0,-8.073c-0.313,-3.106 -0.622,-6.832 -2.484,-8.695c-1.555,-1.709 -4.349,-2.33 -7.764,-2.33c-2.796,0 -6.522,0.932 -9.006,2.795c-2.175,1.552 -0.621,3.881 -0.621,7.609c0,5.589 -2.796,9.004 -9.317,9.004c-2.793,0 -5.279,-1.863 -5.279,-5.278c0,-4.347 2.486,-9.316 7.143,-12.732c6.52,-4.969 14.905,-8.695 25.153,-8.695c8.695,0 11.489,1.863 14.285,4.347c3.415,3.106 3.726,7.453 3.726,11.646l0.31,24.531l0,7.453c0,8.385 1.244,10.869 4.037,10.869c2.174,0 4.348,-1.242 4.969,-2.484c0.621,-0.931 0.931,-0.931 1.552,-0.621l1.863,1.242c0.621,0.31 0.933,0.931 0.312,2.484c-1.553,2.796 -5.279,9.005 -14.286,9.005c-5.9,0 -10.868,-2.794 -13.043,-9.47l-0.62,0Z" style="fill:#f1f1f2;fill-rule:nonzero;"/><path d="M609.891,658.995l-0.932,0c-3.417,5.59 -12.422,10.559 -20.494,10.559c-5.591,0 -10.56,0 -15.995,-6.831c-5.588,-7.299 -5.743,-13.044 -5.743,-21.739c0,-7.451 0.155,-12.886 0.155,-16.147c0,-3.728 0,-9.316 -0.311,-11.179c-0.465,-3.882 -2.64,-5.28 -5.434,-5.59c-2.484,-0.31 -3.415,-0.31 -3.415,-1.242l0,-2.794c0,-0.932 0.309,-1.244 1.862,-1.244l18.633,0c0.931,0 1.708,-0.154 2.329,-0.311c0.621,-0.154 1.243,-0.31 1.707,-0.31c0.932,0 1.553,0.933 1.553,1.865c0,1.552 -0.621,8.693 -0.621,19.407l0,9.783c0,6.21 -1.088,16.768 3.104,23.29c3.107,4.656 6.522,4.346 9.939,4.346c3.726,0 8.385,-2.484 10.869,-5.899c0.621,-0.931 1.708,-3.107 1.708,-4.969l0,-36.642c0,-4.038 -2.95,-4.97 -6.678,-5.28c-2.794,-0.31 -3.105,-0.621 -3.105,-1.242l0,-2.794c0,-1.088 0.465,-1.244 1.864,-1.244l19.253,0c1.086,0 1.862,-0.154 2.639,-0.311c0.776,-0.154 1.397,-0.31 2.018,-0.31c0.933,0 1.242,0.933 1.242,1.554c0,1.552 -0.93,5.589 -0.93,20.96l0,11.335c0,7.454 0,14.905 0.309,18.012c0.621,4.657 2.175,5.278 3.417,5.278c0.931,0 3.104,0 4.968,-0.311c1.241,-0.154 1.708,0 1.862,0.621l0.467,2.484c0.154,0.933 -0.155,1.244 -0.776,1.398l-19.253,5.434c-0.933,0.311 -1.862,0.622 -3.105,0.622c-1.243,0 -2.02,-0.622 -2.174,-1.864l-0.932,-8.695Z" style="fill:#f1f1f2;fill-rule:nonzero;"/><path d="M304.88,771.804c0.483,0.485 0.646,0.968 0.322,1.615c-9.689,13.887 -25.19,27.128 -48.12,27.128c-20.669,0 -32.297,-6.136 -42.308,-15.178c-11.949,-10.659 -17.44,-29.389 -17.44,-43.601c0,-15.825 5.169,-31.004 16.471,-43.276c8.719,-9.365 22.608,-17.117 41.986,-17.117c14.854,0 26.803,4.522 32.618,7.752c2.261,1.291 2.905,1.291 3.23,0l1.291,-4.199c0.323,-0.969 0.646,-0.969 2.583,-0.969c1.938,0 2.261,0.324 2.261,2.584c0,2.906 3.229,28.743 3.876,33.588c0.161,0.968 0,1.452 -0.647,1.615l-3.067,0.967c-0.807,0.324 -1.293,-0.322 -1.776,-1.614c-1.938,-5.813 -5.813,-13.886 -12.597,-20.992c-7.103,-6.783 -15.501,-11.949 -28.096,-11.949c-25.835,0 -36.494,23.253 -36.494,46.505c0,10.012 2.906,29.067 14.856,41.986c10.657,11.302 20.023,12.595 27.774,12.595c17.761,0 31.81,-8.882 38.594,-18.732c0.806,-1.131 1.453,-1.615 1.936,-1.131l2.747,2.423Z" style="fill:#f1f1f2;fill-rule:nonzero;"/><path d="M365.92,764.121c0,-8.074 0,-16.769 -4.036,-20.806c-2.484,-2.484 -4.968,-3.725 -8.695,-3.725c-4.037,0 -8.075,2.173 -11.49,5.588c-1.243,1.553 -2.794,4.659 -2.794,7.608l0,33.538c0,4.969 0.621,6.521 2.794,6.521l3.726,0c0.932,0 1.553,0.31 1.553,1.398l0,2.794c0,0.932 -0.309,1.555 -1.242,1.555c-1.242,0 -8.073,-0.467 -16.149,-0.467c-9.626,0 -15.525,0.467 -16.768,0.467c-0.777,0 -1.243,-0.311 -1.243,-1.244l0,-3.416c0,-0.777 0.622,-1.087 1.399,-1.087l3.881,0c2.484,0 4.658,-0.621 5.125,-2.484c0.621,-3.105 0.776,-12.11 0.776,-19.253l-0.311,-55.43c0,-8.696 -1.864,-11.801 -7.143,-13.974l-2.794,-0.932c-0.933,-0.31 -1.242,-0.621 -1.242,-1.241l0,-1.554c0,-0.621 0.309,-0.932 2.174,-1.863c4.656,-1.242 15.216,-6.52 20.184,-9.006c1.863,-0.62 2.795,-1.242 4.347,-1.242c1.242,0 1.554,1.242 1.242,3.728c-0.309,2.794 -0.309,34.157 -0.309,41.765l0,9.627l0.93,0c4.349,-6.055 12.733,-9.471 20.03,-9.471c6.833,0 10.869,2.174 15.526,6.21c7.143,6.211 6.834,13.975 6.834,22.825l0,29.811c0,2.173 2.792,2.484 5.278,2.484l2.795,0c1.241,0 1.553,0.31 1.553,1.087l0,3.416c0,0.777 -0.312,1.244 -1.243,1.244c-0.931,0 -5.9,-0.467 -15.372,-0.467c-9.316,0 -14.906,0.467 -16.457,0.467c-0.933,0 -1.241,-0.311 -1.241,-1.088l0,-3.726c0,-0.623 0.308,-0.933 1.085,-0.933l2.64,0c1.863,0 4.036,-0.621 4.347,-3.105c0.31,-2.173 0.31,-10.248 0.31,-15.215l0,-10.404Z" style="fill:#f1f1f2;fill-rule:nonzero;"/><path d="M446.045,764.742c0,-17.08 -9.006,-27.017 -16.147,-27.017c-4.038,0 -7.143,1.244 -9.783,4.192c-4.813,5.434 -6.676,11.956 -6.676,23.292c0,9.005 0.621,14.904 4.813,21.58c2.641,4.193 6.056,6.678 12.267,6.678c10.248,0 15.526,-12.887 15.526,-28.725m8.228,-24.067c7.297,7.298 10.714,15.372 10.714,24.534c0,8.694 -3.726,17.078 -9.626,23.6c-6.366,7.143 -15.682,11.178 -26.084,11.178c-9.783,0 -18.167,-2.794 -25.154,-11.178c-6.832,-8.075 -8.385,-14.595 -8.385,-24.067c0,-7.453 3.726,-18.321 13.044,-25.773c7.606,-6.211 15.682,-7.454 22.046,-7.454c10.403,0 18.167,4.037 23.445,9.16" style="fill:#f1f1f2;fill-rule:nonzero;"/><path d="M479.432,758.22c0,-7.141 -1.242,-9.625 -5.899,-12.11l-2.796,-1.553c-0.931,-0.31 -1.242,-0.621 -1.242,-1.241l0,-0.932c0,-0.621 0.311,-0.932 1.242,-1.398l18.787,-8.85c0.933,-0.31 1.554,-0.621 2.484,-0.621c0.933,0 1.243,0.932 1.399,1.864l1.396,11.489l0.622,0c5.28,-8.695 11.8,-13.974 18.632,-13.974c4.968,0 8.073,3.415 8.073,7.764c0,4.347 -4.348,8.383 -8.383,8.383c-2.174,0 -4.037,-0.621 -5.279,-1.242c-1.243,-0.931 -2.796,-1.242 -4.348,-1.242c-1.865,0 -4.657,1.242 -6.52,4.503c-1.244,2.173 -1.865,5.59 -1.865,7.607l0,29.658c0,4.967 1.242,6.519 4.349,6.519l6.83,0c0.934,0 1.242,0.311 1.242,1.088l0,3.572c0,0.777 -0.308,1.087 -1.087,1.087c-1.086,0 -7.919,-0.466 -19.252,-0.466c-10.87,0 -16.925,0.466 -18.167,0.466c-0.776,0 -1.086,-0.31 -1.086,-1.087l0,-3.416c0,-0.933 0.31,-1.244 1.398,-1.244l5.434,0c2.484,0 4.036,-1.241 4.036,-4.19l0,-30.434Z" style="fill:#f1f1f2;fill-rule:nonzero;"/><path d="M562.502,763.656c-6.831,4.347 -17.078,6.987 -17.078,18.32c0,6.367 3.414,9.473 7.141,9.473c4.349,-0.311 9.937,-4.659 9.937,-7.454l0,-20.339Zm0.932,26.861c-3.416,3.726 -7.454,6.366 -13.509,8.384c-3.571,1.087 -6.83,1.087 -9.935,1.087c-5.746,0 -10.715,-4.658 -10.715,-13.353c0,-7.143 3.105,-14.129 14.285,-19.098c9.626,-4.658 15.525,-7.142 18.942,-9.627l0,-8.073c-0.31,-3.106 -0.621,-6.832 -2.484,-8.695c-1.554,-1.709 -4.347,-2.33 -7.763,-2.33c-2.796,0 -6.522,0.932 -9.006,2.795c-2.174,1.552 -0.621,3.881 -0.621,7.609c0,5.589 -2.796,9.005 -9.316,9.005c-2.794,0 -5.279,-1.864 -5.279,-5.279c0,-4.346 2.485,-9.316 7.143,-12.732c6.52,-4.969 14.905,-8.694 25.153,-8.694c8.695,0 11.489,1.862 14.283,4.346c3.417,3.106 3.726,7.453 3.726,11.646l0.312,24.531l0,7.453c0,8.385 1.243,10.869 4.037,10.869c2.173,0 4.349,-1.242 4.969,-2.484c0.621,-0.931 0.93,-0.931 1.551,-0.621l1.864,1.242c0.621,0.31 0.932,0.931 0.311,2.484c-1.552,2.796 -5.28,9.006 -14.286,9.006c-5.899,0 -10.868,-2.795 -13.041,-9.471l-0.621,0Z" style="fill:#f1f1f2;fill-rule:nonzero;"/><path d="M608.155,710.399c-0.309,-5.279 -2.949,-7.764 -7.919,-9.316l-3.105,-0.931c-0.931,-0.311 -0.931,-0.622 -0.931,-1.243l0,-1.864c0,-0.31 0.311,-0.931 1.242,-1.242c6.212,-1.863 18.322,-5.899 23.29,-9.005c1.863,-0.622 2.795,-0.932 3.416,-0.932c0.932,0 1.553,0.621 1.553,2.794c-0.31,8.385 -0.621,40.682 -0.621,49.221l0,22.358c0,7.143 0,22.981 0.311,27.638c0.31,2.795 0.621,4.968 4.038,4.968l5.899,0c1.552,0 1.862,0.31 1.862,1.398l0,2.794c0,0.931 -0.31,1.554 -0.931,1.554c-1.242,0 -8.074,-0.467 -18.943,-0.467c-11.8,0 -18.009,0.467 -19.253,0.467c-0.932,0 -1.242,-0.623 -1.242,-1.554l0,-2.948c0,-0.934 0.31,-1.244 2.174,-1.244l5.9,0c1.553,0 3.882,-1.242 3.882,-5.589l0,-48.598c0,-10.87 -0.31,-24.222 -0.622,-28.259" style="fill:#f1f1f2;fill-rule:nonzero;"/><path d="M673.525,753.252c3.261,0 5.124,-0.931 5.124,-2.173c0,-4.659 -1.552,-13.819 -9.627,-13.819c-7.607,0 -12.265,5.589 -14.285,15.992l18.788,0Zm-19.253,10.404c0,15.836 11.336,25.152 20.185,25.152c9.627,0 15.527,-4.036 18.786,-9.005c0.622,-1.086 1.243,-1.086 1.863,-0.776l2.33,1.397c0.777,0.467 1.088,1.087 0,3.106c-3.259,5.9 -11.178,16.458 -28.259,16.458c-9.936,0 -16.924,-2.173 -22.358,-8.385c-7.143,-8.229 -8.694,-15.993 -8.694,-25.619c0,-8.539 0.93,-14.284 7.608,-22.979c6.52,-8.385 13.508,-11.489 27.015,-11.489c17.703,0 23.446,18.476 23.446,24.841c0,2.329 -1.552,2.486 -4.346,2.486l-37.576,0l0,4.813Z" style="fill:#f1f1f2;fill-rule:nonzero;"/><path d="M875,125l-11.646,0l-726.708,0l-11.646,0l0,750l750,0l0,-11.646l0,-726.708l0,-11.646Zm-11.646,738.354l-726.708,0l0,-726.708l726.708,0l0,726.708Z" style="fill:#c4161c;fill-rule:nonzero;"/></g></g></svg>