<?xml version="1.0" encoding="UTF-8" standalone="no"?><!DOCTYPE svg PUBLIC "-//W3C//DTD SVG 1.1//EN" "http://www.w3.org/Graphics/SVG/1.1/DTD/svg11.dtd"><svg width="100%" height="100%" viewBox="0 0 1000 1000" version="1.1" xmlns="http://www.w3.org/2000/svg" xmlns:xlink="http://www.w3.org/1999/xlink" xml:space="preserve" style="fill-rule:evenodd;clip-rule:evenodd;stroke-linejoin:round;stroke-miterlimit:1.41421;"><rect id="outlined" x="0" y="0" width="1000" height="1000" style="fill:none;"/><clipPath id="_clip1"><rect x="0" y="0" width="1000" height="1000"/></clipPath><g clip-path="url(#_clip1)"><rect x="0" y="0" width="1000" height="1000"/><g><path d="M642.049,395.336c-3.329,0.08 -6.586,0.231 -9.779,0.462c-3.203,0.223 -6.396,0.564 -9.589,1.027c-5.886,0.916 -11.962,2.135 -18.223,3.655c-5.884,1.521 -11.507,3.274 -16.883,5.249c-5.368,1.982 -10.548,4.149 -15.538,6.506c-2.56,1.219 -4.985,2.453 -7.287,3.712c-2.301,1.258 -4.602,2.532 -6.904,3.822c-2.178,1.299 -4.316,2.629 -6.427,3.999c-2.111,1.369 -4.189,2.819 -6.232,4.341c-7.931,5.86 -14.769,12.104 -20.528,18.722c-1.533,1.673 -2.97,3.353 -4.311,5.025c-1.342,1.673 -2.592,3.385 -3.743,5.137c-2.175,3.273 -4.285,6.778 -6.328,10.504c-0.896,1.753 -1.696,3.537 -2.397,5.368c-0.705,1.823 -1.315,3.648 -1.824,5.479c-0.642,1.904 -1.087,3.767 -1.342,5.591c-0.258,1.832 -0.45,3.695 -0.577,5.599c-0.128,1.903 -0.095,3.782 0.095,5.646c0.197,1.871 0.482,3.751 0.864,5.655c0.51,1.824 1.152,3.671 1.919,5.534c0.769,1.872 1.661,3.672 2.685,5.424c1.023,1.751 2.238,3.48 3.648,5.192c1.404,1.721 2.938,3.37 4.602,4.97c3.576,3.202 7.543,6.093 11.89,8.681c2.303,1.29 4.699,2.525 7.191,3.711c2.498,1.179 5.086,2.262 7.769,3.25c5.113,2.054 10.676,3.766 16.689,5.135c5.628,1.45 11.509,2.59 17.644,3.425c6.141,0.916 12.281,1.602 18.422,2.055c3.066,0.231 6.163,0.422 9.301,0.574c3.13,0.151 6.227,0.231 9.302,0.231c3.066,0.071 6.165,0.111 9.301,0.111c3.131,0 6.236,-0.079 9.303,-0.23c12.527,-0.382 24.808,-1.179 36.826,-2.398c3.074,-0.383 6.139,-0.74 9.206,-1.083c3.074,-0.342 6.076,-0.701 9.014,-1.083c1.538,-0.152 3.075,-0.342 4.612,-0.574c1.529,-0.223 3.003,-0.453 4.405,-0.685c1.536,-0.151 3.042,-0.343 4.507,-0.565c1.474,-0.231 2.979,-0.462 4.507,-0.685c2.947,-0.533 5.918,-1.027 8.92,-1.489c3.003,-0.455 5.981,-0.988 8.92,-1.601c2.939,-0.526 5.885,-1.06 8.825,-1.593c2.938,-0.533 5.884,-1.107 8.822,-1.712c0.638,-0.158 1.116,-0.382 1.443,-0.684c0.318,-0.311 0.35,-0.653 0.095,-1.028c-0.772,-0.845 -1.791,-1.107 -3.074,-0.805c-2.939,0.613 -5.814,1.203 -8.625,1.777c-2.819,0.565 -5.695,1.115 -8.634,1.648c-2.947,0.613 -5.885,1.163 -8.823,1.656c-2.947,0.494 -5.885,1.012 -8.824,1.546l-9.015,1.369l-8.824,1.259c-2.946,0.374 -5.95,0.741 -9.015,1.083c-3.067,0.342 -6.078,0.7 -9.016,1.083c-2.947,0.303 -5.949,0.589 -9.015,0.852c-3.067,0.271 -6.141,0.518 -9.206,0.749c-2.948,0.222 -5.95,0.397 -9.016,0.509c-3.065,0.121 -6.14,0.248 -9.206,0.399c-3.066,0.079 -6.14,0.135 -9.207,0.174c-3.074,0.042 -6.076,0.017 -9.015,-0.055c-3.066,-0.08 -6.14,-0.191 -9.206,-0.343c-3.074,-0.159 -6.076,-0.343 -9.016,-0.572c-6.013,-0.455 -12.025,-1.14 -18.029,-2.055c-5.886,-0.917 -11.577,-2.055 -17.075,-3.425c-2.812,-0.686 -5.564,-1.449 -8.248,-2.286c-2.683,-0.835 -5.307,-1.752 -7.864,-2.74c-4.862,-1.903 -9.465,-4.148 -13.81,-6.737c-4.347,-2.588 -8.055,-5.368 -11.125,-8.33c-3.07,-3.123 -5.563,-6.356 -7.477,-9.708c-1.92,-3.274 -3.262,-6.737 -4.03,-10.386c-0.514,-3.504 -0.706,-7.08 -0.577,-10.734c0.385,-3.497 1.15,-7.041 2.303,-10.617c0.638,-1.753 1.307,-3.48 2.012,-5.2c0.7,-1.712 1.501,-3.441 2.398,-5.193c1.022,-1.752 2.046,-3.44 3.07,-5.081c1.023,-1.632 2.174,-3.289 3.451,-4.962c1.279,-1.672 2.589,-3.313 3.935,-4.913c1.343,-1.601 2.712,-3.194 4.121,-4.795c2.943,-3.193 6.105,-6.259 9.498,-9.189c3.384,-2.931 7.064,-5.727 11.026,-8.395c1.919,-1.37 3.898,-2.7 5.949,-3.99c2.043,-1.298 4.153,-2.588 6.327,-3.886c2.174,-1.29 4.38,-2.509 6.618,-3.656c2.234,-1.139 4.571,-2.238 7,-3.306c4.734,-2.206 9.657,-4.228 14.77,-6.052c2.556,-0.915 5.144,-1.768 7.773,-2.573c2.62,-0.795 5.271,-1.535 7.956,-2.22c2.81,-0.686 5.59,-1.315 8.346,-1.888c2.747,-0.574 5.591,-1.044 8.537,-1.426c6.005,-0.836 11.763,-1.258 17.258,-1.258c2.94,-0.072 5.822,0 8.633,0.232c2.811,0.229 5.567,0.533 8.251,0.914c2.684,0.455 5.303,1.005 7.86,1.657c2.556,0.645 5.049,1.466 7.479,2.454c4.611,1.823 8.696,4.108 12.28,6.848c0.382,0.383 0.796,0.741 1.241,1.083c0.455,0.342 0.868,0.709 1.252,1.083l2.301,2.174c0.765,0.837 1.465,1.633 2.111,2.399c0.636,0.756 1.273,1.56 1.919,2.396c0.509,0.685 1.346,0.948 2.492,0.796c1.539,-0.231 2.174,-0.796 1.92,-1.713c-1.281,-3.654 -3.648,-7.19 -7.096,-10.615c-1.791,-1.832 -3.775,-3.424 -5.949,-4.794c-2.173,-1.52 -4.603,-2.86 -7.286,-3.998c-2.685,-1.218 -5.568,-2.246 -8.634,-3.082c-2.812,-0.836 -5.949,-1.562 -9.397,-2.167c-5.603,-0.935 -11.302,-1.406 -17.1,-1.406c-0.821,0 -1.644,0.01 -2.468,0.029Zm-381.307,11.301c-1.152,0.342 -1.919,0.891 -2.303,1.656l-73.272,130.841l-35.865,0c-1.538,0 -2.302,0.453 -2.302,1.369c0,0.375 0.192,0.701 0.574,0.972c0.382,0.262 0.891,0.398 1.533,0.398l248.777,3.536l0.193,0c1.405,0 2.556,-0.262 3.452,-0.796c0.891,-0.534 1.341,-1.219 1.341,-2.054c0,-0.846 -0.45,-1.53 -1.341,-2.056c-0.896,-0.534 -2.047,-0.805 -3.452,-0.805l-209.071,-0.564l78.449,-129.017c0.509,-0.836 0.477,-1.601 -0.095,-2.286c-0.578,-0.684 -1.506,-1.139 -2.784,-1.37c-0.561,-0.089 -1.1,-0.133 -1.618,-0.133c-0.785,0 -1.523,0.102 -2.216,0.309Zm473.378,15.761c-0.255,0 -0.414,0.023 -0.477,0.055c-0.064,0.04 -0.16,0.056 -0.287,0.056c-0.263,0.079 -0.454,0.12 -0.581,0.12c-0.127,0 -0.255,0.039 -0.382,0.112c-0.128,0.078 -0.255,0.11 -0.382,0.11c-0.129,0 -0.192,0.04 -0.192,0.12l-0.764,0.454c-0.263,0.151 -0.455,0.23 -0.581,0.23l-0.575,0.566l-0.573,0.461l-0.956,1.028l-1.345,1.713c-1.027,1.219 -1.919,2.412 -2.685,3.592c-0.772,1.186 -1.536,2.341 -2.301,3.488c-0.262,0.604 -0.582,1.218 -0.963,1.822c-0.382,0.615 -0.765,1.221 -1.147,1.825l-2.111,3.544l-1.919,3.536l-1.919,3.544c-0.51,0.837 -0.955,1.673 -1.338,2.51c-0.39,0.835 -0.837,1.671 -1.346,2.516l-17.648,1.592c-1.274,0.151 -1.792,0.573 -1.539,1.259c0.129,0.685 0.837,1.027 2.121,1.027l15.528,-1.259l-3.257,4.229l-9.887,12.731c-0.331,0.112 -0.616,0.282 -0.856,0.513c-0.893,1.068 -1.793,2.071 -2.683,3.027c-0.901,0.947 -1.856,1.959 -2.883,3.018c-1.792,1.753 -3.903,3.616 -6.324,5.599c-1.154,0.915 -2.374,1.792 -3.648,2.627c-1.282,0.837 -2.62,1.594 -4.03,2.279c-1.528,0.915 -2.938,1.561 -4.221,1.943c-1.792,0.684 -3.385,1.068 -4.793,1.139c-0.511,0.08 -1.275,0.119 -2.302,0.119l-2.111,-0.343c-1.019,-0.381 -2.109,-1.026 -3.257,-1.943c-0.645,-0.533 -1.155,-1.066 -1.537,-1.6c0.255,-0.454 0.51,-0.892 0.773,-1.315c0.254,-0.413 0.509,-0.891 0.764,-1.425l1.148,-3.082c0.254,-0.534 0.445,-1.043 0.58,-1.537c0.12,-0.494 0.254,-1.051 0.383,-1.656c0.127,-0.533 0.191,-1.067 0.191,-1.601l0,-1.601c0,-1.059 -0.191,-2.237 -0.574,-3.536c-0.135,-0.533 -0.517,-1.139 -1.154,-1.824c-0.382,-0.533 -1.028,-1.146 -1.921,-1.832l-0.764,-0.223l0.574,-0.803c0.255,-0.606 0.127,-1.155 -0.382,-1.657c-0.51,-0.493 -1.283,-0.814 -2.303,-0.972l-0.382,-0.111l-0.572,0c-0.263,-0.072 -0.582,-0.113 -0.963,-0.113c-0.893,0 -1.602,0.041 -2.111,0.113c-1.02,0.079 -2.111,0.269 -3.257,0.573c-1.92,0.533 -3.585,1.218 -4.986,2.055c-1.411,0.836 -2.693,1.657 -3.839,2.452c-1.155,0.797 -2.238,1.657 -3.266,2.573l-2.875,2.62c-0.509,0.462 -0.956,0.916 -1.338,1.37c-0.389,0.462 -0.772,0.916 -1.153,1.369c-1.793,1.904 -3.322,3.775 -4.604,5.6c-0.637,0.915 -1.243,1.847 -1.824,2.796c-0.574,0.954 -1.178,1.958 -1.824,3.025c-0.638,0.988 -1.146,1.959 -1.528,2.915c-0.383,0.948 -0.773,1.958 -1.155,3.026c-0.256,0.526 -0.415,1.043 -0.478,1.537c-0.064,0.494 -0.16,1.051 -0.287,1.657c-0.127,0.534 -0.223,1.043 -0.286,1.536c-0.064,0.502 -0.032,1.052 0.095,1.658c0,1.218 0.255,2.285 0.764,3.202l1.155,1.711l2.111,1.481c0.892,0.383 1.855,0.686 2.874,0.916c0.893,0.232 1.856,0.343 2.876,0.343l1.537,0c0.764,0 1.282,-0.04 1.537,-0.111c1.274,-0.161 2.238,-0.311 2.875,-0.462c2.047,-0.534 3.639,-1.1 4.794,-1.713c0.765,-0.382 1.465,-0.757 2.11,-1.139c0.637,-0.382 1.274,-0.765 1.92,-1.147c2.428,-1.672 4.475,-3.345 6.133,-5.018c1.79,-1.751 3.392,-3.614 4.801,-5.597l1.912,-2.629c0.773,0.613 1.409,1.028 1.919,1.259c0.892,0.382 1.919,0.764 3.074,1.138c1.02,0.31 2.166,0.462 3.449,0.462c0.637,0.071 1.25,0.096 1.823,0.056c0.573,-0.04 1.115,-0.096 1.634,-0.175c1.019,-0.072 2.109,-0.262 3.257,-0.566c0.508,-0.151 0.986,-0.302 1.44,-0.462c0.446,-0.151 0.861,-0.302 1.243,-0.453c0.892,-0.303 1.729,-0.685 2.492,-1.14c0.511,-0.151 0.964,-0.341 1.346,-0.574c0.382,-0.229 0.765,-0.413 1.148,-0.572c0.645,-0.374 1.313,-0.797 2.014,-1.25c0.7,-0.462 1.378,-0.917 2.016,-1.37c1.535,-0.916 2.81,-1.833 3.838,-2.74c2.43,-1.983 4.666,-3.887 6.714,-5.71l5.949,-6.053c0.276,-0.328 0.384,-0.621 0.325,-0.881c0.403,-0.414 0.837,-0.824 1.3,-1.229c0.836,-0.724 1.568,-1.465 2.205,-2.23c-1.147,2.438 -2.205,4.834 -3.161,7.191c-0.956,2.366 -1.952,4.723 -2.979,7.08c-1.02,2.438 -1.975,4.891 -2.866,7.367c-0.893,2.476 -1.793,4.93 -2.693,7.367c-1.792,4.945 -3.32,9.852 -4.603,14.726c-0.255,1.289 -0.51,2.549 -0.765,3.766c-0.254,1.218 -0.51,2.469 -0.773,3.767c0,0.606 -0.023,1.235 -0.095,1.887c-0.063,0.645 -0.095,1.315 -0.095,2l0,1.879c0,0.645 0.127,1.315 0.382,2c0.136,0.382 0.263,0.723 0.391,1.027c0.127,0.302 0.317,0.645 0.572,1.027l1.148,1.026l1.153,0.455c0.256,0.151 0.638,0.231 1.148,0.231l2.109,0l1.737,-0.343c1.275,-0.231 2.294,-0.533 3.059,-0.915c1.665,-0.686 3.393,-1.562 5.184,-2.62c0.766,-0.383 1.498,-0.821 2.206,-1.315c0.701,-0.501 1.37,-0.971 2.016,-1.425c1.401,-0.995 2.715,-1.983 3.934,-2.971c1.21,-0.995 2.453,-2.023 3.735,-3.081l6.904,-6.395c4.349,-4.19 8.57,-8.522 12.664,-13.015l5.94,-6.514l3.532,-4.127c-0.343,0.822 -0.661,1.647 -0.951,2.478c-0.701,2.016 -1.306,4.055 -1.817,6.11c-0.254,1.067 -0.485,2.094 -0.677,3.081c-0.191,0.988 -0.413,2.015 -0.668,3.083c-0.127,2.054 -0.127,4.148 0,6.275c0.127,0.533 0.223,1.051 0.287,1.545c0.063,0.494 0.223,1.043 0.477,1.656l0.773,1.593l1.146,1.601c0.264,0.23 0.55,0.478 0.868,0.741c0.319,0.271 0.671,0.518 1.051,0.74c0.255,0.231 0.606,0.438 1.053,0.629c0.453,0.192 0.931,0.359 1.44,0.519c1.029,0.374 2.047,0.605 3.067,0.684l3.074,0c1.027,-0.079 1.983,-0.215 2.875,-0.398c0.893,-0.191 1.793,-0.406 2.684,-0.629c0.772,-0.232 1.568,-0.462 2.397,-0.684c0.837,-0.233 1.569,-0.535 2.206,-0.917c1.537,-0.613 2.939,-1.235 4.221,-1.888c1.274,-0.645 2.556,-1.345 3.839,-2.11c1.274,-0.685 2.524,-1.402 3.735,-2.166c1.218,-0.765 2.406,-1.522 3.552,-2.285l6.523,-4.795c2.174,-1.6 4.22,-3.217 6.139,-4.85c1.911,-1.641 3.831,-3.329 5.75,-5.081c1.919,-1.673 3.807,-3.369 5.663,-5.081c1.847,-1.713 3.672,-3.441 5.463,-5.193l2.684,-2.517c0.51,-0.453 0.963,-0.915 1.346,-1.369c0.382,-0.454 0.828,-0.877 1.338,-1.259l5.185,-5.36c0.255,-0.301 0.318,-0.628 0.19,-0.971c-0.127,-0.342 -0.518,-0.589 -1.154,-0.741c-0.51,-0.151 -1.052,-0.19 -1.625,-0.12c-0.58,0.081 -0.996,0.311 -1.25,0.686l-2.492,2.628l-2.303,2.628l-2.684,2.62l-2.492,2.629c-1.791,1.751 -3.584,3.464 -5.376,5.137c-1.792,1.681 -3.639,3.352 -5.559,5.025c-1.919,1.752 -3.839,3.425 -5.758,5.026c-1.919,1.6 -3.965,3.193 -6.132,4.793l-6.331,4.683l-6.906,4.34c-1.282,0.685 -2.523,1.33 -3.741,1.935c-1.219,0.614 -2.526,1.179 -3.935,1.712c-0.638,0.303 -1.338,0.575 -2.111,0.805c-0.765,0.223 -1.465,0.415 -2.102,0.566c-0.645,0.151 -1.346,0.301 -2.111,0.461c-0.772,0.151 -1.472,0.224 -2.11,0.224c-0.255,0.078 -0.646,0.12 -1.155,0.12l-0.191,0l-0.191,-0.12l-0.574,0c-0.637,0 -1.218,-0.112 -1.729,-0.343c-1.153,-0.382 -1.983,-0.948 -2.491,-1.713c-0.766,-0.836 -1.218,-1.672 -1.346,-2.507c-0.383,-0.917 -0.575,-1.865 -0.575,-2.851c-0.127,-1.753 0,-3.696 0.383,-5.83c0.264,-0.988 0.517,-1.96 0.772,-2.907c0.256,-0.956 0.511,-1.921 0.766,-2.916l2.301,-5.82l1.146,-2.167c0,0.382 0.04,0.756 0.096,1.138c0.072,0.384 0.096,0.765 0.096,1.14c0.136,0.231 0.231,0.477 0.295,0.748c0.063,0.264 0.223,0.549 0.478,0.853c0.127,0.301 0.317,0.589 0.573,0.859c0.255,0.263 0.51,0.55 0.764,0.853l1.155,0.684c0.255,0.151 0.51,0.272 0.765,0.343c0.263,0.08 0.518,0.151 0.772,0.231l1.721,0.343l1.727,0c0.638,-0.08 1.179,-0.151 1.633,-0.232c0.446,-0.07 0.924,-0.191 1.434,-0.342c1.027,-0.223 1.856,-0.494 2.501,-0.796c1.401,-0.613 2.811,-1.371 4.212,-2.286c0.645,-0.383 1.219,-0.781 1.728,-1.195c0.511,-0.422 1.021,-0.86 1.538,-1.313c1.919,-1.673 3.575,-3.577 4.985,-5.711l0.574,-0.685l0.382,-0.796l0.963,-1.37c0.256,-0.534 0.511,-1.028 0.765,-1.49c0.255,-0.453 0.509,-0.947 0.773,-1.481c0.636,-1.066 1.147,-2.071 1.529,-3.026c0.382,-0.947 0.772,-1.959 1.154,-3.026c0.255,-0.533 0.415,-1.044 0.479,-1.545c0.063,-0.494 0.158,-1.043 0.286,-1.649c0.127,-0.533 0.222,-1.067 0.287,-1.601c0.063,-0.533 0.095,-1.106 0.095,-1.712c0,-0.764 -0.063,-1.33 -0.191,-1.712c-0.127,-0.304 -0.223,-0.614 -0.287,-0.915c-0.063,-0.303 -0.222,-0.646 -0.477,-1.028c-0.263,-0.383 -0.478,-0.725 -0.669,-1.028c-0.199,-0.302 -0.614,-0.644 -1.25,-1.028c-0.511,-0.381 -1.092,-0.684 -1.729,-0.914c-0.254,-0.152 -0.605,-0.264 -1.052,-0.343c-0.453,-0.073 -0.868,-0.151 -1.249,-0.224l-1.147,-0.231l-1.155,0c-0.256,0 -0.574,0.017 -0.956,0.056c-0.382,0.04 -0.708,0.056 -0.963,0.056c-1.53,0.231 -2.685,0.503 -3.449,0.805c-0.518,0.151 -0.995,0.318 -1.442,0.51c-0.445,0.19 -0.86,0.397 -1.241,0.628l-2.111,1.139l-3.648,2.629c-1.147,0.915 -2.11,1.831 -2.875,2.739c-0.517,0.462 -0.995,0.917 -1.441,1.369c-0.447,0.462 -0.86,0.917 -1.243,1.371l-2.301,2.859c-1.268,1.712 -2.432,3.436 -3.488,5.179c-1.004,1.054 -1.923,2.138 -2.741,3.271c-0.836,1.139 -1.758,2.277 -2.778,3.424l-5.759,6.619l-5.94,6.625c-2.047,2.206 -4.093,4.373 -6.141,6.507c-2.046,2.125 -4.22,4.261 -6.522,6.395c-1.028,1.059 -2.111,2.086 -3.258,3.081c-1.154,0.988 -2.302,2.016 -3.457,3.084c-2.556,2.125 -5.113,4.108 -7.669,5.932c-0.645,0.463 -1.313,0.915 -2.014,1.37c-0.71,0.462 -1.442,0.876 -2.206,1.258c-1.411,0.987 -2.939,1.753 -4.604,2.286c-0.509,0.223 -1.275,0.493 -2.301,0.796c-0.39,0.072 -0.837,0.111 -1.346,0.111c-0.255,0.08 -0.573,0.119 -0.956,0.119l-0.581,-0.23c-0.255,-0.151 -0.382,-0.303 -0.382,-0.454c-0.255,-0.311 -0.51,-0.844 -0.766,-1.6c-0.381,-1.068 -0.445,-2.247 -0.19,-3.536c0,-0.613 0.032,-1.219 0.095,-1.832c0.064,-0.606 0.161,-1.219 0.288,-1.824c0.382,-2.437 0.955,-4.874 1.728,-7.311l2.302,-7.303l2.874,-7.311c1.027,-2.437 2.047,-4.85 3.074,-7.246c1.02,-2.398 2.11,-4.811 3.258,-7.248l3.456,-7.08c0.637,-1.218 1.243,-2.421 1.815,-3.6c0.582,-1.178 1.187,-2.374 1.824,-3.591l7.479,-14.272c0.254,-0.614 0.509,-1.067 0.772,-1.37l176.075,-14.16c1.028,-0.151 1.856,-0.478 2.493,-0.972c0.645,-0.493 0.901,-1.042 0.773,-1.656c-0.262,-0.606 -0.805,-1.123 -1.632,-1.537c-0.836,-0.422 -1.761,-0.558 -2.78,-0.406l-124.216,11.396l44.608,-13.906l0.191,-0.11c0.765,-0.303 1.306,-0.804 1.625,-1.49c0.318,-0.684 0.294,-1.369 -0.095,-2.054c-0.255,-0.605 -0.798,-1.06 -1.626,-1.371c-0.836,-0.301 -1.631,-0.262 -2.397,0.121l-46.804,18.262c-0.329,0.197 -0.516,0.536 -0.561,1.011l-43.735,4.014l3.64,-4.111c1.92,-2.206 3.776,-4.451 5.566,-6.737c1.785,-2.277 3.577,-4.563 5.368,-6.849l2.303,-3.537l1.154,-1.941c0.51,-0.686 0.829,-1.331 0.956,-1.945c0.255,-0.453 0.382,-0.796 0.382,-1.027c0.127,-0.151 0.191,-0.342 0.191,-0.565c0,-0.159 0.032,-0.286 0.095,-0.406c0.064,-0.112 0.095,-0.247 0.095,-0.398c0,-0.223 -0.063,-0.382 -0.19,-0.455c0,-0.302 -0.064,-0.533 -0.191,-0.684l-0.382,-0.462c0,-0.153 -0.191,-0.303 -0.574,-0.454c-0.263,-0.232 -0.582,-0.415 -0.964,-0.574l-1.146,-0.342c-0.262,-0.072 -0.645,-0.111 -1.155,-0.111l-0.574,0Zm21.28,74.327c-0.637,-0.152 -1.018,-0.343 -1.146,-0.572c-0.51,-0.455 -0.828,-0.798 -0.965,-1.028c-0.382,-0.454 -0.572,-0.877 -0.572,-1.259c-0.255,-0.454 -0.383,-0.924 -0.383,-1.425l0,-1.426c0.255,-2.125 0.7,-4.069 1.339,-5.821l1.154,-2.971l0.382,-0.797l0.964,-1.37l2.11,-2.628c0.765,-0.915 1.53,-1.784 2.301,-2.628c0.765,-0.835 1.593,-1.671 2.493,-2.508c0.382,-0.383 0.797,-0.78 1.243,-1.202c0.445,-0.415 0.924,-0.812 1.441,-1.196c0.51,-0.382 0.988,-0.74 1.434,-1.082c0.454,-0.344 0.932,-0.67 1.442,-0.972l1.537,-0.805c0.255,-0.151 0.509,-0.262 0.764,-0.342c0.255,-0.071 0.511,-0.183 0.764,-0.343l1.347,-0.343l0.764,0c0.127,0 0.192,0.041 0.192,0.121c0.253,0.151 0.453,0.341 0.581,0.565l0.382,1.026c0.127,0.311 0.19,0.727 0.19,1.26l0,2.858l-0.572,2.851c-0.128,0.455 -0.231,0.933 -0.287,1.427c-0.072,0.494 -0.231,0.971 -0.486,1.425c-0.127,0.534 -0.255,1.027 -0.382,1.489c-0.129,0.455 -0.319,0.947 -0.574,1.482l-1.155,2.858l-0.573,1.482l-0.383,0.685l-0.381,0.686c-0.517,0.914 -1.059,1.807 -1.633,2.682c-0.573,0.876 -1.314,1.728 -2.206,2.565c-0.382,0.382 -0.796,0.78 -1.243,1.203c-0.453,0.421 -0.931,0.82 -1.441,1.194c-1.028,0.684 -2.11,1.338 -3.258,1.944l-1.727,0.684l-1.919,0.343c-0.765,0 -1.282,-0.039 -1.538,-0.112Zm-130.226,11.19c-0.773,-0.383 -1.474,-1.028 -2.111,-1.944c-0.382,-0.915 -0.574,-1.824 -0.574,-2.74c0,-1.975 0.384,-3.877 1.147,-5.709c0.256,-0.988 0.645,-1.96 1.156,-2.907c0.509,-0.956 1.019,-1.889 1.528,-2.803c0.645,-0.988 1.282,-1.936 1.919,-2.852c0.647,-0.916 1.282,-1.784 1.92,-2.628c0.764,-0.908 1.536,-1.808 2.302,-2.683c0.764,-0.869 1.6,-1.728 2.493,-2.565c0.38,-0.462 0.803,-0.892 1.25,-1.313c0.446,-0.416 0.923,-0.822 1.433,-1.204l2.883,-2.396c0.503,-0.374 1.019,-0.741 1.529,-1.084c0.509,-0.343 1.027,-0.701 1.537,-1.083c0.638,-0.382 1.21,-0.724 1.728,-1.028c0.511,-0.302 1.084,-0.573 1.72,-0.796c1.155,-0.613 2.366,-1.027 3.648,-1.257c0.764,-0.152 1.211,-0.232 1.347,-0.232c0,0.08 -0.041,0.151 -0.097,0.232c-0.071,0.078 -0.095,0.15 -0.095,0.23l-0.199,0.222c-0.255,1.219 -0.511,2.422 -0.765,3.6c-0.255,1.179 -0.383,2.413 -0.383,3.712c-0.127,0.605 -0.158,1.194 -0.095,1.768c0.064,0.573 0.095,1.162 0.095,1.768c0.128,0.613 0.224,1.218 0.287,1.832c0.063,0.605 0.223,1.218 0.479,1.824c0.255,0.612 0.477,1.218 0.676,1.822c0.192,0.614 0.479,1.22 0.861,1.833l0,0.223c-0.382,0.844 -0.805,1.68 -1.25,2.517c-0.448,0.836 -0.988,1.673 -1.625,2.508c-1.156,1.904 -2.564,3.655 -4.222,5.256c-0.382,0.455 -0.804,0.892 -1.25,1.306c-0.446,0.423 -0.86,0.821 -1.242,1.203c-0.518,0.382 -0.996,0.764 -1.441,1.139c-0.446,0.382 -0.988,0.764 -1.633,1.148c-1.019,0.835 -2.174,1.52 -3.449,2.053c-1.019,0.534 -2.301,0.988 -3.838,1.37c-0.637,0.223 -1.338,0.342 -2.111,0.342c-0.127,0.072 -0.445,0.112 -0.956,0.112l-0.963,0c-1.275,0 -2.493,-0.263 -3.639,-0.796Zm49.869,-76.271l-0.191,0l-31.075,14.844c-0.9,0.383 -1.091,0.837 -0.573,1.369c0.765,0.686 1.592,0.837 2.492,0.455l30.878,-10.615l12.662,8.56c0.637,0.534 1.401,0.654 2.301,0.343c1.02,-0.454 1.275,-0.947 0.765,-1.481l-10.735,-12.671l-0.583,-0.462c-0.636,-0.605 -1.559,-0.931 -2.779,-0.971c-0.082,-0.003 -0.163,-0.004 -0.243,-0.004c-1.116,0 -2.086,0.21 -2.919,0.633Zm-357.625,3.997c-0.832,0.383 -1.379,0.877 -1.633,1.482l-2.302,6.283c-0.382,1.067 0.318,1.792 2.111,2.167c0.768,0.159 1.564,0.119 2.396,-0.112c0.834,-0.231 1.374,-0.574 1.634,-1.027l3.452,-6.165l0.191,-0.229c0.382,-1.443 -0.641,-2.359 -3.071,-2.741c-0.294,-0.043 -0.579,-0.065 -0.858,-0.065c-0.689,0 -1.331,0.134 -1.92,0.407Zm120.933,24.888l-0.575,0.231c-0.127,0 -0.322,0.08 -0.577,0.231c-0.254,0.071 -0.478,0.128 -0.668,0.168c-0.192,0.039 -0.418,0.134 -0.674,0.285c-0.513,0.152 -1.277,0.455 -2.301,0.917c-1.41,0.605 -2.751,1.37 -4.026,2.277c-1.151,0.613 -2.369,1.41 -3.648,2.397c-0.64,0.383 -1.213,0.789 -1.724,1.203c-0.514,0.423 -1.027,0.86 -1.533,1.313c-0.513,0.384 -1.027,0.797 -1.537,1.26c-0.513,0.454 -0.959,0.875 -1.342,1.25c-0.509,0.462 -0.988,0.915 -1.438,1.369c-0.125,0.13 -0.247,0.26 -0.368,0.388c-0.108,0.087 -0.209,0.186 -0.304,0.298c-0.249,0.283 -0.497,0.566 -0.746,0.847c-0.834,0.793 -1.638,1.609 -2.419,2.465c-0.829,0.916 -1.629,1.825 -2.398,2.74c-0.054,0.074 -0.109,0.147 -0.164,0.22c-1.186,1.25 -2.411,2.51 -3.671,3.778c-1.664,1.824 -3.261,3.464 -4.794,4.906l-5.181,4.914c-0.895,0.836 -1.759,1.632 -2.587,2.396c-0.833,0.758 -1.761,1.561 -2.781,2.398l-2.687,2.166l-3.07,2.173l-1.725,0.798l-0.577,0.342l-0.191,0l0,-0.112c0,-0.079 -0.032,-0.135 -0.095,-0.174c-0.064,-0.041 -0.096,-0.127 -0.096,-0.287c-0.128,-0.151 -0.191,-0.342 -0.191,-0.567c-0.259,-0.46 -0.382,-0.914 -0.382,-1.369l0,-1.37c-0.131,-0.462 -0.163,-0.914 -0.095,-1.369c0.059,-0.462 0.095,-0.917 0.095,-1.37c0.123,-1.982 0.287,-3.903 0.477,-5.766c0.192,-1.871 0.415,-3.79 0.673,-5.766c0.124,-0.996 0.22,-1.959 0.287,-2.915c0.064,-0.947 0.028,-1.959 -0.095,-3.026c0,-0.453 -0.033,-0.931 -0.097,-1.425c-0.067,-0.494 -0.163,-1.044 -0.29,-1.657l-0.763,-1.712c-0.26,-0.455 -0.578,-0.798 -0.961,-1.027c-0.26,-0.231 -0.578,-0.415 -0.96,-0.574c-0.513,-0.223 -1.023,-0.414 -1.533,-0.566l-0.386,0l-0.382,-0.12l-0.383,0c-0.386,0 -0.641,0.042 -0.768,0.12l-0.382,0c-0.259,0 -0.386,0.041 -0.386,0.112l-0.192,0c-0.127,0 -0.258,0.04 -0.383,0.111l-1.532,0.462c-0.387,0.151 -0.769,0.304 -1.15,0.455c-0.387,0.151 -0.705,0.302 -0.961,0.453l-3.838,2.055c-1.278,0.685 -2.462,1.37 -3.547,2.055c-1.089,0.684 -2.206,1.409 -3.358,2.174c-2.175,1.442 -4.316,2.89 -6.422,4.34c-2.111,1.442 -4.254,2.891 -6.429,4.333l-12.276,9.023c-1.023,0.764 -2.014,1.505 -2.974,2.221c-0.956,0.725 -1.946,1.506 -2.97,2.343l-4.604,3.543l1.916,-2.628l10.934,-16.096l14.579,-21.351c0.127,0 0.19,-0.039 0.19,-0.119c0.637,-1.442 -0.19,-2.428 -2.491,-2.962c-1.025,-0.152 -2.016,-0.096 -2.976,0.167c-0.959,0.27 -1.565,0.708 -1.819,1.314c-2.043,3.649 -4.118,7.274 -6.225,10.884c-2.785,2.436 -5.568,4.841 -8.353,7.21c-3.712,3.162 -7.419,6.34 -11.126,9.532l-5.755,4.684l-5.944,4.683l-5.755,4.682l-6.14,4.451c-0.508,0.384 -1.023,0.742 -1.533,1.084c-0.509,0.343 -1.023,0.709 -1.536,1.083l-0.574,0.343l-0.192,-0.111c-0.127,-0.152 -0.19,-0.327 -0.19,-0.518c0,-0.183 -0.064,-0.359 -0.195,-0.51c-0.123,-0.303 -0.192,-0.765 -0.192,-1.371l0,-1.369c0,-0.462 0.069,-0.915 0.192,-1.37c0.131,-0.915 0.322,-1.848 0.577,-2.795c0.258,-0.956 0.513,-1.926 0.768,-2.914c0.256,-0.917 0.546,-1.849 0.861,-2.796c0.322,-0.956 0.672,-1.888 1.056,-2.795l2.301,-5.6l2.687,-5.59c0.382,-0.996 0.797,-1.943 1.247,-2.859c0.446,-0.907 0.924,-1.824 1.437,-2.739l1.534,-2.74l1.536,-2.74c0,-0.071 0.064,-0.151 0.191,-0.231c0.255,-0.604 0.095,-1.178 -0.481,-1.713c-0.574,-0.525 -1.375,-0.868 -2.398,-1.026c-1.023,-0.152 -1.983,-0.056 -2.875,0.287c-0.892,0.343 -1.47,0.82 -1.728,1.425l-1.15,2.859l-1.151,2.852l-2.111,5.71l-2.106,5.71l-1.729,5.821c-0.637,1.975 -1.178,3.918 -1.628,5.822c-0.45,1.903 -0.8,3.846 -1.055,5.822c0,0.534 -0.032,1.05 -0.095,1.544c-0.064,0.494 -0.032,1.004 0.095,1.537c0,0.686 0.064,1.219 0.191,1.6l0.382,0.798l0.577,0.917c0.255,0.151 0.45,0.301 0.574,0.452c0.131,0.151 0.387,0.304 0.769,0.462c0.127,0.152 0.45,0.303 0.958,0.455c0.256,0.071 0.643,0.11 1.151,0.11l1.152,0l0,-0.11l0.382,0l0.191,-0.112l0.386,-0.231c0.128,0 0.255,-0.041 0.382,-0.112l0.961,-0.573l1.724,-1.139l1.536,-1.146l5.946,-4.684l5.945,-4.675l5.754,-4.794l5.755,-4.682l12.275,-10.194c-0.636,1.074 -1.274,2.149 -1.915,3.225c-1.024,1.831 -2.11,3.64 -3.262,5.424c-1.151,1.791 -2.301,3.599 -3.452,5.424l-3.452,5.366l-3.648,5.368c-0.637,0.837 -1.246,1.712 -1.819,2.629c-0.577,0.908 -1.183,1.783 -1.824,2.62l-1.151,1.369l-0.768,0.684l-1.533,1.26c0,0.071 -0.028,0.135 -0.097,0.167c-0.063,0.04 -0.095,0.095 -0.095,0.176l-0.382,0.23l0,0.223c-0.127,0 -0.195,0.04 -0.195,0.119l0,0.224c0,0.079 -0.029,0.174 -0.096,0.286c-0.06,0.12 0.036,0.358 0.291,0.742c0.509,0.381 1.024,0.557 1.533,0.516c0.515,-0.039 0.832,-0.054 0.96,-0.054c0.127,0 0.222,-0.025 0.287,-0.056c0.068,-0.04 0.163,-0.065 0.285,-0.065l0.193,-0.112l0.194,0c0,-0.078 0.031,-0.11 0.096,-0.11c0.064,0 0.096,-0.041 0.096,-0.119c0.382,-0.073 0.64,-0.223 0.768,-0.455c0.255,-0.302 0.509,-0.533 0.764,-0.685l0.579,-0.684l1.34,-1.37l2.685,-2.167c1.027,-0.764 2.015,-1.506 2.973,-2.23c0.961,-0.724 1.953,-1.505 2.972,-2.34c4.098,-2.972 8.219,-5.894 12.371,-8.793c4.157,-2.892 8.411,-5.782 12.759,-8.673c4.218,-2.819 8.565,-5.631 13.041,-8.45l3.261,-2.055l3.454,-1.942l3.451,-1.824l0.96,-0.462c0.128,0.078 0.191,0.158 0.191,0.23c0,0.081 0.063,0.191 0.19,0.343c0,0.151 0.033,0.342 0.097,0.573c0.063,0.223 0.095,0.454 0.095,0.685c0.127,0.303 0.195,0.757 0.195,1.37c0.124,0.455 0.191,0.907 0.191,1.369l0,4.222c0,0.995 -0.035,1.958 -0.095,2.914c-0.067,0.949 -0.096,1.92 -0.096,2.908l0,5.71c0,0.533 0.029,1.051 0.096,1.545c0.06,0.494 0.095,0.971 0.095,1.426c0.124,0.533 0.193,1.042 0.193,1.536c0,0.501 0.127,1.012 0.381,1.545l0.387,0.797c0.122,0.159 0.19,0.31 0.19,0.463c0,0.15 0.124,0.301 0.382,0.452c0.255,0.304 0.638,0.614 1.151,0.917c0.255,0.151 0.637,0.302 1.152,0.453c0.382,0.08 0.891,0.112 1.532,0.112c0.256,0 0.643,-0.071 1.151,-0.222c0.255,0 0.509,-0.081 0.769,-0.233l1.342,-0.453c0.254,-0.151 0.577,-0.326 0.959,-0.518c0.386,-0.191 0.701,-0.398 0.96,-0.629c1.15,-0.684 2.233,-1.441 3.262,-2.278l2.875,-2.397c1.023,-0.837 1.951,-1.64 2.782,-2.397c0.828,-0.765 1.693,-1.561 2.589,-2.405c0.538,-0.504 1.071,-1.006 1.6,-1.507c-0.623,1.252 -1.22,2.497 -1.791,3.737c-0.897,1.944 -1.66,3.941 -2.302,5.996c-0.255,0.535 -0.414,1.044 -0.482,1.538c-0.06,0.493 -0.16,1.011 -0.287,1.546c-0.127,0.533 -0.223,1.041 -0.286,1.535c-0.064,0.503 -0.096,1.012 -0.096,1.545l0.382,1.712c0,0.606 0.192,1.179 0.577,1.712c0.128,0.153 0.223,0.288 0.289,0.399c0.063,0.112 0.222,0.248 0.477,0.399c0.131,0.311 0.513,0.574 1.15,0.803l1.537,0.686c0.382,0.072 1.024,0.112 1.915,0.112l0.769,0c0.382,0 0.705,-0.04 0.96,-0.112l1.533,-0.343c1.028,-0.31 1.792,-0.613 2.301,-0.915c0.768,-0.382 1.438,-0.764 2.016,-1.139c0.572,-0.383 1.182,-0.765 1.824,-1.147c1.15,-0.836 2.206,-1.672 3.162,-2.508c0.958,-0.837 1.951,-1.713 2.973,-2.629l2.685,-2.627l2.496,-2.622l2.302,-2.739c0.509,-0.381 0.955,-0.803 1.342,-1.258c0.383,-0.454 0.763,-0.916 1.15,-1.37l1.724,-1.942c0,0.23 -0.032,0.452 -0.095,0.684c-0.064,0.231 -0.095,0.454 -0.095,0.685l0,2.915c0,0.947 0.063,1.919 0.19,2.906c0.128,0.535 0.191,1.028 0.191,1.49c0,0.453 0.128,0.947 0.387,1.481c0.123,0.232 0.19,0.478 0.19,0.741c0,0.271 0.129,0.557 0.383,0.86c0,0.071 0.128,0.343 0.387,0.796c0.123,0.151 0.254,0.303 0.381,0.454c0.128,0.159 0.319,0.311 0.578,0.462c0.125,0.224 0.383,0.382 0.765,0.454c0.637,0.15 1.213,0.175 1.727,0.055c0.511,-0.11 0.892,-0.357 1.152,-0.74l3.452,-4.11c0.637,-0.684 1.274,-1.369 1.916,-2.053c0.64,-0.685 1.278,-1.371 1.919,-2.055c1.278,-1.37 2.523,-2.741 3.739,-4.11c1.215,-1.37 2.524,-2.7 3.934,-3.998c1.406,-1.369 2.779,-2.724 4.125,-4.053c1.342,-1.331 2.712,-2.645 4.122,-3.934c1.406,-1.379 2.783,-2.724 4.125,-4.055c1.343,-1.337 2.716,-2.643 4.121,-3.942c0.256,-0.302 0.351,-0.628 0.291,-0.971c-0.067,-0.342 -0.355,-0.589 -0.863,-0.741c-0.515,-0.151 -1.056,-0.207 -1.634,-0.176c-0.572,0.041 -0.991,0.216 -1.245,0.519l-8.439,7.987l-8.247,7.997c-1.409,1.369 -2.751,2.739 -4.029,4.109c-1.279,1.37 -2.561,2.739 -3.835,4.11c-0.64,0.684 -1.282,1.369 -1.919,2.053c-0.642,0.686 -1.279,1.37 -1.92,2.055l-0.765,0.917l0,-1.712c0,-0.917 0.029,-1.824 0.097,-2.741c0.064,-0.915 0.159,-1.822 0.287,-2.739c0.127,-0.988 0.255,-1.943 0.381,-2.86c0.127,-0.907 0.319,-1.823 0.577,-2.739l0.575,-2.851l0.576,-2.739c0.255,-0.987 -0.382,-1.673 -1.919,-2.055c-2.046,-0.533 -3.516,-0.192 -4.412,1.027l0,0.112c-0.254,0.31 -0.51,0.764 -0.764,1.369l-0.959,1.489c-0.26,0.455 -0.546,0.908 -0.866,1.371c-0.318,0.453 -0.608,0.908 -0.863,1.369c-0.64,0.988 -1.246,1.935 -1.82,2.851c-0.576,0.917 -1.186,1.824 -1.824,2.74l-2.11,2.74l-2.11,2.739l-2.301,2.629l-2.495,2.628c-0.382,0.453 -0.795,0.891 -1.245,1.313c-0.446,0.415 -0.928,0.812 -1.438,1.195l-2.878,2.398c-0.511,0.381 -1.019,0.741 -1.534,1.082c-0.509,0.343 -1.087,0.669 -1.728,0.972l-1.724,0.685c-0.255,0.08 -0.445,0.119 -0.578,0.119c-0.123,0 -0.254,0.033 -0.382,0.111l-0.769,0c-0.382,0 -0.572,-0.039 -0.572,-0.111c-0.255,0 -0.447,-0.039 -0.578,-0.119c-0.256,-0.152 -0.574,-0.454 -0.96,-0.908c-0.255,-0.462 -0.383,-0.875 -0.383,-1.258c-0.123,-0.303 -0.19,-0.765 -0.19,-1.371c0,-0.461 0.032,-0.93 0.095,-1.425c0.068,-0.494 0.164,-0.971 0.287,-1.433c0.132,-0.526 0.227,-1.027 0.291,-1.482c0.064,-0.452 0.222,-0.946 0.477,-1.481c0.514,-1.752 1.279,-3.655 2.302,-5.711l1.532,-2.858l1.729,-2.851c0.642,-0.916 1.279,-1.823 1.92,-2.739c0.641,-0.916 1.279,-1.824 1.915,-2.74c0.641,-0.916 1.342,-1.824 2.11,-2.74c0.769,-0.916 1.534,-1.792 2.301,-2.628c0.897,-0.837 1.729,-1.689 2.495,-2.565c0.767,-0.875 1.659,-1.736 2.686,-2.572l2.684,-2.397l3.071,-2.286c2.169,-1.672 4.412,-3.082 6.713,-4.221c0.637,-0.303 1.247,-0.59 1.819,-0.86c0.579,-0.263 1.184,-0.509 1.824,-0.74l1.92,-0.685l0.956,-0.343c0.255,0 0.45,-0.04 0.578,-0.112l0.381,-0.119c0.256,0 0.387,-0.032 0.387,-0.112c1.019,-0.302 1.691,-0.739 2.011,-1.314c0.318,-0.564 0.223,-1.153 -0.288,-1.768c-0.64,-0.533 -1.437,-0.891 -2.396,-1.083c-0.371,-0.074 -0.748,-0.111 -1.129,-0.111c-0.603,0 -1.217,0.093 -1.845,0.279Z" style="fill:url(#_Linear2);fill-rule:nonzero;"/><path d="M228.862,601.722c-2.386,0.797 -9.011,2.971 -18.87,2.971c-19.298,0 -27.358,-8.323 -27.358,-19.344c0,-11.03 8.06,-19.353 27.358,-19.353c9.859,0 16.484,2.174 18.87,2.97l-0.741,2.812c-3.393,-1.068 -9.545,-2.868 -18.129,-2.868c-17.179,0 -24.175,7.002 -24.175,16.439c0,9.38 6.996,16.373 24.175,16.373c8.584,0 14.736,-1.744 18.129,-2.803l0.741,2.803Z" style="fill:#f0f0f0;fill-rule:nonzero;"/><path d="M252.817,601.459c11.663,0 17.493,-4.873 17.493,-11.5c0,-6.626 -5.83,-11.452 -17.493,-11.452c-11.663,0 -17.492,4.826 -17.492,11.452c0,6.627 5.829,11.5 17.492,11.5m0,-25.978c13.623,0 20.727,6.203 20.727,14.478c0,8.267 -7.104,14.518 -20.727,14.518c-13.57,0 -20.675,-6.251 -20.675,-14.518c0,-8.275 7.105,-14.478 20.675,-14.478" style="fill:#f0f0f0;fill-rule:nonzero;"/><path d="M306.252,591.656l-9.223,-12.83l-9.277,12.83l-1.856,2.437l22.212,0l-1.856,-2.437Zm-27.034,12.24l-3.659,0l19.667,-27.826l3.552,0l19.718,27.826l-3.655,0l-5.089,-6.833l-25.5,0l-5.034,6.833Z" style="fill:#f0f0f0;fill-rule:nonzero;"/><path d="M343.248,575.481c8.167,0 13.679,1.593 15.642,2.23l-0.745,2.859c-3.023,-0.844 -8.056,-2.063 -14.897,-2.063c-13.94,0 -19.559,4.826 -19.559,11.453c0,6.626 5.619,11.5 19.559,11.5c6.841,0 11.874,-1.219 14.897,-2.071l0.745,2.867c-1.963,0.581 -7.475,2.221 -15.642,2.221c-16.059,0 -22.741,-6.251 -22.741,-14.517c0,-8.275 6.682,-14.479 22.741,-14.479" style="fill:#f0f0f0;fill-rule:nonzero;"/><path d="M396.527,591.066l-29.845,0l0,12.83l-3.13,0l0,-27.826l3.13,0l0,12.082l29.845,0l0,-12.082l3.127,0l0,27.826l-3.127,0l0,-12.83Z" style="fill:#f0f0f0;fill-rule:nonzero;"/><path d="M429.017,579.089l0,21.789l11.977,0c13.945,0 19.508,-4.293 19.508,-10.918c0,-6.626 -5.563,-10.871 -19.508,-10.871l-11.977,0Zm-3.13,-3.018l15.107,0c16.064,0 22.689,5.614 22.689,13.889c0,8.266 -6.625,13.937 -22.689,13.937l-15.107,0l0,-27.826Z" style="fill:#f0f0f0;fill-rule:nonzero;"/><path d="M471.532,575.76c1.06,3.345 0.9,8.696 -0.637,13.252l-1.907,0c0.688,-4.237 0.688,-9.645 -0.478,-13.252l3.022,0Z" style="fill:#f0f0f0;fill-rule:nonzero;"/><path d="M479.002,603.896l0,-27.826l33.397,0l0,2.963l-30.267,0l0,9.118l27.672,0l0,2.868l-27.672,0l0,9.907l31.167,0l0,2.97l-34.297,0Z" style="fill:#f0f0f0;fill-rule:nonzero;"/><path d="M515.314,603.896l18.397,-14.31l-17.39,-13.516l4.349,0l15.107,11.444l15,-11.444l4.402,0l-17.386,13.516l18.34,14.31l-4.347,0l-16.009,-12.192l-16.114,12.192l-4.349,0Z" style="fill:#f0f0f0;fill-rule:nonzero;"/><path d="M580.886,575.481c8.163,0 13.673,1.593 15.641,2.23l-0.748,2.859c-3.02,-0.844 -8.053,-2.063 -14.893,-2.063c-13.946,0 -19.563,4.826 -19.563,11.453c0,6.626 5.617,11.5 19.563,11.5c6.84,0 11.873,-1.219 14.893,-2.071l0.748,2.867c-1.968,0.581 -7.478,2.221 -15.641,2.221c-16.063,0 -22.746,-6.251 -22.746,-14.517c0,-8.275 6.683,-14.479 22.746,-14.479" style="fill:#f0f0f0;fill-rule:nonzero;"/><path d="M601.186,603.896l0,-27.826l33.401,0l0,2.963l-30.271,0l0,9.118l27.675,0l0,2.868l-27.675,0l0,9.907l31.171,0l0,2.97l-34.301,0Z" style="fill:#f0f0f0;fill-rule:nonzero;"/><path d="M663.846,592.874c5.455,0 9.86,-1.856 9.86,-7c0,-5.408 -4.563,-6.945 -10.075,-6.945l-19.933,0l0,13.945l20.148,0Zm-23.278,-16.803l23.119,0c7.049,0 13.252,2.437 13.252,9.803c0,7.367 -6.203,9.86 -13.252,9.86l-19.989,0l0,8.163l-3.13,0l0,-27.826Z" style="fill:#f0f0f0;fill-rule:nonzero;"/><path d="M699.206,579.033l0,24.863l-3.129,0l0,-24.863l-16.223,0l0,-2.963l35.623,0l0,2.963l-16.271,0Z" style="fill:#f0f0f0;fill-rule:nonzero;"/><rect x="719.714" y="576.071" width="3.13" height="27.826" style="fill:#f0f0f0;fill-rule:nonzero;"/><path d="M748.663,601.459c11.659,0 17.489,-4.873 17.489,-11.5c0,-6.626 -5.83,-11.452 -17.489,-11.452c-11.667,0 -17.497,4.826 -17.497,11.452c0,6.627 5.83,11.5 17.497,11.5m0,-25.978c13.618,0 20.723,6.203 20.723,14.478c0,8.267 -7.105,14.518 -20.723,14.518c-13.57,0 -20.675,-6.251 -20.675,-14.518c0,-8.275 7.105,-14.478 20.675,-14.478" style="fill:#f0f0f0;fill-rule:nonzero;"/><path d="M808.138,576.07l3.13,0l0,27.826l-3.13,0l-30.534,-23.748l0,23.748l-3.13,0l0,-27.826l3.13,0l30.59,24.012l-0.056,-6.841l0,-17.171Z" style="fill:#f0f0f0;fill-rule:nonzero;"/></g></g><defs><linearGradient id="_Linear2" x1="0" y1="0" x2="1" y2="0" gradientUnits="userSpaceOnUse" gradientTransform="matrix(750,0,0,750,147,472.218)"><stop offset="0%" style="stop-color:#8c7846;stop-opacity:1"/><stop offset="50%" style="stop-color:#dab871;stop-opacity:1"/><stop offset="100%" style="stop-color:#8c7846;stop-opacity:1"/></linearGradient></defs></svg>