<?xml version="1.0" encoding="UTF-8" standalone="no"?><!DOCTYPE svg PUBLIC "-//W3C//DTD SVG 1.1//EN" "http://www.w3.org/Graphics/SVG/1.1/DTD/svg11.dtd"><svg width="100%" height="100%" viewBox="0 0 1000 1000" version="1.1" xmlns="http://www.w3.org/2000/svg" xmlns:xlink="http://www.w3.org/1999/xlink" xml:space="preserve" style="fill-rule:evenodd;clip-rule:evenodd;stroke-linejoin:round;stroke-miterlimit:1.41421;"><rect id="outlined-logo" x="0" y="0" width="1000" height="1000" style="fill:none;"/><rect x="0" y="0" width="1000" height="1000" style="fill:#fff;"/><g id="Logo"><g><rect x="136.152" y="659.096" width="734.682" height="31.282" style="fill:#323232;fill-rule:nonzero;"/><rect x="753.453" y="503.566" width="117.381" height="31.282" style="fill:#323232;fill-rule:nonzero;"/><rect x="753.453" y="542.536" width="117.381" height="31.282" style="fill:#323232;fill-rule:nonzero;"/><rect x="753.453" y="581.507" width="117.381" height="31.282" style="fill:#323232;fill-rule:nonzero;"/><rect x="753.453" y="620.477" width="117.381" height="31.282" style="fill:#323232;fill-rule:nonzero;"/><rect x="753.453" y="309.621" width="117.381" height="31.282" style="fill:#ff3c00;fill-rule:nonzero;"/><path d="M136.152,348.035l82.402,0l0,31.283l-17.549,0l0,85.835l17.168,0l0,-17.548l37.957,0l0,48.829l-119.978,0l0,-31.281l11.446,0l0,-85.835l-11.446,0l0,-31.283Z" style="fill:#323232;fill-rule:nonzero;"/><path d="M263.758,348.035l76.298,0l0,31.283l-11.446,0l0,85.835l11.446,0l0,31.281l-76.298,0l0,-31.281l11.445,0l0,-85.835l-11.445,0l0,-31.283Z" style="fill:#323232;fill-rule:nonzero;"/><path d="M424.172,465.153c3.687,0 6.454,-0.954 8.298,-2.861c1.841,-1.907 2.766,-5.022 2.766,-9.347l0,-8.392c0,-4.322 -0.925,-7.44 -2.766,-9.347c-1.844,-1.907 -4.611,-2.861 -8.298,-2.861l-11.635,0l0,32.808l11.635,0Zm-1.335,-54.554c3.688,0 6.454,-0.953 8.298,-2.861c1.841,-1.908 2.767,-5.021 2.767,-9.346l0,-6.867c0,-4.322 -0.926,-7.438 -2.767,-9.347c-1.844,-1.907 -4.61,-2.86 -8.298,-2.86l-10.3,0l0,31.281l10.3,0Zm-75.153,-62.564l89.459,0c15.641,0 27.975,3.18 37.005,9.538c9.027,6.36 13.542,15.705 13.542,28.04c0,6.102 -1.144,11.318 -3.433,15.639c-2.288,4.325 -5.088,7.887 -8.392,10.683c-3.309,2.798 -6.772,4.959 -10.397,6.485c-3.622,1.526 -6.77,2.545 -9.44,3.052l0,1.907c2.794,0.256 6.227,0.858 10.3,1.813c4.068,0.954 7.945,2.67 11.635,5.149c3.686,2.481 6.834,5.914 9.442,10.301c2.605,4.386 3.909,10.142 3.909,17.262c0,7.123 -1.463,13.131 -4.387,18.026c-2.926,4.896 -6.867,8.869 -11.824,11.921c-4.961,3.053 -10.716,5.246 -17.264,6.58c-6.551,1.336 -13.447,2.003 -20.696,2.003l-89.459,0l0,-31.281l11.444,0l0,-85.835l-11.444,0l0,-31.283Z" style="fill:#323232;fill-rule:nonzero;"/><path d="M498.946,348.035l76.298,0l0,31.283l-11.446,0l0,85.835l11.446,0l0,31.281l-76.298,0l0,-31.281l11.443,0l0,-85.835l-11.443,0l0,-31.283Z" style="fill:#323232;fill-rule:nonzero;"/><path d="M659.167,465.153c4.322,0 7.566,-1.112 9.729,-3.338c2.161,-2.224 3.243,-5.818 3.243,-10.777l0,-57.606c0,-4.959 -1.145,-8.55 -3.435,-10.777c-2.288,-2.224 -5.467,-3.337 -9.537,-3.337l-11.062,0l0,85.835l11.062,0Zm-75.915,-117.118l79.35,0c9.791,0 18.912,1.24 27.372,3.72c8.454,2.479 15.799,6.646 22.031,12.493c6.228,5.851 11.126,13.514 14.687,22.985c3.558,9.474 5.34,21.144 5.34,35.003c0,13.989 -1.782,25.687 -5.34,35.097c-3.561,9.411 -8.459,17.041 -14.687,22.888c-6.232,5.851 -13.577,10.015 -22.031,12.494c-8.46,2.48 -17.581,3.719 -27.372,3.719l-79.35,0l0,-31.281l11.444,0l0,-85.835l-11.444,0l0,-31.283Z" style="fill:#323232;fill-rule:nonzero;"/><path d="M812.143,465.153c4.322,0 7.564,-1.112 9.728,-3.338c2.161,-2.224 3.244,-5.818 3.244,-10.777l0,-57.606c0,-4.959 -1.083,-8.55 -3.244,-10.777c-2.164,-2.224 -5.406,-3.337 -9.728,-3.337c-4.324,0 -7.567,1.113 -9.728,3.337c-2.163,2.227 -3.242,5.818 -3.242,10.777l0,57.606c0,4.959 1.079,8.553 3.242,10.777c2.161,2.226 5.404,3.338 9.728,3.338m72.865,-42.917c0,13.989 -1.716,25.844 -5.15,35.572c-3.434,9.73 -8.298,17.645 -14.592,23.749c-6.295,6.104 -13.958,10.556 -22.985,13.351c-9.03,2.796 -19.075,4.197 -30.138,4.197c-11.063,0 -21.11,-1.401 -30.138,-4.197c-9.03,-2.795 -16.69,-7.247 -22.983,-13.351c-6.296,-6.104 -11.159,-14.019 -14.592,-23.749c-3.434,-9.728 -5.15,-21.583 -5.15,-35.572c0,-13.859 1.716,-25.686 5.15,-35.48c3.433,-9.791 8.296,-17.739 14.592,-23.843c6.293,-6.104 13.953,-10.553 22.983,-13.352c9.028,-2.795 19.075,-4.197 30.138,-4.197c11.063,0 21.108,1.402 30.138,4.197c9.027,2.799 16.69,7.248 22.985,13.352c6.294,6.104 11.158,14.052 14.592,23.843c3.434,9.794 5.15,21.621 5.15,35.48" style="fill:#ff3c00;fill-rule:nonzero;"/><path d="M212.45,575.857l67.523,0l0,28.421l-9.537,0l0,38.149c-2.926,1.402 -6.327,2.832 -10.205,4.292c-3.881,1.464 -8.33,2.767 -13.352,3.91c-5.024,1.145 -10.652,2.099 -16.881,2.862c-6.231,0.763 -13.161,1.145 -20.791,1.145c-11.444,0 -21.744,-1.402 -30.9,-4.197c-9.156,-2.796 -16.947,-7.248 -23.367,-13.352c-6.423,-6.104 -11.349,-14.019 -14.782,-23.748c-3.433,-9.728 -5.15,-21.584 -5.15,-35.573c0,-13.859 1.717,-25.686 5.15,-35.48c3.433,-9.791 8.327,-17.739 14.687,-23.843c6.356,-6.104 14.115,-10.553 23.27,-13.351c9.156,-2.796 19.391,-4.197 30.711,-4.197c7.755,0 14.783,0.381 21.076,1.145c6.296,0.762 11.953,1.749 16.977,2.956c5.022,1.21 9.471,2.546 13.352,4.006c3.878,1.463 7.279,2.893 10.205,4.291l0,45.589l-47.687,0l0,-8.966c0,-5.466 -1.114,-9.346 -3.337,-11.635c-2.227,-2.289 -5.756,-3.433 -10.586,-3.433c-4.835,0 -8.364,1.144 -10.588,3.433c-2.225,2.289 -3.337,6.169 -3.337,11.635l0,55.698c0,5.469 1.112,9.347 3.337,11.635c2.224,2.29 5.753,3.435 10.588,3.435c4.83,0 8.359,-1.145 10.586,-3.435c2.223,-2.288 3.337,-6.166 3.337,-11.635l0,-1.336l-10.299,0l0,-28.421Z" style="fill:#323232;fill-rule:nonzero;"/><path d="M421.696,598.748c0,10.299 -1.43,18.978 -4.293,26.037c-2.86,7.057 -6.961,12.812 -12.302,17.262c-5.341,4.453 -11.796,7.663 -19.361,9.633c-7.566,1.969 -15.991,2.956 -25.274,2.956c-9.537,0 -18.153,-0.987 -25.846,-2.956c-7.695,-1.97 -14.243,-5.18 -19.646,-9.633c-5.406,-4.45 -9.602,-10.205 -12.589,-17.262c-2.989,-7.059 -4.482,-15.738 -4.482,-26.037l0,-63.9l-11.445,0l0,-31.282l72.482,0l0,31.282l-7.63,0l0,73.628c0,4.324 0.922,7.439 2.766,9.346c1.842,1.907 4.608,2.862 8.299,2.862c3.685,0 6.451,-0.955 8.296,-2.862c1.843,-1.907 2.766,-5.022 2.766,-9.346l0,-73.628l-7.629,0l0,-31.282l67.333,0l0,31.282l-11.445,0l0,63.9Z" style="fill:#323232;fill-rule:nonzero;"/><path d="M514.017,566.13c3.685,0 6.451,-0.953 8.296,-2.862c1.843,-1.907 2.766,-5.021 2.766,-9.345l0,-6.868c0,-4.321 -0.923,-7.438 -2.766,-9.346c-1.845,-1.908 -4.611,-2.86 -8.296,-2.86l-10.301,0l0,31.281l10.301,0Zm-10.301,54.554l12.589,0l0,31.281l-77.443,0l0,-31.281l11.446,0l0,-85.835l-11.446,0l0,-31.283l89.461,0c7.754,0 14.781,0.762 21.076,2.288c6.295,1.526 11.602,3.976 15.926,7.344c4.322,3.371 7.661,7.792 10.016,13.257c2.35,5.469 3.528,12.145 3.528,20.029c0,8.392 -1.687,15.705 -5.055,21.935c-3.37,6.232 -8.297,10.62 -14.782,13.161l0.191,1.908c12.206,1.907 18.311,9.412 18.311,22.507l0,14.689l8.965,0l0,31.281l-60.466,0l0,-44.825c0,-3.814 -0.414,-6.896 -1.241,-9.25c-0.828,-2.352 -2.164,-4.131 -4.005,-5.342c-1.844,-1.207 -4.165,-2.032 -6.962,-2.479c-2.799,-0.444 -6.17,-0.668 -10.109,-0.668l0,31.283Z" style="fill:#323232;fill-rule:nonzero;"/><path d="M721.013,598.748c0,10.299 -1.43,18.978 -4.291,26.037c-2.862,7.057 -6.963,12.812 -12.303,17.262c-5.34,4.453 -11.797,7.663 -19.361,9.633c-7.567,1.969 -15.992,2.956 -25.275,2.956c-9.537,0 -18.151,-0.987 -25.845,-2.956c-7.696,-1.97 -14.244,-5.18 -19.646,-9.633c-5.407,-4.45 -9.603,-10.205 -12.589,-17.262c-2.989,-7.059 -4.482,-15.738 -4.482,-26.037l0,-63.9l-11.446,0l0,-31.282l72.484,0l0,31.282l-7.63,0l0,73.628c0,4.324 0.921,7.439 2.765,9.346c1.841,1.907 4.608,2.862 8.298,2.862c3.687,0 6.452,-0.955 8.296,-2.862c1.843,-1.907 2.767,-5.022 2.767,-9.346l0,-73.628l-7.63,0l0,-31.282l67.334,0l0,31.282l-11.446,0l0,63.9Z" style="fill:#323232;fill-rule:nonzero;"/></g></g></svg>