<?xml version="1.0" encoding="UTF-8" standalone="no"?><!DOCTYPE svg PUBLIC "-//W3C//DTD SVG 1.1//EN" "http://www.w3.org/Graphics/SVG/1.1/DTD/svg11.dtd"><svg width="100%" height="100%" viewBox="0 0 1000 1000" version="1.1" xmlns="http://www.w3.org/2000/svg" xmlns:xlink="http://www.w3.org/1999/xlink" xml:space="preserve" style="fill-rule:evenodd;clip-rule:evenodd;stroke-linejoin:round;stroke-miterlimit:1.41421;"><rect id="outlined" x="0" y="0" width="1000" height="1000" style="fill:none;"/><g id="Layer-1"><rect x="0" y="0" width="1000" height="1000" style="fill:#fff;"/><g><path d="M188.265,420.709c14.761,0 24.538,-9.585 24.538,-25.499c0,-10.544 -4.216,-17.828 -12.651,-21.279c-4.41,-1.726 -10.162,-2.493 -16.679,-2.493l-22.431,0l0,49.271l27.223,0Zm-63.265,55.403l16.869,0l0,-105.632l-16.869,0l0,-14.762l58.663,0c9.587,0 17.448,0.384 24.924,2.876c14.186,4.792 23.579,16.679 23.579,35.082c0,19.555 -10.735,33.552 -27.989,37.959l0,0.384c0,0 3.449,1.917 5.752,6.327l19.171,33.358c2.11,3.643 4.6,4.408 9.393,4.408l4.027,0l0,14.953l-11.504,0c-11.502,0 -14.185,-2.109 -18.786,-10.16l-20.897,-37.001c-3.452,-5.75 -5.942,-7.475 -14.187,-7.475l-16.104,0l0,39.683l16.679,0l0,14.953l-52.721,0l0,-14.953Z" style="fill:#916600;fill-rule:nonzero;"/><path d="M304.433,355.718l21.281,0l-23.773,24.348l-17.446,0l19.938,-24.348Zm14.379,76.686c-0.573,-17.065 -10.927,-25.883 -23.198,-25.883c-14.185,0 -25.689,9.587 -28.371,25.883l51.569,0Zm-22.813,-40.644c27.608,0 41.984,20.32 41.984,45.435c0,2.493 -0.575,7.094 -0.575,7.094l-70.934,0c1.15,21.473 16.297,32.975 33.55,32.975c16.872,0 28.948,-10.929 28.948,-10.929l7.669,13.611c0,0 -14.57,13.42 -37.768,13.42c-30.48,0 -51.377,-22.046 -51.377,-50.802c0,-30.866 20.897,-50.804 48.503,-50.804" style="fill:#916600;fill-rule:nonzero;"/><path d="M419.259,440.454c0,-25.305 -12.269,-32.591 -27.414,-32.591c-16.679,0 -26.266,12.269 -26.266,32.016c0,20.13 10.545,33.933 27.991,33.933c13.42,0 25.689,-8.051 25.689,-33.358m-31.057,75.151c16.872,0 30.673,-7.67 30.673,-27.608l0,-7.666c0,-3.067 0.576,-6.135 0.576,-6.135l-0.384,0c-5.75,9.584 -14.951,15.72 -29.14,15.72c-26.839,0 -43.326,-21.664 -43.326,-49.653c0,-27.798 15.529,-48.504 42.559,-48.504c12.655,0 26.074,4.794 31.441,15.912l0.383,0c0,0 -0.383,-1.342 -0.383,-3.832c0,-6.136 3.068,-9.779 11.119,-9.779l20.705,0l0,14.378l-10.735,0c-2.493,0 -4.216,1.343 -4.216,3.835l0,74.767c0,32.016 -24.349,44.285 -48.889,44.285c-11.694,0 -23.579,-3.26 -33.166,-8.051l6.135,-14.188c0,0 12.078,6.519 26.648,6.519" style="fill:#916600;fill-rule:nonzero;"/><path d="M474.655,355.718l19.555,0l0,18.979l-19.555,0l0,-18.979Zm-14.762,120.971l15.145,0l0,-68.25l-16.103,0l0,-14.378l34.698,0l0,82.628l15.339,0l0,14.376l-49.079,0l0,-14.376Z" style="fill:#916600;fill-rule:nonzero;"/><path d="M566.481,477.263c18.215,0 33.358,-14.57 33.358,-34.892c0,-20.128 -15.143,-34.508 -33.358,-34.508c-18.402,0 -33.358,14.38 -33.358,34.508c0,20.322 14.956,34.892 33.358,34.892m0,-85.504c28.948,0 52.338,21.281 52.338,50.612c0,29.526 -23.39,50.996 -52.338,50.996c-28.948,0 -52.338,-21.47 -52.338,-50.996c0,-29.331 23.39,-50.612 52.338,-50.612" style="fill:#916600;fill-rule:nonzero;"/><path d="M627.242,476.688l15.146,0l0,-64.032c0,-2.876 -1.534,-4.218 -4.217,-4.218l-11.887,0l0,-14.378l21.856,0c8.436,0 12.269,3.643 12.269,10.735l0,4.985c0,3.068 -0.575,5.561 -0.575,5.561l0.383,0c1.919,-5.177 13.23,-23.582 37.768,-23.582c22.239,0 32.208,12.461 32.208,37.193l0,47.736l15.336,0l0,14.378l-33.933,0l0,-57.896c0,-13.611 -2.684,-24.346 -18.211,-24.346c-19.557,0 -32.399,17.827 -32.399,37.19l0,30.674l15.335,0l0,14.378l-49.079,0l0,-14.378Z" style="fill:#916600;fill-rule:nonzero;"/><path d="M750.121,459.818l16.294,0l0,6.325c0,8.244 11.504,12.079 22.239,12.079c10.929,0 19.555,-4.41 19.555,-12.461c0,-9.778 -10.735,-12.844 -24.157,-17.637c-14.378,-5.369 -30.288,-11.886 -30.288,-29.524c0,-19.171 18.978,-26.841 35.849,-26.841c13.611,0 33.55,5.369 33.55,19.555l0,11.694l-16.294,0l0,-6.325c0,-5.944 -7.669,-9.97 -17.064,-9.97c-9.202,0 -17.253,3.835 -17.253,11.696c0,9.201 10.736,13.036 22.429,17.06c14.956,4.985 32.016,11.313 32.016,29.334c0,18.404 -16.87,28.562 -38.916,28.562c-17.638,0 -37.96,-7.859 -37.96,-23.194l0,-10.353Z" style="fill:#916600;fill-rule:nonzero;"/><path d="M482.01,557.582c0,-15.887 -4.918,-27.612 -19.671,-27.612c-19.418,0 -23.83,19.542 -23.83,27.612l43.501,0Zm3.278,28.624c-7.062,6.936 -14.5,9.079 -22.57,9.079c-17.022,0 -28.499,-10.341 -28.499,-34.298c0,-20.931 10.971,-34.675 28.12,-34.675c15.887,0 23.832,10.592 23.832,32.909l0,2.017l-47.789,0c0,18.537 7.691,30.389 24.46,30.389c7.946,0 13.997,-2.269 20.051,-8.07l2.395,2.649Z" style="fill:#35b558;fill-rule:nonzero;"/><path d="M502.053,527.825l0,11.472c5.927,-7.437 13.367,-12.985 22.319,-12.985c16.519,0 20.175,11.599 20.175,26.101l0,41.359l-4.035,0l0,-42.241c0,-14.25 -4.538,-21.561 -16.266,-21.561c-10.718,0 -18.535,9.58 -22.193,14.245l0,49.557l-3.906,0l0,-65.947l3.906,0Z" style="fill:#35b558;fill-rule:nonzero;"/><path d="M573.037,582.802c6.304,5.672 13.367,8.953 21.186,8.953c10.718,0 19.163,-5.55 19.163,-14.627c0,-7.693 -4.539,-12.105 -19.163,-15.889c-15.765,-4.035 -20.683,-8.7 -20.683,-17.903c0,-10.594 8.449,-17.024 21.186,-17.024c9.079,0 16.013,2.899 21.812,9.582l-2.773,2.524c-5.421,-6.308 -12.484,-8.577 -19.039,-8.577c-10.467,0 -17.022,4.793 -17.022,13.24c0,8.828 6.178,11.601 18.659,14.88c15.512,4.035 21.186,9.332 21.186,18.788c0,11.097 -9.456,18.535 -23.202,18.535c-9.96,0 -18.788,-4.412 -23.959,-9.583l2.649,-2.899Z" style="fill:#35b558;fill-rule:nonzero;"/><path d="M667.603,560.987c-3.152,-0.379 -5.927,-0.756 -11.098,-0.756c-20.299,0 -27.235,6.683 -27.235,17.275c0,8.321 5.927,14.374 15.76,14.374c13.116,0 22.573,-14.877 22.573,-26.478l0,-4.415Zm3.908,32.785l-3.782,0l0,-16.015c-5.044,11.98 -12.735,17.526 -23.453,17.526c-11.601,0 -19.167,-6.934 -19.167,-18.535c0,-8.194 4.665,-19.922 31.019,-19.922c4.161,0 7.313,0.253 11.475,0.757l0,-8.7c0,-12.484 -6.557,-18.915 -18.158,-18.915c-7.061,0 -13.365,3.026 -18.536,8.953l-2.395,-2.647c5.168,-6.055 12.484,-9.961 20.931,-9.961c12.608,0 22.066,6.43 22.066,21.813l0,45.646Z" style="fill:#35b558;fill-rule:nonzero;"/><path d="M690.547,527.825l0,11.472c5.927,-7.437 13.367,-12.985 22.32,-12.985c16.519,0 20.174,11.599 20.174,26.101l0,41.359l-4.035,0l0,-42.241c0,-14.25 -4.538,-21.561 -16.266,-21.561c-10.718,0 -18.537,9.58 -22.193,14.245l0,49.557l-3.906,0l0,-65.947l3.906,0Z" style="fill:#35b558;fill-rule:nonzero;"/><path d="M753.461,531.356l0,53.589c0,5.295 2.648,6.681 5.674,6.681c2.524,0 5.548,-0.628 7.817,-1.637l1.011,3.152c-2.145,1.134 -6.18,2.143 -9.711,2.143c-4.791,0 -8.698,-2.143 -8.698,-8.953l0,-54.975l-7.819,0l0,-2.522l7.819,-1.01l1.008,-16.769l2.899,0l0,16.769l10.718,0l0,3.532l-10.718,0Z" style="fill:#35b558;fill-rule:nonzero;"/><path d="M805.788,501.22l3.028,3.278l-17.528,15.004l-2.143,-2.395l16.643,-15.887Zm12.484,56.362c0,-15.887 -4.918,-27.612 -19.671,-27.612c-19.418,0 -23.832,19.542 -23.832,27.612l43.503,0Zm3.276,28.624c-7.058,6.936 -14.498,9.079 -22.568,9.079c-17.024,0 -28.499,-10.341 -28.499,-34.298c0,-20.931 10.971,-34.675 28.12,-34.675c15.889,0 23.83,10.592 23.83,32.909l0,2.017l-47.786,0c0,18.537 7.69,30.389 24.46,30.389c7.945,0 13.999,-2.269 20.05,-8.07l2.393,2.649Z" style="fill:#35b558;fill-rule:nonzero;"/><path d="M266.8,564.069c0,0 8.847,3.161 24.332,8.692c3.874,1.373 8.162,2.895 12.831,4.551c4.707,1.548 9.796,3.224 15.234,5.012c5.436,1.791 11.222,3.696 17.321,5.704c6.147,1.858 12.609,3.816 19.351,5.855c6.761,1.975 13.734,4.282 21.087,6.191c7.326,2.001 14.901,4.07 22.686,6.196c7.781,2.143 15.876,3.957 24.094,6.024c4.117,1.001 8.278,2.013 12.479,3.034c4.225,0.917 8.491,1.844 12.792,2.78c8.605,1.86 17.332,3.847 26.255,5.431c4.45,0.841 8.928,1.69 13.428,2.541c2.25,0.42 4.507,0.839 6.768,1.26c2.271,0.367 4.549,0.736 6.829,1.102c18.227,3.058 36.821,5.71 55.479,7.754c9.334,0.98 18.659,2.052 27.987,2.67c4.661,0.362 9.311,0.722 13.946,1.085c4.644,0.236 9.275,0.47 13.888,0.704c18.444,1.005 36.63,1.066 54.211,0.857c4.393,-0.147 8.748,-0.291 13.063,-0.434c2.158,-0.074 4.305,-0.145 6.441,-0.219c2.134,-0.129 4.256,-0.259 6.367,-0.388c4.223,-0.257 8.399,-0.512 12.524,-0.765c4.117,-0.364 8.184,-0.724 12.196,-1.081c4.016,-0.316 7.964,-0.748 11.847,-1.224c3.886,-0.465 7.718,-0.864 11.473,-1.365c7.497,-1.091 14.755,-2.05 21.664,-3.321c6.938,-1.108 13.523,-2.515 19.802,-3.746c6.239,-1.42 12.18,-2.672 17.69,-4.142c11.064,-2.765 20.579,-5.647 28.312,-8.283c7.741,-2.615 13.721,-4.943 17.718,-6.664c2.001,-0.852 3.522,-1.536 4.525,-2.01c0.984,-0.474 1.492,-0.719 1.492,-0.719l0.097,-0.046c1.001,-0.481 2.202,-0.059 2.684,0.942c0.481,1 0.059,2.201 -0.941,2.684l-0.011,0.004c0,0 -0.552,0.261 -1.622,0.769c-1.058,0.491 -2.619,1.182 -4.678,2.04c-4.102,1.736 -10.187,4.056 -18.042,6.652c-7.845,2.616 -17.473,5.461 -28.647,8.175c-5.567,1.443 -11.561,2.667 -17.855,4.054c-6.333,1.198 -12.97,2.57 -19.959,3.638c-6.962,1.233 -14.269,2.147 -21.814,3.192c-3.778,0.481 -7.634,0.856 -11.542,1.298c-3.906,0.451 -7.876,0.86 -11.913,1.151c-4.033,0.331 -8.123,0.666 -12.261,1.003c-4.144,0.225 -8.341,0.455 -12.583,0.685c-2.119,0.115 -4.252,0.231 -6.394,0.347c-2.147,0.057 -4.303,0.116 -6.469,0.175c-4.334,0.114 -8.708,0.23 -13.118,0.348c-17.646,0.092 -35.889,-0.093 -54.38,-1.222c-4.622,-0.266 -9.264,-0.533 -13.918,-0.801c-4.646,-0.392 -9.307,-0.786 -13.974,-1.182c-9.349,-0.681 -18.687,-1.816 -28.034,-2.863c-18.685,-2.173 -37.291,-4.954 -55.528,-8.138c-2.281,-0.383 -4.557,-0.767 -6.83,-1.148c-2.261,-0.438 -4.52,-0.874 -6.77,-1.308c-4.501,-0.885 -8.978,-1.764 -13.43,-2.636c-8.921,-1.646 -17.646,-3.694 -26.247,-5.613c-4.3,-0.965 -8.565,-1.922 -12.787,-2.868c-4.2,-1.051 -8.359,-2.09 -12.472,-3.12c-8.211,-2.124 -16.3,-3.993 -24.072,-6.191c-7.777,-2.178 -15.341,-4.3 -22.659,-6.35c-7.345,-1.962 -14.304,-4.315 -21.057,-6.336c-6.732,-2.088 -13.182,-4.088 -19.317,-5.988c-6.089,-2.05 -11.865,-3.995 -17.292,-5.822c-5.428,-1.827 -10.506,-3.535 -15.202,-5.116c-4.659,-1.687 -8.938,-3.236 -12.802,-4.637c-15.447,-5.634 -24.273,-8.854 -24.273,-8.854" style="fill:#35b558;fill-rule:nonzero;"/><path d="M848.376,581.853c0,0 0.234,0.04 0.674,0.116c0.441,0.085 1.098,0.196 1.901,0.434c0.821,0.201 1.78,0.538 2.891,0.93c1.074,0.459 2.345,0.908 3.609,1.624c0.642,0.346 1.312,0.706 2.008,1.077c0.668,0.417 1.329,0.893 2.031,1.361c1.428,0.897 2.735,2.132 4.128,3.352c1.213,1.395 2.699,2.674 3.714,4.372c0.542,0.822 1.146,1.614 1.642,2.478l1.342,2.684c0.21,0.455 0.436,0.904 0.623,1.368l0.437,1.435c0.286,0.954 0.571,1.904 0.853,2.848c0.43,1.911 0.52,3.856 0.771,5.689c-0.011,1.852 -0.139,3.637 -0.232,5.312c-0.139,1.671 -0.604,3.203 -0.889,4.623c-0.16,0.705 -0.314,1.38 -0.461,2.022c-0.165,0.637 -0.445,1.208 -0.641,1.76c-0.417,1.095 -0.817,2.035 -1.138,2.806c-0.653,1.538 -1.057,2.392 -1.057,2.392c0,0 0.084,-0.965 0.286,-2.611c0.114,-0.813 0.251,-1.801 0.407,-2.933c0.229,-1.112 0.267,-2.398 0.32,-3.782c0.021,-1.386 0.215,-2.87 0.175,-4.429c-0.118,-1.561 -0.228,-3.194 -0.301,-4.871c-0.34,-1.646 -0.632,-3.348 -1.012,-5.044c-0.271,-0.826 -0.545,-1.659 -0.821,-2.495l-0.407,-1.256c-0.175,-0.402 -0.394,-0.788 -0.582,-1.186l-1.116,-2.394c-0.417,-0.771 -0.942,-1.481 -1.399,-2.22c-0.871,-1.515 -2.055,-2.786 -3.068,-4.124c-0.584,-0.607 -1.159,-1.203 -1.722,-1.787c-0.541,-0.611 -1.11,-1.171 -1.715,-1.666c-0.585,-0.518 -1.156,-1.022 -1.708,-1.509c-0.584,-0.457 -1.149,-0.899 -1.69,-1.323c-1.081,-0.862 -2.16,-1.536 -3.081,-2.206c-0.967,-0.582 -1.784,-1.171 -2.505,-1.563c-1.407,-0.858 -2.267,-1.284 -2.267,-1.284" style="fill:#35b558;fill-rule:nonzero;"/></g></g></svg>