<?xml version="1.0" encoding="UTF-8" standalone="no"?><!DOCTYPE svg PUBLIC "-//W3C//DTD SVG 1.1//EN" "http://www.w3.org/Graphics/SVG/1.1/DTD/svg11.dtd"><svg width="100%" height="100%" viewBox="0 0 1000 1000" version="1.1" xmlns="http://www.w3.org/2000/svg" xmlns:xlink="http://www.w3.org/1999/xlink" xml:space="preserve" style="fill-rule:evenodd;clip-rule:evenodd;stroke-linejoin:round;stroke-miterlimit:1.41421;"><rect id="outlined" x="0" y="0" width="1000" height="1000" style="fill:none;"/><g><rect x="0" y="0" width="1000" height="1000" style="fill:#fff;"/><g><g><path d="M303.238,345.735l-79.695,0l48.347,144.991l79.695,0l-48.347,-144.991Z" style="fill:#00a0ff;fill-rule:nonzero;"/><path d="M257.291,490.726l-14.599,0l-48.347,-144.991l14.599,0l48.347,144.991Z" style="fill:#33b3ff;fill-rule:nonzero;"/><path d="M179.746,345.735l-14.599,0l39.548,118.642l14.599,0l-39.548,-118.642Z" style="fill:#66c6ff;fill-rule:nonzero;"/><path d="M150.548,345.735l-14.599,0l30.748,92.294l14.599,0l-30.748,-92.294Z" style="fill:#99d9ff;fill-rule:nonzero;"/></g><g><path d="M372.484,464.377l16.198,0l0,-90.244l-17.198,0l0,20.499l-30.448,0l0,-48.897l131.641,0l0,48.897l-30.448,0l0,-20.499l-17.199,0l0,90.244l16.199,0l0,26.349l-68.745,0l0,-26.349Z" style="fill:#002364;fill-rule:nonzero;"/><path d="M462.128,464.377l11.949,0l39.547,-118.642l41.347,0l39.548,118.642l11.949,0l0,26.349l-60.596,0l0,-26.349l12.599,0l-5.5,-19.248l-37.297,0l-5.5,19.248l12.599,0l0,26.349l-60.645,0l0,-26.349Zm82.944,-46.847l-7.5,-26.748c-1.41,-4.969 -2.364,-10.056 -2.849,-15.199l-0.8,0c-0.486,5.143 -1.44,10.23 -2.85,15.199l-7.7,26.748l21.699,0Z" style="fill:#002364;fill-rule:nonzero;"/><path d="M649.115,439.229l0,10.749c0,7.5 9.549,11.75 20.899,11.75c11.349,0 19.448,-4.05 19.448,-11.75c0,-11.149 -15.999,-14.599 -31.248,-20.698c-19.648,-7.5 -38.147,-17.049 -38.147,-43.597c0,-32.248 26.348,-42.398 52.097,-42.398c24.748,0 49.296,9.35 49.296,27.799l0,21.498l-32.448,0l0,-9.099c0,-5.7 -7.699,-8.7 -16.848,-8.7c-8.3,0 -15.599,2.45 -15.599,9.95c0,9.949 11.949,14.199 25.148,18.848c22.098,7.7 44.197,16.849 44.197,44.197c0,33.048 -28.398,45.447 -55.946,45.447c-27.548,0 -53.347,-11.949 -53.347,-35.297l0,-18.699l32.498,0Z" style="fill:#002364;fill-rule:nonzero;"/><path d="M735.709,464.377l16.199,0l0,-92.243l-16.199,0l0,-26.399l63.046,0l0,26.349l-10.549,0l0,30.597l12.149,0l21.299,-30.597l-10.95,0l0,-26.349l59.646,0l0,26.349l-12.149,0l-30.848,41.597l0,0.4c0,0 6.1,2.85 11.149,12.999l16.449,32.648c1.6,3.249 4.25,4.649 8.9,4.649l6.299,0l0,26.349l-24.748,0c-12.149,0 -16.849,-3.45 -20.499,-10.75l-21.698,-44.197c-1.85,-3.649 -4.65,-4.649 -10.15,-4.649l-4.849,0l0,33.247l15.199,0l0,26.349l-67.696,0l0,-26.349Z" style="fill:#002364;fill-rule:nonzero;"/><path d="M125,642.416l14.599,0l48.047,-130.792l15.599,0l48.047,130.792l14.599,0l0,11.749l-45.597,0l0,-11.749l16.449,0l-13.6,-36.698l-55.546,0l-13.399,36.698l16.449,0l0,11.749l-45.647,0l0,-11.749Zm94.294,-48.647l-21.299,-58.396c-1.018,-2.978 -1.771,-6.04 -2.25,-9.15l-0.6,0c-0.35,3.115 -1.037,6.183 -2.05,9.15l-21.698,58.396l47.897,0Z" style="fill:#00a0ff;fill-rule:nonzero;"/><path d="M275.09,642.416l18.649,0l0,-118.993l-18.649,0l0,-11.749l32.448,0l79.895,112.543c2.049,3.25 4.249,8.699 4.249,8.699l0.4,0c0,0 -0.8,-6.099 -0.6,-9.949l0,-99.544l-18.849,0l0,-11.749l51.697,0l0,11.749l-18.649,0l0,130.792l-13.799,0l-79.894,-112.543c-2.05,-3.25 -4.25,-8.699 -4.25,-8.699l-0.4,0c0,0 0.8,6.099 0.6,9.749l0,99.793l18.849,0l0,11.75l-51.697,0l0,-11.75l0,-0.099Z" style="fill:#00a0ff;fill-rule:nonzero;"/><path d="M493.875,509.224c24.549,0 53.747,10.15 53.747,27.999l0,15.598l-13.599,0l0,-10.749c0,-13.399 -21.899,-20.098 -39.948,-20.098c-36.297,0 -59.396,25.548 -59.396,60.645c0,35.098 23.749,61.246 59.196,61.246c14.199,0 43.598,-4.449 43.598,-20.698l0,-22.299l-29.799,0l0,-11.749l43.198,0l0,37.298c0,22.098 -35.698,30.198 -57.197,30.198c-43.797,0 -73.795,-31.848 -73.795,-73.796c0,-41.947 29.598,-73.595 73.995,-73.595Z" style="fill:#00a0ff;fill-rule:nonzero;"/><path d="M673.763,642.416l18.649,0l0,-118.593l-18.649,0l0,-12.149l51.497,0l0,12.149l-18.649,0l0,118.243l56.996,0l0,-23.749l13,0l0,35.898l-102.844,0l0,-11.749l0,-0.05Z" style="fill:#00a0ff;fill-rule:nonzero;"/></g><path d="M833.803,574.72c-17.249,-6.7 -32.648,-12.149 -32.648,-29.398c0,-15.199 12.549,-23.098 28.798,-23.098c12.799,0 27.598,4.849 27.598,13.999l0,10.549l13.599,0l0,-15.199c0,-14.399 -20.898,-22.299 -41.147,-22.299c-23.298,0 -43.397,12.15 -43.397,37.098c0,24.948 19.449,32.448 38.147,39.547c18.699,7.1 35.698,13.399 35.698,32.048c0,16.649 -13.399,25.748 -31.848,25.748c-16.449,0 -31.248,-6.899 -31.248,-18.848l0,-6.5l-13.599,0l0,9.749c0,19.449 24.348,28.599 44.797,28.599c26.348,0 46.447,-14.999 46.447,-40.148c-0.05,-26.248 -20.549,-34.147 -41.197,-41.847Z" style="fill:#00a0ff;fill-rule:nonzero;"/><path d="M650.665,618.317l0,23.699l-58.846,0l0,-53.497l53.946,0l0,-12.199l-53.946,0l0,-52.497l54.996,0l0,17.399l12.949,0l0,-29.598l-100.793,0l0,11.799l18.699,0l0,118.993l-18.699,0l0,11.799l104.443,0l0,-35.898l-12.749,0Z" style="fill:#00a0ff;fill-rule:nonzero;"/></g></g></svg>